<?xml version="1.0" encoding="UTF-8" standalone="no"?>
<!DOCTYPE svg PUBLIC "-//W3C//DTD SVG 1.1//EN"
 "http://www.w3.org/Graphics/SVG/1.1/DTD/svg11.dtd">
<!-- Generated by graphviz version 2.38.0 (20140413.2041)
 -->
<!-- Title: Tree Pages: 1 -->
<svg width="260pt" height="165pt"
 viewBox="0.00 0.00 260.00 165.00" xmlns="http://www.w3.org/2000/svg" xmlns:xlink="http://www.w3.org/1999/xlink">
<g id="graph0" class="graph" transform="scale(1 1) rotate(0) translate(4 161)">
<title>Tree</title>
<polygon fill="white" stroke="none" points="-4,4 -4,-161 256,-161 256,4 -4,4"/>
<!-- 0 -->
<g id="node1" class="node"><title>0</title>
<path fill="#399de5" fill-opacity="0.274510" stroke="black" d="M176,-157C176,-157 75,-157 75,-157 69,-157 63,-151 63,-145 63,-145 63,-101 63,-101 63,-95 69,-89 75,-89 75,-89 176,-89 176,-89 182,-89 188,-95 188,-101 188,-101 188,-145 188,-145 188,-151 182,-157 176,-157"/>
<text text-anchor="start" x="94" y="-141.8" font-family="Helvetica,sans-Serif" font-size="14.00">A9_t ≤ 0.5</text>
<text text-anchor="start" x="78" y="-126.8" font-family="Helvetica,sans-Serif" font-size="14.00">entropy = 0.981</text>
<text text-anchor="start" x="80.5" y="-111.8" font-family="Helvetica,sans-Serif" font-size="14.00">samples = 343</text>
<text text-anchor="start" x="71" y="-96.8" font-family="Helvetica,sans-Serif" font-size="14.00">value = [144, 199]</text>
</g>
<!-- 1 -->
<g id="node2" class="node"><title>1</title>
<path fill="#399de5" fill-opacity="0.937255" stroke="black" d="M105,-53C105,-53 12,-53 12,-53 6,-53 -7.10543e-15,-47 -7.10543e-15,-41 -7.10543e-15,-41 -7.10543e-15,-12 -7.10543e-15,-12 -7.10543e-15,-6 6,-0 12,-0 12,-0 105,-0 105,-0 111,-0 117,-6 117,-12 117,-12 117,-41 117,-41 117,-47 111,-53 105,-53"/>
<text text-anchor="start" x="11" y="-37.8" font-family="Helvetica,sans-Serif" font-size="14.00">entropy = 0.324</text>
<text text-anchor="start" x="13.5" y="-22.8" font-family="Helvetica,sans-Serif" font-size="14.00">samples = 169</text>
<text text-anchor="start" x="8" y="-7.8" font-family="Helvetica,sans-Serif" font-size="14.00">value = [10, 159]</text>
</g>
<!-- 0&#45;&gt;1 -->
<g id="edge1" class="edge"><title>0&#45;&gt;1</title>
<path fill="none" stroke="black" d="M102.067,-88.9485C95.7753,-80.0749 88.9618,-70.4648 82.6333,-61.5388"/>
<polygon fill="black" stroke="black" points="85.3862,-59.3701 76.7472,-53.2367 79.6758,-63.4188 85.3862,-59.3701"/>
<text text-anchor="middle" x="72.5506" y="-74.182" font-family="Helvetica,sans-Serif" font-size="14.00">True</text>
</g>
<!-- 28 -->
<g id="node3" class="node"><title>28</title>
<path fill="#e58139" fill-opacity="0.701961" stroke="black" d="M240,-53C240,-53 147,-53 147,-53 141,-53 135,-47 135,-41 135,-41 135,-12 135,-12 135,-6 141,-0 147,-0 147,-0 240,-0 240,-0 246,-0 252,-6 252,-12 252,-12 252,-41 252,-41 252,-47 246,-53 240,-53"/>
<text text-anchor="start" x="146" y="-37.8" font-family="Helvetica,sans-Serif" font-size="14.00">entropy = 0.778</text>
<text text-anchor="start" x="148.5" y="-22.8" font-family="Helvetica,sans-Serif" font-size="14.00">samples = 174</text>
<text text-anchor="start" x="143" y="-7.8" font-family="Helvetica,sans-Serif" font-size="14.00">value = [134, 40]</text>
</g>
<!-- 0&#45;&gt;28 -->
<g id="edge2" class="edge"><title>0&#45;&gt;28</title>
<path fill="none" stroke="black" d="M149.283,-88.9485C155.668,-80.0749 162.584,-70.4648 169.007,-61.5388"/>
<polygon fill="black" stroke="black" points="171.981,-63.398 174.98,-53.2367 166.299,-59.3094 171.981,-63.398"/>
<text text-anchor="middle" x="179.004" y="-74.2108" font-family="Helvetica,sans-Serif" font-size="14.00">False</text>
</g>
</g>
</svg>
