<?xml version="1.0" encoding="UTF-8" standalone="no"?>
<!DOCTYPE svg PUBLIC "-//W3C//DTD SVG 1.1//EN"
 "http://www.w3.org/Graphics/SVG/1.1/DTD/svg11.dtd">
<!-- Generated by graphviz version 2.38.0 (20140413.2041)
 -->
<!-- Title: Tree Pages: 1 -->
<svg width="1790pt" height="1101pt"
 viewBox="0.00 0.00 1790.00 1101.00" xmlns="http://www.w3.org/2000/svg" xmlns:xlink="http://www.w3.org/1999/xlink">
<g id="graph0" class="graph" transform="scale(1 1) rotate(0) translate(4 1097)">
<title>Tree</title>
<polygon fill="white" stroke="none" points="-4,4 -4,-1097 1786,-1097 1786,4 -4,4"/>
<!-- 0 -->
<g id="node1" class="node"><title>0</title>
<path fill="#399de5" fill-opacity="0.274510" stroke="black" d="M1096.5,-1093C1096.5,-1093 995.5,-1093 995.5,-1093 989.5,-1093 983.5,-1087 983.5,-1081 983.5,-1081 983.5,-1037 983.5,-1037 983.5,-1031 989.5,-1025 995.5,-1025 995.5,-1025 1096.5,-1025 1096.5,-1025 1102.5,-1025 1108.5,-1031 1108.5,-1037 1108.5,-1037 1108.5,-1081 1108.5,-1081 1108.5,-1087 1102.5,-1093 1096.5,-1093"/>
<text text-anchor="start" x="1014.5" y="-1077.8" font-family="Helvetica,sans-Serif" font-size="14.00">A9_t ≤ 0.5</text>
<text text-anchor="start" x="998.5" y="-1062.8" font-family="Helvetica,sans-Serif" font-size="14.00">entropy = 0.981</text>
<text text-anchor="start" x="1001" y="-1047.8" font-family="Helvetica,sans-Serif" font-size="14.00">samples = 343</text>
<text text-anchor="start" x="991.5" y="-1032.8" font-family="Helvetica,sans-Serif" font-size="14.00">value = [144, 199]</text>
</g>
<!-- 1 -->
<g id="node2" class="node"><title>1</title>
<path fill="#399de5" fill-opacity="0.937255" stroke="black" d="M1018.5,-989C1018.5,-989 925.5,-989 925.5,-989 919.5,-989 913.5,-983 913.5,-977 913.5,-977 913.5,-933 913.5,-933 913.5,-927 919.5,-921 925.5,-921 925.5,-921 1018.5,-921 1018.5,-921 1024.5,-921 1030.5,-927 1030.5,-933 1030.5,-933 1030.5,-977 1030.5,-977 1030.5,-983 1024.5,-989 1018.5,-989"/>
<text text-anchor="start" x="941" y="-973.8" font-family="Helvetica,sans-Serif" font-size="14.00">A4_l ≤ 0.5</text>
<text text-anchor="start" x="924.5" y="-958.8" font-family="Helvetica,sans-Serif" font-size="14.00">entropy = 0.324</text>
<text text-anchor="start" x="927" y="-943.8" font-family="Helvetica,sans-Serif" font-size="14.00">samples = 169</text>
<text text-anchor="start" x="921.5" y="-928.8" font-family="Helvetica,sans-Serif" font-size="14.00">value = [10, 159]</text>
</g>
<!-- 0&#45;&gt;1 -->
<g id="edge1" class="edge"><title>0&#45;&gt;1</title>
<path fill="none" stroke="black" d="M1021.97,-1024.88C1015.64,-1016.15 1008.73,-1006.62 1002.12,-997.514"/>
<polygon fill="black" stroke="black" points="1004.86,-995.338 996.158,-989.299 999.198,-999.449 1004.86,-995.338"/>
<text text-anchor="middle" x="992.23" y="-1010.29" font-family="Helvetica,sans-Serif" font-size="14.00">True</text>
</g>
<!-- 28 -->
<g id="node29" class="node"><title>28</title>
<path fill="#e58139" fill-opacity="0.701961" stroke="black" d="M1166.5,-989C1166.5,-989 1073.5,-989 1073.5,-989 1067.5,-989 1061.5,-983 1061.5,-977 1061.5,-977 1061.5,-933 1061.5,-933 1061.5,-927 1067.5,-921 1073.5,-921 1073.5,-921 1166.5,-921 1166.5,-921 1172.5,-921 1178.5,-927 1178.5,-933 1178.5,-933 1178.5,-977 1178.5,-977 1178.5,-983 1172.5,-989 1166.5,-989"/>
<text text-anchor="start" x="1083" y="-973.8" font-family="Helvetica,sans-Serif" font-size="14.00">A15 ≤ 235.0</text>
<text text-anchor="start" x="1072.5" y="-958.8" font-family="Helvetica,sans-Serif" font-size="14.00">entropy = 0.778</text>
<text text-anchor="start" x="1075" y="-943.8" font-family="Helvetica,sans-Serif" font-size="14.00">samples = 174</text>
<text text-anchor="start" x="1069.5" y="-928.8" font-family="Helvetica,sans-Serif" font-size="14.00">value = [134, 40]</text>
</g>
<!-- 0&#45;&gt;28 -->
<g id="edge28" class="edge"><title>0&#45;&gt;28</title>
<path fill="none" stroke="black" d="M1070.03,-1024.88C1076.36,-1016.15 1083.27,-1006.62 1089.88,-997.514"/>
<polygon fill="black" stroke="black" points="1092.8,-999.449 1095.84,-989.299 1087.14,-995.338 1092.8,-999.449"/>
<text text-anchor="middle" x="1099.77" y="-1010.29" font-family="Helvetica,sans-Serif" font-size="14.00">False</text>
</g>
<!-- 2 -->
<g id="node3" class="node"><title>2</title>
<path fill="#399de5" fill-opacity="0.949020" stroke="black" d="M867.5,-885C867.5,-885 780.5,-885 780.5,-885 774.5,-885 768.5,-879 768.5,-873 768.5,-873 768.5,-829 768.5,-829 768.5,-823 774.5,-817 780.5,-817 780.5,-817 867.5,-817 867.5,-817 873.5,-817 879.5,-823 879.5,-829 879.5,-829 879.5,-873 879.5,-873 879.5,-879 873.5,-885 867.5,-885"/>
<text text-anchor="start" x="787" y="-869.8" font-family="Helvetica,sans-Serif" font-size="14.00">A14 ≤ 421.0</text>
<text text-anchor="start" x="776.5" y="-854.8" font-family="Helvetica,sans-Serif" font-size="14.00">entropy = 0.277</text>
<text text-anchor="start" x="779" y="-839.8" font-family="Helvetica,sans-Serif" font-size="14.00">samples = 167</text>
<text text-anchor="start" x="777" y="-824.8" font-family="Helvetica,sans-Serif" font-size="14.00">value = [8, 159]</text>
</g>
<!-- 1&#45;&gt;2 -->
<g id="edge2" class="edge"><title>1&#45;&gt;2</title>
<path fill="none" stroke="black" d="M923.949,-920.884C910.049,-911.304 894.751,-900.761 880.392,-890.864"/>
<polygon fill="black" stroke="black" points="882.283,-887.918 872.063,-885.125 878.311,-893.681 882.283,-887.918"/>
</g>
<!-- 27 -->
<g id="node28" class="node"><title>27</title>
<path fill="#e58139" stroke="black" d="M1008,-877.5C1008,-877.5 936,-877.5 936,-877.5 930,-877.5 924,-871.5 924,-865.5 924,-865.5 924,-836.5 924,-836.5 924,-830.5 930,-824.5 936,-824.5 936,-824.5 1008,-824.5 1008,-824.5 1014,-824.5 1020,-830.5 1020,-836.5 1020,-836.5 1020,-865.5 1020,-865.5 1020,-871.5 1014,-877.5 1008,-877.5"/>
<text text-anchor="start" x="932" y="-862.3" font-family="Helvetica,sans-Serif" font-size="14.00">entropy = 0.0</text>
<text text-anchor="start" x="934.5" y="-847.3" font-family="Helvetica,sans-Serif" font-size="14.00">samples = 2</text>
<text text-anchor="start" x="932.5" y="-832.3" font-family="Helvetica,sans-Serif" font-size="14.00">value = [2, 0]</text>
</g>
<!-- 1&#45;&gt;27 -->
<g id="edge27" class="edge"><title>1&#45;&gt;27</title>
<path fill="none" stroke="black" d="M972,-920.884C972,-910.326 972,-898.597 972,-887.854"/>
<polygon fill="black" stroke="black" points="975.5,-887.52 972,-877.52 968.5,-887.52 975.5,-887.52"/>
</g>
<!-- 3 -->
<g id="node4" class="node"><title>3</title>
<path fill="#399de5" fill-opacity="0.968627" stroke="black" d="M587.5,-781C587.5,-781 500.5,-781 500.5,-781 494.5,-781 488.5,-775 488.5,-769 488.5,-769 488.5,-725 488.5,-725 488.5,-719 494.5,-713 500.5,-713 500.5,-713 587.5,-713 587.5,-713 593.5,-713 599.5,-719 599.5,-725 599.5,-725 599.5,-769 599.5,-769 599.5,-775 593.5,-781 587.5,-781"/>
<text text-anchor="start" x="510.5" y="-765.8" font-family="Helvetica,sans-Serif" font-size="14.00">A2 ≤ 37.54</text>
<text text-anchor="start" x="496.5" y="-750.8" font-family="Helvetica,sans-Serif" font-size="14.00">entropy = 0.204</text>
<text text-anchor="start" x="499" y="-735.8" font-family="Helvetica,sans-Serif" font-size="14.00">samples = 157</text>
<text text-anchor="start" x="497" y="-720.8" font-family="Helvetica,sans-Serif" font-size="14.00">value = [5, 152]</text>
</g>
<!-- 2&#45;&gt;3 -->
<g id="edge3" class="edge"><title>2&#45;&gt;3</title>
<path fill="none" stroke="black" d="M768.346,-829.726C722.444,-813.005 657.256,-789.258 608.97,-771.668"/>
<polygon fill="black" stroke="black" points="610.142,-768.37 599.548,-768.235 607.746,-774.947 610.142,-768.37"/>
</g>
<!-- 20 -->
<g id="node21" class="node"><title>20</title>
<path fill="#399de5" fill-opacity="0.572549" stroke="black" d="M867.5,-781C867.5,-781 780.5,-781 780.5,-781 774.5,-781 768.5,-775 768.5,-769 768.5,-769 768.5,-725 768.5,-725 768.5,-719 774.5,-713 780.5,-713 780.5,-713 867.5,-713 867.5,-713 873.5,-713 879.5,-719 879.5,-725 879.5,-725 879.5,-769 879.5,-769 879.5,-775 873.5,-781 867.5,-781"/>
<text text-anchor="start" x="789" y="-765.8" font-family="Helvetica,sans-Serif" font-size="14.00">A12_f ≤ 0.5</text>
<text text-anchor="start" x="776.5" y="-750.8" font-family="Helvetica,sans-Serif" font-size="14.00">entropy = 0.881</text>
<text text-anchor="start" x="783" y="-735.8" font-family="Helvetica,sans-Serif" font-size="14.00">samples = 10</text>
<text text-anchor="start" x="784.5" y="-720.8" font-family="Helvetica,sans-Serif" font-size="14.00">value = [3, 7]</text>
</g>
<!-- 2&#45;&gt;20 -->
<g id="edge20" class="edge"><title>2&#45;&gt;20</title>
<path fill="none" stroke="black" d="M824,-816.884C824,-808.778 824,-799.982 824,-791.472"/>
<polygon fill="black" stroke="black" points="827.5,-791.299 824,-781.299 820.5,-791.299 827.5,-791.299"/>
</g>
<!-- 4 -->
<g id="node5" class="node"><title>4</title>
<path fill="#399de5" fill-opacity="0.984314" stroke="black" d="M363.5,-677C363.5,-677 276.5,-677 276.5,-677 270.5,-677 264.5,-671 264.5,-665 264.5,-665 264.5,-621 264.5,-621 264.5,-615 270.5,-609 276.5,-609 276.5,-609 363.5,-609 363.5,-609 369.5,-609 375.5,-615 375.5,-621 375.5,-621 375.5,-665 375.5,-665 375.5,-671 369.5,-677 363.5,-677"/>
<text text-anchor="start" x="286.5" y="-661.8" font-family="Helvetica,sans-Serif" font-size="14.00">A7_n ≤ 0.5</text>
<text text-anchor="start" x="272.5" y="-646.8" font-family="Helvetica,sans-Serif" font-size="14.00">entropy = 0.111</text>
<text text-anchor="start" x="275" y="-631.8" font-family="Helvetica,sans-Serif" font-size="14.00">samples = 135</text>
<text text-anchor="start" x="273" y="-616.8" font-family="Helvetica,sans-Serif" font-size="14.00">value = [2, 133]</text>
</g>
<!-- 3&#45;&gt;4 -->
<g id="edge4" class="edge"><title>3&#45;&gt;4</title>
<path fill="none" stroke="black" d="M488.341,-720.655C457.09,-706.425 417.925,-688.591 385.237,-673.706"/>
<polygon fill="black" stroke="black" points="386.312,-670.35 375.76,-669.391 383.411,-676.72 386.312,-670.35"/>
</g>
<!-- 13 -->
<g id="node14" class="node"><title>13</title>
<path fill="#399de5" fill-opacity="0.843137" stroke="black" d="M587.5,-677C587.5,-677 500.5,-677 500.5,-677 494.5,-677 488.5,-671 488.5,-665 488.5,-665 488.5,-621 488.5,-621 488.5,-615 494.5,-609 500.5,-609 500.5,-609 587.5,-609 587.5,-609 593.5,-609 599.5,-615 599.5,-621 599.5,-621 599.5,-665 599.5,-665 599.5,-671 593.5,-677 587.5,-677"/>
<text text-anchor="start" x="507" y="-661.8" font-family="Helvetica,sans-Serif" font-size="14.00">A2 ≤ 37.915</text>
<text text-anchor="start" x="496.5" y="-646.8" font-family="Helvetica,sans-Serif" font-size="14.00">entropy = 0.575</text>
<text text-anchor="start" x="503" y="-631.8" font-family="Helvetica,sans-Serif" font-size="14.00">samples = 22</text>
<text text-anchor="start" x="501" y="-616.8" font-family="Helvetica,sans-Serif" font-size="14.00">value = [3, 19]</text>
</g>
<!-- 3&#45;&gt;13 -->
<g id="edge13" class="edge"><title>3&#45;&gt;13</title>
<path fill="none" stroke="black" d="M544,-712.884C544,-704.778 544,-695.982 544,-687.472"/>
<polygon fill="black" stroke="black" points="547.5,-687.299 544,-677.299 540.5,-687.299 547.5,-687.299"/>
</g>
<!-- 5 -->
<g id="node6" class="node"><title>5</title>
<path fill="#399de5" fill-opacity="0.992157" stroke="black" d="M227.5,-573C227.5,-573 140.5,-573 140.5,-573 134.5,-573 128.5,-567 128.5,-561 128.5,-561 128.5,-517 128.5,-517 128.5,-511 134.5,-505 140.5,-505 140.5,-505 227.5,-505 227.5,-505 233.5,-505 239.5,-511 239.5,-517 239.5,-517 239.5,-561 239.5,-561 239.5,-567 233.5,-573 227.5,-573"/>
<text text-anchor="start" x="151" y="-557.8" font-family="Helvetica,sans-Serif" font-size="14.00">A6_x ≤ 0.5</text>
<text text-anchor="start" x="136.5" y="-542.8" font-family="Helvetica,sans-Serif" font-size="14.00">entropy = 0.064</text>
<text text-anchor="start" x="139" y="-527.8" font-family="Helvetica,sans-Serif" font-size="14.00">samples = 133</text>
<text text-anchor="start" x="137" y="-512.8" font-family="Helvetica,sans-Serif" font-size="14.00">value = [1, 132]</text>
</g>
<!-- 4&#45;&gt;5 -->
<g id="edge5" class="edge"><title>4&#45;&gt;5</title>
<path fill="none" stroke="black" d="M275.845,-608.884C263.374,-599.531 249.679,-589.259 236.758,-579.568"/>
<polygon fill="black" stroke="black" points="238.499,-576.499 228.399,-573.299 234.299,-582.099 238.499,-576.499"/>
</g>
<!-- 10 -->
<g id="node11" class="node"><title>10</title>
<path fill="none" stroke="black" d="M356,-573C356,-573 284,-573 284,-573 278,-573 272,-567 272,-561 272,-561 272,-517 272,-517 272,-511 278,-505 284,-505 284,-505 356,-505 356,-505 362,-505 368,-511 368,-517 368,-517 368,-561 368,-561 368,-567 362,-573 356,-573"/>
<text text-anchor="start" x="290.5" y="-557.8" font-family="Helvetica,sans-Serif" font-size="14.00">A8 ≤ 0.48</text>
<text text-anchor="start" x="280" y="-542.8" font-family="Helvetica,sans-Serif" font-size="14.00">entropy = 1.0</text>
<text text-anchor="start" x="282.5" y="-527.8" font-family="Helvetica,sans-Serif" font-size="14.00">samples = 2</text>
<text text-anchor="start" x="280.5" y="-512.8" font-family="Helvetica,sans-Serif" font-size="14.00">value = [1, 1]</text>
</g>
<!-- 4&#45;&gt;10 -->
<g id="edge10" class="edge"><title>4&#45;&gt;10</title>
<path fill="none" stroke="black" d="M320,-608.884C320,-600.778 320,-591.982 320,-583.472"/>
<polygon fill="black" stroke="black" points="323.5,-583.299 320,-573.299 316.5,-583.299 323.5,-583.299"/>
</g>
<!-- 6 -->
<g id="node7" class="node"><title>6</title>
<path fill="#399de5" stroke="black" d="M98,-461.5C98,-461.5 12,-461.5 12,-461.5 6,-461.5 0,-455.5 0,-449.5 0,-449.5 0,-420.5 0,-420.5 0,-414.5 6,-408.5 12,-408.5 12,-408.5 98,-408.5 98,-408.5 104,-408.5 110,-414.5 110,-420.5 110,-420.5 110,-449.5 110,-449.5 110,-455.5 104,-461.5 98,-461.5"/>
<text text-anchor="start" x="15" y="-446.3" font-family="Helvetica,sans-Serif" font-size="14.00">entropy = 0.0</text>
<text text-anchor="start" x="10" y="-431.3" font-family="Helvetica,sans-Serif" font-size="14.00">samples = 130</text>
<text text-anchor="start" x="8" y="-416.3" font-family="Helvetica,sans-Serif" font-size="14.00">value = [0, 130]</text>
</g>
<!-- 5&#45;&gt;6 -->
<g id="edge6" class="edge"><title>5&#45;&gt;6</title>
<path fill="none" stroke="black" d="M142.117,-504.884C127.096,-493.006 110.2,-479.646 95.3138,-467.876"/>
<polygon fill="black" stroke="black" points="97.2902,-464.977 87.2752,-461.52 92.9485,-470.468 97.2902,-464.977"/>
</g>
<!-- 7 -->
<g id="node8" class="node"><title>7</title>
<path fill="#399de5" fill-opacity="0.498039" stroke="black" d="M227.5,-469C227.5,-469 140.5,-469 140.5,-469 134.5,-469 128.5,-463 128.5,-457 128.5,-457 128.5,-413 128.5,-413 128.5,-407 134.5,-401 140.5,-401 140.5,-401 227.5,-401 227.5,-401 233.5,-401 239.5,-407 239.5,-413 239.5,-413 239.5,-457 239.5,-457 239.5,-463 233.5,-469 227.5,-469"/>
<text text-anchor="start" x="147" y="-453.8" font-family="Helvetica,sans-Serif" font-size="14.00">A14 ≤ 159.0</text>
<text text-anchor="start" x="136.5" y="-438.8" font-family="Helvetica,sans-Serif" font-size="14.00">entropy = 0.918</text>
<text text-anchor="start" x="146.5" y="-423.8" font-family="Helvetica,sans-Serif" font-size="14.00">samples = 3</text>
<text text-anchor="start" x="144.5" y="-408.8" font-family="Helvetica,sans-Serif" font-size="14.00">value = [1, 2]</text>
</g>
<!-- 5&#45;&gt;7 -->
<g id="edge7" class="edge"><title>5&#45;&gt;7</title>
<path fill="none" stroke="black" d="M184,-504.884C184,-496.778 184,-487.982 184,-479.472"/>
<polygon fill="black" stroke="black" points="187.5,-479.299 184,-469.299 180.5,-479.299 187.5,-479.299"/>
</g>
<!-- 8 -->
<g id="node9" class="node"><title>8</title>
<path fill="#399de5" stroke="black" d="M163,-357.5C163,-357.5 91,-357.5 91,-357.5 85,-357.5 79,-351.5 79,-345.5 79,-345.5 79,-316.5 79,-316.5 79,-310.5 85,-304.5 91,-304.5 91,-304.5 163,-304.5 163,-304.5 169,-304.5 175,-310.5 175,-316.5 175,-316.5 175,-345.5 175,-345.5 175,-351.5 169,-357.5 163,-357.5"/>
<text text-anchor="start" x="87" y="-342.3" font-family="Helvetica,sans-Serif" font-size="14.00">entropy = 0.0</text>
<text text-anchor="start" x="89.5" y="-327.3" font-family="Helvetica,sans-Serif" font-size="14.00">samples = 2</text>
<text text-anchor="start" x="87.5" y="-312.3" font-family="Helvetica,sans-Serif" font-size="14.00">value = [0, 2]</text>
</g>
<!-- 7&#45;&gt;8 -->
<g id="edge8" class="edge"><title>7&#45;&gt;8</title>
<path fill="none" stroke="black" d="M165.494,-400.884C159.348,-389.886 152.492,-377.617 146.289,-366.517"/>
<polygon fill="black" stroke="black" points="149.195,-364.542 141.261,-357.52 143.084,-367.957 149.195,-364.542"/>
</g>
<!-- 9 -->
<g id="node10" class="node"><title>9</title>
<path fill="#e58139" stroke="black" d="M277,-357.5C277,-357.5 205,-357.5 205,-357.5 199,-357.5 193,-351.5 193,-345.5 193,-345.5 193,-316.5 193,-316.5 193,-310.5 199,-304.5 205,-304.5 205,-304.5 277,-304.5 277,-304.5 283,-304.5 289,-310.5 289,-316.5 289,-316.5 289,-345.5 289,-345.5 289,-351.5 283,-357.5 277,-357.5"/>
<text text-anchor="start" x="201" y="-342.3" font-family="Helvetica,sans-Serif" font-size="14.00">entropy = 0.0</text>
<text text-anchor="start" x="203.5" y="-327.3" font-family="Helvetica,sans-Serif" font-size="14.00">samples = 1</text>
<text text-anchor="start" x="201.5" y="-312.3" font-family="Helvetica,sans-Serif" font-size="14.00">value = [1, 0]</text>
</g>
<!-- 7&#45;&gt;9 -->
<g id="edge9" class="edge"><title>7&#45;&gt;9</title>
<path fill="none" stroke="black" d="M202.506,-400.884C208.652,-389.886 215.508,-377.617 221.711,-366.517"/>
<polygon fill="black" stroke="black" points="224.916,-367.957 226.739,-357.52 218.805,-364.542 224.916,-367.957"/>
</g>
<!-- 11 -->
<g id="node12" class="node"><title>11</title>
<path fill="#e58139" stroke="black" d="M342,-461.5C342,-461.5 270,-461.5 270,-461.5 264,-461.5 258,-455.5 258,-449.5 258,-449.5 258,-420.5 258,-420.5 258,-414.5 264,-408.5 270,-408.5 270,-408.5 342,-408.5 342,-408.5 348,-408.5 354,-414.5 354,-420.5 354,-420.5 354,-449.5 354,-449.5 354,-455.5 348,-461.5 342,-461.5"/>
<text text-anchor="start" x="266" y="-446.3" font-family="Helvetica,sans-Serif" font-size="14.00">entropy = 0.0</text>
<text text-anchor="start" x="268.5" y="-431.3" font-family="Helvetica,sans-Serif" font-size="14.00">samples = 1</text>
<text text-anchor="start" x="266.5" y="-416.3" font-family="Helvetica,sans-Serif" font-size="14.00">value = [1, 0]</text>
</g>
<!-- 10&#45;&gt;11 -->
<g id="edge11" class="edge"><title>10&#45;&gt;11</title>
<path fill="none" stroke="black" d="M315.455,-504.884C313.99,-494.216 312.362,-482.352 310.875,-471.519"/>
<polygon fill="black" stroke="black" points="314.33,-470.951 309.503,-461.52 307.395,-471.903 314.33,-470.951"/>
</g>
<!-- 12 -->
<g id="node13" class="node"><title>12</title>
<path fill="#399de5" stroke="black" d="M456,-461.5C456,-461.5 384,-461.5 384,-461.5 378,-461.5 372,-455.5 372,-449.5 372,-449.5 372,-420.5 372,-420.5 372,-414.5 378,-408.5 384,-408.5 384,-408.5 456,-408.5 456,-408.5 462,-408.5 468,-414.5 468,-420.5 468,-420.5 468,-449.5 468,-449.5 468,-455.5 462,-461.5 456,-461.5"/>
<text text-anchor="start" x="380" y="-446.3" font-family="Helvetica,sans-Serif" font-size="14.00">entropy = 0.0</text>
<text text-anchor="start" x="382.5" y="-431.3" font-family="Helvetica,sans-Serif" font-size="14.00">samples = 1</text>
<text text-anchor="start" x="380.5" y="-416.3" font-family="Helvetica,sans-Serif" font-size="14.00">value = [0, 1]</text>
</g>
<!-- 10&#45;&gt;12 -->
<g id="edge12" class="edge"><title>10&#45;&gt;12</title>
<path fill="none" stroke="black" d="M352.467,-504.884C363.788,-493.336 376.483,-480.387 387.784,-468.86"/>
<polygon fill="black" stroke="black" points="390.479,-471.111 394.98,-461.52 385.48,-466.21 390.479,-471.111"/>
</g>
<!-- 14 -->
<g id="node15" class="node"><title>14</title>
<path fill="#e58139" stroke="black" d="M519,-565.5C519,-565.5 447,-565.5 447,-565.5 441,-565.5 435,-559.5 435,-553.5 435,-553.5 435,-524.5 435,-524.5 435,-518.5 441,-512.5 447,-512.5 447,-512.5 519,-512.5 519,-512.5 525,-512.5 531,-518.5 531,-524.5 531,-524.5 531,-553.5 531,-553.5 531,-559.5 525,-565.5 519,-565.5"/>
<text text-anchor="start" x="443" y="-550.3" font-family="Helvetica,sans-Serif" font-size="14.00">entropy = 0.0</text>
<text text-anchor="start" x="445.5" y="-535.3" font-family="Helvetica,sans-Serif" font-size="14.00">samples = 1</text>
<text text-anchor="start" x="443.5" y="-520.3" font-family="Helvetica,sans-Serif" font-size="14.00">value = [1, 0]</text>
</g>
<!-- 13&#45;&gt;14 -->
<g id="edge14" class="edge"><title>13&#45;&gt;14</title>
<path fill="none" stroke="black" d="M524.195,-608.884C517.552,-597.776 510.134,-585.372 503.443,-574.184"/>
<polygon fill="black" stroke="black" points="506.398,-572.306 498.262,-565.52 500.391,-575.899 506.398,-572.306"/>
</g>
<!-- 15 -->
<g id="node16" class="node"><title>15</title>
<path fill="#399de5" fill-opacity="0.894118" stroke="black" d="M648.5,-573C648.5,-573 561.5,-573 561.5,-573 555.5,-573 549.5,-567 549.5,-561 549.5,-561 549.5,-517 549.5,-517 549.5,-511 555.5,-505 561.5,-505 561.5,-505 648.5,-505 648.5,-505 654.5,-505 660.5,-511 660.5,-517 660.5,-517 660.5,-561 660.5,-561 660.5,-567 654.5,-573 648.5,-573"/>
<text text-anchor="start" x="568" y="-557.8" font-family="Helvetica,sans-Serif" font-size="14.00">A7_bb ≤ 0.5</text>
<text text-anchor="start" x="557.5" y="-542.8" font-family="Helvetica,sans-Serif" font-size="14.00">entropy = 0.454</text>
<text text-anchor="start" x="564" y="-527.8" font-family="Helvetica,sans-Serif" font-size="14.00">samples = 21</text>
<text text-anchor="start" x="562" y="-512.8" font-family="Helvetica,sans-Serif" font-size="14.00">value = [2, 19]</text>
</g>
<!-- 13&#45;&gt;15 -->
<g id="edge15" class="edge"><title>13&#45;&gt;15</title>
<path fill="none" stroke="black" d="M563.805,-608.884C568.919,-600.332 574.492,-591.013 579.839,-582.072"/>
<polygon fill="black" stroke="black" points="582.957,-583.678 585.086,-573.299 576.949,-580.085 582.957,-583.678"/>
</g>
<!-- 16 -->
<g id="node17" class="node"><title>16</title>
<path fill="#399de5" fill-opacity="0.949020" stroke="black" d="M585.5,-469C585.5,-469 498.5,-469 498.5,-469 492.5,-469 486.5,-463 486.5,-457 486.5,-457 486.5,-413 486.5,-413 486.5,-407 492.5,-401 498.5,-401 498.5,-401 585.5,-401 585.5,-401 591.5,-401 597.5,-407 597.5,-413 597.5,-413 597.5,-457 597.5,-457 597.5,-463 591.5,-469 585.5,-469"/>
<text text-anchor="start" x="501" y="-453.8" font-family="Helvetica,sans-Serif" font-size="14.00">A15 ≤ 1595.0</text>
<text text-anchor="start" x="494.5" y="-438.8" font-family="Helvetica,sans-Serif" font-size="14.00">entropy = 0.286</text>
<text text-anchor="start" x="501" y="-423.8" font-family="Helvetica,sans-Serif" font-size="14.00">samples = 20</text>
<text text-anchor="start" x="499" y="-408.8" font-family="Helvetica,sans-Serif" font-size="14.00">value = [1, 19]</text>
</g>
<!-- 15&#45;&gt;16 -->
<g id="edge16" class="edge"><title>15&#45;&gt;16</title>
<path fill="none" stroke="black" d="M584.546,-504.884C579.264,-496.332 573.508,-487.013 567.986,-478.072"/>
<polygon fill="black" stroke="black" points="570.8,-475.968 562.567,-469.299 564.844,-479.647 570.8,-475.968"/>
</g>
<!-- 19 -->
<g id="node20" class="node"><title>19</title>
<path fill="#e58139" stroke="black" d="M700,-461.5C700,-461.5 628,-461.5 628,-461.5 622,-461.5 616,-455.5 616,-449.5 616,-449.5 616,-420.5 616,-420.5 616,-414.5 622,-408.5 628,-408.5 628,-408.5 700,-408.5 700,-408.5 706,-408.5 712,-414.5 712,-420.5 712,-420.5 712,-449.5 712,-449.5 712,-455.5 706,-461.5 700,-461.5"/>
<text text-anchor="start" x="624" y="-446.3" font-family="Helvetica,sans-Serif" font-size="14.00">entropy = 0.0</text>
<text text-anchor="start" x="626.5" y="-431.3" font-family="Helvetica,sans-Serif" font-size="14.00">samples = 1</text>
<text text-anchor="start" x="624.5" y="-416.3" font-family="Helvetica,sans-Serif" font-size="14.00">value = [1, 0]</text>
</g>
<!-- 15&#45;&gt;19 -->
<g id="edge19" class="edge"><title>15&#45;&gt;19</title>
<path fill="none" stroke="black" d="M624.156,-504.884C630.581,-493.776 637.755,-481.372 644.227,-470.184"/>
<polygon fill="black" stroke="black" points="647.261,-471.929 649.238,-461.52 641.202,-468.424 647.261,-471.929"/>
</g>
<!-- 17 -->
<g id="node18" class="node"><title>17</title>
<path fill="#399de5" stroke="black" d="M523,-357.5C523,-357.5 445,-357.5 445,-357.5 439,-357.5 433,-351.5 433,-345.5 433,-345.5 433,-316.5 433,-316.5 433,-310.5 439,-304.5 445,-304.5 445,-304.5 523,-304.5 523,-304.5 529,-304.5 535,-310.5 535,-316.5 535,-316.5 535,-345.5 535,-345.5 535,-351.5 529,-357.5 523,-357.5"/>
<text text-anchor="start" x="444" y="-342.3" font-family="Helvetica,sans-Serif" font-size="14.00">entropy = 0.0</text>
<text text-anchor="start" x="443" y="-327.3" font-family="Helvetica,sans-Serif" font-size="14.00">samples = 19</text>
<text text-anchor="start" x="441" y="-312.3" font-family="Helvetica,sans-Serif" font-size="14.00">value = [0, 19]</text>
</g>
<!-- 16&#45;&gt;17 -->
<g id="edge17" class="edge"><title>16&#45;&gt;17</title>
<path fill="none" stroke="black" d="M523.169,-400.884C516.915,-389.886 509.939,-377.617 503.627,-366.517"/>
<polygon fill="black" stroke="black" points="506.497,-364.483 498.511,-357.52 500.412,-367.943 506.497,-364.483"/>
</g>
<!-- 18 -->
<g id="node19" class="node"><title>18</title>
<path fill="#e58139" stroke="black" d="M637,-357.5C637,-357.5 565,-357.5 565,-357.5 559,-357.5 553,-351.5 553,-345.5 553,-345.5 553,-316.5 553,-316.5 553,-310.5 559,-304.5 565,-304.5 565,-304.5 637,-304.5 637,-304.5 643,-304.5 649,-310.5 649,-316.5 649,-316.5 649,-345.5 649,-345.5 649,-351.5 643,-357.5 637,-357.5"/>
<text text-anchor="start" x="561" y="-342.3" font-family="Helvetica,sans-Serif" font-size="14.00">entropy = 0.0</text>
<text text-anchor="start" x="563.5" y="-327.3" font-family="Helvetica,sans-Serif" font-size="14.00">samples = 1</text>
<text text-anchor="start" x="561.5" y="-312.3" font-family="Helvetica,sans-Serif" font-size="14.00">value = [1, 0]</text>
</g>
<!-- 16&#45;&gt;18 -->
<g id="edge18" class="edge"><title>16&#45;&gt;18</title>
<path fill="none" stroke="black" d="M561.156,-400.884C567.581,-389.776 574.755,-377.372 581.227,-366.184"/>
<polygon fill="black" stroke="black" points="584.261,-367.929 586.238,-357.52 578.202,-364.424 584.261,-367.929"/>
</g>
<!-- 21 -->
<g id="node22" class="node"><title>21</title>
<path fill="none" stroke="black" d="M809,-677C809,-677 737,-677 737,-677 731,-677 725,-671 725,-665 725,-665 725,-621 725,-621 725,-615 731,-609 737,-609 737,-609 809,-609 809,-609 815,-609 821,-615 821,-621 821,-621 821,-665 821,-665 821,-671 815,-677 809,-677"/>
<text text-anchor="start" x="736" y="-661.8" font-family="Helvetica,sans-Serif" font-size="14.00">A7_bb ≤ 0.5</text>
<text text-anchor="start" x="733" y="-646.8" font-family="Helvetica,sans-Serif" font-size="14.00">entropy = 1.0</text>
<text text-anchor="start" x="735.5" y="-631.8" font-family="Helvetica,sans-Serif" font-size="14.00">samples = 6</text>
<text text-anchor="start" x="733.5" y="-616.8" font-family="Helvetica,sans-Serif" font-size="14.00">value = [3, 3]</text>
</g>
<!-- 20&#45;&gt;21 -->
<g id="edge21" class="edge"><title>20&#45;&gt;21</title>
<path fill="none" stroke="black" d="M807.442,-712.884C803.211,-704.422 798.604,-695.207 794.176,-686.352"/>
<polygon fill="black" stroke="black" points="797.252,-684.678 789.65,-677.299 790.991,-687.809 797.252,-684.678"/>
</g>
<!-- 26 -->
<g id="node27" class="node"><title>26</title>
<path fill="#399de5" stroke="black" d="M923,-669.5C923,-669.5 851,-669.5 851,-669.5 845,-669.5 839,-663.5 839,-657.5 839,-657.5 839,-628.5 839,-628.5 839,-622.5 845,-616.5 851,-616.5 851,-616.5 923,-616.5 923,-616.5 929,-616.5 935,-622.5 935,-628.5 935,-628.5 935,-657.5 935,-657.5 935,-663.5 929,-669.5 923,-669.5"/>
<text text-anchor="start" x="847" y="-654.3" font-family="Helvetica,sans-Serif" font-size="14.00">entropy = 0.0</text>
<text text-anchor="start" x="849.5" y="-639.3" font-family="Helvetica,sans-Serif" font-size="14.00">samples = 4</text>
<text text-anchor="start" x="847.5" y="-624.3" font-family="Helvetica,sans-Serif" font-size="14.00">value = [0, 4]</text>
</g>
<!-- 20&#45;&gt;26 -->
<g id="edge26" class="edge"><title>20&#45;&gt;26</title>
<path fill="none" stroke="black" d="M844.454,-712.884C851.315,-701.776 858.976,-689.372 865.886,-678.184"/>
<polygon fill="black" stroke="black" points="868.961,-679.867 871.238,-669.52 863.005,-676.189 868.961,-679.867"/>
</g>
<!-- 22 -->
<g id="node23" class="node"><title>22</title>
<path fill="#e58139" stroke="black" d="M788,-565.5C788,-565.5 716,-565.5 716,-565.5 710,-565.5 704,-559.5 704,-553.5 704,-553.5 704,-524.5 704,-524.5 704,-518.5 710,-512.5 716,-512.5 716,-512.5 788,-512.5 788,-512.5 794,-512.5 800,-518.5 800,-524.5 800,-524.5 800,-553.5 800,-553.5 800,-559.5 794,-565.5 788,-565.5"/>
<text text-anchor="start" x="712" y="-550.3" font-family="Helvetica,sans-Serif" font-size="14.00">entropy = 0.0</text>
<text text-anchor="start" x="714.5" y="-535.3" font-family="Helvetica,sans-Serif" font-size="14.00">samples = 2</text>
<text text-anchor="start" x="712.5" y="-520.3" font-family="Helvetica,sans-Serif" font-size="14.00">value = [2, 0]</text>
</g>
<!-- 21&#45;&gt;22 -->
<g id="edge22" class="edge"><title>21&#45;&gt;22</title>
<path fill="none" stroke="black" d="M766.182,-608.884C763.986,-598.216 761.543,-586.352 759.313,-575.519"/>
<polygon fill="black" stroke="black" points="762.699,-574.609 757.254,-565.52 755.843,-576.02 762.699,-574.609"/>
</g>
<!-- 23 -->
<g id="node24" class="node"><title>23</title>
<path fill="#399de5" fill-opacity="0.666667" stroke="black" d="M917.5,-573C917.5,-573 830.5,-573 830.5,-573 824.5,-573 818.5,-567 818.5,-561 818.5,-561 818.5,-517 818.5,-517 818.5,-511 824.5,-505 830.5,-505 830.5,-505 917.5,-505 917.5,-505 923.5,-505 929.5,-511 929.5,-517 929.5,-517 929.5,-561 929.5,-561 929.5,-567 923.5,-573 917.5,-573"/>
<text text-anchor="start" x="840.5" y="-557.8" font-family="Helvetica,sans-Serif" font-size="14.00">A3 ≤ 0.668</text>
<text text-anchor="start" x="826.5" y="-542.8" font-family="Helvetica,sans-Serif" font-size="14.00">entropy = 0.811</text>
<text text-anchor="start" x="836.5" y="-527.8" font-family="Helvetica,sans-Serif" font-size="14.00">samples = 4</text>
<text text-anchor="start" x="834.5" y="-512.8" font-family="Helvetica,sans-Serif" font-size="14.00">value = [1, 3]</text>
</g>
<!-- 21&#45;&gt;23 -->
<g id="edge23" class="edge"><title>21&#45;&gt;23</title>
<path fill="none" stroke="black" d="M805.792,-608.884C814.7,-599.887 824.45,-590.041 833.72,-580.678"/>
<polygon fill="black" stroke="black" points="836.478,-582.868 841.027,-573.299 831.504,-577.943 836.478,-582.868"/>
</g>
<!-- 24 -->
<g id="node25" class="node"><title>24</title>
<path fill="#e58139" stroke="black" d="M814,-461.5C814,-461.5 742,-461.5 742,-461.5 736,-461.5 730,-455.5 730,-449.5 730,-449.5 730,-420.5 730,-420.5 730,-414.5 736,-408.5 742,-408.5 742,-408.5 814,-408.5 814,-408.5 820,-408.5 826,-414.5 826,-420.5 826,-420.5 826,-449.5 826,-449.5 826,-455.5 820,-461.5 814,-461.5"/>
<text text-anchor="start" x="738" y="-446.3" font-family="Helvetica,sans-Serif" font-size="14.00">entropy = 0.0</text>
<text text-anchor="start" x="740.5" y="-431.3" font-family="Helvetica,sans-Serif" font-size="14.00">samples = 1</text>
<text text-anchor="start" x="738.5" y="-416.3" font-family="Helvetica,sans-Serif" font-size="14.00">value = [1, 0]</text>
</g>
<!-- 23&#45;&gt;24 -->
<g id="edge24" class="edge"><title>23&#45;&gt;24</title>
<path fill="none" stroke="black" d="M842.832,-504.884C831.963,-493.336 819.776,-480.387 808.928,-468.86"/>
<polygon fill="black" stroke="black" points="811.421,-466.403 802.019,-461.52 806.324,-471.201 811.421,-466.403"/>
</g>
<!-- 25 -->
<g id="node26" class="node"><title>25</title>
<path fill="#399de5" stroke="black" d="M928,-461.5C928,-461.5 856,-461.5 856,-461.5 850,-461.5 844,-455.5 844,-449.5 844,-449.5 844,-420.5 844,-420.5 844,-414.5 850,-408.5 856,-408.5 856,-408.5 928,-408.5 928,-408.5 934,-408.5 940,-414.5 940,-420.5 940,-420.5 940,-449.5 940,-449.5 940,-455.5 934,-461.5 928,-461.5"/>
<text text-anchor="start" x="852" y="-446.3" font-family="Helvetica,sans-Serif" font-size="14.00">entropy = 0.0</text>
<text text-anchor="start" x="854.5" y="-431.3" font-family="Helvetica,sans-Serif" font-size="14.00">samples = 3</text>
<text text-anchor="start" x="852.5" y="-416.3" font-family="Helvetica,sans-Serif" font-size="14.00">value = [0, 3]</text>
</g>
<!-- 23&#45;&gt;25 -->
<g id="edge25" class="edge"><title>23&#45;&gt;25</title>
<path fill="none" stroke="black" d="M879.844,-504.884C881.727,-494.216 883.82,-482.352 885.732,-471.519"/>
<polygon fill="black" stroke="black" points="889.205,-471.976 887.496,-461.52 882.312,-470.759 889.205,-471.976"/>
</g>
<!-- 29 -->
<g id="node30" class="node"><title>29</title>
<path fill="#e58139" fill-opacity="0.407843" stroke="black" d="M1163.5,-885C1163.5,-885 1076.5,-885 1076.5,-885 1070.5,-885 1064.5,-879 1064.5,-873 1064.5,-873 1064.5,-829 1064.5,-829 1064.5,-823 1070.5,-817 1076.5,-817 1076.5,-817 1163.5,-817 1163.5,-817 1169.5,-817 1175.5,-823 1175.5,-829 1175.5,-829 1175.5,-873 1175.5,-873 1175.5,-879 1169.5,-885 1163.5,-885"/>
<text text-anchor="start" x="1085" y="-869.8" font-family="Helvetica,sans-Serif" font-size="14.00">A10_f ≤ 0.5</text>
<text text-anchor="start" x="1072.5" y="-854.8" font-family="Helvetica,sans-Serif" font-size="14.00">entropy = 0.952</text>
<text text-anchor="start" x="1075" y="-839.8" font-family="Helvetica,sans-Serif" font-size="14.00">samples = 105</text>
<text text-anchor="start" x="1073" y="-824.8" font-family="Helvetica,sans-Serif" font-size="14.00">value = [66, 39]</text>
</g>
<!-- 28&#45;&gt;29 -->
<g id="edge29" class="edge"><title>28&#45;&gt;29</title>
<path fill="none" stroke="black" d="M1120,-920.884C1120,-912.778 1120,-903.982 1120,-895.472"/>
<polygon fill="black" stroke="black" points="1123.5,-895.299 1120,-885.299 1116.5,-895.299 1123.5,-895.299"/>
</g>
<!-- 68 -->
<g id="node69" class="node"><title>68</title>
<path fill="#e58139" fill-opacity="0.984314" stroke="black" d="M1292.5,-877.5C1292.5,-877.5 1205.5,-877.5 1205.5,-877.5 1199.5,-877.5 1193.5,-871.5 1193.5,-865.5 1193.5,-865.5 1193.5,-836.5 1193.5,-836.5 1193.5,-830.5 1199.5,-824.5 1205.5,-824.5 1205.5,-824.5 1292.5,-824.5 1292.5,-824.5 1298.5,-824.5 1304.5,-830.5 1304.5,-836.5 1304.5,-836.5 1304.5,-865.5 1304.5,-865.5 1304.5,-871.5 1298.5,-877.5 1292.5,-877.5"/>
<text text-anchor="start" x="1201.5" y="-862.3" font-family="Helvetica,sans-Serif" font-size="14.00">entropy = 0.109</text>
<text text-anchor="start" x="1208" y="-847.3" font-family="Helvetica,sans-Serif" font-size="14.00">samples = 69</text>
<text text-anchor="start" x="1206" y="-832.3" font-family="Helvetica,sans-Serif" font-size="14.00">value = [68, 1]</text>
</g>
<!-- 28&#45;&gt;68 -->
<g id="edge68" class="edge"><title>28&#45;&gt;68</title>
<path fill="none" stroke="black" d="M1161.88,-920.884C1176.9,-909.006 1193.8,-895.646 1208.69,-883.876"/>
<polygon fill="black" stroke="black" points="1211.05,-886.468 1216.72,-877.52 1206.71,-880.977 1211.05,-886.468"/>
</g>
<!-- 30 -->
<g id="node31" class="node"><title>30</title>
<path fill="#e58139" fill-opacity="0.756863" stroke="black" d="M1163.5,-781C1163.5,-781 1076.5,-781 1076.5,-781 1070.5,-781 1064.5,-775 1064.5,-769 1064.5,-769 1064.5,-725 1064.5,-725 1064.5,-719 1070.5,-713 1076.5,-713 1076.5,-713 1163.5,-713 1163.5,-713 1169.5,-713 1175.5,-719 1175.5,-725 1175.5,-725 1175.5,-769 1175.5,-769 1175.5,-775 1169.5,-781 1163.5,-781"/>
<text text-anchor="start" x="1086.5" y="-765.8" font-family="Helvetica,sans-Serif" font-size="14.00">A14 ≤ 72.5</text>
<text text-anchor="start" x="1072.5" y="-750.8" font-family="Helvetica,sans-Serif" font-size="14.00">entropy = 0.715</text>
<text text-anchor="start" x="1079" y="-735.8" font-family="Helvetica,sans-Serif" font-size="14.00">samples = 56</text>
<text text-anchor="start" x="1073" y="-720.8" font-family="Helvetica,sans-Serif" font-size="14.00">value = [45, 11]</text>
</g>
<!-- 29&#45;&gt;30 -->
<g id="edge30" class="edge"><title>29&#45;&gt;30</title>
<path fill="none" stroke="black" d="M1120,-816.884C1120,-808.778 1120,-799.982 1120,-791.472"/>
<polygon fill="black" stroke="black" points="1123.5,-791.299 1120,-781.299 1116.5,-791.299 1123.5,-791.299"/>
</g>
<!-- 47 -->
<g id="node48" class="node"><title>47</title>
<path fill="#399de5" fill-opacity="0.250980" stroke="black" d="M1473.5,-781C1473.5,-781 1386.5,-781 1386.5,-781 1380.5,-781 1374.5,-775 1374.5,-769 1374.5,-769 1374.5,-725 1374.5,-725 1374.5,-719 1380.5,-713 1386.5,-713 1386.5,-713 1473.5,-713 1473.5,-713 1479.5,-713 1485.5,-719 1485.5,-725 1485.5,-725 1485.5,-769 1485.5,-769 1485.5,-775 1479.5,-781 1473.5,-781"/>
<text text-anchor="start" x="1396.5" y="-765.8" font-family="Helvetica,sans-Serif" font-size="14.00">A7_h ≤ 0.5</text>
<text text-anchor="start" x="1382.5" y="-750.8" font-family="Helvetica,sans-Serif" font-size="14.00">entropy = 0.985</text>
<text text-anchor="start" x="1389" y="-735.8" font-family="Helvetica,sans-Serif" font-size="14.00">samples = 49</text>
<text text-anchor="start" x="1383" y="-720.8" font-family="Helvetica,sans-Serif" font-size="14.00">value = [21, 28]</text>
</g>
<!-- 29&#45;&gt;47 -->
<g id="edge47" class="edge"><title>29&#45;&gt;47</title>
<path fill="none" stroke="black" d="M1175.54,-820.522C1178.38,-819.281 1181.21,-818.098 1184,-817 1243.59,-793.558 1314.21,-774.611 1364.47,-762.545"/>
<polygon fill="black" stroke="black" points="1365.32,-765.941 1374.24,-760.224 1363.7,-759.13 1365.32,-765.941"/>
</g>
<!-- 31 -->
<g id="node32" class="node"><title>31</title>
<path fill="#e58139" stroke="black" d="M1048,-669.5C1048,-669.5 970,-669.5 970,-669.5 964,-669.5 958,-663.5 958,-657.5 958,-657.5 958,-628.5 958,-628.5 958,-622.5 964,-616.5 970,-616.5 970,-616.5 1048,-616.5 1048,-616.5 1054,-616.5 1060,-622.5 1060,-628.5 1060,-628.5 1060,-657.5 1060,-657.5 1060,-663.5 1054,-669.5 1048,-669.5"/>
<text text-anchor="start" x="969" y="-654.3" font-family="Helvetica,sans-Serif" font-size="14.00">entropy = 0.0</text>
<text text-anchor="start" x="968" y="-639.3" font-family="Helvetica,sans-Serif" font-size="14.00">samples = 15</text>
<text text-anchor="start" x="966" y="-624.3" font-family="Helvetica,sans-Serif" font-size="14.00">value = [15, 0]</text>
</g>
<!-- 30&#45;&gt;31 -->
<g id="edge31" class="edge"><title>30&#45;&gt;31</title>
<path fill="none" stroke="black" d="M1083.96,-712.884C1071.28,-701.226 1057.04,-688.141 1044.4,-676.532"/>
<polygon fill="black" stroke="black" points="1046.5,-673.709 1036.77,-669.52 1041.77,-678.863 1046.5,-673.709"/>
</g>
<!-- 32 -->
<g id="node33" class="node"><title>32</title>
<path fill="#e58139" fill-opacity="0.631373" stroke="black" d="M1176.5,-677C1176.5,-677 1089.5,-677 1089.5,-677 1083.5,-677 1077.5,-671 1077.5,-665 1077.5,-665 1077.5,-621 1077.5,-621 1077.5,-615 1083.5,-609 1089.5,-609 1089.5,-609 1176.5,-609 1176.5,-609 1182.5,-609 1188.5,-615 1188.5,-621 1188.5,-621 1188.5,-665 1188.5,-665 1188.5,-671 1182.5,-677 1176.5,-677"/>
<text text-anchor="start" x="1096" y="-661.8" font-family="Helvetica,sans-Serif" font-size="14.00">A2 ≤ 48.915</text>
<text text-anchor="start" x="1085.5" y="-646.8" font-family="Helvetica,sans-Serif" font-size="14.00">entropy = 0.839</text>
<text text-anchor="start" x="1092" y="-631.8" font-family="Helvetica,sans-Serif" font-size="14.00">samples = 41</text>
<text text-anchor="start" x="1086" y="-616.8" font-family="Helvetica,sans-Serif" font-size="14.00">value = [30, 11]</text>
</g>
<!-- 30&#45;&gt;32 -->
<g id="edge32" class="edge"><title>30&#45;&gt;32</title>
<path fill="none" stroke="black" d="M1124.22,-712.884C1125.25,-704.778 1126.37,-695.982 1127.46,-687.472"/>
<polygon fill="black" stroke="black" points="1130.96,-687.662 1128.76,-677.299 1124.02,-686.777 1130.96,-687.662"/>
</g>
<!-- 33 -->
<g id="node34" class="node"><title>33</title>
<path fill="#e58139" fill-opacity="0.733333" stroke="black" d="M1060.5,-573C1060.5,-573 973.5,-573 973.5,-573 967.5,-573 961.5,-567 961.5,-561 961.5,-561 961.5,-517 961.5,-517 961.5,-511 967.5,-505 973.5,-505 973.5,-505 1060.5,-505 1060.5,-505 1066.5,-505 1072.5,-511 1072.5,-517 1072.5,-517 1072.5,-561 1072.5,-561 1072.5,-567 1066.5,-573 1060.5,-573"/>
<text text-anchor="start" x="980" y="-557.8" font-family="Helvetica,sans-Serif" font-size="14.00">A14 ≤ 355.0</text>
<text text-anchor="start" x="969.5" y="-542.8" font-family="Helvetica,sans-Serif" font-size="14.00">entropy = 0.742</text>
<text text-anchor="start" x="976" y="-527.8" font-family="Helvetica,sans-Serif" font-size="14.00">samples = 38</text>
<text text-anchor="start" x="974" y="-512.8" font-family="Helvetica,sans-Serif" font-size="14.00">value = [30, 8]</text>
</g>
<!-- 32&#45;&gt;33 -->
<g id="edge33" class="edge"><title>32&#45;&gt;33</title>
<path fill="none" stroke="black" d="M1095.34,-608.884C1084.9,-599.709 1073.46,-589.65 1062.63,-580.123"/>
<polygon fill="black" stroke="black" points="1064.69,-577.274 1054.87,-573.299 1060.07,-582.531 1064.69,-577.274"/>
</g>
<!-- 46 -->
<g id="node47" class="node"><title>46</title>
<path fill="#399de5" stroke="black" d="M1175,-565.5C1175,-565.5 1103,-565.5 1103,-565.5 1097,-565.5 1091,-559.5 1091,-553.5 1091,-553.5 1091,-524.5 1091,-524.5 1091,-518.5 1097,-512.5 1103,-512.5 1103,-512.5 1175,-512.5 1175,-512.5 1181,-512.5 1187,-518.5 1187,-524.5 1187,-524.5 1187,-553.5 1187,-553.5 1187,-559.5 1181,-565.5 1175,-565.5"/>
<text text-anchor="start" x="1099" y="-550.3" font-family="Helvetica,sans-Serif" font-size="14.00">entropy = 0.0</text>
<text text-anchor="start" x="1101.5" y="-535.3" font-family="Helvetica,sans-Serif" font-size="14.00">samples = 3</text>
<text text-anchor="start" x="1099.5" y="-520.3" font-family="Helvetica,sans-Serif" font-size="14.00">value = [0, 3]</text>
</g>
<!-- 32&#45;&gt;46 -->
<g id="edge46" class="edge"><title>32&#45;&gt;46</title>
<path fill="none" stroke="black" d="M1134.95,-608.884C1135.58,-598.216 1136.27,-586.352 1136.91,-575.519"/>
<polygon fill="black" stroke="black" points="1140.41,-575.708 1137.5,-565.52 1133.42,-575.297 1140.41,-575.708"/>
</g>
<!-- 34 -->
<g id="node35" class="node"><title>34</title>
<path fill="#e58139" fill-opacity="0.635294" stroke="black" d="M1057.5,-469C1057.5,-469 970.5,-469 970.5,-469 964.5,-469 958.5,-463 958.5,-457 958.5,-457 958.5,-413 958.5,-413 958.5,-407 964.5,-401 970.5,-401 970.5,-401 1057.5,-401 1057.5,-401 1063.5,-401 1069.5,-407 1069.5,-413 1069.5,-413 1069.5,-457 1069.5,-457 1069.5,-463 1063.5,-469 1057.5,-469"/>
<text text-anchor="start" x="984.5" y="-453.8" font-family="Helvetica,sans-Serif" font-size="14.00">A11 ≤ 1.5</text>
<text text-anchor="start" x="966.5" y="-438.8" font-family="Helvetica,sans-Serif" font-size="14.00">entropy = 0.837</text>
<text text-anchor="start" x="973" y="-423.8" font-family="Helvetica,sans-Serif" font-size="14.00">samples = 30</text>
<text text-anchor="start" x="971" y="-408.8" font-family="Helvetica,sans-Serif" font-size="14.00">value = [22, 8]</text>
</g>
<!-- 33&#45;&gt;34 -->
<g id="edge34" class="edge"><title>33&#45;&gt;34</title>
<path fill="none" stroke="black" d="M1016.03,-504.884C1015.79,-496.778 1015.53,-487.982 1015.28,-479.472"/>
<polygon fill="black" stroke="black" points="1018.77,-479.192 1014.98,-469.299 1011.77,-479.398 1018.77,-479.192"/>
</g>
<!-- 45 -->
<g id="node46" class="node"><title>45</title>
<path fill="#e58139" stroke="black" d="M1172,-461.5C1172,-461.5 1100,-461.5 1100,-461.5 1094,-461.5 1088,-455.5 1088,-449.5 1088,-449.5 1088,-420.5 1088,-420.5 1088,-414.5 1094,-408.5 1100,-408.5 1100,-408.5 1172,-408.5 1172,-408.5 1178,-408.5 1184,-414.5 1184,-420.5 1184,-420.5 1184,-449.5 1184,-449.5 1184,-455.5 1178,-461.5 1172,-461.5"/>
<text text-anchor="start" x="1096" y="-446.3" font-family="Helvetica,sans-Serif" font-size="14.00">entropy = 0.0</text>
<text text-anchor="start" x="1098.5" y="-431.3" font-family="Helvetica,sans-Serif" font-size="14.00">samples = 8</text>
<text text-anchor="start" x="1096.5" y="-416.3" font-family="Helvetica,sans-Serif" font-size="14.00">value = [8, 0]</text>
</g>
<!-- 33&#45;&gt;45 -->
<g id="edge45" class="edge"><title>33&#45;&gt;45</title>
<path fill="none" stroke="black" d="M1055.64,-504.884C1069.36,-493.116 1084.79,-479.894 1098.43,-468.203"/>
<polygon fill="black" stroke="black" points="1100.91,-470.685 1106.23,-461.52 1096.36,-465.37 1100.91,-470.685"/>
</g>
<!-- 35 -->
<g id="node36" class="node"><title>35</title>
<path fill="#e58139" stroke="black" d="M985,-357.5C985,-357.5 913,-357.5 913,-357.5 907,-357.5 901,-351.5 901,-345.5 901,-345.5 901,-316.5 901,-316.5 901,-310.5 907,-304.5 913,-304.5 913,-304.5 985,-304.5 985,-304.5 991,-304.5 997,-310.5 997,-316.5 997,-316.5 997,-345.5 997,-345.5 997,-351.5 991,-357.5 985,-357.5"/>
<text text-anchor="start" x="909" y="-342.3" font-family="Helvetica,sans-Serif" font-size="14.00">entropy = 0.0</text>
<text text-anchor="start" x="911.5" y="-327.3" font-family="Helvetica,sans-Serif" font-size="14.00">samples = 7</text>
<text text-anchor="start" x="909.5" y="-312.3" font-family="Helvetica,sans-Serif" font-size="14.00">value = [7, 0]</text>
</g>
<!-- 34&#45;&gt;35 -->
<g id="edge35" class="edge"><title>34&#45;&gt;35</title>
<path fill="none" stroke="black" d="M992.896,-400.884C985.818,-389.776 977.913,-377.372 970.784,-366.184"/>
<polygon fill="black" stroke="black" points="973.588,-364.072 965.263,-357.52 967.685,-367.834 973.588,-364.072"/>
</g>
<!-- 36 -->
<g id="node37" class="node"><title>36</title>
<path fill="#e58139" fill-opacity="0.466667" stroke="black" d="M1114.5,-365C1114.5,-365 1027.5,-365 1027.5,-365 1021.5,-365 1015.5,-359 1015.5,-353 1015.5,-353 1015.5,-309 1015.5,-309 1015.5,-303 1021.5,-297 1027.5,-297 1027.5,-297 1114.5,-297 1114.5,-297 1120.5,-297 1126.5,-303 1126.5,-309 1126.5,-309 1126.5,-353 1126.5,-353 1126.5,-359 1120.5,-365 1114.5,-365"/>
<text text-anchor="start" x="1037.5" y="-349.8" font-family="Helvetica,sans-Serif" font-size="14.00">A15 ≤ 80.5</text>
<text text-anchor="start" x="1023.5" y="-334.8" font-family="Helvetica,sans-Serif" font-size="14.00">entropy = 0.932</text>
<text text-anchor="start" x="1030" y="-319.8" font-family="Helvetica,sans-Serif" font-size="14.00">samples = 23</text>
<text text-anchor="start" x="1028" y="-304.8" font-family="Helvetica,sans-Serif" font-size="14.00">value = [15, 8]</text>
</g>
<!-- 34&#45;&gt;36 -->
<g id="edge36" class="edge"><title>34&#45;&gt;36</title>
<path fill="none" stroke="black" d="M1032.51,-400.884C1037.28,-392.332 1042.49,-383.013 1047.49,-374.072"/>
<polygon fill="black" stroke="black" points="1050.57,-375.736 1052.39,-365.299 1044.46,-372.321 1050.57,-375.736"/>
</g>
<!-- 37 -->
<g id="node38" class="node"><title>37</title>
<path fill="#e58139" fill-opacity="0.600000" stroke="black" d="M1084.5,-261C1084.5,-261 997.5,-261 997.5,-261 991.5,-261 985.5,-255 985.5,-249 985.5,-249 985.5,-205 985.5,-205 985.5,-199 991.5,-193 997.5,-193 997.5,-193 1084.5,-193 1084.5,-193 1090.5,-193 1096.5,-199 1096.5,-205 1096.5,-205 1096.5,-249 1096.5,-249 1096.5,-255 1090.5,-261 1084.5,-261"/>
<text text-anchor="start" x="1004" y="-245.8" font-family="Helvetica,sans-Serif" font-size="14.00">A14 ≤ 190.5</text>
<text text-anchor="start" x="993.5" y="-230.8" font-family="Helvetica,sans-Serif" font-size="14.00">entropy = 0.863</text>
<text text-anchor="start" x="1000" y="-215.8" font-family="Helvetica,sans-Serif" font-size="14.00">samples = 21</text>
<text text-anchor="start" x="998" y="-200.8" font-family="Helvetica,sans-Serif" font-size="14.00">value = [15, 6]</text>
</g>
<!-- 36&#45;&gt;37 -->
<g id="edge37" class="edge"><title>36&#45;&gt;37</title>
<path fill="none" stroke="black" d="M1061.26,-296.884C1058.82,-288.6 1056.18,-279.595 1053.62,-270.911"/>
<polygon fill="black" stroke="black" points="1056.97,-269.905 1050.79,-261.299 1050.26,-271.881 1056.97,-269.905"/>
</g>
<!-- 44 -->
<g id="node45" class="node"><title>44</title>
<path fill="#399de5" stroke="black" d="M1199,-253.5C1199,-253.5 1127,-253.5 1127,-253.5 1121,-253.5 1115,-247.5 1115,-241.5 1115,-241.5 1115,-212.5 1115,-212.5 1115,-206.5 1121,-200.5 1127,-200.5 1127,-200.5 1199,-200.5 1199,-200.5 1205,-200.5 1211,-206.5 1211,-212.5 1211,-212.5 1211,-241.5 1211,-241.5 1211,-247.5 1205,-253.5 1199,-253.5"/>
<text text-anchor="start" x="1123" y="-238.3" font-family="Helvetica,sans-Serif" font-size="14.00">entropy = 0.0</text>
<text text-anchor="start" x="1125.5" y="-223.3" font-family="Helvetica,sans-Serif" font-size="14.00">samples = 2</text>
<text text-anchor="start" x="1123.5" y="-208.3" font-family="Helvetica,sans-Serif" font-size="14.00">value = [0, 2]</text>
</g>
<!-- 36&#45;&gt;44 -->
<g id="edge44" class="edge"><title>36&#45;&gt;44</title>
<path fill="none" stroke="black" d="M1100.87,-296.884C1111.19,-285.446 1122.74,-272.634 1133.06,-261.19"/>
<polygon fill="black" stroke="black" points="1135.88,-263.29 1139.98,-253.52 1130.69,-258.601 1135.88,-263.29"/>
</g>
<!-- 38 -->
<g id="node39" class="node"><title>38</title>
<path fill="#e58139" fill-opacity="0.784314" stroke="black" d="M1082.5,-157C1082.5,-157 995.5,-157 995.5,-157 989.5,-157 983.5,-151 983.5,-145 983.5,-145 983.5,-101 983.5,-101 983.5,-95 989.5,-89 995.5,-89 995.5,-89 1082.5,-89 1082.5,-89 1088.5,-89 1094.5,-95 1094.5,-101 1094.5,-101 1094.5,-145 1094.5,-145 1094.5,-151 1088.5,-157 1082.5,-157"/>
<text text-anchor="start" x="1005.5" y="-141.8" font-family="Helvetica,sans-Serif" font-size="14.00">A14 ≤ 77.5</text>
<text text-anchor="start" x="991.5" y="-126.8" font-family="Helvetica,sans-Serif" font-size="14.00">entropy = 0.672</text>
<text text-anchor="start" x="998" y="-111.8" font-family="Helvetica,sans-Serif" font-size="14.00">samples = 17</text>
<text text-anchor="start" x="996" y="-96.8" font-family="Helvetica,sans-Serif" font-size="14.00">value = [14, 3]</text>
</g>
<!-- 37&#45;&gt;38 -->
<g id="edge38" class="edge"><title>37&#45;&gt;38</title>
<path fill="none" stroke="black" d="M1040.35,-192.884C1040.19,-184.778 1040.02,-175.982 1039.85,-167.472"/>
<polygon fill="black" stroke="black" points="1043.35,-167.229 1039.65,-157.299 1036.35,-167.366 1043.35,-167.229"/>
</g>
<!-- 41 -->
<g id="node42" class="node"><title>41</title>
<path fill="#399de5" fill-opacity="0.666667" stroke="black" d="M1211.5,-157C1211.5,-157 1124.5,-157 1124.5,-157 1118.5,-157 1112.5,-151 1112.5,-145 1112.5,-145 1112.5,-101 1112.5,-101 1112.5,-95 1118.5,-89 1124.5,-89 1124.5,-89 1211.5,-89 1211.5,-89 1217.5,-89 1223.5,-95 1223.5,-101 1223.5,-101 1223.5,-145 1223.5,-145 1223.5,-151 1217.5,-157 1211.5,-157"/>
<text text-anchor="start" x="1134.5" y="-141.8" font-family="Helvetica,sans-Serif" font-size="14.00">A2 ≤ 39.46</text>
<text text-anchor="start" x="1120.5" y="-126.8" font-family="Helvetica,sans-Serif" font-size="14.00">entropy = 0.811</text>
<text text-anchor="start" x="1130.5" y="-111.8" font-family="Helvetica,sans-Serif" font-size="14.00">samples = 4</text>
<text text-anchor="start" x="1128.5" y="-96.8" font-family="Helvetica,sans-Serif" font-size="14.00">value = [1, 3]</text>
</g>
<!-- 37&#45;&gt;41 -->
<g id="edge41" class="edge"><title>37&#45;&gt;41</title>
<path fill="none" stroke="black" d="M1082.23,-192.884C1093.88,-183.531 1106.67,-173.259 1118.73,-163.568"/>
<polygon fill="black" stroke="black" points="1120.93,-166.29 1126.54,-157.299 1116.55,-160.832 1120.93,-166.29"/>
</g>
<!-- 39 -->
<g id="node40" class="node"><title>39</title>
<path fill="#399de5" stroke="black" d="M955,-53C955,-53 883,-53 883,-53 877,-53 871,-47 871,-41 871,-41 871,-12 871,-12 871,-6 877,-0 883,-0 883,-0 955,-0 955,-0 961,-0 967,-6 967,-12 967,-12 967,-41 967,-41 967,-47 961,-53 955,-53"/>
<text text-anchor="start" x="879" y="-37.8" font-family="Helvetica,sans-Serif" font-size="14.00">entropy = 0.0</text>
<text text-anchor="start" x="881.5" y="-22.8" font-family="Helvetica,sans-Serif" font-size="14.00">samples = 1</text>
<text text-anchor="start" x="879.5" y="-7.8" font-family="Helvetica,sans-Serif" font-size="14.00">value = [0, 1]</text>
</g>
<!-- 38&#45;&gt;39 -->
<g id="edge39" class="edge"><title>38&#45;&gt;39</title>
<path fill="none" stroke="black" d="M997.03,-88.9485C984.949,-79.4346 971.792,-69.074 959.784,-59.6175"/>
<polygon fill="black" stroke="black" points="961.703,-56.6739 951.682,-53.2367 957.372,-62.1734 961.703,-56.6739"/>
</g>
<!-- 40 -->
<g id="node41" class="node"><title>40</title>
<path fill="#e58139" fill-opacity="0.858824" stroke="black" d="M1084.5,-53C1084.5,-53 997.5,-53 997.5,-53 991.5,-53 985.5,-47 985.5,-41 985.5,-41 985.5,-12 985.5,-12 985.5,-6 991.5,-0 997.5,-0 997.5,-0 1084.5,-0 1084.5,-0 1090.5,-0 1096.5,-6 1096.5,-12 1096.5,-12 1096.5,-41 1096.5,-41 1096.5,-47 1090.5,-53 1084.5,-53"/>
<text text-anchor="start" x="993.5" y="-37.8" font-family="Helvetica,sans-Serif" font-size="14.00">entropy = 0.544</text>
<text text-anchor="start" x="1000" y="-22.8" font-family="Helvetica,sans-Serif" font-size="14.00">samples = 16</text>
<text text-anchor="start" x="998" y="-7.8" font-family="Helvetica,sans-Serif" font-size="14.00">value = [14, 2]</text>
</g>
<!-- 38&#45;&gt;40 -->
<g id="edge40" class="edge"><title>38&#45;&gt;40</title>
<path fill="none" stroke="black" d="M1039.7,-88.9485C1039.87,-80.7153 1040.06,-71.848 1040.24,-63.4814"/>
<polygon fill="black" stroke="black" points="1043.74,-63.3086 1040.46,-53.2367 1036.74,-63.1604 1043.74,-63.3086"/>
</g>
<!-- 42 -->
<g id="node43" class="node"><title>42</title>
<path fill="#399de5" stroke="black" d="M1201,-53C1201,-53 1129,-53 1129,-53 1123,-53 1117,-47 1117,-41 1117,-41 1117,-12 1117,-12 1117,-6 1123,-0 1129,-0 1129,-0 1201,-0 1201,-0 1207,-0 1213,-6 1213,-12 1213,-12 1213,-41 1213,-41 1213,-47 1207,-53 1201,-53"/>
<text text-anchor="start" x="1125" y="-37.8" font-family="Helvetica,sans-Serif" font-size="14.00">entropy = 0.0</text>
<text text-anchor="start" x="1127.5" y="-22.8" font-family="Helvetica,sans-Serif" font-size="14.00">samples = 3</text>
<text text-anchor="start" x="1125.5" y="-7.8" font-family="Helvetica,sans-Serif" font-size="14.00">value = [0, 3]</text>
</g>
<!-- 41&#45;&gt;42 -->
<g id="edge42" class="edge"><title>41&#45;&gt;42</title>
<path fill="none" stroke="black" d="M1166.95,-88.9485C1166.69,-80.7153 1166.41,-71.848 1166.14,-63.4814"/>
<polygon fill="black" stroke="black" points="1169.63,-63.1206 1165.82,-53.2367 1162.64,-63.3428 1169.63,-63.1206"/>
</g>
<!-- 43 -->
<g id="node44" class="node"><title>43</title>
<path fill="#e58139" stroke="black" d="M1315,-53C1315,-53 1243,-53 1243,-53 1237,-53 1231,-47 1231,-41 1231,-41 1231,-12 1231,-12 1231,-6 1237,-0 1243,-0 1243,-0 1315,-0 1315,-0 1321,-0 1327,-6 1327,-12 1327,-12 1327,-41 1327,-41 1327,-47 1321,-53 1315,-53"/>
<text text-anchor="start" x="1239" y="-37.8" font-family="Helvetica,sans-Serif" font-size="14.00">entropy = 0.0</text>
<text text-anchor="start" x="1241.5" y="-22.8" font-family="Helvetica,sans-Serif" font-size="14.00">samples = 1</text>
<text text-anchor="start" x="1239.5" y="-7.8" font-family="Helvetica,sans-Serif" font-size="14.00">value = [1, 0]</text>
</g>
<!-- 41&#45;&gt;43 -->
<g id="edge43" class="edge"><title>41&#45;&gt;43</title>
<path fill="none" stroke="black" d="M1206.82,-88.9485C1217.89,-79.526 1229.93,-69.2731 1240.95,-59.8906"/>
<polygon fill="black" stroke="black" points="1243.42,-62.3842 1248.77,-53.2367 1238.89,-57.0542 1243.42,-62.3842"/>
</g>
<!-- 48 -->
<g id="node49" class="node"><title>48</title>
<path fill="#399de5" fill-opacity="0.498039" stroke="black" d="M1473.5,-677C1473.5,-677 1386.5,-677 1386.5,-677 1380.5,-677 1374.5,-671 1374.5,-665 1374.5,-665 1374.5,-621 1374.5,-621 1374.5,-615 1380.5,-609 1386.5,-609 1386.5,-609 1473.5,-609 1473.5,-609 1479.5,-609 1485.5,-615 1485.5,-621 1485.5,-621 1485.5,-665 1485.5,-665 1485.5,-671 1479.5,-677 1473.5,-677"/>
<text text-anchor="start" x="1400.5" y="-661.8" font-family="Helvetica,sans-Serif" font-size="14.00">A2 ≤ 28.5</text>
<text text-anchor="start" x="1382.5" y="-646.8" font-family="Helvetica,sans-Serif" font-size="14.00">entropy = 0.918</text>
<text text-anchor="start" x="1389" y="-631.8" font-family="Helvetica,sans-Serif" font-size="14.00">samples = 39</text>
<text text-anchor="start" x="1383" y="-616.8" font-family="Helvetica,sans-Serif" font-size="14.00">value = [13, 26]</text>
</g>
<!-- 47&#45;&gt;48 -->
<g id="edge48" class="edge"><title>47&#45;&gt;48</title>
<path fill="none" stroke="black" d="M1430,-712.884C1430,-704.778 1430,-695.982 1430,-687.472"/>
<polygon fill="black" stroke="black" points="1433.5,-687.299 1430,-677.299 1426.5,-687.299 1433.5,-687.299"/>
</g>
<!-- 65 -->
<g id="node66" class="node"><title>65</title>
<path fill="#e58139" fill-opacity="0.749020" stroke="black" d="M1663.5,-677C1663.5,-677 1576.5,-677 1576.5,-677 1570.5,-677 1564.5,-671 1564.5,-665 1564.5,-665 1564.5,-621 1564.5,-621 1564.5,-615 1570.5,-609 1576.5,-609 1576.5,-609 1663.5,-609 1663.5,-609 1669.5,-609 1675.5,-615 1675.5,-621 1675.5,-621 1675.5,-665 1675.5,-665 1675.5,-671 1669.5,-677 1663.5,-677"/>
<text text-anchor="start" x="1590.5" y="-661.8" font-family="Helvetica,sans-Serif" font-size="14.00">A8 ≤ 8.98</text>
<text text-anchor="start" x="1572.5" y="-646.8" font-family="Helvetica,sans-Serif" font-size="14.00">entropy = 0.722</text>
<text text-anchor="start" x="1579" y="-631.8" font-family="Helvetica,sans-Serif" font-size="14.00">samples = 10</text>
<text text-anchor="start" x="1580.5" y="-616.8" font-family="Helvetica,sans-Serif" font-size="14.00">value = [8, 2]</text>
</g>
<!-- 47&#45;&gt;65 -->
<g id="edge65" class="edge"><title>47&#45;&gt;65</title>
<path fill="none" stroke="black" d="M1485.72,-716.086C1507.57,-704.358 1532.78,-690.824 1555.41,-678.672"/>
<polygon fill="black" stroke="black" points="1557.12,-681.727 1564.28,-673.914 1553.81,-675.56 1557.12,-681.727"/>
</g>
<!-- 49 -->
<g id="node50" class="node"><title>49</title>
<path fill="#e58139" fill-opacity="0.180392" stroke="black" d="M1412.5,-573C1412.5,-573 1325.5,-573 1325.5,-573 1319.5,-573 1313.5,-567 1313.5,-561 1313.5,-561 1313.5,-517 1313.5,-517 1313.5,-511 1319.5,-505 1325.5,-505 1325.5,-505 1412.5,-505 1412.5,-505 1418.5,-505 1424.5,-511 1424.5,-517 1424.5,-517 1424.5,-561 1424.5,-561 1424.5,-567 1418.5,-573 1412.5,-573"/>
<text text-anchor="start" x="1332" y="-557.8" font-family="Helvetica,sans-Serif" font-size="14.00">A14 ≤ 120.0</text>
<text text-anchor="start" x="1321.5" y="-542.8" font-family="Helvetica,sans-Serif" font-size="14.00">entropy = 0.993</text>
<text text-anchor="start" x="1328" y="-527.8" font-family="Helvetica,sans-Serif" font-size="14.00">samples = 20</text>
<text text-anchor="start" x="1326" y="-512.8" font-family="Helvetica,sans-Serif" font-size="14.00">value = [11, 9]</text>
</g>
<!-- 48&#45;&gt;49 -->
<g id="edge49" class="edge"><title>48&#45;&gt;49</title>
<path fill="none" stroke="black" d="M1410.2,-608.884C1405.08,-600.332 1399.51,-591.013 1394.16,-582.072"/>
<polygon fill="black" stroke="black" points="1397.05,-580.085 1388.91,-573.299 1391.04,-583.678 1397.05,-580.085"/>
</g>
<!-- 58 -->
<g id="node59" class="node"><title>58</title>
<path fill="#399de5" fill-opacity="0.882353" stroke="black" d="M1541.5,-573C1541.5,-573 1454.5,-573 1454.5,-573 1448.5,-573 1442.5,-567 1442.5,-561 1442.5,-561 1442.5,-517 1442.5,-517 1442.5,-511 1448.5,-505 1454.5,-505 1454.5,-505 1541.5,-505 1541.5,-505 1547.5,-505 1553.5,-511 1553.5,-517 1553.5,-517 1553.5,-561 1553.5,-561 1553.5,-567 1547.5,-573 1541.5,-573"/>
<text text-anchor="start" x="1463.5" y="-557.8" font-family="Helvetica,sans-Serif" font-size="14.00">A6_w ≤ 0.5</text>
<text text-anchor="start" x="1450.5" y="-542.8" font-family="Helvetica,sans-Serif" font-size="14.00">entropy = 0.485</text>
<text text-anchor="start" x="1457" y="-527.8" font-family="Helvetica,sans-Serif" font-size="14.00">samples = 19</text>
<text text-anchor="start" x="1455" y="-512.8" font-family="Helvetica,sans-Serif" font-size="14.00">value = [2, 17]</text>
</g>
<!-- 48&#45;&gt;58 -->
<g id="edge58" class="edge"><title>48&#45;&gt;58</title>
<path fill="none" stroke="black" d="M1452.08,-608.884C1457.84,-600.243 1464.12,-590.819 1470.14,-581.793"/>
<polygon fill="black" stroke="black" points="1473.17,-583.561 1475.8,-573.299 1467.34,-579.678 1473.17,-583.561"/>
</g>
<!-- 50 -->
<g id="node51" class="node"><title>50</title>
<path fill="#e58139" stroke="black" d="M1286,-461.5C1286,-461.5 1214,-461.5 1214,-461.5 1208,-461.5 1202,-455.5 1202,-449.5 1202,-449.5 1202,-420.5 1202,-420.5 1202,-414.5 1208,-408.5 1214,-408.5 1214,-408.5 1286,-408.5 1286,-408.5 1292,-408.5 1298,-414.5 1298,-420.5 1298,-420.5 1298,-449.5 1298,-449.5 1298,-455.5 1292,-461.5 1286,-461.5"/>
<text text-anchor="start" x="1210" y="-446.3" font-family="Helvetica,sans-Serif" font-size="14.00">entropy = 0.0</text>
<text text-anchor="start" x="1212.5" y="-431.3" font-family="Helvetica,sans-Serif" font-size="14.00">samples = 8</text>
<text text-anchor="start" x="1210.5" y="-416.3" font-family="Helvetica,sans-Serif" font-size="14.00">value = [8, 0]</text>
</g>
<!-- 49&#45;&gt;50 -->
<g id="edge50" class="edge"><title>49&#45;&gt;50</title>
<path fill="none" stroke="black" d="M1330.36,-504.884C1316.64,-493.116 1301.21,-479.894 1287.57,-468.203"/>
<polygon fill="black" stroke="black" points="1289.64,-465.37 1279.77,-461.52 1285.09,-470.685 1289.64,-465.37"/>
</g>
<!-- 51 -->
<g id="node52" class="node"><title>51</title>
<path fill="#399de5" fill-opacity="0.666667" stroke="black" d="M1415.5,-469C1415.5,-469 1328.5,-469 1328.5,-469 1322.5,-469 1316.5,-463 1316.5,-457 1316.5,-457 1316.5,-413 1316.5,-413 1316.5,-407 1322.5,-401 1328.5,-401 1328.5,-401 1415.5,-401 1415.5,-401 1421.5,-401 1427.5,-407 1427.5,-413 1427.5,-413 1427.5,-457 1427.5,-457 1427.5,-463 1421.5,-469 1415.5,-469"/>
<text text-anchor="start" x="1335" y="-453.8" font-family="Helvetica,sans-Serif" font-size="14.00">A2 ≤ 25.835</text>
<text text-anchor="start" x="1324.5" y="-438.8" font-family="Helvetica,sans-Serif" font-size="14.00">entropy = 0.811</text>
<text text-anchor="start" x="1331" y="-423.8" font-family="Helvetica,sans-Serif" font-size="14.00">samples = 12</text>
<text text-anchor="start" x="1332.5" y="-408.8" font-family="Helvetica,sans-Serif" font-size="14.00">value = [3, 9]</text>
</g>
<!-- 49&#45;&gt;51 -->
<g id="edge51" class="edge"><title>49&#45;&gt;51</title>
<path fill="none" stroke="black" d="M1369.97,-504.884C1370.21,-496.778 1370.47,-487.982 1370.72,-479.472"/>
<polygon fill="black" stroke="black" points="1374.23,-479.398 1371.02,-469.299 1367.23,-479.192 1374.23,-479.398"/>
</g>
<!-- 52 -->
<g id="node53" class="node"><title>52</title>
<path fill="#399de5" stroke="black" d="M1286,-357.5C1286,-357.5 1214,-357.5 1214,-357.5 1208,-357.5 1202,-351.5 1202,-345.5 1202,-345.5 1202,-316.5 1202,-316.5 1202,-310.5 1208,-304.5 1214,-304.5 1214,-304.5 1286,-304.5 1286,-304.5 1292,-304.5 1298,-310.5 1298,-316.5 1298,-316.5 1298,-345.5 1298,-345.5 1298,-351.5 1292,-357.5 1286,-357.5"/>
<text text-anchor="start" x="1210" y="-342.3" font-family="Helvetica,sans-Serif" font-size="14.00">entropy = 0.0</text>
<text text-anchor="start" x="1212.5" y="-327.3" font-family="Helvetica,sans-Serif" font-size="14.00">samples = 7</text>
<text text-anchor="start" x="1210.5" y="-312.3" font-family="Helvetica,sans-Serif" font-size="14.00">value = [0, 7]</text>
</g>
<!-- 51&#45;&gt;52 -->
<g id="edge52" class="edge"><title>51&#45;&gt;52</title>
<path fill="none" stroke="black" d="M1332.39,-400.884C1318.31,-389.116 1302.5,-375.894 1288.52,-364.203"/>
<polygon fill="black" stroke="black" points="1290.44,-361.249 1280.52,-357.52 1285.95,-366.619 1290.44,-361.249"/>
</g>
<!-- 53 -->
<g id="node54" class="node"><title>53</title>
<path fill="#e58139" fill-opacity="0.333333" stroke="black" d="M1415.5,-365C1415.5,-365 1328.5,-365 1328.5,-365 1322.5,-365 1316.5,-359 1316.5,-353 1316.5,-353 1316.5,-309 1316.5,-309 1316.5,-303 1322.5,-297 1328.5,-297 1328.5,-297 1415.5,-297 1415.5,-297 1421.5,-297 1427.5,-303 1427.5,-309 1427.5,-309 1427.5,-353 1427.5,-353 1427.5,-359 1421.5,-365 1415.5,-365"/>
<text text-anchor="start" x="1335" y="-349.8" font-family="Helvetica,sans-Serif" font-size="14.00">A2 ≤ 26.665</text>
<text text-anchor="start" x="1324.5" y="-334.8" font-family="Helvetica,sans-Serif" font-size="14.00">entropy = 0.971</text>
<text text-anchor="start" x="1334.5" y="-319.8" font-family="Helvetica,sans-Serif" font-size="14.00">samples = 5</text>
<text text-anchor="start" x="1332.5" y="-304.8" font-family="Helvetica,sans-Serif" font-size="14.00">value = [3, 2]</text>
</g>
<!-- 51&#45;&gt;53 -->
<g id="edge53" class="edge"><title>51&#45;&gt;53</title>
<path fill="none" stroke="black" d="M1372,-400.884C1372,-392.778 1372,-383.982 1372,-375.472"/>
<polygon fill="black" stroke="black" points="1375.5,-375.299 1372,-365.299 1368.5,-375.299 1375.5,-375.299"/>
</g>
<!-- 54 -->
<g id="node55" class="node"><title>54</title>
<path fill="#e58139" stroke="black" d="M1316,-253.5C1316,-253.5 1244,-253.5 1244,-253.5 1238,-253.5 1232,-247.5 1232,-241.5 1232,-241.5 1232,-212.5 1232,-212.5 1232,-206.5 1238,-200.5 1244,-200.5 1244,-200.5 1316,-200.5 1316,-200.5 1322,-200.5 1328,-206.5 1328,-212.5 1328,-212.5 1328,-241.5 1328,-241.5 1328,-247.5 1322,-253.5 1316,-253.5"/>
<text text-anchor="start" x="1240" y="-238.3" font-family="Helvetica,sans-Serif" font-size="14.00">entropy = 0.0</text>
<text text-anchor="start" x="1242.5" y="-223.3" font-family="Helvetica,sans-Serif" font-size="14.00">samples = 2</text>
<text text-anchor="start" x="1240.5" y="-208.3" font-family="Helvetica,sans-Serif" font-size="14.00">value = [2, 0]</text>
</g>
<!-- 53&#45;&gt;54 -->
<g id="edge54" class="edge"><title>53&#45;&gt;54</title>
<path fill="none" stroke="black" d="M1342.13,-296.884C1331.81,-285.446 1320.26,-272.634 1309.94,-261.19"/>
<polygon fill="black" stroke="black" points="1312.31,-258.601 1303.02,-253.52 1307.12,-263.29 1312.31,-258.601"/>
</g>
<!-- 55 -->
<g id="node56" class="node"><title>55</title>
<path fill="#399de5" fill-opacity="0.498039" stroke="black" d="M1445.5,-261C1445.5,-261 1358.5,-261 1358.5,-261 1352.5,-261 1346.5,-255 1346.5,-249 1346.5,-249 1346.5,-205 1346.5,-205 1346.5,-199 1352.5,-193 1358.5,-193 1358.5,-193 1445.5,-193 1445.5,-193 1451.5,-193 1457.5,-199 1457.5,-205 1457.5,-205 1457.5,-249 1457.5,-249 1457.5,-255 1451.5,-261 1445.5,-261"/>
<text text-anchor="start" x="1367.5" y="-245.8" font-family="Helvetica,sans-Serif" font-size="14.00">A6_w ≤ 0.5</text>
<text text-anchor="start" x="1354.5" y="-230.8" font-family="Helvetica,sans-Serif" font-size="14.00">entropy = 0.918</text>
<text text-anchor="start" x="1364.5" y="-215.8" font-family="Helvetica,sans-Serif" font-size="14.00">samples = 3</text>
<text text-anchor="start" x="1362.5" y="-200.8" font-family="Helvetica,sans-Serif" font-size="14.00">value = [1, 2]</text>
</g>
<!-- 53&#45;&gt;55 -->
<g id="edge55" class="edge"><title>53&#45;&gt;55</title>
<path fill="none" stroke="black" d="M1381.74,-296.884C1384.18,-288.6 1386.82,-279.595 1389.38,-270.911"/>
<polygon fill="black" stroke="black" points="1392.74,-271.881 1392.21,-261.299 1386.03,-269.905 1392.74,-271.881"/>
</g>
<!-- 56 -->
<g id="node57" class="node"><title>56</title>
<path fill="#399de5" stroke="black" d="M1382,-149.5C1382,-149.5 1310,-149.5 1310,-149.5 1304,-149.5 1298,-143.5 1298,-137.5 1298,-137.5 1298,-108.5 1298,-108.5 1298,-102.5 1304,-96.5 1310,-96.5 1310,-96.5 1382,-96.5 1382,-96.5 1388,-96.5 1394,-102.5 1394,-108.5 1394,-108.5 1394,-137.5 1394,-137.5 1394,-143.5 1388,-149.5 1382,-149.5"/>
<text text-anchor="start" x="1306" y="-134.3" font-family="Helvetica,sans-Serif" font-size="14.00">entropy = 0.0</text>
<text text-anchor="start" x="1308.5" y="-119.3" font-family="Helvetica,sans-Serif" font-size="14.00">samples = 2</text>
<text text-anchor="start" x="1306.5" y="-104.3" font-family="Helvetica,sans-Serif" font-size="14.00">value = [0, 2]</text>
</g>
<!-- 55&#45;&gt;56 -->
<g id="edge56" class="edge"><title>55&#45;&gt;56</title>
<path fill="none" stroke="black" d="M1383.82,-192.884C1377.78,-181.886 1371.04,-169.617 1364.95,-158.517"/>
<polygon fill="black" stroke="black" points="1367.89,-156.601 1360.01,-149.52 1361.76,-159.97 1367.89,-156.601"/>
</g>
<!-- 57 -->
<g id="node58" class="node"><title>57</title>
<path fill="#e58139" stroke="black" d="M1496,-149.5C1496,-149.5 1424,-149.5 1424,-149.5 1418,-149.5 1412,-143.5 1412,-137.5 1412,-137.5 1412,-108.5 1412,-108.5 1412,-102.5 1418,-96.5 1424,-96.5 1424,-96.5 1496,-96.5 1496,-96.5 1502,-96.5 1508,-102.5 1508,-108.5 1508,-108.5 1508,-137.5 1508,-137.5 1508,-143.5 1502,-149.5 1496,-149.5"/>
<text text-anchor="start" x="1420" y="-134.3" font-family="Helvetica,sans-Serif" font-size="14.00">entropy = 0.0</text>
<text text-anchor="start" x="1422.5" y="-119.3" font-family="Helvetica,sans-Serif" font-size="14.00">samples = 1</text>
<text text-anchor="start" x="1420.5" y="-104.3" font-family="Helvetica,sans-Serif" font-size="14.00">value = [1, 0]</text>
</g>
<!-- 55&#45;&gt;57 -->
<g id="edge57" class="edge"><title>55&#45;&gt;57</title>
<path fill="none" stroke="black" d="M1420.83,-192.884C1427.08,-181.886 1434.06,-169.617 1440.37,-158.517"/>
<polygon fill="black" stroke="black" points="1443.59,-159.943 1445.49,-149.52 1437.5,-156.483 1443.59,-159.943"/>
</g>
<!-- 59 -->
<g id="node60" class="node"><title>59</title>
<path fill="#399de5" fill-opacity="0.941176" stroke="black" d="M1538,-469C1538,-469 1458,-469 1458,-469 1452,-469 1446,-463 1446,-457 1446,-457 1446,-413 1446,-413 1446,-407 1452,-401 1458,-401 1458,-401 1538,-401 1538,-401 1544,-401 1550,-407 1550,-413 1550,-413 1550,-457 1550,-457 1550,-463 1544,-469 1538,-469"/>
<text text-anchor="start" x="1461" y="-453.8" font-family="Helvetica,sans-Serif" font-size="14.00">A6_aa ≤ 0.5</text>
<text text-anchor="start" x="1454" y="-438.8" font-family="Helvetica,sans-Serif" font-size="14.00">entropy = 0.31</text>
<text text-anchor="start" x="1457" y="-423.8" font-family="Helvetica,sans-Serif" font-size="14.00">samples = 18</text>
<text text-anchor="start" x="1455" y="-408.8" font-family="Helvetica,sans-Serif" font-size="14.00">value = [1, 17]</text>
</g>
<!-- 58&#45;&gt;59 -->
<g id="edge59" class="edge"><title>58&#45;&gt;59</title>
<path fill="none" stroke="black" d="M1498,-504.884C1498,-496.778 1498,-487.982 1498,-479.472"/>
<polygon fill="black" stroke="black" points="1501.5,-479.299 1498,-469.299 1494.5,-479.299 1501.5,-479.299"/>
</g>
<!-- 64 -->
<g id="node65" class="node"><title>64</title>
<path fill="#e58139" stroke="black" d="M1652,-461.5C1652,-461.5 1580,-461.5 1580,-461.5 1574,-461.5 1568,-455.5 1568,-449.5 1568,-449.5 1568,-420.5 1568,-420.5 1568,-414.5 1574,-408.5 1580,-408.5 1580,-408.5 1652,-408.5 1652,-408.5 1658,-408.5 1664,-414.5 1664,-420.5 1664,-420.5 1664,-449.5 1664,-449.5 1664,-455.5 1658,-461.5 1652,-461.5"/>
<text text-anchor="start" x="1576" y="-446.3" font-family="Helvetica,sans-Serif" font-size="14.00">entropy = 0.0</text>
<text text-anchor="start" x="1578.5" y="-431.3" font-family="Helvetica,sans-Serif" font-size="14.00">samples = 1</text>
<text text-anchor="start" x="1576.5" y="-416.3" font-family="Helvetica,sans-Serif" font-size="14.00">value = [1, 0]</text>
</g>
<!-- 58&#45;&gt;64 -->
<g id="edge64" class="edge"><title>58&#45;&gt;64</title>
<path fill="none" stroke="black" d="M1536.31,-504.884C1549.92,-493.116 1565.22,-479.894 1578.75,-468.203"/>
<polygon fill="black" stroke="black" points="1581.2,-470.707 1586.48,-461.52 1576.62,-465.412 1581.2,-470.707"/>
</g>
<!-- 60 -->
<g id="node61" class="node"><title>60</title>
<path fill="#399de5" stroke="black" d="M1536,-357.5C1536,-357.5 1458,-357.5 1458,-357.5 1452,-357.5 1446,-351.5 1446,-345.5 1446,-345.5 1446,-316.5 1446,-316.5 1446,-310.5 1452,-304.5 1458,-304.5 1458,-304.5 1536,-304.5 1536,-304.5 1542,-304.5 1548,-310.5 1548,-316.5 1548,-316.5 1548,-345.5 1548,-345.5 1548,-351.5 1542,-357.5 1536,-357.5"/>
<text text-anchor="start" x="1457" y="-342.3" font-family="Helvetica,sans-Serif" font-size="14.00">entropy = 0.0</text>
<text text-anchor="start" x="1456" y="-327.3" font-family="Helvetica,sans-Serif" font-size="14.00">samples = 15</text>
<text text-anchor="start" x="1454" y="-312.3" font-family="Helvetica,sans-Serif" font-size="14.00">value = [0, 15]</text>
</g>
<!-- 59&#45;&gt;60 -->
<g id="edge60" class="edge"><title>59&#45;&gt;60</title>
<path fill="none" stroke="black" d="M1497.68,-400.884C1497.57,-390.326 1497.46,-378.597 1497.35,-367.854"/>
<polygon fill="black" stroke="black" points="1500.85,-367.485 1497.25,-357.52 1493.85,-367.554 1500.85,-367.485"/>
</g>
<!-- 61 -->
<g id="node62" class="node"><title>61</title>
<path fill="#399de5" fill-opacity="0.498039" stroke="black" d="M1664.5,-365C1664.5,-365 1577.5,-365 1577.5,-365 1571.5,-365 1565.5,-359 1565.5,-353 1565.5,-353 1565.5,-309 1565.5,-309 1565.5,-303 1571.5,-297 1577.5,-297 1577.5,-297 1664.5,-297 1664.5,-297 1670.5,-297 1676.5,-303 1676.5,-309 1676.5,-309 1676.5,-353 1676.5,-353 1676.5,-359 1670.5,-365 1664.5,-365"/>
<text text-anchor="start" x="1584" y="-349.8" font-family="Helvetica,sans-Serif" font-size="14.00">A13_g ≤ 0.5</text>
<text text-anchor="start" x="1573.5" y="-334.8" font-family="Helvetica,sans-Serif" font-size="14.00">entropy = 0.918</text>
<text text-anchor="start" x="1583.5" y="-319.8" font-family="Helvetica,sans-Serif" font-size="14.00">samples = 3</text>
<text text-anchor="start" x="1581.5" y="-304.8" font-family="Helvetica,sans-Serif" font-size="14.00">value = [1, 2]</text>
</g>
<!-- 59&#45;&gt;61 -->
<g id="edge61" class="edge"><title>59&#45;&gt;61</title>
<path fill="none" stroke="black" d="M1537.93,-400.884C1549.11,-391.62 1561.36,-381.455 1572.95,-371.845"/>
<polygon fill="black" stroke="black" points="1575.38,-374.377 1580.84,-365.299 1570.91,-368.989 1575.38,-374.377"/>
</g>
<!-- 62 -->
<g id="node63" class="node"><title>62</title>
<path fill="#e58139" stroke="black" d="M1600,-253.5C1600,-253.5 1528,-253.5 1528,-253.5 1522,-253.5 1516,-247.5 1516,-241.5 1516,-241.5 1516,-212.5 1516,-212.5 1516,-206.5 1522,-200.5 1528,-200.5 1528,-200.5 1600,-200.5 1600,-200.5 1606,-200.5 1612,-206.5 1612,-212.5 1612,-212.5 1612,-241.5 1612,-241.5 1612,-247.5 1606,-253.5 1600,-253.5"/>
<text text-anchor="start" x="1524" y="-238.3" font-family="Helvetica,sans-Serif" font-size="14.00">entropy = 0.0</text>
<text text-anchor="start" x="1526.5" y="-223.3" font-family="Helvetica,sans-Serif" font-size="14.00">samples = 1</text>
<text text-anchor="start" x="1524.5" y="-208.3" font-family="Helvetica,sans-Serif" font-size="14.00">value = [1, 0]</text>
</g>
<!-- 61&#45;&gt;62 -->
<g id="edge62" class="edge"><title>61&#45;&gt;62</title>
<path fill="none" stroke="black" d="M1602.49,-296.884C1596.35,-285.886 1589.49,-273.617 1583.29,-262.517"/>
<polygon fill="black" stroke="black" points="1586.19,-260.542 1578.26,-253.52 1580.08,-263.957 1586.19,-260.542"/>
</g>
<!-- 63 -->
<g id="node64" class="node"><title>63</title>
<path fill="#399de5" stroke="black" d="M1714,-253.5C1714,-253.5 1642,-253.5 1642,-253.5 1636,-253.5 1630,-247.5 1630,-241.5 1630,-241.5 1630,-212.5 1630,-212.5 1630,-206.5 1636,-200.5 1642,-200.5 1642,-200.5 1714,-200.5 1714,-200.5 1720,-200.5 1726,-206.5 1726,-212.5 1726,-212.5 1726,-241.5 1726,-241.5 1726,-247.5 1720,-253.5 1714,-253.5"/>
<text text-anchor="start" x="1638" y="-238.3" font-family="Helvetica,sans-Serif" font-size="14.00">entropy = 0.0</text>
<text text-anchor="start" x="1640.5" y="-223.3" font-family="Helvetica,sans-Serif" font-size="14.00">samples = 2</text>
<text text-anchor="start" x="1638.5" y="-208.3" font-family="Helvetica,sans-Serif" font-size="14.00">value = [0, 2]</text>
</g>
<!-- 61&#45;&gt;63 -->
<g id="edge63" class="edge"><title>61&#45;&gt;63</title>
<path fill="none" stroke="black" d="M1639.51,-296.884C1645.65,-285.886 1652.51,-273.617 1658.71,-262.517"/>
<polygon fill="black" stroke="black" points="1661.92,-263.957 1663.74,-253.52 1655.81,-260.542 1661.92,-263.957"/>
</g>
<!-- 66 -->
<g id="node67" class="node"><title>66</title>
<path fill="#e58139" stroke="black" d="M1656,-565.5C1656,-565.5 1584,-565.5 1584,-565.5 1578,-565.5 1572,-559.5 1572,-553.5 1572,-553.5 1572,-524.5 1572,-524.5 1572,-518.5 1578,-512.5 1584,-512.5 1584,-512.5 1656,-512.5 1656,-512.5 1662,-512.5 1668,-518.5 1668,-524.5 1668,-524.5 1668,-553.5 1668,-553.5 1668,-559.5 1662,-565.5 1656,-565.5"/>
<text text-anchor="start" x="1580" y="-550.3" font-family="Helvetica,sans-Serif" font-size="14.00">entropy = 0.0</text>
<text text-anchor="start" x="1582.5" y="-535.3" font-family="Helvetica,sans-Serif" font-size="14.00">samples = 8</text>
<text text-anchor="start" x="1580.5" y="-520.3" font-family="Helvetica,sans-Serif" font-size="14.00">value = [8, 0]</text>
</g>
<!-- 65&#45;&gt;66 -->
<g id="edge66" class="edge"><title>65&#45;&gt;66</title>
<path fill="none" stroke="black" d="M1620,-608.884C1620,-598.326 1620,-586.597 1620,-575.854"/>
<polygon fill="black" stroke="black" points="1623.5,-575.52 1620,-565.52 1616.5,-575.52 1623.5,-575.52"/>
</g>
<!-- 67 -->
<g id="node68" class="node"><title>67</title>
<path fill="#399de5" stroke="black" d="M1770,-565.5C1770,-565.5 1698,-565.5 1698,-565.5 1692,-565.5 1686,-559.5 1686,-553.5 1686,-553.5 1686,-524.5 1686,-524.5 1686,-518.5 1692,-512.5 1698,-512.5 1698,-512.5 1770,-512.5 1770,-512.5 1776,-512.5 1782,-518.5 1782,-524.5 1782,-524.5 1782,-553.5 1782,-553.5 1782,-559.5 1776,-565.5 1770,-565.5"/>
<text text-anchor="start" x="1694" y="-550.3" font-family="Helvetica,sans-Serif" font-size="14.00">entropy = 0.0</text>
<text text-anchor="start" x="1696.5" y="-535.3" font-family="Helvetica,sans-Serif" font-size="14.00">samples = 2</text>
<text text-anchor="start" x="1694.5" y="-520.3" font-family="Helvetica,sans-Serif" font-size="14.00">value = [0, 2]</text>
</g>
<!-- 65&#45;&gt;67 -->
<g id="edge67" class="edge"><title>65&#45;&gt;67</title>
<path fill="none" stroke="black" d="M1657.01,-608.884C1670.16,-597.116 1684.94,-583.894 1698.01,-572.203"/>
<polygon fill="black" stroke="black" points="1700.36,-574.796 1705.48,-565.52 1695.69,-569.58 1700.36,-574.796"/>
</g>
</g>
</svg>
