<?xml version="1.0" encoding="UTF-8" standalone="no"?>
<!DOCTYPE svg PUBLIC "-//W3C//DTD SVG 1.1//EN"
 "http://www.w3.org/Graphics/SVG/1.1/DTD/svg11.dtd">
<!-- Generated by graphviz version 2.38.0 (20140413.2041)
 -->
<!-- Title: Tree Pages: 1 -->
<svg width="862pt" height="1101pt"
 viewBox="0.00 0.00 862.00 1101.00" xmlns="http://www.w3.org/2000/svg" xmlns:xlink="http://www.w3.org/1999/xlink">
<g id="graph0" class="graph" transform="scale(1 1) rotate(0) translate(4 1097)">
<title>Tree</title>
<polygon fill="white" stroke="none" points="-4,4 -4,-1097 858,-1097 858,4 -4,4"/>
<!-- 0 -->
<g id="node1" class="node"><title>0</title>
<path fill="#399de5" fill-opacity="0.274510" stroke="black" d="M397.5,-1093C397.5,-1093 296.5,-1093 296.5,-1093 290.5,-1093 284.5,-1087 284.5,-1081 284.5,-1081 284.5,-1037 284.5,-1037 284.5,-1031 290.5,-1025 296.5,-1025 296.5,-1025 397.5,-1025 397.5,-1025 403.5,-1025 409.5,-1031 409.5,-1037 409.5,-1037 409.5,-1081 409.5,-1081 409.5,-1087 403.5,-1093 397.5,-1093"/>
<text text-anchor="start" x="315.5" y="-1077.8" font-family="Helvetica,sans-Serif" font-size="14.00">A9_t ≤ 0.5</text>
<text text-anchor="start" x="299.5" y="-1062.8" font-family="Helvetica,sans-Serif" font-size="14.00">entropy = 0.981</text>
<text text-anchor="start" x="302" y="-1047.8" font-family="Helvetica,sans-Serif" font-size="14.00">samples = 343</text>
<text text-anchor="start" x="292.5" y="-1032.8" font-family="Helvetica,sans-Serif" font-size="14.00">value = [144, 199]</text>
</g>
<!-- 1 -->
<g id="node2" class="node"><title>1</title>
<path fill="#399de5" fill-opacity="0.937255" stroke="black" d="M326.5,-989C326.5,-989 233.5,-989 233.5,-989 227.5,-989 221.5,-983 221.5,-977 221.5,-977 221.5,-933 221.5,-933 221.5,-927 227.5,-921 233.5,-921 233.5,-921 326.5,-921 326.5,-921 332.5,-921 338.5,-927 338.5,-933 338.5,-933 338.5,-977 338.5,-977 338.5,-983 332.5,-989 326.5,-989"/>
<text text-anchor="start" x="249" y="-973.8" font-family="Helvetica,sans-Serif" font-size="14.00">A4_l ≤ 0.5</text>
<text text-anchor="start" x="232.5" y="-958.8" font-family="Helvetica,sans-Serif" font-size="14.00">entropy = 0.324</text>
<text text-anchor="start" x="235" y="-943.8" font-family="Helvetica,sans-Serif" font-size="14.00">samples = 169</text>
<text text-anchor="start" x="229.5" y="-928.8" font-family="Helvetica,sans-Serif" font-size="14.00">value = [10, 159]</text>
</g>
<!-- 0&#45;&gt;1 -->
<g id="edge1" class="edge"><title>0&#45;&gt;1</title>
<path fill="none" stroke="black" d="M325.247,-1024.88C319.572,-1016.24 313.381,-1006.82 307.452,-997.793"/>
<polygon fill="black" stroke="black" points="310.289,-995.736 301.873,-989.299 304.438,-999.579 310.289,-995.736"/>
<text text-anchor="middle" x="296.803" y="-1010.08" font-family="Helvetica,sans-Serif" font-size="14.00">True</text>
</g>
<!-- 28 -->
<g id="node5" class="node"><title>28</title>
<path fill="#e58139" fill-opacity="0.701961" stroke="black" d="M461.5,-989C461.5,-989 368.5,-989 368.5,-989 362.5,-989 356.5,-983 356.5,-977 356.5,-977 356.5,-933 356.5,-933 356.5,-927 362.5,-921 368.5,-921 368.5,-921 461.5,-921 461.5,-921 467.5,-921 473.5,-927 473.5,-933 473.5,-933 473.5,-977 473.5,-977 473.5,-983 467.5,-989 461.5,-989"/>
<text text-anchor="start" x="378" y="-973.8" font-family="Helvetica,sans-Serif" font-size="14.00">A15 ≤ 235.0</text>
<text text-anchor="start" x="367.5" y="-958.8" font-family="Helvetica,sans-Serif" font-size="14.00">entropy = 0.778</text>
<text text-anchor="start" x="370" y="-943.8" font-family="Helvetica,sans-Serif" font-size="14.00">samples = 174</text>
<text text-anchor="start" x="364.5" y="-928.8" font-family="Helvetica,sans-Serif" font-size="14.00">value = [134, 40]</text>
</g>
<!-- 0&#45;&gt;28 -->
<g id="edge4" class="edge"><title>0&#45;&gt;28</title>
<path fill="none" stroke="black" d="M369.078,-1024.88C374.838,-1016.24 381.121,-1006.82 387.138,-997.793"/>
<polygon fill="black" stroke="black" points="390.166,-999.561 392.8,-989.299 384.341,-995.678 390.166,-999.561"/>
<text text-anchor="middle" x="397.703" y="-1010.11" font-family="Helvetica,sans-Serif" font-size="14.00">False</text>
</g>
<!-- 2 -->
<g id="node3" class="node"><title>2</title>
<path fill="#399de5" fill-opacity="0.949020" stroke="black" d="M205.5,-877.5C205.5,-877.5 118.5,-877.5 118.5,-877.5 112.5,-877.5 106.5,-871.5 106.5,-865.5 106.5,-865.5 106.5,-836.5 106.5,-836.5 106.5,-830.5 112.5,-824.5 118.5,-824.5 118.5,-824.5 205.5,-824.5 205.5,-824.5 211.5,-824.5 217.5,-830.5 217.5,-836.5 217.5,-836.5 217.5,-865.5 217.5,-865.5 217.5,-871.5 211.5,-877.5 205.5,-877.5"/>
<text text-anchor="start" x="114.5" y="-862.3" font-family="Helvetica,sans-Serif" font-size="14.00">entropy = 0.277</text>
<text text-anchor="start" x="117" y="-847.3" font-family="Helvetica,sans-Serif" font-size="14.00">samples = 167</text>
<text text-anchor="start" x="115" y="-832.3" font-family="Helvetica,sans-Serif" font-size="14.00">value = [8, 159]</text>
</g>
<!-- 1&#45;&gt;2 -->
<g id="edge2" class="edge"><title>1&#45;&gt;2</title>
<path fill="none" stroke="black" d="M241.689,-920.884C228.075,-909.116 212.779,-895.894 199.255,-884.203"/>
<polygon fill="black" stroke="black" points="201.377,-881.412 191.523,-877.52 196.8,-886.707 201.377,-881.412"/>
</g>
<!-- 27 -->
<g id="node4" class="node"><title>27</title>
<path fill="#e58139" stroke="black" d="M320,-877.5C320,-877.5 248,-877.5 248,-877.5 242,-877.5 236,-871.5 236,-865.5 236,-865.5 236,-836.5 236,-836.5 236,-830.5 242,-824.5 248,-824.5 248,-824.5 320,-824.5 320,-824.5 326,-824.5 332,-830.5 332,-836.5 332,-836.5 332,-865.5 332,-865.5 332,-871.5 326,-877.5 320,-877.5"/>
<text text-anchor="start" x="244" y="-862.3" font-family="Helvetica,sans-Serif" font-size="14.00">entropy = 0.0</text>
<text text-anchor="start" x="246.5" y="-847.3" font-family="Helvetica,sans-Serif" font-size="14.00">samples = 2</text>
<text text-anchor="start" x="244.5" y="-832.3" font-family="Helvetica,sans-Serif" font-size="14.00">value = [2, 0]</text>
</g>
<!-- 1&#45;&gt;27 -->
<g id="edge3" class="edge"><title>1&#45;&gt;27</title>
<path fill="none" stroke="black" d="M281.299,-920.884C281.717,-910.216 282.182,-898.352 282.607,-887.519"/>
<polygon fill="black" stroke="black" points="286.105,-887.649 282.999,-877.52 279.11,-887.375 286.105,-887.649"/>
</g>
<!-- 29 -->
<g id="node6" class="node"><title>29</title>
<path fill="#e58139" fill-opacity="0.407843" stroke="black" d="M455.5,-885C455.5,-885 368.5,-885 368.5,-885 362.5,-885 356.5,-879 356.5,-873 356.5,-873 356.5,-829 356.5,-829 356.5,-823 362.5,-817 368.5,-817 368.5,-817 455.5,-817 455.5,-817 461.5,-817 467.5,-823 467.5,-829 467.5,-829 467.5,-873 467.5,-873 467.5,-879 461.5,-885 455.5,-885"/>
<text text-anchor="start" x="377" y="-869.8" font-family="Helvetica,sans-Serif" font-size="14.00">A10_f ≤ 0.5</text>
<text text-anchor="start" x="364.5" y="-854.8" font-family="Helvetica,sans-Serif" font-size="14.00">entropy = 0.952</text>
<text text-anchor="start" x="367" y="-839.8" font-family="Helvetica,sans-Serif" font-size="14.00">samples = 105</text>
<text text-anchor="start" x="365" y="-824.8" font-family="Helvetica,sans-Serif" font-size="14.00">value = [66, 39]</text>
</g>
<!-- 28&#45;&gt;29 -->
<g id="edge5" class="edge"><title>28&#45;&gt;29</title>
<path fill="none" stroke="black" d="M414.026,-920.884C413.788,-912.778 413.529,-903.982 413.279,-895.472"/>
<polygon fill="black" stroke="black" points="416.772,-895.192 412.979,-885.299 409.775,-895.398 416.772,-895.192"/>
</g>
<!-- 68 -->
<g id="node41" class="node"><title>68</title>
<path fill="#e58139" fill-opacity="0.984314" stroke="black" d="M584.5,-877.5C584.5,-877.5 497.5,-877.5 497.5,-877.5 491.5,-877.5 485.5,-871.5 485.5,-865.5 485.5,-865.5 485.5,-836.5 485.5,-836.5 485.5,-830.5 491.5,-824.5 497.5,-824.5 497.5,-824.5 584.5,-824.5 584.5,-824.5 590.5,-824.5 596.5,-830.5 596.5,-836.5 596.5,-836.5 596.5,-865.5 596.5,-865.5 596.5,-871.5 590.5,-877.5 584.5,-877.5"/>
<text text-anchor="start" x="493.5" y="-862.3" font-family="Helvetica,sans-Serif" font-size="14.00">entropy = 0.109</text>
<text text-anchor="start" x="500" y="-847.3" font-family="Helvetica,sans-Serif" font-size="14.00">samples = 69</text>
<text text-anchor="start" x="498" y="-832.3" font-family="Helvetica,sans-Serif" font-size="14.00">value = [68, 1]</text>
</g>
<!-- 28&#45;&gt;68 -->
<g id="edge40" class="edge"><title>28&#45;&gt;68</title>
<path fill="none" stroke="black" d="M455.909,-920.884C470.581,-909.006 487.084,-895.646 501.624,-883.876"/>
<polygon fill="black" stroke="black" points="503.905,-886.532 509.475,-877.52 499.501,-881.092 503.905,-886.532"/>
</g>
<!-- 30 -->
<g id="node7" class="node"><title>30</title>
<path fill="#e58139" fill-opacity="0.756863" stroke="black" d="M362.5,-781C362.5,-781 275.5,-781 275.5,-781 269.5,-781 263.5,-775 263.5,-769 263.5,-769 263.5,-725 263.5,-725 263.5,-719 269.5,-713 275.5,-713 275.5,-713 362.5,-713 362.5,-713 368.5,-713 374.5,-719 374.5,-725 374.5,-725 374.5,-769 374.5,-769 374.5,-775 368.5,-781 362.5,-781"/>
<text text-anchor="start" x="285.5" y="-765.8" font-family="Helvetica,sans-Serif" font-size="14.00">A14 ≤ 72.5</text>
<text text-anchor="start" x="271.5" y="-750.8" font-family="Helvetica,sans-Serif" font-size="14.00">entropy = 0.715</text>
<text text-anchor="start" x="278" y="-735.8" font-family="Helvetica,sans-Serif" font-size="14.00">samples = 56</text>
<text text-anchor="start" x="272" y="-720.8" font-family="Helvetica,sans-Serif" font-size="14.00">value = [45, 11]</text>
</g>
<!-- 29&#45;&gt;30 -->
<g id="edge6" class="edge"><title>29&#45;&gt;30</title>
<path fill="none" stroke="black" d="M381.806,-816.884C373.684,-807.976 364.803,-798.235 356.343,-788.957"/>
<polygon fill="black" stroke="black" points="358.685,-786.331 349.361,-781.299 353.512,-791.047 358.685,-786.331"/>
</g>
<!-- 47 -->
<g id="node24" class="node"><title>47</title>
<path fill="#399de5" fill-opacity="0.250980" stroke="black" d="M548.5,-781C548.5,-781 461.5,-781 461.5,-781 455.5,-781 449.5,-775 449.5,-769 449.5,-769 449.5,-725 449.5,-725 449.5,-719 455.5,-713 461.5,-713 461.5,-713 548.5,-713 548.5,-713 554.5,-713 560.5,-719 560.5,-725 560.5,-725 560.5,-769 560.5,-769 560.5,-775 554.5,-781 548.5,-781"/>
<text text-anchor="start" x="471.5" y="-765.8" font-family="Helvetica,sans-Serif" font-size="14.00">A7_h ≤ 0.5</text>
<text text-anchor="start" x="457.5" y="-750.8" font-family="Helvetica,sans-Serif" font-size="14.00">entropy = 0.985</text>
<text text-anchor="start" x="464" y="-735.8" font-family="Helvetica,sans-Serif" font-size="14.00">samples = 49</text>
<text text-anchor="start" x="458" y="-720.8" font-family="Helvetica,sans-Serif" font-size="14.00">value = [21, 28]</text>
</g>
<!-- 29&#45;&gt;47 -->
<g id="edge23" class="edge"><title>29&#45;&gt;47</title>
<path fill="none" stroke="black" d="M442.194,-816.884C450.316,-807.976 459.197,-798.235 467.657,-788.957"/>
<polygon fill="black" stroke="black" points="470.488,-791.047 474.639,-781.299 465.315,-786.331 470.488,-791.047"/>
</g>
<!-- 31 -->
<g id="node8" class="node"><title>31</title>
<path fill="#e58139" stroke="black" d="M234,-669.5C234,-669.5 156,-669.5 156,-669.5 150,-669.5 144,-663.5 144,-657.5 144,-657.5 144,-628.5 144,-628.5 144,-622.5 150,-616.5 156,-616.5 156,-616.5 234,-616.5 234,-616.5 240,-616.5 246,-622.5 246,-628.5 246,-628.5 246,-657.5 246,-657.5 246,-663.5 240,-669.5 234,-669.5"/>
<text text-anchor="start" x="155" y="-654.3" font-family="Helvetica,sans-Serif" font-size="14.00">entropy = 0.0</text>
<text text-anchor="start" x="154" y="-639.3" font-family="Helvetica,sans-Serif" font-size="14.00">samples = 15</text>
<text text-anchor="start" x="152" y="-624.3" font-family="Helvetica,sans-Serif" font-size="14.00">value = [15, 0]</text>
</g>
<!-- 30&#45;&gt;31 -->
<g id="edge7" class="edge"><title>30&#45;&gt;31</title>
<path fill="none" stroke="black" d="M278.741,-712.884C264.301,-701.006 248.06,-687.646 233.751,-675.876"/>
<polygon fill="black" stroke="black" points="235.971,-673.17 226.024,-669.52 231.524,-678.576 235.971,-673.17"/>
</g>
<!-- 32 -->
<g id="node9" class="node"><title>32</title>
<path fill="#e58139" fill-opacity="0.631373" stroke="black" d="M362.5,-677C362.5,-677 275.5,-677 275.5,-677 269.5,-677 263.5,-671 263.5,-665 263.5,-665 263.5,-621 263.5,-621 263.5,-615 269.5,-609 275.5,-609 275.5,-609 362.5,-609 362.5,-609 368.5,-609 374.5,-615 374.5,-621 374.5,-621 374.5,-665 374.5,-665 374.5,-671 368.5,-677 362.5,-677"/>
<text text-anchor="start" x="282" y="-661.8" font-family="Helvetica,sans-Serif" font-size="14.00">A2 ≤ 48.915</text>
<text text-anchor="start" x="271.5" y="-646.8" font-family="Helvetica,sans-Serif" font-size="14.00">entropy = 0.839</text>
<text text-anchor="start" x="278" y="-631.8" font-family="Helvetica,sans-Serif" font-size="14.00">samples = 41</text>
<text text-anchor="start" x="272" y="-616.8" font-family="Helvetica,sans-Serif" font-size="14.00">value = [30, 11]</text>
</g>
<!-- 30&#45;&gt;32 -->
<g id="edge8" class="edge"><title>30&#45;&gt;32</title>
<path fill="none" stroke="black" d="M319,-712.884C319,-704.778 319,-695.982 319,-687.472"/>
<polygon fill="black" stroke="black" points="322.5,-687.299 319,-677.299 315.5,-687.299 322.5,-687.299"/>
</g>
<!-- 33 -->
<g id="node10" class="node"><title>33</title>
<path fill="#e58139" fill-opacity="0.733333" stroke="black" d="M240.5,-573C240.5,-573 153.5,-573 153.5,-573 147.5,-573 141.5,-567 141.5,-561 141.5,-561 141.5,-517 141.5,-517 141.5,-511 147.5,-505 153.5,-505 153.5,-505 240.5,-505 240.5,-505 246.5,-505 252.5,-511 252.5,-517 252.5,-517 252.5,-561 252.5,-561 252.5,-567 246.5,-573 240.5,-573"/>
<text text-anchor="start" x="160" y="-557.8" font-family="Helvetica,sans-Serif" font-size="14.00">A14 ≤ 355.0</text>
<text text-anchor="start" x="149.5" y="-542.8" font-family="Helvetica,sans-Serif" font-size="14.00">entropy = 0.742</text>
<text text-anchor="start" x="156" y="-527.8" font-family="Helvetica,sans-Serif" font-size="14.00">samples = 38</text>
<text text-anchor="start" x="154" y="-512.8" font-family="Helvetica,sans-Serif" font-size="14.00">value = [30, 8]</text>
</g>
<!-- 32&#45;&gt;33 -->
<g id="edge9" class="edge"><title>32&#45;&gt;33</title>
<path fill="none" stroke="black" d="M279.39,-608.884C268.31,-599.62 256.152,-589.455 244.658,-579.845"/>
<polygon fill="black" stroke="black" points="246.746,-577.028 236.829,-573.299 242.256,-582.399 246.746,-577.028"/>
</g>
<!-- 46 -->
<g id="node23" class="node"><title>46</title>
<path fill="#399de5" stroke="black" d="M355,-565.5C355,-565.5 283,-565.5 283,-565.5 277,-565.5 271,-559.5 271,-553.5 271,-553.5 271,-524.5 271,-524.5 271,-518.5 277,-512.5 283,-512.5 283,-512.5 355,-512.5 355,-512.5 361,-512.5 367,-518.5 367,-524.5 367,-524.5 367,-553.5 367,-553.5 367,-559.5 361,-565.5 355,-565.5"/>
<text text-anchor="start" x="279" y="-550.3" font-family="Helvetica,sans-Serif" font-size="14.00">entropy = 0.0</text>
<text text-anchor="start" x="281.5" y="-535.3" font-family="Helvetica,sans-Serif" font-size="14.00">samples = 3</text>
<text text-anchor="start" x="279.5" y="-520.3" font-family="Helvetica,sans-Serif" font-size="14.00">value = [0, 3]</text>
</g>
<!-- 32&#45;&gt;46 -->
<g id="edge22" class="edge"><title>32&#45;&gt;46</title>
<path fill="none" stroke="black" d="M319,-608.884C319,-598.326 319,-586.597 319,-575.854"/>
<polygon fill="black" stroke="black" points="322.5,-575.52 319,-565.52 315.5,-575.52 322.5,-575.52"/>
</g>
<!-- 34 -->
<g id="node11" class="node"><title>34</title>
<path fill="#e58139" fill-opacity="0.635294" stroke="black" d="M123.5,-469C123.5,-469 36.5,-469 36.5,-469 30.5,-469 24.5,-463 24.5,-457 24.5,-457 24.5,-413 24.5,-413 24.5,-407 30.5,-401 36.5,-401 36.5,-401 123.5,-401 123.5,-401 129.5,-401 135.5,-407 135.5,-413 135.5,-413 135.5,-457 135.5,-457 135.5,-463 129.5,-469 123.5,-469"/>
<text text-anchor="start" x="50.5" y="-453.8" font-family="Helvetica,sans-Serif" font-size="14.00">A11 ≤ 1.5</text>
<text text-anchor="start" x="32.5" y="-438.8" font-family="Helvetica,sans-Serif" font-size="14.00">entropy = 0.837</text>
<text text-anchor="start" x="39" y="-423.8" font-family="Helvetica,sans-Serif" font-size="14.00">samples = 30</text>
<text text-anchor="start" x="37" y="-408.8" font-family="Helvetica,sans-Serif" font-size="14.00">value = [22, 8]</text>
</g>
<!-- 33&#45;&gt;34 -->
<g id="edge10" class="edge"><title>33&#45;&gt;34</title>
<path fill="none" stroke="black" d="M159.013,-504.884C148.49,-495.709 136.952,-485.65 126.023,-476.123"/>
<polygon fill="black" stroke="black" points="128.034,-473.233 118.196,-469.299 123.434,-478.509 128.034,-473.233"/>
</g>
<!-- 45 -->
<g id="node22" class="node"><title>45</title>
<path fill="#e58139" stroke="black" d="M238,-461.5C238,-461.5 166,-461.5 166,-461.5 160,-461.5 154,-455.5 154,-449.5 154,-449.5 154,-420.5 154,-420.5 154,-414.5 160,-408.5 166,-408.5 166,-408.5 238,-408.5 238,-408.5 244,-408.5 250,-414.5 250,-420.5 250,-420.5 250,-449.5 250,-449.5 250,-455.5 244,-461.5 238,-461.5"/>
<text text-anchor="start" x="162" y="-446.3" font-family="Helvetica,sans-Serif" font-size="14.00">entropy = 0.0</text>
<text text-anchor="start" x="164.5" y="-431.3" font-family="Helvetica,sans-Serif" font-size="14.00">samples = 8</text>
<text text-anchor="start" x="162.5" y="-416.3" font-family="Helvetica,sans-Serif" font-size="14.00">value = [8, 0]</text>
</g>
<!-- 33&#45;&gt;45 -->
<g id="edge21" class="edge"><title>33&#45;&gt;45</title>
<path fill="none" stroke="black" d="M198.623,-504.884C199.146,-494.216 199.728,-482.352 200.259,-471.519"/>
<polygon fill="black" stroke="black" points="203.755,-471.679 200.749,-461.52 196.764,-471.337 203.755,-471.679"/>
</g>
<!-- 35 -->
<g id="node12" class="node"><title>35</title>
<path fill="#e58139" stroke="black" d="M114,-357.5C114,-357.5 42,-357.5 42,-357.5 36,-357.5 30,-351.5 30,-345.5 30,-345.5 30,-316.5 30,-316.5 30,-310.5 36,-304.5 42,-304.5 42,-304.5 114,-304.5 114,-304.5 120,-304.5 126,-310.5 126,-316.5 126,-316.5 126,-345.5 126,-345.5 126,-351.5 120,-357.5 114,-357.5"/>
<text text-anchor="start" x="38" y="-342.3" font-family="Helvetica,sans-Serif" font-size="14.00">entropy = 0.0</text>
<text text-anchor="start" x="40.5" y="-327.3" font-family="Helvetica,sans-Serif" font-size="14.00">samples = 7</text>
<text text-anchor="start" x="38.5" y="-312.3" font-family="Helvetica,sans-Serif" font-size="14.00">value = [7, 0]</text>
</g>
<!-- 34&#45;&gt;35 -->
<g id="edge11" class="edge"><title>34&#45;&gt;35</title>
<path fill="none" stroke="black" d="M79.3507,-400.884C79.1415,-390.216 78.9089,-378.352 78.6964,-367.519"/>
<polygon fill="black" stroke="black" points="82.1959,-367.449 78.5004,-357.52 75.1972,-367.587 82.1959,-367.449"/>
</g>
<!-- 36 -->
<g id="node13" class="node"><title>36</title>
<path fill="#e58139" fill-opacity="0.466667" stroke="black" d="M243.5,-365C243.5,-365 156.5,-365 156.5,-365 150.5,-365 144.5,-359 144.5,-353 144.5,-353 144.5,-309 144.5,-309 144.5,-303 150.5,-297 156.5,-297 156.5,-297 243.5,-297 243.5,-297 249.5,-297 255.5,-303 255.5,-309 255.5,-309 255.5,-353 255.5,-353 255.5,-359 249.5,-365 243.5,-365"/>
<text text-anchor="start" x="166.5" y="-349.8" font-family="Helvetica,sans-Serif" font-size="14.00">A15 ≤ 80.5</text>
<text text-anchor="start" x="152.5" y="-334.8" font-family="Helvetica,sans-Serif" font-size="14.00">entropy = 0.932</text>
<text text-anchor="start" x="159" y="-319.8" font-family="Helvetica,sans-Serif" font-size="14.00">samples = 23</text>
<text text-anchor="start" x="157" y="-304.8" font-family="Helvetica,sans-Serif" font-size="14.00">value = [15, 8]</text>
</g>
<!-- 34&#45;&gt;36 -->
<g id="edge12" class="edge"><title>34&#45;&gt;36</title>
<path fill="none" stroke="black" d="M118.961,-400.884C129.859,-391.62 141.818,-381.455 153.123,-371.845"/>
<polygon fill="black" stroke="black" points="155.472,-374.443 160.824,-365.299 150.938,-369.109 155.472,-374.443"/>
</g>
<!-- 37 -->
<g id="node14" class="node"><title>37</title>
<path fill="#e58139" fill-opacity="0.600000" stroke="black" d="M213.5,-261C213.5,-261 126.5,-261 126.5,-261 120.5,-261 114.5,-255 114.5,-249 114.5,-249 114.5,-205 114.5,-205 114.5,-199 120.5,-193 126.5,-193 126.5,-193 213.5,-193 213.5,-193 219.5,-193 225.5,-199 225.5,-205 225.5,-205 225.5,-249 225.5,-249 225.5,-255 219.5,-261 213.5,-261"/>
<text text-anchor="start" x="133" y="-245.8" font-family="Helvetica,sans-Serif" font-size="14.00">A14 ≤ 190.5</text>
<text text-anchor="start" x="122.5" y="-230.8" font-family="Helvetica,sans-Serif" font-size="14.00">entropy = 0.863</text>
<text text-anchor="start" x="129" y="-215.8" font-family="Helvetica,sans-Serif" font-size="14.00">samples = 21</text>
<text text-anchor="start" x="127" y="-200.8" font-family="Helvetica,sans-Serif" font-size="14.00">value = [15, 6]</text>
</g>
<!-- 36&#45;&gt;37 -->
<g id="edge13" class="edge"><title>36&#45;&gt;37</title>
<path fill="none" stroke="black" d="M190.26,-296.884C187.823,-288.6 185.175,-279.595 182.621,-270.911"/>
<polygon fill="black" stroke="black" points="185.973,-269.905 179.794,-261.299 179.258,-271.881 185.973,-269.905"/>
</g>
<!-- 44 -->
<g id="node21" class="node"><title>44</title>
<path fill="#399de5" stroke="black" d="M328,-253.5C328,-253.5 256,-253.5 256,-253.5 250,-253.5 244,-247.5 244,-241.5 244,-241.5 244,-212.5 244,-212.5 244,-206.5 250,-200.5 256,-200.5 256,-200.5 328,-200.5 328,-200.5 334,-200.5 340,-206.5 340,-212.5 340,-212.5 340,-241.5 340,-241.5 340,-247.5 334,-253.5 328,-253.5"/>
<text text-anchor="start" x="252" y="-238.3" font-family="Helvetica,sans-Serif" font-size="14.00">entropy = 0.0</text>
<text text-anchor="start" x="254.5" y="-223.3" font-family="Helvetica,sans-Serif" font-size="14.00">samples = 2</text>
<text text-anchor="start" x="252.5" y="-208.3" font-family="Helvetica,sans-Serif" font-size="14.00">value = [0, 2]</text>
</g>
<!-- 36&#45;&gt;44 -->
<g id="edge20" class="edge"><title>36&#45;&gt;44</title>
<path fill="none" stroke="black" d="M229.87,-296.884C240.186,-285.446 251.742,-272.634 262.064,-261.19"/>
<polygon fill="black" stroke="black" points="264.883,-263.29 268.982,-253.52 259.685,-258.601 264.883,-263.29"/>
</g>
<!-- 38 -->
<g id="node15" class="node"><title>38</title>
<path fill="#e58139" fill-opacity="0.784314" stroke="black" d="M211.5,-157C211.5,-157 124.5,-157 124.5,-157 118.5,-157 112.5,-151 112.5,-145 112.5,-145 112.5,-101 112.5,-101 112.5,-95 118.5,-89 124.5,-89 124.5,-89 211.5,-89 211.5,-89 217.5,-89 223.5,-95 223.5,-101 223.5,-101 223.5,-145 223.5,-145 223.5,-151 217.5,-157 211.5,-157"/>
<text text-anchor="start" x="134.5" y="-141.8" font-family="Helvetica,sans-Serif" font-size="14.00">A14 ≤ 77.5</text>
<text text-anchor="start" x="120.5" y="-126.8" font-family="Helvetica,sans-Serif" font-size="14.00">entropy = 0.672</text>
<text text-anchor="start" x="127" y="-111.8" font-family="Helvetica,sans-Serif" font-size="14.00">samples = 17</text>
<text text-anchor="start" x="125" y="-96.8" font-family="Helvetica,sans-Serif" font-size="14.00">value = [14, 3]</text>
</g>
<!-- 37&#45;&gt;38 -->
<g id="edge14" class="edge"><title>37&#45;&gt;38</title>
<path fill="none" stroke="black" d="M169.351,-192.884C169.192,-184.778 169.019,-175.982 168.852,-167.472"/>
<polygon fill="black" stroke="black" points="172.348,-167.229 168.653,-157.299 165.35,-167.366 172.348,-167.229"/>
</g>
<!-- 41 -->
<g id="node18" class="node"><title>41</title>
<path fill="#399de5" fill-opacity="0.666667" stroke="black" d="M340.5,-157C340.5,-157 253.5,-157 253.5,-157 247.5,-157 241.5,-151 241.5,-145 241.5,-145 241.5,-101 241.5,-101 241.5,-95 247.5,-89 253.5,-89 253.5,-89 340.5,-89 340.5,-89 346.5,-89 352.5,-95 352.5,-101 352.5,-101 352.5,-145 352.5,-145 352.5,-151 346.5,-157 340.5,-157"/>
<text text-anchor="start" x="263.5" y="-141.8" font-family="Helvetica,sans-Serif" font-size="14.00">A2 ≤ 39.46</text>
<text text-anchor="start" x="249.5" y="-126.8" font-family="Helvetica,sans-Serif" font-size="14.00">entropy = 0.811</text>
<text text-anchor="start" x="259.5" y="-111.8" font-family="Helvetica,sans-Serif" font-size="14.00">samples = 4</text>
<text text-anchor="start" x="257.5" y="-96.8" font-family="Helvetica,sans-Serif" font-size="14.00">value = [1, 3]</text>
</g>
<!-- 37&#45;&gt;41 -->
<g id="edge17" class="edge"><title>37&#45;&gt;41</title>
<path fill="none" stroke="black" d="M211.233,-192.884C222.878,-183.531 235.667,-173.259 247.734,-163.568"/>
<polygon fill="black" stroke="black" points="249.934,-166.29 255.539,-157.299 245.551,-160.832 249.934,-166.29"/>
</g>
<!-- 39 -->
<g id="node16" class="node"><title>39</title>
<path fill="#399de5" stroke="black" d="M84,-53C84,-53 12,-53 12,-53 6,-53 0,-47 0,-41 0,-41 0,-12 0,-12 0,-6 6,-0 12,-0 12,-0 84,-0 84,-0 90,-0 96,-6 96,-12 96,-12 96,-41 96,-41 96,-47 90,-53 84,-53"/>
<text text-anchor="start" x="8" y="-37.8" font-family="Helvetica,sans-Serif" font-size="14.00">entropy = 0.0</text>
<text text-anchor="start" x="10.5" y="-22.8" font-family="Helvetica,sans-Serif" font-size="14.00">samples = 1</text>
<text text-anchor="start" x="8.5" y="-7.8" font-family="Helvetica,sans-Serif" font-size="14.00">value = [0, 1]</text>
</g>
<!-- 38&#45;&gt;39 -->
<g id="edge15" class="edge"><title>38&#45;&gt;39</title>
<path fill="none" stroke="black" d="M126.03,-88.9485C113.949,-79.4346 100.792,-69.074 88.7842,-59.6175"/>
<polygon fill="black" stroke="black" points="90.7033,-56.6739 80.6815,-53.2367 86.3725,-62.1734 90.7033,-56.6739"/>
</g>
<!-- 40 -->
<g id="node17" class="node"><title>40</title>
<path fill="#e58139" fill-opacity="0.858824" stroke="black" d="M213.5,-53C213.5,-53 126.5,-53 126.5,-53 120.5,-53 114.5,-47 114.5,-41 114.5,-41 114.5,-12 114.5,-12 114.5,-6 120.5,-0 126.5,-0 126.5,-0 213.5,-0 213.5,-0 219.5,-0 225.5,-6 225.5,-12 225.5,-12 225.5,-41 225.5,-41 225.5,-47 219.5,-53 213.5,-53"/>
<text text-anchor="start" x="122.5" y="-37.8" font-family="Helvetica,sans-Serif" font-size="14.00">entropy = 0.544</text>
<text text-anchor="start" x="129" y="-22.8" font-family="Helvetica,sans-Serif" font-size="14.00">samples = 16</text>
<text text-anchor="start" x="127" y="-7.8" font-family="Helvetica,sans-Serif" font-size="14.00">value = [14, 2]</text>
</g>
<!-- 38&#45;&gt;40 -->
<g id="edge16" class="edge"><title>38&#45;&gt;40</title>
<path fill="none" stroke="black" d="M168.7,-88.9485C168.874,-80.7153 169.061,-71.848 169.238,-63.4814"/>
<polygon fill="black" stroke="black" points="172.743,-63.3086 169.455,-53.2367 165.744,-63.1604 172.743,-63.3086"/>
</g>
<!-- 42 -->
<g id="node19" class="node"><title>42</title>
<path fill="#399de5" stroke="black" d="M330,-53C330,-53 258,-53 258,-53 252,-53 246,-47 246,-41 246,-41 246,-12 246,-12 246,-6 252,-0 258,-0 258,-0 330,-0 330,-0 336,-0 342,-6 342,-12 342,-12 342,-41 342,-41 342,-47 336,-53 330,-53"/>
<text text-anchor="start" x="254" y="-37.8" font-family="Helvetica,sans-Serif" font-size="14.00">entropy = 0.0</text>
<text text-anchor="start" x="256.5" y="-22.8" font-family="Helvetica,sans-Serif" font-size="14.00">samples = 3</text>
<text text-anchor="start" x="254.5" y="-7.8" font-family="Helvetica,sans-Serif" font-size="14.00">value = [0, 3]</text>
</g>
<!-- 41&#45;&gt;42 -->
<g id="edge18" class="edge"><title>41&#45;&gt;42</title>
<path fill="none" stroke="black" d="M295.951,-88.9485C295.689,-80.7153 295.408,-71.848 295.142,-63.4814"/>
<polygon fill="black" stroke="black" points="298.633,-63.1206 294.817,-53.2367 291.636,-63.3428 298.633,-63.1206"/>
</g>
<!-- 43 -->
<g id="node20" class="node"><title>43</title>
<path fill="#e58139" stroke="black" d="M444,-53C444,-53 372,-53 372,-53 366,-53 360,-47 360,-41 360,-41 360,-12 360,-12 360,-6 366,-0 372,-0 372,-0 444,-0 444,-0 450,-0 456,-6 456,-12 456,-12 456,-41 456,-41 456,-47 450,-53 444,-53"/>
<text text-anchor="start" x="368" y="-37.8" font-family="Helvetica,sans-Serif" font-size="14.00">entropy = 0.0</text>
<text text-anchor="start" x="370.5" y="-22.8" font-family="Helvetica,sans-Serif" font-size="14.00">samples = 1</text>
<text text-anchor="start" x="368.5" y="-7.8" font-family="Helvetica,sans-Serif" font-size="14.00">value = [1, 0]</text>
</g>
<!-- 41&#45;&gt;43 -->
<g id="edge19" class="edge"><title>41&#45;&gt;43</title>
<path fill="none" stroke="black" d="M335.822,-88.9485C346.89,-79.526 358.933,-69.2731 369.954,-59.8906"/>
<polygon fill="black" stroke="black" points="372.424,-62.3842 377.77,-53.2367 367.886,-57.0542 372.424,-62.3842"/>
</g>
<!-- 48 -->
<g id="node25" class="node"><title>48</title>
<path fill="#399de5" fill-opacity="0.498039" stroke="black" d="M548.5,-677C548.5,-677 461.5,-677 461.5,-677 455.5,-677 449.5,-671 449.5,-665 449.5,-665 449.5,-621 449.5,-621 449.5,-615 455.5,-609 461.5,-609 461.5,-609 548.5,-609 548.5,-609 554.5,-609 560.5,-615 560.5,-621 560.5,-621 560.5,-665 560.5,-665 560.5,-671 554.5,-677 548.5,-677"/>
<text text-anchor="start" x="475.5" y="-661.8" font-family="Helvetica,sans-Serif" font-size="14.00">A2 ≤ 28.5</text>
<text text-anchor="start" x="457.5" y="-646.8" font-family="Helvetica,sans-Serif" font-size="14.00">entropy = 0.918</text>
<text text-anchor="start" x="464" y="-631.8" font-family="Helvetica,sans-Serif" font-size="14.00">samples = 39</text>
<text text-anchor="start" x="458" y="-616.8" font-family="Helvetica,sans-Serif" font-size="14.00">value = [13, 26]</text>
</g>
<!-- 47&#45;&gt;48 -->
<g id="edge24" class="edge"><title>47&#45;&gt;48</title>
<path fill="none" stroke="black" d="M505,-712.884C505,-704.778 505,-695.982 505,-687.472"/>
<polygon fill="black" stroke="black" points="508.5,-687.299 505,-677.299 501.5,-687.299 508.5,-687.299"/>
</g>
<!-- 65 -->
<g id="node38" class="node"><title>65</title>
<path fill="#e58139" fill-opacity="0.749020" stroke="black" d="M735.5,-677C735.5,-677 648.5,-677 648.5,-677 642.5,-677 636.5,-671 636.5,-665 636.5,-665 636.5,-621 636.5,-621 636.5,-615 642.5,-609 648.5,-609 648.5,-609 735.5,-609 735.5,-609 741.5,-609 747.5,-615 747.5,-621 747.5,-621 747.5,-665 747.5,-665 747.5,-671 741.5,-677 735.5,-677"/>
<text text-anchor="start" x="662.5" y="-661.8" font-family="Helvetica,sans-Serif" font-size="14.00">A8 ≤ 8.98</text>
<text text-anchor="start" x="644.5" y="-646.8" font-family="Helvetica,sans-Serif" font-size="14.00">entropy = 0.722</text>
<text text-anchor="start" x="651" y="-631.8" font-family="Helvetica,sans-Serif" font-size="14.00">samples = 10</text>
<text text-anchor="start" x="652.5" y="-616.8" font-family="Helvetica,sans-Serif" font-size="14.00">value = [8, 2]</text>
</g>
<!-- 47&#45;&gt;65 -->
<g id="edge37" class="edge"><title>47&#45;&gt;65</title>
<path fill="none" stroke="black" d="M560.6,-715.673C581.606,-704.215 605.685,-691.081 627.444,-679.212"/>
<polygon fill="black" stroke="black" points="629.188,-682.248 636.291,-674.386 625.836,-676.102 629.188,-682.248"/>
</g>
<!-- 49 -->
<g id="node26" class="node"><title>49</title>
<path fill="#e58139" fill-opacity="0.180392" stroke="black" d="M484.5,-573C484.5,-573 397.5,-573 397.5,-573 391.5,-573 385.5,-567 385.5,-561 385.5,-561 385.5,-517 385.5,-517 385.5,-511 391.5,-505 397.5,-505 397.5,-505 484.5,-505 484.5,-505 490.5,-505 496.5,-511 496.5,-517 496.5,-517 496.5,-561 496.5,-561 496.5,-567 490.5,-573 484.5,-573"/>
<text text-anchor="start" x="404" y="-557.8" font-family="Helvetica,sans-Serif" font-size="14.00">A14 ≤ 120.0</text>
<text text-anchor="start" x="393.5" y="-542.8" font-family="Helvetica,sans-Serif" font-size="14.00">entropy = 0.993</text>
<text text-anchor="start" x="400" y="-527.8" font-family="Helvetica,sans-Serif" font-size="14.00">samples = 20</text>
<text text-anchor="start" x="398" y="-512.8" font-family="Helvetica,sans-Serif" font-size="14.00">value = [11, 9]</text>
</g>
<!-- 48&#45;&gt;49 -->
<g id="edge25" class="edge"><title>48&#45;&gt;49</title>
<path fill="none" stroke="black" d="M484.221,-608.884C478.8,-600.243 472.887,-590.819 467.223,-581.793"/>
<polygon fill="black" stroke="black" points="470.173,-579.91 461.894,-573.299 464.244,-583.63 470.173,-579.91"/>
</g>
<!-- 58 -->
<g id="node35" class="node"><title>58</title>
<path fill="#399de5" fill-opacity="0.882353" stroke="black" d="M613.5,-573C613.5,-573 526.5,-573 526.5,-573 520.5,-573 514.5,-567 514.5,-561 514.5,-561 514.5,-517 514.5,-517 514.5,-511 520.5,-505 526.5,-505 526.5,-505 613.5,-505 613.5,-505 619.5,-505 625.5,-511 625.5,-517 625.5,-517 625.5,-561 625.5,-561 625.5,-567 619.5,-573 613.5,-573"/>
<text text-anchor="start" x="535.5" y="-557.8" font-family="Helvetica,sans-Serif" font-size="14.00">A6_w ≤ 0.5</text>
<text text-anchor="start" x="522.5" y="-542.8" font-family="Helvetica,sans-Serif" font-size="14.00">entropy = 0.485</text>
<text text-anchor="start" x="529" y="-527.8" font-family="Helvetica,sans-Serif" font-size="14.00">samples = 19</text>
<text text-anchor="start" x="527" y="-512.8" font-family="Helvetica,sans-Serif" font-size="14.00">value = [2, 17]</text>
</g>
<!-- 48&#45;&gt;58 -->
<g id="edge34" class="edge"><title>48&#45;&gt;58</title>
<path fill="none" stroke="black" d="M526.104,-608.884C531.61,-600.243 537.615,-590.819 543.367,-581.793"/>
<polygon fill="black" stroke="black" points="546.357,-583.614 548.78,-573.299 540.454,-579.852 546.357,-583.614"/>
</g>
<!-- 50 -->
<g id="node27" class="node"><title>50</title>
<path fill="#e58139" stroke="black" d="M356,-461.5C356,-461.5 284,-461.5 284,-461.5 278,-461.5 272,-455.5 272,-449.5 272,-449.5 272,-420.5 272,-420.5 272,-414.5 278,-408.5 284,-408.5 284,-408.5 356,-408.5 356,-408.5 362,-408.5 368,-414.5 368,-420.5 368,-420.5 368,-449.5 368,-449.5 368,-455.5 362,-461.5 356,-461.5"/>
<text text-anchor="start" x="280" y="-446.3" font-family="Helvetica,sans-Serif" font-size="14.00">entropy = 0.0</text>
<text text-anchor="start" x="282.5" y="-431.3" font-family="Helvetica,sans-Serif" font-size="14.00">samples = 8</text>
<text text-anchor="start" x="280.5" y="-416.3" font-family="Helvetica,sans-Serif" font-size="14.00">value = [8, 0]</text>
</g>
<!-- 49&#45;&gt;50 -->
<g id="edge26" class="edge"><title>49&#45;&gt;50</title>
<path fill="none" stroke="black" d="M401.715,-504.884C387.755,-493.116 372.07,-479.894 358.202,-468.203"/>
<polygon fill="black" stroke="black" points="360.175,-465.289 350.274,-461.52 355.664,-470.641 360.175,-465.289"/>
</g>
<!-- 51 -->
<g id="node28" class="node"><title>51</title>
<path fill="#399de5" fill-opacity="0.666667" stroke="black" d="M485.5,-469C485.5,-469 398.5,-469 398.5,-469 392.5,-469 386.5,-463 386.5,-457 386.5,-457 386.5,-413 386.5,-413 386.5,-407 392.5,-401 398.5,-401 398.5,-401 485.5,-401 485.5,-401 491.5,-401 497.5,-407 497.5,-413 497.5,-413 497.5,-457 497.5,-457 497.5,-463 491.5,-469 485.5,-469"/>
<text text-anchor="start" x="405" y="-453.8" font-family="Helvetica,sans-Serif" font-size="14.00">A2 ≤ 25.835</text>
<text text-anchor="start" x="394.5" y="-438.8" font-family="Helvetica,sans-Serif" font-size="14.00">entropy = 0.811</text>
<text text-anchor="start" x="401" y="-423.8" font-family="Helvetica,sans-Serif" font-size="14.00">samples = 12</text>
<text text-anchor="start" x="402.5" y="-408.8" font-family="Helvetica,sans-Serif" font-size="14.00">value = [3, 9]</text>
</g>
<!-- 49&#45;&gt;51 -->
<g id="edge27" class="edge"><title>49&#45;&gt;51</title>
<path fill="none" stroke="black" d="M441.325,-504.884C441.404,-496.778 441.49,-487.982 441.574,-479.472"/>
<polygon fill="black" stroke="black" points="445.075,-479.333 441.674,-469.299 438.076,-479.265 445.075,-479.333"/>
</g>
<!-- 52 -->
<g id="node29" class="node"><title>52</title>
<path fill="#399de5" stroke="black" d="M415,-357.5C415,-357.5 343,-357.5 343,-357.5 337,-357.5 331,-351.5 331,-345.5 331,-345.5 331,-316.5 331,-316.5 331,-310.5 337,-304.5 343,-304.5 343,-304.5 415,-304.5 415,-304.5 421,-304.5 427,-310.5 427,-316.5 427,-316.5 427,-345.5 427,-345.5 427,-351.5 421,-357.5 415,-357.5"/>
<text text-anchor="start" x="339" y="-342.3" font-family="Helvetica,sans-Serif" font-size="14.00">entropy = 0.0</text>
<text text-anchor="start" x="341.5" y="-327.3" font-family="Helvetica,sans-Serif" font-size="14.00">samples = 7</text>
<text text-anchor="start" x="339.5" y="-312.3" font-family="Helvetica,sans-Serif" font-size="14.00">value = [0, 7]</text>
</g>
<!-- 51&#45;&gt;52 -->
<g id="edge28" class="edge"><title>51&#45;&gt;52</title>
<path fill="none" stroke="black" d="M421.546,-400.884C414.685,-389.776 407.024,-377.372 400.114,-366.184"/>
<polygon fill="black" stroke="black" points="402.995,-364.189 394.762,-357.52 397.039,-367.867 402.995,-364.189"/>
</g>
<!-- 53 -->
<g id="node30" class="node"><title>53</title>
<path fill="#e58139" fill-opacity="0.333333" stroke="black" d="M544.5,-365C544.5,-365 457.5,-365 457.5,-365 451.5,-365 445.5,-359 445.5,-353 445.5,-353 445.5,-309 445.5,-309 445.5,-303 451.5,-297 457.5,-297 457.5,-297 544.5,-297 544.5,-297 550.5,-297 556.5,-303 556.5,-309 556.5,-309 556.5,-353 556.5,-353 556.5,-359 550.5,-365 544.5,-365"/>
<text text-anchor="start" x="464" y="-349.8" font-family="Helvetica,sans-Serif" font-size="14.00">A2 ≤ 26.665</text>
<text text-anchor="start" x="453.5" y="-334.8" font-family="Helvetica,sans-Serif" font-size="14.00">entropy = 0.971</text>
<text text-anchor="start" x="463.5" y="-319.8" font-family="Helvetica,sans-Serif" font-size="14.00">samples = 5</text>
<text text-anchor="start" x="461.5" y="-304.8" font-family="Helvetica,sans-Serif" font-size="14.00">value = [3, 2]</text>
</g>
<!-- 51&#45;&gt;53 -->
<g id="edge29" class="edge"><title>51&#45;&gt;53</title>
<path fill="none" stroke="black" d="M461.156,-400.884C466.102,-392.332 471.492,-383.013 476.664,-374.072"/>
<polygon fill="black" stroke="black" points="479.761,-375.708 481.739,-365.299 473.702,-372.203 479.761,-375.708"/>
</g>
<!-- 54 -->
<g id="node31" class="node"><title>54</title>
<path fill="#e58139" stroke="black" d="M445,-253.5C445,-253.5 373,-253.5 373,-253.5 367,-253.5 361,-247.5 361,-241.5 361,-241.5 361,-212.5 361,-212.5 361,-206.5 367,-200.5 373,-200.5 373,-200.5 445,-200.5 445,-200.5 451,-200.5 457,-206.5 457,-212.5 457,-212.5 457,-241.5 457,-241.5 457,-247.5 451,-253.5 445,-253.5"/>
<text text-anchor="start" x="369" y="-238.3" font-family="Helvetica,sans-Serif" font-size="14.00">entropy = 0.0</text>
<text text-anchor="start" x="371.5" y="-223.3" font-family="Helvetica,sans-Serif" font-size="14.00">samples = 2</text>
<text text-anchor="start" x="369.5" y="-208.3" font-family="Helvetica,sans-Serif" font-size="14.00">value = [2, 0]</text>
</g>
<!-- 53&#45;&gt;54 -->
<g id="edge30" class="edge"><title>53&#45;&gt;54</title>
<path fill="none" stroke="black" d="M471.13,-296.884C460.814,-285.446 449.258,-272.634 438.936,-261.19"/>
<polygon fill="black" stroke="black" points="441.315,-258.601 432.018,-253.52 436.117,-263.29 441.315,-258.601"/>
</g>
<!-- 55 -->
<g id="node32" class="node"><title>55</title>
<path fill="#399de5" fill-opacity="0.498039" stroke="black" d="M574.5,-261C574.5,-261 487.5,-261 487.5,-261 481.5,-261 475.5,-255 475.5,-249 475.5,-249 475.5,-205 475.5,-205 475.5,-199 481.5,-193 487.5,-193 487.5,-193 574.5,-193 574.5,-193 580.5,-193 586.5,-199 586.5,-205 586.5,-205 586.5,-249 586.5,-249 586.5,-255 580.5,-261 574.5,-261"/>
<text text-anchor="start" x="496.5" y="-245.8" font-family="Helvetica,sans-Serif" font-size="14.00">A6_w ≤ 0.5</text>
<text text-anchor="start" x="483.5" y="-230.8" font-family="Helvetica,sans-Serif" font-size="14.00">entropy = 0.918</text>
<text text-anchor="start" x="493.5" y="-215.8" font-family="Helvetica,sans-Serif" font-size="14.00">samples = 3</text>
<text text-anchor="start" x="491.5" y="-200.8" font-family="Helvetica,sans-Serif" font-size="14.00">value = [1, 2]</text>
</g>
<!-- 53&#45;&gt;55 -->
<g id="edge31" class="edge"><title>53&#45;&gt;55</title>
<path fill="none" stroke="black" d="M510.74,-296.884C513.177,-288.6 515.825,-279.595 518.379,-270.911"/>
<polygon fill="black" stroke="black" points="521.742,-271.881 521.206,-261.299 515.027,-269.905 521.742,-271.881"/>
</g>
<!-- 56 -->
<g id="node33" class="node"><title>56</title>
<path fill="#399de5" stroke="black" d="M511,-149.5C511,-149.5 439,-149.5 439,-149.5 433,-149.5 427,-143.5 427,-137.5 427,-137.5 427,-108.5 427,-108.5 427,-102.5 433,-96.5 439,-96.5 439,-96.5 511,-96.5 511,-96.5 517,-96.5 523,-102.5 523,-108.5 523,-108.5 523,-137.5 523,-137.5 523,-143.5 517,-149.5 511,-149.5"/>
<text text-anchor="start" x="435" y="-134.3" font-family="Helvetica,sans-Serif" font-size="14.00">entropy = 0.0</text>
<text text-anchor="start" x="437.5" y="-119.3" font-family="Helvetica,sans-Serif" font-size="14.00">samples = 2</text>
<text text-anchor="start" x="435.5" y="-104.3" font-family="Helvetica,sans-Serif" font-size="14.00">value = [0, 2]</text>
</g>
<!-- 55&#45;&gt;56 -->
<g id="edge32" class="edge"><title>55&#45;&gt;56</title>
<path fill="none" stroke="black" d="M512.818,-192.884C506.78,-181.886 500.045,-169.617 493.95,-158.517"/>
<polygon fill="black" stroke="black" points="496.892,-156.601 489.011,-149.52 490.756,-159.97 496.892,-156.601"/>
</g>
<!-- 57 -->
<g id="node34" class="node"><title>57</title>
<path fill="#e58139" stroke="black" d="M625,-149.5C625,-149.5 553,-149.5 553,-149.5 547,-149.5 541,-143.5 541,-137.5 541,-137.5 541,-108.5 541,-108.5 541,-102.5 547,-96.5 553,-96.5 553,-96.5 625,-96.5 625,-96.5 631,-96.5 637,-102.5 637,-108.5 637,-108.5 637,-137.5 637,-137.5 637,-143.5 631,-149.5 625,-149.5"/>
<text text-anchor="start" x="549" y="-134.3" font-family="Helvetica,sans-Serif" font-size="14.00">entropy = 0.0</text>
<text text-anchor="start" x="551.5" y="-119.3" font-family="Helvetica,sans-Serif" font-size="14.00">samples = 1</text>
<text text-anchor="start" x="549.5" y="-104.3" font-family="Helvetica,sans-Serif" font-size="14.00">value = [1, 0]</text>
</g>
<!-- 55&#45;&gt;57 -->
<g id="edge33" class="edge"><title>55&#45;&gt;57</title>
<path fill="none" stroke="black" d="M549.831,-192.884C556.085,-181.886 563.061,-169.617 569.373,-158.517"/>
<polygon fill="black" stroke="black" points="572.588,-159.943 574.489,-149.52 566.503,-156.483 572.588,-159.943"/>
</g>
<!-- 59 -->
<g id="node36" class="node"><title>59</title>
<path fill="#399de5" fill-opacity="0.941176" stroke="black" d="M609,-461.5C609,-461.5 529,-461.5 529,-461.5 523,-461.5 517,-455.5 517,-449.5 517,-449.5 517,-420.5 517,-420.5 517,-414.5 523,-408.5 529,-408.5 529,-408.5 609,-408.5 609,-408.5 615,-408.5 621,-414.5 621,-420.5 621,-420.5 621,-449.5 621,-449.5 621,-455.5 615,-461.5 609,-461.5"/>
<text text-anchor="start" x="525" y="-446.3" font-family="Helvetica,sans-Serif" font-size="14.00">entropy = 0.31</text>
<text text-anchor="start" x="528" y="-431.3" font-family="Helvetica,sans-Serif" font-size="14.00">samples = 18</text>
<text text-anchor="start" x="526" y="-416.3" font-family="Helvetica,sans-Serif" font-size="14.00">value = [1, 17]</text>
</g>
<!-- 58&#45;&gt;59 -->
<g id="edge35" class="edge"><title>58&#45;&gt;59</title>
<path fill="none" stroke="black" d="M569.675,-504.884C569.572,-494.326 569.457,-482.597 569.352,-471.854"/>
<polygon fill="black" stroke="black" points="572.848,-471.485 569.25,-461.52 565.848,-471.554 572.848,-471.485"/>
</g>
<!-- 64 -->
<g id="node37" class="node"><title>64</title>
<path fill="#e58139" stroke="black" d="M723,-461.5C723,-461.5 651,-461.5 651,-461.5 645,-461.5 639,-455.5 639,-449.5 639,-449.5 639,-420.5 639,-420.5 639,-414.5 645,-408.5 651,-408.5 651,-408.5 723,-408.5 723,-408.5 729,-408.5 735,-414.5 735,-420.5 735,-420.5 735,-449.5 735,-449.5 735,-455.5 729,-461.5 723,-461.5"/>
<text text-anchor="start" x="647" y="-446.3" font-family="Helvetica,sans-Serif" font-size="14.00">entropy = 0.0</text>
<text text-anchor="start" x="649.5" y="-431.3" font-family="Helvetica,sans-Serif" font-size="14.00">samples = 1</text>
<text text-anchor="start" x="647.5" y="-416.3" font-family="Helvetica,sans-Serif" font-size="14.00">value = [1, 0]</text>
</g>
<!-- 58&#45;&gt;64 -->
<g id="edge36" class="edge"><title>58&#45;&gt;64</title>
<path fill="none" stroke="black" d="M607.987,-504.884C621.485,-493.116 636.651,-479.894 650.061,-468.203"/>
<polygon fill="black" stroke="black" points="652.489,-470.73 657.727,-461.52 647.889,-465.453 652.489,-470.73"/>
</g>
<!-- 66 -->
<g id="node39" class="node"><title>66</title>
<path fill="#e58139" stroke="black" d="M728,-565.5C728,-565.5 656,-565.5 656,-565.5 650,-565.5 644,-559.5 644,-553.5 644,-553.5 644,-524.5 644,-524.5 644,-518.5 650,-512.5 656,-512.5 656,-512.5 728,-512.5 728,-512.5 734,-512.5 740,-518.5 740,-524.5 740,-524.5 740,-553.5 740,-553.5 740,-559.5 734,-565.5 728,-565.5"/>
<text text-anchor="start" x="652" y="-550.3" font-family="Helvetica,sans-Serif" font-size="14.00">entropy = 0.0</text>
<text text-anchor="start" x="654.5" y="-535.3" font-family="Helvetica,sans-Serif" font-size="14.00">samples = 8</text>
<text text-anchor="start" x="652.5" y="-520.3" font-family="Helvetica,sans-Serif" font-size="14.00">value = [8, 0]</text>
</g>
<!-- 65&#45;&gt;66 -->
<g id="edge38" class="edge"><title>65&#45;&gt;66</title>
<path fill="none" stroke="black" d="M692,-608.884C692,-598.326 692,-586.597 692,-575.854"/>
<polygon fill="black" stroke="black" points="695.5,-575.52 692,-565.52 688.5,-575.52 695.5,-575.52"/>
</g>
<!-- 67 -->
<g id="node40" class="node"><title>67</title>
<path fill="#399de5" stroke="black" d="M842,-565.5C842,-565.5 770,-565.5 770,-565.5 764,-565.5 758,-559.5 758,-553.5 758,-553.5 758,-524.5 758,-524.5 758,-518.5 764,-512.5 770,-512.5 770,-512.5 842,-512.5 842,-512.5 848,-512.5 854,-518.5 854,-524.5 854,-524.5 854,-553.5 854,-553.5 854,-559.5 848,-565.5 842,-565.5"/>
<text text-anchor="start" x="766" y="-550.3" font-family="Helvetica,sans-Serif" font-size="14.00">entropy = 0.0</text>
<text text-anchor="start" x="768.5" y="-535.3" font-family="Helvetica,sans-Serif" font-size="14.00">samples = 2</text>
<text text-anchor="start" x="766.5" y="-520.3" font-family="Helvetica,sans-Serif" font-size="14.00">value = [0, 2]</text>
</g>
<!-- 65&#45;&gt;67 -->
<g id="edge39" class="edge"><title>65&#45;&gt;67</title>
<path fill="none" stroke="black" d="M729.013,-608.884C742.165,-597.116 756.942,-583.894 770.008,-572.203"/>
<polygon fill="black" stroke="black" points="772.359,-574.796 777.478,-565.52 767.691,-569.58 772.359,-574.796"/>
</g>
</g>
</svg>
