<?xml version="1.0" encoding="UTF-8" standalone="no"?>
<!DOCTYPE svg PUBLIC "-//W3C//DTD SVG 1.1//EN"
 "http://www.w3.org/Graphics/SVG/1.1/DTD/svg11.dtd">
<!-- Generated by graphviz version 2.38.0 (20140413.2041)
 -->
<!-- Title: Tree Pages: 1 -->
<svg width="756pt" height="997pt"
 viewBox="0.00 0.00 755.50 997.00" xmlns="http://www.w3.org/2000/svg" xmlns:xlink="http://www.w3.org/1999/xlink">
<g id="graph0" class="graph" transform="scale(1 1) rotate(0) translate(4 993)">
<title>Tree</title>
<polygon fill="white" stroke="none" points="-4,4 -4,-993 751.5,-993 751.5,4 -4,4"/>
<!-- 0 -->
<g id="node1" class="node"><title>0</title>
<path fill="#399de5" fill-opacity="0.274510" stroke="black" d="M291,-989C291,-989 190,-989 190,-989 184,-989 178,-983 178,-977 178,-977 178,-933 178,-933 178,-927 184,-921 190,-921 190,-921 291,-921 291,-921 297,-921 303,-927 303,-933 303,-933 303,-977 303,-977 303,-983 297,-989 291,-989"/>
<text text-anchor="start" x="209" y="-973.8" font-family="Helvetica,sans-Serif" font-size="14.00">A9_t ≤ 0.5</text>
<text text-anchor="start" x="193" y="-958.8" font-family="Helvetica,sans-Serif" font-size="14.00">entropy = 0.981</text>
<text text-anchor="start" x="195.5" y="-943.8" font-family="Helvetica,sans-Serif" font-size="14.00">samples = 343</text>
<text text-anchor="start" x="186" y="-928.8" font-family="Helvetica,sans-Serif" font-size="14.00">value = [144, 199]</text>
</g>
<!-- 1 -->
<g id="node2" class="node"><title>1</title>
<path fill="#399de5" fill-opacity="0.937255" stroke="black" d="M220,-885C220,-885 127,-885 127,-885 121,-885 115,-879 115,-873 115,-873 115,-829 115,-829 115,-823 121,-817 127,-817 127,-817 220,-817 220,-817 226,-817 232,-823 232,-829 232,-829 232,-873 232,-873 232,-879 226,-885 220,-885"/>
<text text-anchor="start" x="142.5" y="-869.8" font-family="Helvetica,sans-Serif" font-size="14.00">A4_l ≤ 0.5</text>
<text text-anchor="start" x="126" y="-854.8" font-family="Helvetica,sans-Serif" font-size="14.00">entropy = 0.324</text>
<text text-anchor="start" x="128.5" y="-839.8" font-family="Helvetica,sans-Serif" font-size="14.00">samples = 169</text>
<text text-anchor="start" x="123" y="-824.8" font-family="Helvetica,sans-Serif" font-size="14.00">value = [10, 159]</text>
</g>
<!-- 0&#45;&gt;1 -->
<g id="edge1" class="edge"><title>0&#45;&gt;1</title>
<path fill="none" stroke="black" d="M218.747,-920.884C213.072,-912.243 206.881,-902.819 200.952,-893.793"/>
<polygon fill="black" stroke="black" points="203.789,-891.736 195.373,-885.299 197.938,-895.579 203.789,-891.736"/>
<text text-anchor="middle" x="190.303" y="-906.08" font-family="Helvetica,sans-Serif" font-size="14.00">True</text>
</g>
<!-- 28 -->
<g id="node5" class="node"><title>28</title>
<path fill="#e58139" fill-opacity="0.701961" stroke="black" d="M355,-885C355,-885 262,-885 262,-885 256,-885 250,-879 250,-873 250,-873 250,-829 250,-829 250,-823 256,-817 262,-817 262,-817 355,-817 355,-817 361,-817 367,-823 367,-829 367,-829 367,-873 367,-873 367,-879 361,-885 355,-885"/>
<text text-anchor="start" x="271.5" y="-869.8" font-family="Helvetica,sans-Serif" font-size="14.00">A15 ≤ 235.0</text>
<text text-anchor="start" x="261" y="-854.8" font-family="Helvetica,sans-Serif" font-size="14.00">entropy = 0.778</text>
<text text-anchor="start" x="263.5" y="-839.8" font-family="Helvetica,sans-Serif" font-size="14.00">samples = 174</text>
<text text-anchor="start" x="258" y="-824.8" font-family="Helvetica,sans-Serif" font-size="14.00">value = [134, 40]</text>
</g>
<!-- 0&#45;&gt;28 -->
<g id="edge4" class="edge"><title>0&#45;&gt;28</title>
<path fill="none" stroke="black" d="M262.578,-920.884C268.338,-912.243 274.621,-902.819 280.638,-893.793"/>
<polygon fill="black" stroke="black" points="283.666,-895.561 286.3,-885.299 277.841,-891.678 283.666,-895.561"/>
<text text-anchor="middle" x="291.203" y="-906.114" font-family="Helvetica,sans-Serif" font-size="14.00">False</text>
</g>
<!-- 2 -->
<g id="node3" class="node"><title>2</title>
<path fill="#399de5" fill-opacity="0.949020" stroke="black" d="M99,-773.5C99,-773.5 12,-773.5 12,-773.5 6,-773.5 7.10543e-15,-767.5 7.10543e-15,-761.5 7.10543e-15,-761.5 7.10543e-15,-732.5 7.10543e-15,-732.5 7.10543e-15,-726.5 6,-720.5 12,-720.5 12,-720.5 99,-720.5 99,-720.5 105,-720.5 111,-726.5 111,-732.5 111,-732.5 111,-761.5 111,-761.5 111,-767.5 105,-773.5 99,-773.5"/>
<text text-anchor="start" x="8" y="-758.3" font-family="Helvetica,sans-Serif" font-size="14.00">entropy = 0.277</text>
<text text-anchor="start" x="10.5" y="-743.3" font-family="Helvetica,sans-Serif" font-size="14.00">samples = 167</text>
<text text-anchor="start" x="8.5" y="-728.3" font-family="Helvetica,sans-Serif" font-size="14.00">value = [8, 159]</text>
</g>
<!-- 1&#45;&gt;2 -->
<g id="edge2" class="edge"><title>1&#45;&gt;2</title>
<path fill="none" stroke="black" d="M135.189,-816.884C121.575,-805.116 106.279,-791.894 92.7549,-780.203"/>
<polygon fill="black" stroke="black" points="94.8773,-777.412 85.0231,-773.52 90.2996,-782.707 94.8773,-777.412"/>
</g>
<!-- 27 -->
<g id="node4" class="node"><title>27</title>
<path fill="#e58139" stroke="black" d="M213.5,-773.5C213.5,-773.5 141.5,-773.5 141.5,-773.5 135.5,-773.5 129.5,-767.5 129.5,-761.5 129.5,-761.5 129.5,-732.5 129.5,-732.5 129.5,-726.5 135.5,-720.5 141.5,-720.5 141.5,-720.5 213.5,-720.5 213.5,-720.5 219.5,-720.5 225.5,-726.5 225.5,-732.5 225.5,-732.5 225.5,-761.5 225.5,-761.5 225.5,-767.5 219.5,-773.5 213.5,-773.5"/>
<text text-anchor="start" x="137.5" y="-758.3" font-family="Helvetica,sans-Serif" font-size="14.00">entropy = 0.0</text>
<text text-anchor="start" x="140" y="-743.3" font-family="Helvetica,sans-Serif" font-size="14.00">samples = 2</text>
<text text-anchor="start" x="138" y="-728.3" font-family="Helvetica,sans-Serif" font-size="14.00">value = [2, 0]</text>
</g>
<!-- 1&#45;&gt;27 -->
<g id="edge3" class="edge"><title>1&#45;&gt;27</title>
<path fill="none" stroke="black" d="M174.799,-816.884C175.217,-806.216 175.682,-794.352 176.107,-783.519"/>
<polygon fill="black" stroke="black" points="179.605,-783.649 176.499,-773.52 172.61,-783.375 179.605,-783.649"/>
</g>
<!-- 29 -->
<g id="node6" class="node"><title>29</title>
<path fill="#e58139" fill-opacity="0.407843" stroke="black" d="M349,-781C349,-781 262,-781 262,-781 256,-781 250,-775 250,-769 250,-769 250,-725 250,-725 250,-719 256,-713 262,-713 262,-713 349,-713 349,-713 355,-713 361,-719 361,-725 361,-725 361,-769 361,-769 361,-775 355,-781 349,-781"/>
<text text-anchor="start" x="270.5" y="-765.8" font-family="Helvetica,sans-Serif" font-size="14.00">A10_f ≤ 0.5</text>
<text text-anchor="start" x="258" y="-750.8" font-family="Helvetica,sans-Serif" font-size="14.00">entropy = 0.952</text>
<text text-anchor="start" x="260.5" y="-735.8" font-family="Helvetica,sans-Serif" font-size="14.00">samples = 105</text>
<text text-anchor="start" x="258.5" y="-720.8" font-family="Helvetica,sans-Serif" font-size="14.00">value = [66, 39]</text>
</g>
<!-- 28&#45;&gt;29 -->
<g id="edge5" class="edge"><title>28&#45;&gt;29</title>
<path fill="none" stroke="black" d="M307.526,-816.884C307.288,-808.778 307.029,-799.982 306.779,-791.472"/>
<polygon fill="black" stroke="black" points="310.272,-791.192 306.479,-781.299 303.275,-791.398 310.272,-791.192"/>
</g>
<!-- 68 -->
<g id="node29" class="node"><title>68</title>
<path fill="#e58139" fill-opacity="0.984314" stroke="black" d="M478,-773.5C478,-773.5 391,-773.5 391,-773.5 385,-773.5 379,-767.5 379,-761.5 379,-761.5 379,-732.5 379,-732.5 379,-726.5 385,-720.5 391,-720.5 391,-720.5 478,-720.5 478,-720.5 484,-720.5 490,-726.5 490,-732.5 490,-732.5 490,-761.5 490,-761.5 490,-767.5 484,-773.5 478,-773.5"/>
<text text-anchor="start" x="387" y="-758.3" font-family="Helvetica,sans-Serif" font-size="14.00">entropy = 0.109</text>
<text text-anchor="start" x="393.5" y="-743.3" font-family="Helvetica,sans-Serif" font-size="14.00">samples = 69</text>
<text text-anchor="start" x="391.5" y="-728.3" font-family="Helvetica,sans-Serif" font-size="14.00">value = [68, 1]</text>
</g>
<!-- 28&#45;&gt;68 -->
<g id="edge28" class="edge"><title>28&#45;&gt;68</title>
<path fill="none" stroke="black" d="M349.409,-816.884C364.081,-805.006 380.584,-791.646 395.124,-779.876"/>
<polygon fill="black" stroke="black" points="397.405,-782.532 402.975,-773.52 393.001,-777.092 397.405,-782.532"/>
</g>
<!-- 30 -->
<g id="node7" class="node"><title>30</title>
<path fill="#e58139" fill-opacity="0.756863" stroke="black" d="M256,-677C256,-677 169,-677 169,-677 163,-677 157,-671 157,-665 157,-665 157,-621 157,-621 157,-615 163,-609 169,-609 169,-609 256,-609 256,-609 262,-609 268,-615 268,-621 268,-621 268,-665 268,-665 268,-671 262,-677 256,-677"/>
<text text-anchor="start" x="179" y="-661.8" font-family="Helvetica,sans-Serif" font-size="14.00">A14 ≤ 72.5</text>
<text text-anchor="start" x="165" y="-646.8" font-family="Helvetica,sans-Serif" font-size="14.00">entropy = 0.715</text>
<text text-anchor="start" x="171.5" y="-631.8" font-family="Helvetica,sans-Serif" font-size="14.00">samples = 56</text>
<text text-anchor="start" x="165.5" y="-616.8" font-family="Helvetica,sans-Serif" font-size="14.00">value = [45, 11]</text>
</g>
<!-- 29&#45;&gt;30 -->
<g id="edge6" class="edge"><title>29&#45;&gt;30</title>
<path fill="none" stroke="black" d="M275.306,-712.884C267.184,-703.976 258.303,-694.235 249.843,-684.957"/>
<polygon fill="black" stroke="black" points="252.185,-682.331 242.861,-677.299 247.012,-687.047 252.185,-682.331"/>
</g>
<!-- 47 -->
<g id="node12" class="node"><title>47</title>
<path fill="#399de5" fill-opacity="0.250980" stroke="black" d="M442,-677C442,-677 355,-677 355,-677 349,-677 343,-671 343,-665 343,-665 343,-621 343,-621 343,-615 349,-609 355,-609 355,-609 442,-609 442,-609 448,-609 454,-615 454,-621 454,-621 454,-665 454,-665 454,-671 448,-677 442,-677"/>
<text text-anchor="start" x="365" y="-661.8" font-family="Helvetica,sans-Serif" font-size="14.00">A7_h ≤ 0.5</text>
<text text-anchor="start" x="351" y="-646.8" font-family="Helvetica,sans-Serif" font-size="14.00">entropy = 0.985</text>
<text text-anchor="start" x="357.5" y="-631.8" font-family="Helvetica,sans-Serif" font-size="14.00">samples = 49</text>
<text text-anchor="start" x="351.5" y="-616.8" font-family="Helvetica,sans-Serif" font-size="14.00">value = [21, 28]</text>
</g>
<!-- 29&#45;&gt;47 -->
<g id="edge11" class="edge"><title>29&#45;&gt;47</title>
<path fill="none" stroke="black" d="M335.694,-712.884C343.816,-703.976 352.697,-694.235 361.157,-684.957"/>
<polygon fill="black" stroke="black" points="363.988,-687.047 368.139,-677.299 358.815,-682.331 363.988,-687.047"/>
</g>
<!-- 31 -->
<g id="node8" class="node"><title>31</title>
<path fill="#e58139" stroke="black" d="M127.5,-565.5C127.5,-565.5 49.5,-565.5 49.5,-565.5 43.5,-565.5 37.5,-559.5 37.5,-553.5 37.5,-553.5 37.5,-524.5 37.5,-524.5 37.5,-518.5 43.5,-512.5 49.5,-512.5 49.5,-512.5 127.5,-512.5 127.5,-512.5 133.5,-512.5 139.5,-518.5 139.5,-524.5 139.5,-524.5 139.5,-553.5 139.5,-553.5 139.5,-559.5 133.5,-565.5 127.5,-565.5"/>
<text text-anchor="start" x="48.5" y="-550.3" font-family="Helvetica,sans-Serif" font-size="14.00">entropy = 0.0</text>
<text text-anchor="start" x="47.5" y="-535.3" font-family="Helvetica,sans-Serif" font-size="14.00">samples = 15</text>
<text text-anchor="start" x="45.5" y="-520.3" font-family="Helvetica,sans-Serif" font-size="14.00">value = [15, 0]</text>
</g>
<!-- 30&#45;&gt;31 -->
<g id="edge7" class="edge"><title>30&#45;&gt;31</title>
<path fill="none" stroke="black" d="M172.241,-608.884C157.801,-597.006 141.56,-583.646 127.251,-571.876"/>
<polygon fill="black" stroke="black" points="129.471,-569.17 119.524,-565.52 125.024,-574.576 129.471,-569.17"/>
</g>
<!-- 32 -->
<g id="node9" class="node"><title>32</title>
<path fill="#e58139" fill-opacity="0.631373" stroke="black" d="M256,-573C256,-573 169,-573 169,-573 163,-573 157,-567 157,-561 157,-561 157,-517 157,-517 157,-511 163,-505 169,-505 169,-505 256,-505 256,-505 262,-505 268,-511 268,-517 268,-517 268,-561 268,-561 268,-567 262,-573 256,-573"/>
<text text-anchor="start" x="175.5" y="-557.8" font-family="Helvetica,sans-Serif" font-size="14.00">A2 ≤ 48.915</text>
<text text-anchor="start" x="165" y="-542.8" font-family="Helvetica,sans-Serif" font-size="14.00">entropy = 0.839</text>
<text text-anchor="start" x="171.5" y="-527.8" font-family="Helvetica,sans-Serif" font-size="14.00">samples = 41</text>
<text text-anchor="start" x="165.5" y="-512.8" font-family="Helvetica,sans-Serif" font-size="14.00">value = [30, 11]</text>
</g>
<!-- 30&#45;&gt;32 -->
<g id="edge8" class="edge"><title>30&#45;&gt;32</title>
<path fill="none" stroke="black" d="M212.5,-608.884C212.5,-600.778 212.5,-591.982 212.5,-583.472"/>
<polygon fill="black" stroke="black" points="216,-583.299 212.5,-573.299 209,-583.299 216,-583.299"/>
</g>
<!-- 33 -->
<g id="node10" class="node"><title>33</title>
<path fill="#e58139" fill-opacity="0.733333" stroke="black" d="M134,-461.5C134,-461.5 47,-461.5 47,-461.5 41,-461.5 35,-455.5 35,-449.5 35,-449.5 35,-420.5 35,-420.5 35,-414.5 41,-408.5 47,-408.5 47,-408.5 134,-408.5 134,-408.5 140,-408.5 146,-414.5 146,-420.5 146,-420.5 146,-449.5 146,-449.5 146,-455.5 140,-461.5 134,-461.5"/>
<text text-anchor="start" x="43" y="-446.3" font-family="Helvetica,sans-Serif" font-size="14.00">entropy = 0.742</text>
<text text-anchor="start" x="49.5" y="-431.3" font-family="Helvetica,sans-Serif" font-size="14.00">samples = 38</text>
<text text-anchor="start" x="47.5" y="-416.3" font-family="Helvetica,sans-Serif" font-size="14.00">value = [30, 8]</text>
</g>
<!-- 32&#45;&gt;33 -->
<g id="edge9" class="edge"><title>32&#45;&gt;33</title>
<path fill="none" stroke="black" d="M172.89,-504.884C158.815,-493.116 143,-479.894 129.018,-468.203"/>
<polygon fill="black" stroke="black" points="130.941,-465.249 121.024,-461.52 126.451,-470.619 130.941,-465.249"/>
</g>
<!-- 46 -->
<g id="node11" class="node"><title>46</title>
<path fill="#399de5" stroke="black" d="M248.5,-461.5C248.5,-461.5 176.5,-461.5 176.5,-461.5 170.5,-461.5 164.5,-455.5 164.5,-449.5 164.5,-449.5 164.5,-420.5 164.5,-420.5 164.5,-414.5 170.5,-408.5 176.5,-408.5 176.5,-408.5 248.5,-408.5 248.5,-408.5 254.5,-408.5 260.5,-414.5 260.5,-420.5 260.5,-420.5 260.5,-449.5 260.5,-449.5 260.5,-455.5 254.5,-461.5 248.5,-461.5"/>
<text text-anchor="start" x="172.5" y="-446.3" font-family="Helvetica,sans-Serif" font-size="14.00">entropy = 0.0</text>
<text text-anchor="start" x="175" y="-431.3" font-family="Helvetica,sans-Serif" font-size="14.00">samples = 3</text>
<text text-anchor="start" x="173" y="-416.3" font-family="Helvetica,sans-Serif" font-size="14.00">value = [0, 3]</text>
</g>
<!-- 32&#45;&gt;46 -->
<g id="edge10" class="edge"><title>32&#45;&gt;46</title>
<path fill="none" stroke="black" d="M212.5,-504.884C212.5,-494.326 212.5,-482.597 212.5,-471.854"/>
<polygon fill="black" stroke="black" points="216,-471.52 212.5,-461.52 209,-471.52 216,-471.52"/>
</g>
<!-- 48 -->
<g id="node13" class="node"><title>48</title>
<path fill="#399de5" fill-opacity="0.498039" stroke="black" d="M442,-573C442,-573 355,-573 355,-573 349,-573 343,-567 343,-561 343,-561 343,-517 343,-517 343,-511 349,-505 355,-505 355,-505 442,-505 442,-505 448,-505 454,-511 454,-517 454,-517 454,-561 454,-561 454,-567 448,-573 442,-573"/>
<text text-anchor="start" x="369" y="-557.8" font-family="Helvetica,sans-Serif" font-size="14.00">A2 ≤ 28.5</text>
<text text-anchor="start" x="351" y="-542.8" font-family="Helvetica,sans-Serif" font-size="14.00">entropy = 0.918</text>
<text text-anchor="start" x="357.5" y="-527.8" font-family="Helvetica,sans-Serif" font-size="14.00">samples = 39</text>
<text text-anchor="start" x="351.5" y="-512.8" font-family="Helvetica,sans-Serif" font-size="14.00">value = [13, 26]</text>
</g>
<!-- 47&#45;&gt;48 -->
<g id="edge12" class="edge"><title>47&#45;&gt;48</title>
<path fill="none" stroke="black" d="M398.5,-608.884C398.5,-600.778 398.5,-591.982 398.5,-583.472"/>
<polygon fill="black" stroke="black" points="402,-583.299 398.5,-573.299 395,-583.299 402,-583.299"/>
</g>
<!-- 65 -->
<g id="node26" class="node"><title>65</title>
<path fill="#e58139" fill-opacity="0.749020" stroke="black" d="M629,-573C629,-573 542,-573 542,-573 536,-573 530,-567 530,-561 530,-561 530,-517 530,-517 530,-511 536,-505 542,-505 542,-505 629,-505 629,-505 635,-505 641,-511 641,-517 641,-517 641,-561 641,-561 641,-567 635,-573 629,-573"/>
<text text-anchor="start" x="556" y="-557.8" font-family="Helvetica,sans-Serif" font-size="14.00">A8 ≤ 8.98</text>
<text text-anchor="start" x="538" y="-542.8" font-family="Helvetica,sans-Serif" font-size="14.00">entropy = 0.722</text>
<text text-anchor="start" x="544.5" y="-527.8" font-family="Helvetica,sans-Serif" font-size="14.00">samples = 10</text>
<text text-anchor="start" x="546" y="-512.8" font-family="Helvetica,sans-Serif" font-size="14.00">value = [8, 2]</text>
</g>
<!-- 47&#45;&gt;65 -->
<g id="edge25" class="edge"><title>47&#45;&gt;65</title>
<path fill="none" stroke="black" d="M454.1,-611.673C475.106,-600.215 499.185,-587.081 520.944,-575.212"/>
<polygon fill="black" stroke="black" points="522.688,-578.248 529.791,-570.386 519.336,-572.102 522.688,-578.248"/>
</g>
<!-- 49 -->
<g id="node14" class="node"><title>49</title>
<path fill="#e58139" fill-opacity="0.180392" stroke="black" d="M378,-469C378,-469 291,-469 291,-469 285,-469 279,-463 279,-457 279,-457 279,-413 279,-413 279,-407 285,-401 291,-401 291,-401 378,-401 378,-401 384,-401 390,-407 390,-413 390,-413 390,-457 390,-457 390,-463 384,-469 378,-469"/>
<text text-anchor="start" x="297.5" y="-453.8" font-family="Helvetica,sans-Serif" font-size="14.00">A14 ≤ 120.0</text>
<text text-anchor="start" x="287" y="-438.8" font-family="Helvetica,sans-Serif" font-size="14.00">entropy = 0.993</text>
<text text-anchor="start" x="293.5" y="-423.8" font-family="Helvetica,sans-Serif" font-size="14.00">samples = 20</text>
<text text-anchor="start" x="291.5" y="-408.8" font-family="Helvetica,sans-Serif" font-size="14.00">value = [11, 9]</text>
</g>
<!-- 48&#45;&gt;49 -->
<g id="edge13" class="edge"><title>48&#45;&gt;49</title>
<path fill="none" stroke="black" d="M377.721,-504.884C372.3,-496.243 366.387,-486.819 360.723,-477.793"/>
<polygon fill="black" stroke="black" points="363.673,-475.91 355.394,-469.299 357.744,-479.63 363.673,-475.91"/>
</g>
<!-- 58 -->
<g id="node23" class="node"><title>58</title>
<path fill="#399de5" fill-opacity="0.882353" stroke="black" d="M507,-469C507,-469 420,-469 420,-469 414,-469 408,-463 408,-457 408,-457 408,-413 408,-413 408,-407 414,-401 420,-401 420,-401 507,-401 507,-401 513,-401 519,-407 519,-413 519,-413 519,-457 519,-457 519,-463 513,-469 507,-469"/>
<text text-anchor="start" x="429" y="-453.8" font-family="Helvetica,sans-Serif" font-size="14.00">A6_w ≤ 0.5</text>
<text text-anchor="start" x="416" y="-438.8" font-family="Helvetica,sans-Serif" font-size="14.00">entropy = 0.485</text>
<text text-anchor="start" x="422.5" y="-423.8" font-family="Helvetica,sans-Serif" font-size="14.00">samples = 19</text>
<text text-anchor="start" x="420.5" y="-408.8" font-family="Helvetica,sans-Serif" font-size="14.00">value = [2, 17]</text>
</g>
<!-- 48&#45;&gt;58 -->
<g id="edge22" class="edge"><title>48&#45;&gt;58</title>
<path fill="none" stroke="black" d="M419.604,-504.884C425.11,-496.243 431.115,-486.819 436.867,-477.793"/>
<polygon fill="black" stroke="black" points="439.857,-479.614 442.28,-469.299 433.954,-475.852 439.857,-479.614"/>
</g>
<!-- 50 -->
<g id="node15" class="node"><title>50</title>
<path fill="#e58139" stroke="black" d="M249.5,-357.5C249.5,-357.5 177.5,-357.5 177.5,-357.5 171.5,-357.5 165.5,-351.5 165.5,-345.5 165.5,-345.5 165.5,-316.5 165.5,-316.5 165.5,-310.5 171.5,-304.5 177.5,-304.5 177.5,-304.5 249.5,-304.5 249.5,-304.5 255.5,-304.5 261.5,-310.5 261.5,-316.5 261.5,-316.5 261.5,-345.5 261.5,-345.5 261.5,-351.5 255.5,-357.5 249.5,-357.5"/>
<text text-anchor="start" x="173.5" y="-342.3" font-family="Helvetica,sans-Serif" font-size="14.00">entropy = 0.0</text>
<text text-anchor="start" x="176" y="-327.3" font-family="Helvetica,sans-Serif" font-size="14.00">samples = 8</text>
<text text-anchor="start" x="174" y="-312.3" font-family="Helvetica,sans-Serif" font-size="14.00">value = [8, 0]</text>
</g>
<!-- 49&#45;&gt;50 -->
<g id="edge14" class="edge"><title>49&#45;&gt;50</title>
<path fill="none" stroke="black" d="M295.215,-400.884C281.255,-389.116 265.57,-375.894 251.702,-364.203"/>
<polygon fill="black" stroke="black" points="253.675,-361.289 243.774,-357.52 249.164,-366.641 253.675,-361.289"/>
</g>
<!-- 51 -->
<g id="node16" class="node"><title>51</title>
<path fill="#399de5" fill-opacity="0.666667" stroke="black" d="M379,-365C379,-365 292,-365 292,-365 286,-365 280,-359 280,-353 280,-353 280,-309 280,-309 280,-303 286,-297 292,-297 292,-297 379,-297 379,-297 385,-297 391,-303 391,-309 391,-309 391,-353 391,-353 391,-359 385,-365 379,-365"/>
<text text-anchor="start" x="298.5" y="-349.8" font-family="Helvetica,sans-Serif" font-size="14.00">A2 ≤ 25.835</text>
<text text-anchor="start" x="288" y="-334.8" font-family="Helvetica,sans-Serif" font-size="14.00">entropy = 0.811</text>
<text text-anchor="start" x="294.5" y="-319.8" font-family="Helvetica,sans-Serif" font-size="14.00">samples = 12</text>
<text text-anchor="start" x="296" y="-304.8" font-family="Helvetica,sans-Serif" font-size="14.00">value = [3, 9]</text>
</g>
<!-- 49&#45;&gt;51 -->
<g id="edge15" class="edge"><title>49&#45;&gt;51</title>
<path fill="none" stroke="black" d="M334.825,-400.884C334.904,-392.778 334.99,-383.982 335.074,-375.472"/>
<polygon fill="black" stroke="black" points="338.575,-375.333 335.174,-365.299 331.576,-375.265 338.575,-375.333"/>
</g>
<!-- 52 -->
<g id="node17" class="node"><title>52</title>
<path fill="#399de5" stroke="black" d="M310.5,-253.5C310.5,-253.5 238.5,-253.5 238.5,-253.5 232.5,-253.5 226.5,-247.5 226.5,-241.5 226.5,-241.5 226.5,-212.5 226.5,-212.5 226.5,-206.5 232.5,-200.5 238.5,-200.5 238.5,-200.5 310.5,-200.5 310.5,-200.5 316.5,-200.5 322.5,-206.5 322.5,-212.5 322.5,-212.5 322.5,-241.5 322.5,-241.5 322.5,-247.5 316.5,-253.5 310.5,-253.5"/>
<text text-anchor="start" x="234.5" y="-238.3" font-family="Helvetica,sans-Serif" font-size="14.00">entropy = 0.0</text>
<text text-anchor="start" x="237" y="-223.3" font-family="Helvetica,sans-Serif" font-size="14.00">samples = 7</text>
<text text-anchor="start" x="235" y="-208.3" font-family="Helvetica,sans-Serif" font-size="14.00">value = [0, 7]</text>
</g>
<!-- 51&#45;&gt;52 -->
<g id="edge16" class="edge"><title>51&#45;&gt;52</title>
<path fill="none" stroke="black" d="M315.695,-296.884C309.052,-285.776 301.634,-273.372 294.943,-262.184"/>
<polygon fill="black" stroke="black" points="297.898,-260.306 289.762,-253.52 291.891,-263.899 297.898,-260.306"/>
</g>
<!-- 53 -->
<g id="node18" class="node"><title>53</title>
<path fill="#e58139" fill-opacity="0.333333" stroke="black" d="M440,-261C440,-261 353,-261 353,-261 347,-261 341,-255 341,-249 341,-249 341,-205 341,-205 341,-199 347,-193 353,-193 353,-193 440,-193 440,-193 446,-193 452,-199 452,-205 452,-205 452,-249 452,-249 452,-255 446,-261 440,-261"/>
<text text-anchor="start" x="359.5" y="-245.8" font-family="Helvetica,sans-Serif" font-size="14.00">A2 ≤ 26.665</text>
<text text-anchor="start" x="349" y="-230.8" font-family="Helvetica,sans-Serif" font-size="14.00">entropy = 0.971</text>
<text text-anchor="start" x="359" y="-215.8" font-family="Helvetica,sans-Serif" font-size="14.00">samples = 5</text>
<text text-anchor="start" x="357" y="-200.8" font-family="Helvetica,sans-Serif" font-size="14.00">value = [3, 2]</text>
</g>
<!-- 51&#45;&gt;53 -->
<g id="edge17" class="edge"><title>51&#45;&gt;53</title>
<path fill="none" stroke="black" d="M355.305,-296.884C360.419,-288.332 365.992,-279.013 371.339,-270.072"/>
<polygon fill="black" stroke="black" points="374.457,-271.678 376.586,-261.299 368.449,-268.085 374.457,-271.678"/>
</g>
<!-- 54 -->
<g id="node19" class="node"><title>54</title>
<path fill="#e58139" stroke="black" d="M371.5,-149.5C371.5,-149.5 299.5,-149.5 299.5,-149.5 293.5,-149.5 287.5,-143.5 287.5,-137.5 287.5,-137.5 287.5,-108.5 287.5,-108.5 287.5,-102.5 293.5,-96.5 299.5,-96.5 299.5,-96.5 371.5,-96.5 371.5,-96.5 377.5,-96.5 383.5,-102.5 383.5,-108.5 383.5,-108.5 383.5,-137.5 383.5,-137.5 383.5,-143.5 377.5,-149.5 371.5,-149.5"/>
<text text-anchor="start" x="295.5" y="-134.3" font-family="Helvetica,sans-Serif" font-size="14.00">entropy = 0.0</text>
<text text-anchor="start" x="298" y="-119.3" font-family="Helvetica,sans-Serif" font-size="14.00">samples = 2</text>
<text text-anchor="start" x="296" y="-104.3" font-family="Helvetica,sans-Serif" font-size="14.00">value = [2, 0]</text>
</g>
<!-- 53&#45;&gt;54 -->
<g id="edge18" class="edge"><title>53&#45;&gt;54</title>
<path fill="none" stroke="black" d="M376.695,-192.884C370.052,-181.776 362.634,-169.372 355.943,-158.184"/>
<polygon fill="black" stroke="black" points="358.898,-156.306 350.762,-149.52 352.891,-159.899 358.898,-156.306"/>
</g>
<!-- 55 -->
<g id="node20" class="node"><title>55</title>
<path fill="#399de5" fill-opacity="0.498039" stroke="black" d="M501,-157C501,-157 414,-157 414,-157 408,-157 402,-151 402,-145 402,-145 402,-101 402,-101 402,-95 408,-89 414,-89 414,-89 501,-89 501,-89 507,-89 513,-95 513,-101 513,-101 513,-145 513,-145 513,-151 507,-157 501,-157"/>
<text text-anchor="start" x="423" y="-141.8" font-family="Helvetica,sans-Serif" font-size="14.00">A6_w ≤ 0.5</text>
<text text-anchor="start" x="410" y="-126.8" font-family="Helvetica,sans-Serif" font-size="14.00">entropy = 0.918</text>
<text text-anchor="start" x="420" y="-111.8" font-family="Helvetica,sans-Serif" font-size="14.00">samples = 3</text>
<text text-anchor="start" x="418" y="-96.8" font-family="Helvetica,sans-Serif" font-size="14.00">value = [1, 2]</text>
</g>
<!-- 53&#45;&gt;55 -->
<g id="edge19" class="edge"><title>53&#45;&gt;55</title>
<path fill="none" stroke="black" d="M416.305,-192.884C421.419,-184.332 426.992,-175.013 432.339,-166.072"/>
<polygon fill="black" stroke="black" points="435.457,-167.678 437.586,-157.299 429.449,-164.085 435.457,-167.678"/>
</g>
<!-- 56 -->
<g id="node21" class="node"><title>56</title>
<path fill="#399de5" stroke="black" d="M436.5,-53C436.5,-53 364.5,-53 364.5,-53 358.5,-53 352.5,-47 352.5,-41 352.5,-41 352.5,-12 352.5,-12 352.5,-6 358.5,-0 364.5,-0 364.5,-0 436.5,-0 436.5,-0 442.5,-0 448.5,-6 448.5,-12 448.5,-12 448.5,-41 448.5,-41 448.5,-47 442.5,-53 436.5,-53"/>
<text text-anchor="start" x="360.5" y="-37.8" font-family="Helvetica,sans-Serif" font-size="14.00">entropy = 0.0</text>
<text text-anchor="start" x="363" y="-22.8" font-family="Helvetica,sans-Serif" font-size="14.00">samples = 2</text>
<text text-anchor="start" x="361" y="-7.8" font-family="Helvetica,sans-Serif" font-size="14.00">value = [0, 2]</text>
</g>
<!-- 55&#45;&gt;56 -->
<g id="edge20" class="edge"><title>55&#45;&gt;56</title>
<path fill="none" stroke="black" d="M437.564,-88.9485C432.267,-80.1664 426.535,-70.6629 421.198,-61.815"/>
<polygon fill="black" stroke="black" points="424.186,-59.9919 416.024,-53.2367 418.192,-63.6074 424.186,-59.9919"/>
</g>
<!-- 57 -->
<g id="node22" class="node"><title>57</title>
<path fill="#e58139" stroke="black" d="M550.5,-53C550.5,-53 478.5,-53 478.5,-53 472.5,-53 466.5,-47 466.5,-41 466.5,-41 466.5,-12 466.5,-12 466.5,-6 472.5,-0 478.5,-0 478.5,-0 550.5,-0 550.5,-0 556.5,-0 562.5,-6 562.5,-12 562.5,-12 562.5,-41 562.5,-41 562.5,-47 556.5,-53 550.5,-53"/>
<text text-anchor="start" x="474.5" y="-37.8" font-family="Helvetica,sans-Serif" font-size="14.00">entropy = 0.0</text>
<text text-anchor="start" x="477" y="-22.8" font-family="Helvetica,sans-Serif" font-size="14.00">samples = 1</text>
<text text-anchor="start" x="475" y="-7.8" font-family="Helvetica,sans-Serif" font-size="14.00">value = [1, 0]</text>
</g>
<!-- 55&#45;&gt;57 -->
<g id="edge21" class="edge"><title>55&#45;&gt;57</title>
<path fill="none" stroke="black" d="M477.436,-88.9485C482.733,-80.1664 488.465,-70.6629 493.802,-61.815"/>
<polygon fill="black" stroke="black" points="496.808,-63.6074 498.976,-53.2367 490.814,-59.9919 496.808,-63.6074"/>
</g>
<!-- 59 -->
<g id="node24" class="node"><title>59</title>
<path fill="#399de5" fill-opacity="0.941176" stroke="black" d="M502.5,-357.5C502.5,-357.5 422.5,-357.5 422.5,-357.5 416.5,-357.5 410.5,-351.5 410.5,-345.5 410.5,-345.5 410.5,-316.5 410.5,-316.5 410.5,-310.5 416.5,-304.5 422.5,-304.5 422.5,-304.5 502.5,-304.5 502.5,-304.5 508.5,-304.5 514.5,-310.5 514.5,-316.5 514.5,-316.5 514.5,-345.5 514.5,-345.5 514.5,-351.5 508.5,-357.5 502.5,-357.5"/>
<text text-anchor="start" x="418.5" y="-342.3" font-family="Helvetica,sans-Serif" font-size="14.00">entropy = 0.31</text>
<text text-anchor="start" x="421.5" y="-327.3" font-family="Helvetica,sans-Serif" font-size="14.00">samples = 18</text>
<text text-anchor="start" x="419.5" y="-312.3" font-family="Helvetica,sans-Serif" font-size="14.00">value = [1, 17]</text>
</g>
<!-- 58&#45;&gt;59 -->
<g id="edge23" class="edge"><title>58&#45;&gt;59</title>
<path fill="none" stroke="black" d="M463.175,-400.884C463.072,-390.326 462.957,-378.597 462.852,-367.854"/>
<polygon fill="black" stroke="black" points="466.348,-367.485 462.75,-357.52 459.348,-367.554 466.348,-367.485"/>
</g>
<!-- 64 -->
<g id="node25" class="node"><title>64</title>
<path fill="#e58139" stroke="black" d="M616.5,-357.5C616.5,-357.5 544.5,-357.5 544.5,-357.5 538.5,-357.5 532.5,-351.5 532.5,-345.5 532.5,-345.5 532.5,-316.5 532.5,-316.5 532.5,-310.5 538.5,-304.5 544.5,-304.5 544.5,-304.5 616.5,-304.5 616.5,-304.5 622.5,-304.5 628.5,-310.5 628.5,-316.5 628.5,-316.5 628.5,-345.5 628.5,-345.5 628.5,-351.5 622.5,-357.5 616.5,-357.5"/>
<text text-anchor="start" x="540.5" y="-342.3" font-family="Helvetica,sans-Serif" font-size="14.00">entropy = 0.0</text>
<text text-anchor="start" x="543" y="-327.3" font-family="Helvetica,sans-Serif" font-size="14.00">samples = 1</text>
<text text-anchor="start" x="541" y="-312.3" font-family="Helvetica,sans-Serif" font-size="14.00">value = [1, 0]</text>
</g>
<!-- 58&#45;&gt;64 -->
<g id="edge24" class="edge"><title>58&#45;&gt;64</title>
<path fill="none" stroke="black" d="M501.487,-400.884C514.985,-389.116 530.151,-375.894 543.561,-364.203"/>
<polygon fill="black" stroke="black" points="545.989,-366.73 551.227,-357.52 541.389,-361.453 545.989,-366.73"/>
</g>
<!-- 66 -->
<g id="node27" class="node"><title>66</title>
<path fill="#e58139" stroke="black" d="M621.5,-461.5C621.5,-461.5 549.5,-461.5 549.5,-461.5 543.5,-461.5 537.5,-455.5 537.5,-449.5 537.5,-449.5 537.5,-420.5 537.5,-420.5 537.5,-414.5 543.5,-408.5 549.5,-408.5 549.5,-408.5 621.5,-408.5 621.5,-408.5 627.5,-408.5 633.5,-414.5 633.5,-420.5 633.5,-420.5 633.5,-449.5 633.5,-449.5 633.5,-455.5 627.5,-461.5 621.5,-461.5"/>
<text text-anchor="start" x="545.5" y="-446.3" font-family="Helvetica,sans-Serif" font-size="14.00">entropy = 0.0</text>
<text text-anchor="start" x="548" y="-431.3" font-family="Helvetica,sans-Serif" font-size="14.00">samples = 8</text>
<text text-anchor="start" x="546" y="-416.3" font-family="Helvetica,sans-Serif" font-size="14.00">value = [8, 0]</text>
</g>
<!-- 65&#45;&gt;66 -->
<g id="edge26" class="edge"><title>65&#45;&gt;66</title>
<path fill="none" stroke="black" d="M585.5,-504.884C585.5,-494.326 585.5,-482.597 585.5,-471.854"/>
<polygon fill="black" stroke="black" points="589,-471.52 585.5,-461.52 582,-471.52 589,-471.52"/>
</g>
<!-- 67 -->
<g id="node28" class="node"><title>67</title>
<path fill="#399de5" stroke="black" d="M735.5,-461.5C735.5,-461.5 663.5,-461.5 663.5,-461.5 657.5,-461.5 651.5,-455.5 651.5,-449.5 651.5,-449.5 651.5,-420.5 651.5,-420.5 651.5,-414.5 657.5,-408.5 663.5,-408.5 663.5,-408.5 735.5,-408.5 735.5,-408.5 741.5,-408.5 747.5,-414.5 747.5,-420.5 747.5,-420.5 747.5,-449.5 747.5,-449.5 747.5,-455.5 741.5,-461.5 735.5,-461.5"/>
<text text-anchor="start" x="659.5" y="-446.3" font-family="Helvetica,sans-Serif" font-size="14.00">entropy = 0.0</text>
<text text-anchor="start" x="662" y="-431.3" font-family="Helvetica,sans-Serif" font-size="14.00">samples = 2</text>
<text text-anchor="start" x="660" y="-416.3" font-family="Helvetica,sans-Serif" font-size="14.00">value = [0, 2]</text>
</g>
<!-- 65&#45;&gt;67 -->
<g id="edge27" class="edge"><title>65&#45;&gt;67</title>
<path fill="none" stroke="black" d="M622.513,-504.884C635.665,-493.116 650.442,-479.894 663.508,-468.203"/>
<polygon fill="black" stroke="black" points="665.859,-470.796 670.978,-461.52 661.191,-465.58 665.859,-470.796"/>
</g>
</g>
</svg>
