<?xml version="1.0" encoding="UTF-8" standalone="no"?>
<!DOCTYPE svg PUBLIC "-//W3C//DTD SVG 1.1//EN"
 "http://www.w3.org/Graphics/SVG/1.1/DTD/svg11.dtd">
<!-- Generated by graphviz version 2.38.0 (20140413.2041)
 -->
<!-- Title: Tree Pages: 1 -->
<svg width="602pt" height="685pt"
 viewBox="0.00 0.00 601.50 685.00" xmlns="http://www.w3.org/2000/svg" xmlns:xlink="http://www.w3.org/1999/xlink">
<g id="graph0" class="graph" transform="scale(1 1) rotate(0) translate(4 681)">
<title>Tree</title>
<polygon fill="white" stroke="none" points="-4,4 -4,-681 597.5,-681 597.5,4 -4,4"/>
<!-- 0 -->
<g id="node1" class="node"><title>0</title>
<path fill="#399de5" fill-opacity="0.274510" stroke="black" d="M291,-677C291,-677 190,-677 190,-677 184,-677 178,-671 178,-665 178,-665 178,-621 178,-621 178,-615 184,-609 190,-609 190,-609 291,-609 291,-609 297,-609 303,-615 303,-621 303,-621 303,-665 303,-665 303,-671 297,-677 291,-677"/>
<text text-anchor="start" x="209" y="-661.8" font-family="Helvetica,sans-Serif" font-size="14.00">A9_t ≤ 0.5</text>
<text text-anchor="start" x="193" y="-646.8" font-family="Helvetica,sans-Serif" font-size="14.00">entropy = 0.981</text>
<text text-anchor="start" x="195.5" y="-631.8" font-family="Helvetica,sans-Serif" font-size="14.00">samples = 343</text>
<text text-anchor="start" x="186" y="-616.8" font-family="Helvetica,sans-Serif" font-size="14.00">value = [144, 199]</text>
</g>
<!-- 1 -->
<g id="node2" class="node"><title>1</title>
<path fill="#399de5" fill-opacity="0.937255" stroke="black" d="M220,-573C220,-573 127,-573 127,-573 121,-573 115,-567 115,-561 115,-561 115,-517 115,-517 115,-511 121,-505 127,-505 127,-505 220,-505 220,-505 226,-505 232,-511 232,-517 232,-517 232,-561 232,-561 232,-567 226,-573 220,-573"/>
<text text-anchor="start" x="142.5" y="-557.8" font-family="Helvetica,sans-Serif" font-size="14.00">A4_l ≤ 0.5</text>
<text text-anchor="start" x="126" y="-542.8" font-family="Helvetica,sans-Serif" font-size="14.00">entropy = 0.324</text>
<text text-anchor="start" x="128.5" y="-527.8" font-family="Helvetica,sans-Serif" font-size="14.00">samples = 169</text>
<text text-anchor="start" x="123" y="-512.8" font-family="Helvetica,sans-Serif" font-size="14.00">value = [10, 159]</text>
</g>
<!-- 0&#45;&gt;1 -->
<g id="edge1" class="edge"><title>0&#45;&gt;1</title>
<path fill="none" stroke="black" d="M218.747,-608.884C213.072,-600.243 206.881,-590.819 200.952,-581.793"/>
<polygon fill="black" stroke="black" points="203.789,-579.736 195.373,-573.299 197.938,-583.579 203.789,-579.736"/>
<text text-anchor="middle" x="190.303" y="-594.08" font-family="Helvetica,sans-Serif" font-size="14.00">True</text>
</g>
<!-- 28 -->
<g id="node5" class="node"><title>28</title>
<path fill="#e58139" fill-opacity="0.701961" stroke="black" d="M355,-573C355,-573 262,-573 262,-573 256,-573 250,-567 250,-561 250,-561 250,-517 250,-517 250,-511 256,-505 262,-505 262,-505 355,-505 355,-505 361,-505 367,-511 367,-517 367,-517 367,-561 367,-561 367,-567 361,-573 355,-573"/>
<text text-anchor="start" x="271.5" y="-557.8" font-family="Helvetica,sans-Serif" font-size="14.00">A15 ≤ 235.0</text>
<text text-anchor="start" x="261" y="-542.8" font-family="Helvetica,sans-Serif" font-size="14.00">entropy = 0.778</text>
<text text-anchor="start" x="263.5" y="-527.8" font-family="Helvetica,sans-Serif" font-size="14.00">samples = 174</text>
<text text-anchor="start" x="258" y="-512.8" font-family="Helvetica,sans-Serif" font-size="14.00">value = [134, 40]</text>
</g>
<!-- 0&#45;&gt;28 -->
<g id="edge4" class="edge"><title>0&#45;&gt;28</title>
<path fill="none" stroke="black" d="M262.578,-608.884C268.338,-600.243 274.621,-590.819 280.638,-581.793"/>
<polygon fill="black" stroke="black" points="283.666,-583.561 286.3,-573.299 277.841,-579.678 283.666,-583.561"/>
<text text-anchor="middle" x="291.203" y="-594.114" font-family="Helvetica,sans-Serif" font-size="14.00">False</text>
</g>
<!-- 2 -->
<g id="node3" class="node"><title>2</title>
<path fill="#399de5" fill-opacity="0.949020" stroke="black" d="M99,-461.5C99,-461.5 12,-461.5 12,-461.5 6,-461.5 7.10543e-15,-455.5 7.10543e-15,-449.5 7.10543e-15,-449.5 7.10543e-15,-420.5 7.10543e-15,-420.5 7.10543e-15,-414.5 6,-408.5 12,-408.5 12,-408.5 99,-408.5 99,-408.5 105,-408.5 111,-414.5 111,-420.5 111,-420.5 111,-449.5 111,-449.5 111,-455.5 105,-461.5 99,-461.5"/>
<text text-anchor="start" x="8" y="-446.3" font-family="Helvetica,sans-Serif" font-size="14.00">entropy = 0.277</text>
<text text-anchor="start" x="10.5" y="-431.3" font-family="Helvetica,sans-Serif" font-size="14.00">samples = 167</text>
<text text-anchor="start" x="8.5" y="-416.3" font-family="Helvetica,sans-Serif" font-size="14.00">value = [8, 159]</text>
</g>
<!-- 1&#45;&gt;2 -->
<g id="edge2" class="edge"><title>1&#45;&gt;2</title>
<path fill="none" stroke="black" d="M135.189,-504.884C121.575,-493.116 106.279,-479.894 92.7549,-468.203"/>
<polygon fill="black" stroke="black" points="94.8773,-465.412 85.0231,-461.52 90.2996,-470.707 94.8773,-465.412"/>
</g>
<!-- 27 -->
<g id="node4" class="node"><title>27</title>
<path fill="#e58139" stroke="black" d="M213.5,-461.5C213.5,-461.5 141.5,-461.5 141.5,-461.5 135.5,-461.5 129.5,-455.5 129.5,-449.5 129.5,-449.5 129.5,-420.5 129.5,-420.5 129.5,-414.5 135.5,-408.5 141.5,-408.5 141.5,-408.5 213.5,-408.5 213.5,-408.5 219.5,-408.5 225.5,-414.5 225.5,-420.5 225.5,-420.5 225.5,-449.5 225.5,-449.5 225.5,-455.5 219.5,-461.5 213.5,-461.5"/>
<text text-anchor="start" x="137.5" y="-446.3" font-family="Helvetica,sans-Serif" font-size="14.00">entropy = 0.0</text>
<text text-anchor="start" x="140" y="-431.3" font-family="Helvetica,sans-Serif" font-size="14.00">samples = 2</text>
<text text-anchor="start" x="138" y="-416.3" font-family="Helvetica,sans-Serif" font-size="14.00">value = [2, 0]</text>
</g>
<!-- 1&#45;&gt;27 -->
<g id="edge3" class="edge"><title>1&#45;&gt;27</title>
<path fill="none" stroke="black" d="M174.799,-504.884C175.217,-494.216 175.682,-482.352 176.107,-471.519"/>
<polygon fill="black" stroke="black" points="179.605,-471.649 176.499,-461.52 172.61,-471.375 179.605,-471.649"/>
</g>
<!-- 29 -->
<g id="node6" class="node"><title>29</title>
<path fill="#e58139" fill-opacity="0.407843" stroke="black" d="M349,-469C349,-469 262,-469 262,-469 256,-469 250,-463 250,-457 250,-457 250,-413 250,-413 250,-407 256,-401 262,-401 262,-401 349,-401 349,-401 355,-401 361,-407 361,-413 361,-413 361,-457 361,-457 361,-463 355,-469 349,-469"/>
<text text-anchor="start" x="270.5" y="-453.8" font-family="Helvetica,sans-Serif" font-size="14.00">A10_f ≤ 0.5</text>
<text text-anchor="start" x="258" y="-438.8" font-family="Helvetica,sans-Serif" font-size="14.00">entropy = 0.952</text>
<text text-anchor="start" x="260.5" y="-423.8" font-family="Helvetica,sans-Serif" font-size="14.00">samples = 105</text>
<text text-anchor="start" x="258.5" y="-408.8" font-family="Helvetica,sans-Serif" font-size="14.00">value = [66, 39]</text>
</g>
<!-- 28&#45;&gt;29 -->
<g id="edge5" class="edge"><title>28&#45;&gt;29</title>
<path fill="none" stroke="black" d="M307.526,-504.884C307.288,-496.778 307.029,-487.982 306.779,-479.472"/>
<polygon fill="black" stroke="black" points="310.272,-479.192 306.479,-469.299 303.275,-479.398 310.272,-479.192"/>
</g>
<!-- 68 -->
<g id="node17" class="node"><title>68</title>
<path fill="#e58139" fill-opacity="0.984314" stroke="black" d="M478,-461.5C478,-461.5 391,-461.5 391,-461.5 385,-461.5 379,-455.5 379,-449.5 379,-449.5 379,-420.5 379,-420.5 379,-414.5 385,-408.5 391,-408.5 391,-408.5 478,-408.5 478,-408.5 484,-408.5 490,-414.5 490,-420.5 490,-420.5 490,-449.5 490,-449.5 490,-455.5 484,-461.5 478,-461.5"/>
<text text-anchor="start" x="387" y="-446.3" font-family="Helvetica,sans-Serif" font-size="14.00">entropy = 0.109</text>
<text text-anchor="start" x="393.5" y="-431.3" font-family="Helvetica,sans-Serif" font-size="14.00">samples = 69</text>
<text text-anchor="start" x="391.5" y="-416.3" font-family="Helvetica,sans-Serif" font-size="14.00">value = [68, 1]</text>
</g>
<!-- 28&#45;&gt;68 -->
<g id="edge16" class="edge"><title>28&#45;&gt;68</title>
<path fill="none" stroke="black" d="M349.409,-504.884C364.081,-493.006 380.584,-479.646 395.124,-467.876"/>
<polygon fill="black" stroke="black" points="397.405,-470.532 402.975,-461.52 393.001,-465.092 397.405,-470.532"/>
</g>
<!-- 30 -->
<g id="node7" class="node"><title>30</title>
<path fill="#e58139" fill-opacity="0.756863" stroke="black" d="M284,-357.5C284,-357.5 197,-357.5 197,-357.5 191,-357.5 185,-351.5 185,-345.5 185,-345.5 185,-316.5 185,-316.5 185,-310.5 191,-304.5 197,-304.5 197,-304.5 284,-304.5 284,-304.5 290,-304.5 296,-310.5 296,-316.5 296,-316.5 296,-345.5 296,-345.5 296,-351.5 290,-357.5 284,-357.5"/>
<text text-anchor="start" x="193" y="-342.3" font-family="Helvetica,sans-Serif" font-size="14.00">entropy = 0.715</text>
<text text-anchor="start" x="199.5" y="-327.3" font-family="Helvetica,sans-Serif" font-size="14.00">samples = 56</text>
<text text-anchor="start" x="193.5" y="-312.3" font-family="Helvetica,sans-Serif" font-size="14.00">value = [45, 11]</text>
</g>
<!-- 29&#45;&gt;30 -->
<g id="edge6" class="edge"><title>29&#45;&gt;30</title>
<path fill="none" stroke="black" d="M284.396,-400.884C277.318,-389.776 269.413,-377.372 262.284,-366.184"/>
<polygon fill="black" stroke="black" points="265.088,-364.072 256.763,-357.52 259.185,-367.834 265.088,-364.072"/>
</g>
<!-- 47 -->
<g id="node8" class="node"><title>47</title>
<path fill="#399de5" fill-opacity="0.250980" stroke="black" d="M413,-365C413,-365 326,-365 326,-365 320,-365 314,-359 314,-353 314,-353 314,-309 314,-309 314,-303 320,-297 326,-297 326,-297 413,-297 413,-297 419,-297 425,-303 425,-309 425,-309 425,-353 425,-353 425,-359 419,-365 413,-365"/>
<text text-anchor="start" x="336" y="-349.8" font-family="Helvetica,sans-Serif" font-size="14.00">A7_h ≤ 0.5</text>
<text text-anchor="start" x="322" y="-334.8" font-family="Helvetica,sans-Serif" font-size="14.00">entropy = 0.985</text>
<text text-anchor="start" x="328.5" y="-319.8" font-family="Helvetica,sans-Serif" font-size="14.00">samples = 49</text>
<text text-anchor="start" x="322.5" y="-304.8" font-family="Helvetica,sans-Serif" font-size="14.00">value = [21, 28]</text>
</g>
<!-- 29&#45;&gt;47 -->
<g id="edge7" class="edge"><title>29&#45;&gt;47</title>
<path fill="none" stroke="black" d="M326.279,-400.884C331.7,-392.243 337.613,-382.819 343.277,-373.793"/>
<polygon fill="black" stroke="black" points="346.256,-375.63 348.606,-365.299 340.327,-371.91 346.256,-375.63"/>
</g>
<!-- 48 -->
<g id="node9" class="node"><title>48</title>
<path fill="#399de5" fill-opacity="0.498039" stroke="black" d="M348,-261C348,-261 261,-261 261,-261 255,-261 249,-255 249,-249 249,-249 249,-205 249,-205 249,-199 255,-193 261,-193 261,-193 348,-193 348,-193 354,-193 360,-199 360,-205 360,-205 360,-249 360,-249 360,-255 354,-261 348,-261"/>
<text text-anchor="start" x="275" y="-245.8" font-family="Helvetica,sans-Serif" font-size="14.00">A2 ≤ 28.5</text>
<text text-anchor="start" x="257" y="-230.8" font-family="Helvetica,sans-Serif" font-size="14.00">entropy = 0.918</text>
<text text-anchor="start" x="263.5" y="-215.8" font-family="Helvetica,sans-Serif" font-size="14.00">samples = 39</text>
<text text-anchor="start" x="257.5" y="-200.8" font-family="Helvetica,sans-Serif" font-size="14.00">value = [13, 26]</text>
</g>
<!-- 47&#45;&gt;48 -->
<g id="edge8" class="edge"><title>47&#45;&gt;48</title>
<path fill="none" stroke="black" d="M348.396,-296.884C342.89,-288.243 336.885,-278.819 331.133,-269.793"/>
<polygon fill="black" stroke="black" points="334.046,-267.852 325.72,-261.299 328.143,-271.614 334.046,-267.852"/>
</g>
<!-- 65 -->
<g id="node14" class="node"><title>65</title>
<path fill="#e58139" fill-opacity="0.749020" stroke="black" d="M477,-261C477,-261 390,-261 390,-261 384,-261 378,-255 378,-249 378,-249 378,-205 378,-205 378,-199 384,-193 390,-193 390,-193 477,-193 477,-193 483,-193 489,-199 489,-205 489,-205 489,-249 489,-249 489,-255 483,-261 477,-261"/>
<text text-anchor="start" x="404" y="-245.8" font-family="Helvetica,sans-Serif" font-size="14.00">A8 ≤ 8.98</text>
<text text-anchor="start" x="386" y="-230.8" font-family="Helvetica,sans-Serif" font-size="14.00">entropy = 0.722</text>
<text text-anchor="start" x="392.5" y="-215.8" font-family="Helvetica,sans-Serif" font-size="14.00">samples = 10</text>
<text text-anchor="start" x="394" y="-200.8" font-family="Helvetica,sans-Serif" font-size="14.00">value = [8, 2]</text>
</g>
<!-- 47&#45;&gt;65 -->
<g id="edge13" class="edge"><title>47&#45;&gt;65</title>
<path fill="none" stroke="black" d="M390.279,-296.884C395.7,-288.243 401.613,-278.819 407.277,-269.793"/>
<polygon fill="black" stroke="black" points="410.256,-271.63 412.606,-261.299 404.327,-267.91 410.256,-271.63"/>
</g>
<!-- 49 -->
<g id="node10" class="node"><title>49</title>
<path fill="#e58139" fill-opacity="0.180392" stroke="black" d="M221,-157C221,-157 134,-157 134,-157 128,-157 122,-151 122,-145 122,-145 122,-101 122,-101 122,-95 128,-89 134,-89 134,-89 221,-89 221,-89 227,-89 233,-95 233,-101 233,-101 233,-145 233,-145 233,-151 227,-157 221,-157"/>
<text text-anchor="start" x="140.5" y="-141.8" font-family="Helvetica,sans-Serif" font-size="14.00">A14 ≤ 120.0</text>
<text text-anchor="start" x="130" y="-126.8" font-family="Helvetica,sans-Serif" font-size="14.00">entropy = 0.993</text>
<text text-anchor="start" x="136.5" y="-111.8" font-family="Helvetica,sans-Serif" font-size="14.00">samples = 20</text>
<text text-anchor="start" x="134.5" y="-96.8" font-family="Helvetica,sans-Serif" font-size="14.00">value = [11, 9]</text>
</g>
<!-- 48&#45;&gt;49 -->
<g id="edge9" class="edge"><title>48&#45;&gt;49</title>
<path fill="none" stroke="black" d="M263.267,-192.884C251.622,-183.531 238.833,-173.259 226.766,-163.568"/>
<polygon fill="black" stroke="black" points="228.949,-160.832 218.961,-157.299 224.566,-166.29 228.949,-160.832"/>
</g>
<!-- 58 -->
<g id="node13" class="node"><title>58</title>
<path fill="#399de5" fill-opacity="0.882353" stroke="black" d="M350,-149.5C350,-149.5 263,-149.5 263,-149.5 257,-149.5 251,-143.5 251,-137.5 251,-137.5 251,-108.5 251,-108.5 251,-102.5 257,-96.5 263,-96.5 263,-96.5 350,-96.5 350,-96.5 356,-96.5 362,-102.5 362,-108.5 362,-108.5 362,-137.5 362,-137.5 362,-143.5 356,-149.5 350,-149.5"/>
<text text-anchor="start" x="259" y="-134.3" font-family="Helvetica,sans-Serif" font-size="14.00">entropy = 0.485</text>
<text text-anchor="start" x="265.5" y="-119.3" font-family="Helvetica,sans-Serif" font-size="14.00">samples = 19</text>
<text text-anchor="start" x="263.5" y="-104.3" font-family="Helvetica,sans-Serif" font-size="14.00">value = [2, 17]</text>
</g>
<!-- 48&#45;&gt;58 -->
<g id="edge12" class="edge"><title>48&#45;&gt;58</title>
<path fill="none" stroke="black" d="M305.149,-192.884C305.359,-182.216 305.591,-170.352 305.804,-159.519"/>
<polygon fill="black" stroke="black" points="309.303,-159.587 306,-149.52 302.304,-159.449 309.303,-159.587"/>
</g>
<!-- 50 -->
<g id="node11" class="node"><title>50</title>
<path fill="#e58139" stroke="black" d="M152.5,-53C152.5,-53 80.5,-53 80.5,-53 74.5,-53 68.5,-47 68.5,-41 68.5,-41 68.5,-12 68.5,-12 68.5,-6 74.5,-0 80.5,-0 80.5,-0 152.5,-0 152.5,-0 158.5,-0 164.5,-6 164.5,-12 164.5,-12 164.5,-41 164.5,-41 164.5,-47 158.5,-53 152.5,-53"/>
<text text-anchor="start" x="76.5" y="-37.8" font-family="Helvetica,sans-Serif" font-size="14.00">entropy = 0.0</text>
<text text-anchor="start" x="79" y="-22.8" font-family="Helvetica,sans-Serif" font-size="14.00">samples = 8</text>
<text text-anchor="start" x="77" y="-7.8" font-family="Helvetica,sans-Serif" font-size="14.00">value = [8, 0]</text>
</g>
<!-- 49&#45;&gt;50 -->
<g id="edge10" class="edge"><title>49&#45;&gt;50</title>
<path fill="none" stroke="black" d="M156.165,-88.9485C150.496,-80.1664 144.362,-70.6629 138.65,-61.815"/>
<polygon fill="black" stroke="black" points="141.477,-59.7402 133.113,-53.2367 135.596,-63.5365 141.477,-59.7402"/>
</g>
<!-- 51 -->
<g id="node12" class="node"><title>51</title>
<path fill="#399de5" fill-opacity="0.666667" stroke="black" d="M282,-53C282,-53 195,-53 195,-53 189,-53 183,-47 183,-41 183,-41 183,-12 183,-12 183,-6 189,-0 195,-0 195,-0 282,-0 282,-0 288,-0 294,-6 294,-12 294,-12 294,-41 294,-41 294,-47 288,-53 282,-53"/>
<text text-anchor="start" x="191" y="-37.8" font-family="Helvetica,sans-Serif" font-size="14.00">entropy = 0.811</text>
<text text-anchor="start" x="197.5" y="-22.8" font-family="Helvetica,sans-Serif" font-size="14.00">samples = 12</text>
<text text-anchor="start" x="199" y="-7.8" font-family="Helvetica,sans-Serif" font-size="14.00">value = [3, 9]</text>
</g>
<!-- 49&#45;&gt;51 -->
<g id="edge11" class="edge"><title>49&#45;&gt;51</title>
<path fill="none" stroke="black" d="M198.835,-88.9485C204.504,-80.1664 210.638,-70.6629 216.35,-61.815"/>
<polygon fill="black" stroke="black" points="219.404,-63.5365 221.887,-53.2367 213.523,-59.7402 219.404,-63.5365"/>
</g>
<!-- 66 -->
<g id="node15" class="node"><title>66</title>
<path fill="#e58139" stroke="black" d="M467.5,-149.5C467.5,-149.5 395.5,-149.5 395.5,-149.5 389.5,-149.5 383.5,-143.5 383.5,-137.5 383.5,-137.5 383.5,-108.5 383.5,-108.5 383.5,-102.5 389.5,-96.5 395.5,-96.5 395.5,-96.5 467.5,-96.5 467.5,-96.5 473.5,-96.5 479.5,-102.5 479.5,-108.5 479.5,-108.5 479.5,-137.5 479.5,-137.5 479.5,-143.5 473.5,-149.5 467.5,-149.5"/>
<text text-anchor="start" x="391.5" y="-134.3" font-family="Helvetica,sans-Serif" font-size="14.00">entropy = 0.0</text>
<text text-anchor="start" x="394" y="-119.3" font-family="Helvetica,sans-Serif" font-size="14.00">samples = 8</text>
<text text-anchor="start" x="392" y="-104.3" font-family="Helvetica,sans-Serif" font-size="14.00">value = [8, 0]</text>
</g>
<!-- 65&#45;&gt;66 -->
<g id="edge14" class="edge"><title>65&#45;&gt;66</title>
<path fill="none" stroke="black" d="M432.851,-192.884C432.641,-182.216 432.409,-170.352 432.196,-159.519"/>
<polygon fill="black" stroke="black" points="435.696,-159.449 432,-149.52 428.697,-159.587 435.696,-159.449"/>
</g>
<!-- 67 -->
<g id="node16" class="node"><title>67</title>
<path fill="#399de5" stroke="black" d="M581.5,-149.5C581.5,-149.5 509.5,-149.5 509.5,-149.5 503.5,-149.5 497.5,-143.5 497.5,-137.5 497.5,-137.5 497.5,-108.5 497.5,-108.5 497.5,-102.5 503.5,-96.5 509.5,-96.5 509.5,-96.5 581.5,-96.5 581.5,-96.5 587.5,-96.5 593.5,-102.5 593.5,-108.5 593.5,-108.5 593.5,-137.5 593.5,-137.5 593.5,-143.5 587.5,-149.5 581.5,-149.5"/>
<text text-anchor="start" x="505.5" y="-134.3" font-family="Helvetica,sans-Serif" font-size="14.00">entropy = 0.0</text>
<text text-anchor="start" x="508" y="-119.3" font-family="Helvetica,sans-Serif" font-size="14.00">samples = 2</text>
<text text-anchor="start" x="506" y="-104.3" font-family="Helvetica,sans-Serif" font-size="14.00">value = [0, 2]</text>
</g>
<!-- 65&#45;&gt;67 -->
<g id="edge15" class="edge"><title>65&#45;&gt;67</title>
<path fill="none" stroke="black" d="M469.863,-192.884C482.664,-181.226 497.032,-168.141 509.779,-156.532"/>
<polygon fill="black" stroke="black" points="512.441,-158.841 517.478,-149.52 507.728,-153.666 512.441,-158.841"/>
</g>
</g>
</svg>
