<?xml version="1.0" encoding="UTF-8" standalone="no"?>
<!DOCTYPE svg PUBLIC "-//W3C//DTD SVG 1.1//EN"
 "http://www.w3.org/Graphics/SVG/1.1/DTD/svg11.dtd">
<!-- Generated by graphviz version 2.38.0 (20140413.2041)
 -->
<!-- Title: Tree Pages: 1 -->
<svg width="937pt" height="373pt"
 viewBox="0.00 0.00 936.50 373.00" xmlns="http://www.w3.org/2000/svg" xmlns:xlink="http://www.w3.org/1999/xlink">
<g id="graph0" class="graph" transform="scale(1 1) rotate(0) translate(4 369)">
<title>Tree</title>
<polygon fill="white" stroke="none" points="-4,4 -4,-369 932.5,-369 932.5,4 -4,4"/>
<!-- 0 -->
<g id="node1" class="node"><title>0</title>
<path fill="#e58139" fill-opacity="0.313725" stroke="black" d="M501.5,-365C501.5,-365 412.5,-365 412.5,-365 406.5,-365 400.5,-359 400.5,-353 400.5,-353 400.5,-309 400.5,-309 400.5,-303 406.5,-297 412.5,-297 412.5,-297 501.5,-297 501.5,-297 507.5,-297 513.5,-303 513.5,-309 513.5,-309 513.5,-353 513.5,-353 513.5,-359 507.5,-365 501.5,-365"/>
<text text-anchor="start" x="408.5" y="-349.8" font-family="Helvetica,sans-Serif" font-size="14.00">LSTAT ≤ &#45;0.614</text>
<text text-anchor="start" x="426.5" y="-334.8" font-family="Helvetica,sans-Serif" font-size="14.00">mse = 1.0</text>
<text text-anchor="start" x="412" y="-319.8" font-family="Helvetica,sans-Serif" font-size="14.00">samples = 379</text>
<text text-anchor="start" x="421" y="-304.8" font-family="Helvetica,sans-Serif" font-size="14.00">value = &#45;0.0</text>
</g>
<!-- 1 -->
<g id="node2" class="node"><title>1</title>
<path fill="#e58139" fill-opacity="0.560784" stroke="black" d="M410,-261C410,-261 328,-261 328,-261 322,-261 316,-255 316,-249 316,-249 316,-205 316,-205 316,-199 322,-193 328,-193 328,-193 410,-193 410,-193 416,-193 422,-199 422,-205 422,-205 422,-249 422,-249 422,-255 416,-261 410,-261"/>
<text text-anchor="start" x="333" y="-245.8" font-family="Helvetica,sans-Serif" font-size="14.00">RM ≤ 1.621</text>
<text text-anchor="start" x="331" y="-230.8" font-family="Helvetica,sans-Serif" font-size="14.00">mse = 0.886</text>
<text text-anchor="start" x="324" y="-215.8" font-family="Helvetica,sans-Serif" font-size="14.00">samples = 135</text>
<text text-anchor="start" x="328" y="-200.8" font-family="Helvetica,sans-Serif" font-size="14.00">value = 0.926</text>
</g>
<!-- 0&#45;&gt;1 -->
<g id="edge1" class="edge"><title>0&#45;&gt;1</title>
<path fill="none" stroke="black" d="M428.429,-296.884C420.744,-287.976 412.34,-278.235 404.335,-268.957"/>
<polygon fill="black" stroke="black" points="406.911,-266.585 397.729,-261.299 401.611,-271.157 406.911,-266.585"/>
<text text-anchor="middle" x="395.892" y="-282.532" font-family="Helvetica,sans-Serif" font-size="14.00">True</text>
</g>
<!-- 8 -->
<g id="node9" class="node"><title>8</title>
<path fill="#e58139" fill-opacity="0.172549" stroke="black" d="M587,-261C587,-261 503,-261 503,-261 497,-261 491,-255 491,-249 491,-249 491,-205 491,-205 491,-199 497,-193 503,-193 503,-193 587,-193 587,-193 593,-193 599,-199 599,-205 599,-205 599,-249 599,-249 599,-255 593,-261 587,-261"/>
<text text-anchor="start" x="499" y="-245.8" font-family="Helvetica,sans-Serif" font-size="14.00">LSTAT ≤ 0.341</text>
<text text-anchor="start" x="507" y="-230.8" font-family="Helvetica,sans-Serif" font-size="14.00">mse = 0.327</text>
<text text-anchor="start" x="500" y="-215.8" font-family="Helvetica,sans-Serif" font-size="14.00">samples = 244</text>
<text text-anchor="start" x="501.5" y="-200.8" font-family="Helvetica,sans-Serif" font-size="14.00">value = &#45;0.512</text>
</g>
<!-- 0&#45;&gt;8 -->
<g id="edge8" class="edge"><title>0&#45;&gt;8</title>
<path fill="none" stroke="black" d="M485.571,-296.884C493.256,-287.976 501.66,-278.235 509.665,-268.957"/>
<polygon fill="black" stroke="black" points="512.389,-271.157 516.271,-261.299 507.089,-266.585 512.389,-271.157"/>
<text text-anchor="middle" x="518.108" y="-282.532" font-family="Helvetica,sans-Serif" font-size="14.00">False</text>
</g>
<!-- 2 -->
<g id="node3" class="node"><title>2</title>
<path fill="#e58139" fill-opacity="0.478431" stroke="black" d="M206,-157C206,-157 124,-157 124,-157 118,-157 112,-151 112,-145 112,-145 112,-101 112,-101 112,-95 118,-89 124,-89 124,-89 206,-89 206,-89 212,-89 218,-95 218,-101 218,-101 218,-145 218,-145 218,-151 212,-157 206,-157"/>
<text text-anchor="start" x="129" y="-141.8" font-family="Helvetica,sans-Serif" font-size="14.00">RM ≤ 0.497</text>
<text text-anchor="start" x="127" y="-126.8" font-family="Helvetica,sans-Serif" font-size="14.00">mse = 0.434</text>
<text text-anchor="start" x="120" y="-111.8" font-family="Helvetica,sans-Serif" font-size="14.00">samples = 112</text>
<text text-anchor="start" x="124" y="-96.8" font-family="Helvetica,sans-Serif" font-size="14.00">value = 0.624</text>
</g>
<!-- 1&#45;&gt;2 -->
<g id="edge2" class="edge"><title>1&#45;&gt;2</title>
<path fill="none" stroke="black" d="M315.934,-199.467C288.77,-185.885 255.537,-169.269 227.177,-155.089"/>
<polygon fill="black" stroke="black" points="228.664,-151.919 218.154,-150.577 225.533,-158.18 228.664,-151.919"/>
</g>
<!-- 5 -->
<g id="node6" class="node"><title>5</title>
<path fill="#e58139" fill-opacity="0.956863" stroke="black" d="M422,-157C422,-157 316,-157 316,-157 310,-157 304,-151 304,-145 304,-145 304,-101 304,-101 304,-95 310,-89 316,-89 316,-89 422,-89 422,-89 428,-89 434,-95 434,-101 434,-101 434,-145 434,-145 434,-151 428,-157 422,-157"/>
<text text-anchor="start" x="312" y="-141.8" font-family="Helvetica,sans-Serif" font-size="14.00">PTRATIO ≤ &#45;0.087</text>
<text text-anchor="start" x="331" y="-126.8" font-family="Helvetica,sans-Serif" font-size="14.00">mse = 0.493</text>
<text text-anchor="start" x="328" y="-111.8" font-family="Helvetica,sans-Serif" font-size="14.00">samples = 23</text>
<text text-anchor="start" x="328" y="-96.8" font-family="Helvetica,sans-Serif" font-size="14.00">value = 2.393</text>
</g>
<!-- 1&#45;&gt;5 -->
<g id="edge5" class="edge"><title>1&#45;&gt;5</title>
<path fill="none" stroke="black" d="M369,-192.884C369,-184.778 369,-175.982 369,-167.472"/>
<polygon fill="black" stroke="black" points="372.5,-167.299 369,-157.299 365.5,-167.299 372.5,-167.299"/>
</g>
<!-- 3 -->
<g id="node4" class="node"><title>3</title>
<path fill="#e58139" fill-opacity="0.372549" stroke="black" d="M86,-53C86,-53 12,-53 12,-53 6,-53 7.10543e-15,-47 7.10543e-15,-41 7.10543e-15,-41 7.10543e-15,-12 7.10543e-15,-12 7.10543e-15,-6 6,-0 12,-0 12,-0 86,-0 86,-0 92,-0 98,-6 98,-12 98,-12 98,-41 98,-41 98,-47 92,-53 86,-53"/>
<text text-anchor="start" x="11" y="-37.8" font-family="Helvetica,sans-Serif" font-size="14.00">mse = 0.215</text>
<text text-anchor="start" x="8" y="-22.8" font-family="Helvetica,sans-Serif" font-size="14.00">samples = 58</text>
<text text-anchor="start" x="8" y="-7.8" font-family="Helvetica,sans-Serif" font-size="14.00">value = 0.231</text>
</g>
<!-- 2&#45;&gt;3 -->
<g id="edge3" class="edge"><title>2&#45;&gt;3</title>
<path fill="none" stroke="black" d="M124.429,-88.9485C112.75,-79.4346 100.033,-69.074 88.4247,-59.6175"/>
<polygon fill="black" stroke="black" points="90.5557,-56.8392 80.5921,-53.2367 86.1345,-62.2663 90.5557,-56.8392"/>
</g>
<!-- 4 -->
<g id="node5" class="node"><title>4</title>
<path fill="#e58139" fill-opacity="0.592157" stroke="black" d="M202,-53C202,-53 128,-53 128,-53 122,-53 116,-47 116,-41 116,-41 116,-12 116,-12 116,-6 122,-0 128,-0 128,-0 202,-0 202,-0 208,-0 214,-6 214,-12 214,-12 214,-41 214,-41 214,-47 208,-53 202,-53"/>
<text text-anchor="start" x="127" y="-37.8" font-family="Helvetica,sans-Serif" font-size="14.00">mse = 0.325</text>
<text text-anchor="start" x="124" y="-22.8" font-family="Helvetica,sans-Serif" font-size="14.00">samples = 54</text>
<text text-anchor="start" x="124" y="-7.8" font-family="Helvetica,sans-Serif" font-size="14.00">value = 1.047</text>
</g>
<!-- 2&#45;&gt;4 -->
<g id="edge4" class="edge"><title>2&#45;&gt;4</title>
<path fill="none" stroke="black" d="M165,-88.9485C165,-80.7153 165,-71.848 165,-63.4814"/>
<polygon fill="black" stroke="black" points="168.5,-63.2367 165,-53.2367 161.5,-63.2367 168.5,-63.2367"/>
</g>
<!-- 6 -->
<g id="node7" class="node"><title>6</title>
<path fill="#e58139" stroke="black" d="M318,-53C318,-53 244,-53 244,-53 238,-53 232,-47 232,-41 232,-41 232,-12 232,-12 232,-6 238,-0 244,-0 244,-0 318,-0 318,-0 324,-0 330,-6 330,-12 330,-12 330,-41 330,-41 330,-47 324,-53 318,-53"/>
<text text-anchor="start" x="243" y="-37.8" font-family="Helvetica,sans-Serif" font-size="14.00">mse = 0.171</text>
<text text-anchor="start" x="240" y="-22.8" font-family="Helvetica,sans-Serif" font-size="14.00">samples = 21</text>
<text text-anchor="start" x="240" y="-7.8" font-family="Helvetica,sans-Serif" font-size="14.00">value = 2.559</text>
</g>
<!-- 5&#45;&gt;6 -->
<g id="edge6" class="edge"><title>5&#45;&gt;6</title>
<path fill="none" stroke="black" d="M338.222,-88.9485C329.703,-79.8005 320.455,-69.8697 311.928,-60.7126"/>
<polygon fill="black" stroke="black" points="314.343,-58.1698 304.966,-53.2367 309.22,-62.9402 314.343,-58.1698"/>
</g>
<!-- 7 -->
<g id="node8" class="node"><title>7</title>
<path fill="#e58139" fill-opacity="0.486275" stroke="black" d="M434,-53C434,-53 360,-53 360,-53 354,-53 348,-47 348,-41 348,-41 348,-12 348,-12 348,-6 354,-0 360,-0 360,-0 434,-0 434,-0 440,-0 446,-6 446,-12 446,-12 446,-41 446,-41 446,-47 440,-53 434,-53"/>
<text text-anchor="start" x="359" y="-37.8" font-family="Helvetica,sans-Serif" font-size="14.00">mse = 0.518</text>
<text text-anchor="start" x="359.5" y="-22.8" font-family="Helvetica,sans-Serif" font-size="14.00">samples = 2</text>
<text text-anchor="start" x="356" y="-7.8" font-family="Helvetica,sans-Serif" font-size="14.00">value = 0.643</text>
</g>
<!-- 5&#45;&gt;7 -->
<g id="edge7" class="edge"><title>5&#45;&gt;7</title>
<path fill="none" stroke="black" d="M378.793,-88.9485C381.287,-80.5323 383.977,-71.4536 386.504,-62.9243"/>
<polygon fill="black" stroke="black" points="389.889,-63.819 389.374,-53.2367 383.178,-61.8304 389.889,-63.819"/>
</g>
<!-- 9 -->
<g id="node10" class="node"><title>9</title>
<path fill="#e58139" fill-opacity="0.278431" stroke="black" d="M586,-157C586,-157 504,-157 504,-157 498,-157 492,-151 492,-145 492,-145 492,-101 492,-101 492,-95 498,-89 504,-89 504,-89 586,-89 586,-89 592,-89 598,-95 598,-101 598,-101 598,-145 598,-145 598,-151 592,-157 586,-157"/>
<text text-anchor="start" x="509" y="-141.8" font-family="Helvetica,sans-Serif" font-size="14.00">RM ≤ 0.421</text>
<text text-anchor="start" x="507" y="-126.8" font-family="Helvetica,sans-Serif" font-size="14.00">mse = 0.165</text>
<text text-anchor="start" x="500" y="-111.8" font-family="Helvetica,sans-Serif" font-size="14.00">samples = 121</text>
<text text-anchor="start" x="501.5" y="-96.8" font-family="Helvetica,sans-Serif" font-size="14.00">value = &#45;0.121</text>
</g>
<!-- 8&#45;&gt;9 -->
<g id="edge9" class="edge"><title>8&#45;&gt;9</title>
<path fill="none" stroke="black" d="M545,-192.884C545,-184.778 545,-175.982 545,-167.472"/>
<polygon fill="black" stroke="black" points="548.5,-167.299 545,-157.299 541.5,-167.299 548.5,-167.299"/>
</g>
<!-- 12 -->
<g id="node13" class="node"><title>12</title>
<path fill="#e58139" fill-opacity="0.070588" stroke="black" d="M797,-157C797,-157 715,-157 715,-157 709,-157 703,-151 703,-145 703,-145 703,-101 703,-101 703,-95 709,-89 715,-89 715,-89 797,-89 797,-89 803,-89 809,-95 809,-101 809,-101 809,-145 809,-145 809,-151 803,-157 797,-157"/>
<text text-anchor="start" x="713.5" y="-141.8" font-family="Helvetica,sans-Serif" font-size="14.00">CRIM ≤ 0.286</text>
<text text-anchor="start" x="718" y="-126.8" font-family="Helvetica,sans-Serif" font-size="14.00">mse = 0.187</text>
<text text-anchor="start" x="711" y="-111.8" font-family="Helvetica,sans-Serif" font-size="14.00">samples = 123</text>
<text text-anchor="start" x="712.5" y="-96.8" font-family="Helvetica,sans-Serif" font-size="14.00">value = &#45;0.897</text>
</g>
<!-- 8&#45;&gt;12 -->
<g id="edge12" class="edge"><title>8&#45;&gt;12</title>
<path fill="none" stroke="black" d="M599.064,-199.865C627.945,-185.903 663.635,-168.651 693.679,-154.127"/>
<polygon fill="black" stroke="black" points="695.328,-157.217 702.807,-149.714 692.281,-150.915 695.328,-157.217"/>
</g>
<!-- 10 -->
<g id="node11" class="node"><title>10</title>
<path fill="#e58139" fill-opacity="0.258824" stroke="black" d="M558,-53C558,-53 476,-53 476,-53 470,-53 464,-47 464,-41 464,-41 464,-12 464,-12 464,-6 470,-0 476,-0 476,-0 558,-0 558,-0 564,-0 570,-6 570,-12 570,-12 570,-41 570,-41 570,-47 564,-53 558,-53"/>
<text text-anchor="start" x="479" y="-37.8" font-family="Helvetica,sans-Serif" font-size="14.00">mse = 0.107</text>
<text text-anchor="start" x="472" y="-22.8" font-family="Helvetica,sans-Serif" font-size="14.00">samples = 108</text>
<text text-anchor="start" x="473.5" y="-7.8" font-family="Helvetica,sans-Serif" font-size="14.00">value = &#45;0.191</text>
</g>
<!-- 9&#45;&gt;10 -->
<g id="edge10" class="edge"><title>9&#45;&gt;10</title>
<path fill="none" stroke="black" d="M535.207,-88.9485C532.713,-80.5323 530.023,-71.4536 527.496,-62.9243"/>
<polygon fill="black" stroke="black" points="530.822,-61.8304 524.626,-53.2367 524.111,-63.819 530.822,-61.8304"/>
</g>
<!-- 11 -->
<g id="node12" class="node"><title>11</title>
<path fill="#e58139" fill-opacity="0.435294" stroke="black" d="M674,-53C674,-53 600,-53 600,-53 594,-53 588,-47 588,-41 588,-41 588,-12 588,-12 588,-6 594,-0 600,-0 600,-0 674,-0 674,-0 680,-0 686,-6 686,-12 686,-12 686,-41 686,-41 686,-47 680,-53 674,-53"/>
<text text-anchor="start" x="599" y="-37.8" font-family="Helvetica,sans-Serif" font-size="14.00">mse = 0.275</text>
<text text-anchor="start" x="596" y="-22.8" font-family="Helvetica,sans-Serif" font-size="14.00">samples = 13</text>
<text text-anchor="start" x="599.5" y="-7.8" font-family="Helvetica,sans-Serif" font-size="14.00">value = 0.46</text>
</g>
<!-- 9&#45;&gt;11 -->
<g id="edge11" class="edge"><title>9&#45;&gt;11</title>
<path fill="none" stroke="black" d="M577.177,-88.9485C586.172,-79.709 595.945,-69.671 604.933,-60.4381"/>
<polygon fill="black" stroke="black" points="607.476,-62.8434 611.944,-53.2367 602.461,-57.9605 607.476,-62.8434"/>
</g>
<!-- 13 -->
<g id="node14" class="node"><title>13</title>
<path fill="#e58139" fill-opacity="0.137255" stroke="black" d="M795.5,-53C795.5,-53 716.5,-53 716.5,-53 710.5,-53 704.5,-47 704.5,-41 704.5,-41 704.5,-12 704.5,-12 704.5,-6 710.5,-0 716.5,-0 716.5,-0 795.5,-0 795.5,-0 801.5,-0 807.5,-6 807.5,-12 807.5,-12 807.5,-41 807.5,-41 807.5,-47 801.5,-53 795.5,-53"/>
<text text-anchor="start" x="718" y="-37.8" font-family="Helvetica,sans-Serif" font-size="14.00">mse = 0.118</text>
<text text-anchor="start" x="715" y="-22.8" font-family="Helvetica,sans-Serif" font-size="14.00">samples = 64</text>
<text text-anchor="start" x="712.5" y="-7.8" font-family="Helvetica,sans-Serif" font-size="14.00">value = &#45;0.653</text>
</g>
<!-- 12&#45;&gt;13 -->
<g id="edge13" class="edge"><title>12&#45;&gt;13</title>
<path fill="none" stroke="black" d="M756,-88.9485C756,-80.7153 756,-71.848 756,-63.4814"/>
<polygon fill="black" stroke="black" points="759.5,-63.2367 756,-53.2367 752.5,-63.2367 759.5,-63.2367"/>
</g>
<!-- 14 -->
<g id="node15" class="node"><title>14</title>
<path fill="none" stroke="black" d="M916.5,-53C916.5,-53 837.5,-53 837.5,-53 831.5,-53 825.5,-47 825.5,-41 825.5,-41 825.5,-12 825.5,-12 825.5,-6 831.5,-0 837.5,-0 837.5,-0 916.5,-0 916.5,-0 922.5,-0 928.5,-6 928.5,-12 928.5,-12 928.5,-41 928.5,-41 928.5,-47 922.5,-53 916.5,-53"/>
<text text-anchor="start" x="839" y="-37.8" font-family="Helvetica,sans-Serif" font-size="14.00">mse = 0.127</text>
<text text-anchor="start" x="836" y="-22.8" font-family="Helvetica,sans-Serif" font-size="14.00">samples = 59</text>
<text text-anchor="start" x="833.5" y="-7.8" font-family="Helvetica,sans-Serif" font-size="14.00">value = &#45;1.161</text>
</g>
<!-- 12&#45;&gt;14 -->
<g id="edge14" class="edge"><title>12&#45;&gt;14</title>
<path fill="none" stroke="black" d="M798.32,-88.9485C810.502,-79.4346 823.768,-69.074 835.876,-59.6175"/>
<polygon fill="black" stroke="black" points="838.319,-62.1504 844.046,-53.2367 834.011,-56.6335 838.319,-62.1504"/>
</g>
</g>
</svg>
