<?xml version="1.0" encoding="UTF-8" standalone="no"?>
<!DOCTYPE svg PUBLIC "-//W3C//DTD SVG 1.1//EN"
 "http://www.w3.org/Graphics/SVG/1.1/DTD/svg11.dtd">
<!-- Generated by graphviz version 2.38.0 (20140413.2041)
 -->
<!-- Title: Tree Pages: 1 -->
<svg width="722pt" height="373pt"
 viewBox="0.00 0.00 721.50 373.00" xmlns="http://www.w3.org/2000/svg" xmlns:xlink="http://www.w3.org/1999/xlink">
<g id="graph0" class="graph" transform="scale(1 1) rotate(0) translate(4 369)">
<title>Tree</title>
<polygon fill="white" stroke="none" points="-4,4 -4,-369 717.5,-369 717.5,4 -4,4"/>
<!-- 0 -->
<g id="node1" class="node"><title>0</title>
<path fill="#e58139" fill-opacity="0.313725" stroke="black" d="M408.5,-365C408.5,-365 319.5,-365 319.5,-365 313.5,-365 307.5,-359 307.5,-353 307.5,-353 307.5,-309 307.5,-309 307.5,-303 313.5,-297 319.5,-297 319.5,-297 408.5,-297 408.5,-297 414.5,-297 420.5,-303 420.5,-309 420.5,-309 420.5,-353 420.5,-353 420.5,-359 414.5,-365 408.5,-365"/>
<text text-anchor="start" x="315.5" y="-349.8" font-family="Helvetica,sans-Serif" font-size="14.00">LSTAT ≤ &#45;0.614</text>
<text text-anchor="start" x="333.5" y="-334.8" font-family="Helvetica,sans-Serif" font-size="14.00">mse = 1.0</text>
<text text-anchor="start" x="319" y="-319.8" font-family="Helvetica,sans-Serif" font-size="14.00">samples = 379</text>
<text text-anchor="start" x="328" y="-304.8" font-family="Helvetica,sans-Serif" font-size="14.00">value = &#45;0.0</text>
</g>
<!-- 1 -->
<g id="node2" class="node"><title>1</title>
<path fill="#e58139" fill-opacity="0.560784" stroke="black" d="M337,-261C337,-261 255,-261 255,-261 249,-261 243,-255 243,-249 243,-249 243,-205 243,-205 243,-199 249,-193 255,-193 255,-193 337,-193 337,-193 343,-193 349,-199 349,-205 349,-205 349,-249 349,-249 349,-255 343,-261 337,-261"/>
<text text-anchor="start" x="260" y="-245.8" font-family="Helvetica,sans-Serif" font-size="14.00">RM ≤ 1.621</text>
<text text-anchor="start" x="258" y="-230.8" font-family="Helvetica,sans-Serif" font-size="14.00">mse = 0.886</text>
<text text-anchor="start" x="251" y="-215.8" font-family="Helvetica,sans-Serif" font-size="14.00">samples = 135</text>
<text text-anchor="start" x="255" y="-200.8" font-family="Helvetica,sans-Serif" font-size="14.00">value = 0.926</text>
</g>
<!-- 0&#45;&gt;1 -->
<g id="edge1" class="edge"><title>0&#45;&gt;1</title>
<path fill="none" stroke="black" d="M341.922,-296.884C336.162,-288.243 329.879,-278.819 323.862,-269.793"/>
<polygon fill="black" stroke="black" points="326.659,-267.678 318.2,-261.299 320.834,-271.561 326.659,-267.678"/>
<text text-anchor="middle" x="313.297" y="-282.114" font-family="Helvetica,sans-Serif" font-size="14.00">True</text>
</g>
<!-- 8 -->
<g id="node9" class="node"><title>8</title>
<path fill="#e58139" fill-opacity="0.172549" stroke="black" d="M474,-261C474,-261 390,-261 390,-261 384,-261 378,-255 378,-249 378,-249 378,-205 378,-205 378,-199 384,-193 390,-193 390,-193 474,-193 474,-193 480,-193 486,-199 486,-205 486,-205 486,-249 486,-249 486,-255 480,-261 474,-261"/>
<text text-anchor="start" x="386" y="-245.8" font-family="Helvetica,sans-Serif" font-size="14.00">LSTAT ≤ 0.341</text>
<text text-anchor="start" x="394" y="-230.8" font-family="Helvetica,sans-Serif" font-size="14.00">mse = 0.327</text>
<text text-anchor="start" x="387" y="-215.8" font-family="Helvetica,sans-Serif" font-size="14.00">samples = 244</text>
<text text-anchor="start" x="388.5" y="-200.8" font-family="Helvetica,sans-Serif" font-size="14.00">value = &#45;0.512</text>
</g>
<!-- 0&#45;&gt;8 -->
<g id="edge8" class="edge"><title>0&#45;&gt;8</title>
<path fill="none" stroke="black" d="M386.078,-296.884C391.838,-288.243 398.121,-278.819 404.138,-269.793"/>
<polygon fill="black" stroke="black" points="407.166,-271.561 409.8,-261.299 401.341,-267.678 407.166,-271.561"/>
<text text-anchor="middle" x="414.703" y="-282.114" font-family="Helvetica,sans-Serif" font-size="14.00">False</text>
</g>
<!-- 2 -->
<g id="node3" class="node"><title>2</title>
<path fill="#e58139" fill-opacity="0.478431" stroke="black" d="M201,-157C201,-157 119,-157 119,-157 113,-157 107,-151 107,-145 107,-145 107,-101 107,-101 107,-95 113,-89 119,-89 119,-89 201,-89 201,-89 207,-89 213,-95 213,-101 213,-101 213,-145 213,-145 213,-151 207,-157 201,-157"/>
<text text-anchor="start" x="124" y="-141.8" font-family="Helvetica,sans-Serif" font-size="14.00">RM ≤ 0.497</text>
<text text-anchor="start" x="122" y="-126.8" font-family="Helvetica,sans-Serif" font-size="14.00">mse = 0.434</text>
<text text-anchor="start" x="115" y="-111.8" font-family="Helvetica,sans-Serif" font-size="14.00">samples = 112</text>
<text text-anchor="start" x="119" y="-96.8" font-family="Helvetica,sans-Serif" font-size="14.00">value = 0.624</text>
</g>
<!-- 1&#45;&gt;2 -->
<g id="edge2" class="edge"><title>1&#45;&gt;2</title>
<path fill="none" stroke="black" d="M251.845,-192.884C239.374,-183.531 225.679,-173.259 212.758,-163.568"/>
<polygon fill="black" stroke="black" points="214.499,-160.499 204.399,-157.299 210.299,-166.099 214.499,-160.499"/>
</g>
<!-- 5 -->
<g id="node6" class="node"><title>5</title>
<path fill="#e58139" fill-opacity="0.956863" stroke="black" d="M349,-157C349,-157 243,-157 243,-157 237,-157 231,-151 231,-145 231,-145 231,-101 231,-101 231,-95 237,-89 243,-89 243,-89 349,-89 349,-89 355,-89 361,-95 361,-101 361,-101 361,-145 361,-145 361,-151 355,-157 349,-157"/>
<text text-anchor="start" x="239" y="-141.8" font-family="Helvetica,sans-Serif" font-size="14.00">PTRATIO ≤ &#45;0.087</text>
<text text-anchor="start" x="258" y="-126.8" font-family="Helvetica,sans-Serif" font-size="14.00">mse = 0.493</text>
<text text-anchor="start" x="255" y="-111.8" font-family="Helvetica,sans-Serif" font-size="14.00">samples = 23</text>
<text text-anchor="start" x="255" y="-96.8" font-family="Helvetica,sans-Serif" font-size="14.00">value = 2.393</text>
</g>
<!-- 1&#45;&gt;5 -->
<g id="edge5" class="edge"><title>1&#45;&gt;5</title>
<path fill="none" stroke="black" d="M296,-192.884C296,-184.778 296,-175.982 296,-167.472"/>
<polygon fill="black" stroke="black" points="299.5,-167.299 296,-157.299 292.5,-167.299 299.5,-167.299"/>
</g>
<!-- 3 -->
<g id="node4" class="node"><title>3</title>
<path fill="#e58139" fill-opacity="0.372549" stroke="black" d="M86,-53C86,-53 12,-53 12,-53 6,-53 7.10543e-15,-47 7.10543e-15,-41 7.10543e-15,-41 7.10543e-15,-12 7.10543e-15,-12 7.10543e-15,-6 6,-0 12,-0 12,-0 86,-0 86,-0 92,-0 98,-6 98,-12 98,-12 98,-41 98,-41 98,-47 92,-53 86,-53"/>
<text text-anchor="start" x="11" y="-37.8" font-family="Helvetica,sans-Serif" font-size="14.00">mse = 0.215</text>
<text text-anchor="start" x="8" y="-22.8" font-family="Helvetica,sans-Serif" font-size="14.00">samples = 58</text>
<text text-anchor="start" x="8" y="-7.8" font-family="Helvetica,sans-Serif" font-size="14.00">value = 0.231</text>
</g>
<!-- 2&#45;&gt;3 -->
<g id="edge3" class="edge"><title>2&#45;&gt;3</title>
<path fill="none" stroke="black" d="M121.178,-88.9485C110.11,-79.526 98.0669,-69.2731 87.046,-59.8906"/>
<polygon fill="black" stroke="black" points="89.1136,-57.0542 79.2304,-53.2367 84.5759,-62.3842 89.1136,-57.0542"/>
</g>
<!-- 4 -->
<g id="node5" class="node"><title>4</title>
<path fill="#e58139" fill-opacity="0.592157" stroke="black" d="M202,-53C202,-53 128,-53 128,-53 122,-53 116,-47 116,-41 116,-41 116,-12 116,-12 116,-6 122,-0 128,-0 128,-0 202,-0 202,-0 208,-0 214,-6 214,-12 214,-12 214,-41 214,-41 214,-47 208,-53 202,-53"/>
<text text-anchor="start" x="127" y="-37.8" font-family="Helvetica,sans-Serif" font-size="14.00">mse = 0.325</text>
<text text-anchor="start" x="124" y="-22.8" font-family="Helvetica,sans-Serif" font-size="14.00">samples = 54</text>
<text text-anchor="start" x="124" y="-7.8" font-family="Helvetica,sans-Serif" font-size="14.00">value = 1.047</text>
</g>
<!-- 2&#45;&gt;4 -->
<g id="edge4" class="edge"><title>2&#45;&gt;4</title>
<path fill="none" stroke="black" d="M161.749,-88.9485C162.184,-80.7153 162.654,-71.848 163.096,-63.4814"/>
<polygon fill="black" stroke="black" points="166.605,-63.4077 163.638,-53.2367 159.615,-63.0378 166.605,-63.4077"/>
</g>
<!-- 6 -->
<g id="node7" class="node"><title>6</title>
<path fill="#e58139" stroke="black" d="M328,-53C328,-53 254,-53 254,-53 248,-53 242,-47 242,-41 242,-41 242,-12 242,-12 242,-6 248,-0 254,-0 254,-0 328,-0 328,-0 334,-0 340,-6 340,-12 340,-12 340,-41 340,-41 340,-47 334,-53 328,-53"/>
<text text-anchor="start" x="253" y="-37.8" font-family="Helvetica,sans-Serif" font-size="14.00">mse = 0.171</text>
<text text-anchor="start" x="250" y="-22.8" font-family="Helvetica,sans-Serif" font-size="14.00">samples = 21</text>
<text text-anchor="start" x="250" y="-7.8" font-family="Helvetica,sans-Serif" font-size="14.00">value = 2.559</text>
</g>
<!-- 5&#45;&gt;6 -->
<g id="edge6" class="edge"><title>5&#45;&gt;6</title>
<path fill="none" stroke="black" d="M294.251,-88.9485C293.816,-80.7153 293.346,-71.848 292.904,-63.4814"/>
<polygon fill="black" stroke="black" points="296.385,-63.0378 292.362,-53.2367 289.395,-63.4077 296.385,-63.0378"/>
</g>
<!-- 7 -->
<g id="node8" class="node"><title>7</title>
<path fill="#e58139" fill-opacity="0.486275" stroke="black" d="M444,-53C444,-53 370,-53 370,-53 364,-53 358,-47 358,-41 358,-41 358,-12 358,-12 358,-6 364,-0 370,-0 370,-0 444,-0 444,-0 450,-0 456,-6 456,-12 456,-12 456,-41 456,-41 456,-47 450,-53 444,-53"/>
<text text-anchor="start" x="369" y="-37.8" font-family="Helvetica,sans-Serif" font-size="14.00">mse = 0.518</text>
<text text-anchor="start" x="369.5" y="-22.8" font-family="Helvetica,sans-Serif" font-size="14.00">samples = 2</text>
<text text-anchor="start" x="366" y="-7.8" font-family="Helvetica,sans-Serif" font-size="14.00">value = 0.643</text>
</g>
<!-- 5&#45;&gt;7 -->
<g id="edge7" class="edge"><title>5&#45;&gt;7</title>
<path fill="none" stroke="black" d="M334.822,-88.9485C345.89,-79.526 357.933,-69.2731 368.954,-59.8906"/>
<polygon fill="black" stroke="black" points="371.424,-62.3842 376.77,-53.2367 366.886,-57.0542 371.424,-62.3842"/>
</g>
<!-- 9 -->
<g id="node10" class="node"><title>9</title>
<path fill="#e58139" fill-opacity="0.278431" stroke="black" d="M473,-149.5C473,-149.5 391,-149.5 391,-149.5 385,-149.5 379,-143.5 379,-137.5 379,-137.5 379,-108.5 379,-108.5 379,-102.5 385,-96.5 391,-96.5 391,-96.5 473,-96.5 473,-96.5 479,-96.5 485,-102.5 485,-108.5 485,-108.5 485,-137.5 485,-137.5 485,-143.5 479,-149.5 473,-149.5"/>
<text text-anchor="start" x="394" y="-134.3" font-family="Helvetica,sans-Serif" font-size="14.00">mse = 0.165</text>
<text text-anchor="start" x="387" y="-119.3" font-family="Helvetica,sans-Serif" font-size="14.00">samples = 121</text>
<text text-anchor="start" x="388.5" y="-104.3" font-family="Helvetica,sans-Serif" font-size="14.00">value = &#45;0.121</text>
</g>
<!-- 8&#45;&gt;9 -->
<g id="edge9" class="edge"><title>8&#45;&gt;9</title>
<path fill="none" stroke="black" d="M432,-192.884C432,-182.326 432,-170.597 432,-159.854"/>
<polygon fill="black" stroke="black" points="435.5,-159.52 432,-149.52 428.5,-159.52 435.5,-159.52"/>
</g>
<!-- 12 -->
<g id="node11" class="node"><title>12</title>
<path fill="#e58139" fill-opacity="0.070588" stroke="black" d="M597,-157C597,-157 515,-157 515,-157 509,-157 503,-151 503,-145 503,-145 503,-101 503,-101 503,-95 509,-89 515,-89 515,-89 597,-89 597,-89 603,-89 609,-95 609,-101 609,-101 609,-145 609,-145 609,-151 603,-157 597,-157"/>
<text text-anchor="start" x="513.5" y="-141.8" font-family="Helvetica,sans-Serif" font-size="14.00">CRIM ≤ 0.286</text>
<text text-anchor="start" x="518" y="-126.8" font-family="Helvetica,sans-Serif" font-size="14.00">mse = 0.187</text>
<text text-anchor="start" x="511" y="-111.8" font-family="Helvetica,sans-Serif" font-size="14.00">samples = 123</text>
<text text-anchor="start" x="512.5" y="-96.8" font-family="Helvetica,sans-Serif" font-size="14.00">value = &#45;0.897</text>
</g>
<!-- 8&#45;&gt;12 -->
<g id="edge10" class="edge"><title>8&#45;&gt;12</title>
<path fill="none" stroke="black" d="M472.259,-192.884C483.521,-183.62 495.878,-173.455 507.56,-163.845"/>
<polygon fill="black" stroke="black" points="510.019,-166.355 515.518,-157.299 505.572,-160.949 510.019,-166.355"/>
</g>
<!-- 13 -->
<g id="node12" class="node"><title>13</title>
<path fill="#e58139" fill-opacity="0.137255" stroke="black" d="M580.5,-53C580.5,-53 501.5,-53 501.5,-53 495.5,-53 489.5,-47 489.5,-41 489.5,-41 489.5,-12 489.5,-12 489.5,-6 495.5,-0 501.5,-0 501.5,-0 580.5,-0 580.5,-0 586.5,-0 592.5,-6 592.5,-12 592.5,-12 592.5,-41 592.5,-41 592.5,-47 586.5,-53 580.5,-53"/>
<text text-anchor="start" x="503" y="-37.8" font-family="Helvetica,sans-Serif" font-size="14.00">mse = 0.118</text>
<text text-anchor="start" x="500" y="-22.8" font-family="Helvetica,sans-Serif" font-size="14.00">samples = 64</text>
<text text-anchor="start" x="497.5" y="-7.8" font-family="Helvetica,sans-Serif" font-size="14.00">value = &#45;0.653</text>
</g>
<!-- 12&#45;&gt;13 -->
<g id="edge11" class="edge"><title>12&#45;&gt;13</title>
<path fill="none" stroke="black" d="M550.754,-88.9485C549.432,-80.6238 548.008,-71.6509 546.667,-63.2027"/>
<polygon fill="black" stroke="black" points="550.11,-62.5643 545.085,-53.2367 543.196,-63.6618 550.11,-62.5643"/>
</g>
<!-- 14 -->
<g id="node13" class="node"><title>14</title>
<path fill="none" stroke="black" d="M701.5,-53C701.5,-53 622.5,-53 622.5,-53 616.5,-53 610.5,-47 610.5,-41 610.5,-41 610.5,-12 610.5,-12 610.5,-6 616.5,-0 622.5,-0 622.5,-0 701.5,-0 701.5,-0 707.5,-0 713.5,-6 713.5,-12 713.5,-12 713.5,-41 713.5,-41 713.5,-47 707.5,-53 701.5,-53"/>
<text text-anchor="start" x="624" y="-37.8" font-family="Helvetica,sans-Serif" font-size="14.00">mse = 0.127</text>
<text text-anchor="start" x="621" y="-22.8" font-family="Helvetica,sans-Serif" font-size="14.00">samples = 59</text>
<text text-anchor="start" x="618.5" y="-7.8" font-family="Helvetica,sans-Serif" font-size="14.00">value = &#45;1.161</text>
</g>
<!-- 12&#45;&gt;14 -->
<g id="edge12" class="edge"><title>12&#45;&gt;14</title>
<path fill="none" stroke="black" d="M593.074,-88.9485C603.54,-79.6175 614.92,-69.4722 625.361,-60.1641"/>
<polygon fill="black" stroke="black" points="627.996,-62.5038 633.131,-53.2367 623.338,-57.2788 627.996,-62.5038"/>
</g>
</g>
</svg>
