<?xml version="1.0" encoding="UTF-8" standalone="no"?>
<!DOCTYPE svg PUBLIC "-//W3C//DTD SVG 1.1//EN"
 "http://www.w3.org/Graphics/SVG/1.1/DTD/svg11.dtd">
<!-- Generated by graphviz version 2.38.0 (20140413.2041)
 -->
<!-- Title: Tree Pages: 1 -->
<svg width="306pt" height="373pt"
 viewBox="0.00 0.00 306.00 373.00" xmlns="http://www.w3.org/2000/svg" xmlns:xlink="http://www.w3.org/1999/xlink">
<g id="graph0" class="graph" transform="scale(1 1) rotate(0) translate(4 369)">
<title>Tree</title>
<polygon fill="white" stroke="none" points="-4,4 -4,-369 302,-369 302,4 -4,4"/>
<!-- 0 -->
<g id="node1" class="node"><title>0</title>
<path fill="#e58139" fill-opacity="0.313725" stroke="black" d="M227.5,-365C227.5,-365 138.5,-365 138.5,-365 132.5,-365 126.5,-359 126.5,-353 126.5,-353 126.5,-309 126.5,-309 126.5,-303 132.5,-297 138.5,-297 138.5,-297 227.5,-297 227.5,-297 233.5,-297 239.5,-303 239.5,-309 239.5,-309 239.5,-353 239.5,-353 239.5,-359 233.5,-365 227.5,-365"/>
<text text-anchor="start" x="134.5" y="-349.8" font-family="Helvetica,sans-Serif" font-size="14.00">LSTAT ≤ &#45;0.614</text>
<text text-anchor="start" x="152.5" y="-334.8" font-family="Helvetica,sans-Serif" font-size="14.00">mse = 1.0</text>
<text text-anchor="start" x="138" y="-319.8" font-family="Helvetica,sans-Serif" font-size="14.00">samples = 379</text>
<text text-anchor="start" x="147" y="-304.8" font-family="Helvetica,sans-Serif" font-size="14.00">value = &#45;0.0</text>
</g>
<!-- 1 -->
<g id="node2" class="node"><title>1</title>
<path fill="#e58139" fill-opacity="0.560784" stroke="black" d="M162,-261C162,-261 80,-261 80,-261 74,-261 68,-255 68,-249 68,-249 68,-205 68,-205 68,-199 74,-193 80,-193 80,-193 162,-193 162,-193 168,-193 174,-199 174,-205 174,-205 174,-249 174,-249 174,-255 168,-261 162,-261"/>
<text text-anchor="start" x="85" y="-245.8" font-family="Helvetica,sans-Serif" font-size="14.00">RM ≤ 1.621</text>
<text text-anchor="start" x="83" y="-230.8" font-family="Helvetica,sans-Serif" font-size="14.00">mse = 0.886</text>
<text text-anchor="start" x="76" y="-215.8" font-family="Helvetica,sans-Serif" font-size="14.00">samples = 135</text>
<text text-anchor="start" x="80" y="-200.8" font-family="Helvetica,sans-Serif" font-size="14.00">value = 0.926</text>
</g>
<!-- 0&#45;&gt;1 -->
<g id="edge1" class="edge"><title>0&#45;&gt;1</title>
<path fill="none" stroke="black" d="M162.87,-296.884C157.673,-288.332 152.008,-279.013 146.573,-270.072"/>
<polygon fill="black" stroke="black" points="149.426,-268.027 141.241,-261.299 143.444,-271.663 149.426,-268.027"/>
<text text-anchor="middle" x="135.317" y="-281.887" font-family="Helvetica,sans-Serif" font-size="14.00">True</text>
</g>
<!-- 8 -->
<g id="node7" class="node"><title>8</title>
<path fill="#e58139" fill-opacity="0.172549" stroke="black" d="M286,-253.5C286,-253.5 204,-253.5 204,-253.5 198,-253.5 192,-247.5 192,-241.5 192,-241.5 192,-212.5 192,-212.5 192,-206.5 198,-200.5 204,-200.5 204,-200.5 286,-200.5 286,-200.5 292,-200.5 298,-206.5 298,-212.5 298,-212.5 298,-241.5 298,-241.5 298,-247.5 292,-253.5 286,-253.5"/>
<text text-anchor="start" x="207" y="-238.3" font-family="Helvetica,sans-Serif" font-size="14.00">mse = 0.327</text>
<text text-anchor="start" x="200" y="-223.3" font-family="Helvetica,sans-Serif" font-size="14.00">samples = 244</text>
<text text-anchor="start" x="201.5" y="-208.3" font-family="Helvetica,sans-Serif" font-size="14.00">value = &#45;0.512</text>
</g>
<!-- 0&#45;&gt;8 -->
<g id="edge6" class="edge"><title>0&#45;&gt;8</title>
<path fill="none" stroke="black" d="M203.13,-296.884C209.881,-285.776 217.421,-273.372 224.222,-262.184"/>
<polygon fill="black" stroke="black" points="227.285,-263.883 229.488,-253.52 221.303,-260.247 227.285,-263.883"/>
<text text-anchor="middle" x="235.412" y="-274.108" font-family="Helvetica,sans-Serif" font-size="14.00">False</text>
</g>
<!-- 2 -->
<g id="node3" class="node"><title>2</title>
<path fill="#e58139" fill-opacity="0.478431" stroke="black" d="M94,-149.5C94,-149.5 12,-149.5 12,-149.5 6,-149.5 0,-143.5 0,-137.5 0,-137.5 0,-108.5 0,-108.5 0,-102.5 6,-96.5 12,-96.5 12,-96.5 94,-96.5 94,-96.5 100,-96.5 106,-102.5 106,-108.5 106,-108.5 106,-137.5 106,-137.5 106,-143.5 100,-149.5 94,-149.5"/>
<text text-anchor="start" x="15" y="-134.3" font-family="Helvetica,sans-Serif" font-size="14.00">mse = 0.434</text>
<text text-anchor="start" x="8" y="-119.3" font-family="Helvetica,sans-Serif" font-size="14.00">samples = 112</text>
<text text-anchor="start" x="12" y="-104.3" font-family="Helvetica,sans-Serif" font-size="14.00">value = 0.624</text>
</g>
<!-- 1&#45;&gt;2 -->
<g id="edge2" class="edge"><title>1&#45;&gt;2</title>
<path fill="none" stroke="black" d="M98.9223,-192.884C91.4438,-181.666 83.0841,-169.126 75.5679,-157.852"/>
<polygon fill="black" stroke="black" points="78.4725,-155.899 70.0133,-149.52 72.6482,-159.782 78.4725,-155.899"/>
</g>
<!-- 5 -->
<g id="node4" class="node"><title>5</title>
<path fill="#e58139" fill-opacity="0.956863" stroke="black" d="M242,-157C242,-157 136,-157 136,-157 130,-157 124,-151 124,-145 124,-145 124,-101 124,-101 124,-95 130,-89 136,-89 136,-89 242,-89 242,-89 248,-89 254,-95 254,-101 254,-101 254,-145 254,-145 254,-151 248,-157 242,-157"/>
<text text-anchor="start" x="132" y="-141.8" font-family="Helvetica,sans-Serif" font-size="14.00">PTRATIO ≤ &#45;0.087</text>
<text text-anchor="start" x="151" y="-126.8" font-family="Helvetica,sans-Serif" font-size="14.00">mse = 0.493</text>
<text text-anchor="start" x="148" y="-111.8" font-family="Helvetica,sans-Serif" font-size="14.00">samples = 23</text>
<text text-anchor="start" x="148" y="-96.8" font-family="Helvetica,sans-Serif" font-size="14.00">value = 2.393</text>
</g>
<!-- 1&#45;&gt;5 -->
<g id="edge3" class="edge"><title>1&#45;&gt;5</title>
<path fill="none" stroke="black" d="M143.078,-192.884C148.838,-184.243 155.121,-174.819 161.138,-165.793"/>
<polygon fill="black" stroke="black" points="164.166,-167.561 166.8,-157.299 158.341,-163.678 164.166,-167.561"/>
</g>
<!-- 6 -->
<g id="node5" class="node"><title>6</title>
<path fill="#e58139" stroke="black" d="M168,-53C168,-53 94,-53 94,-53 88,-53 82,-47 82,-41 82,-41 82,-12 82,-12 82,-6 88,-0 94,-0 94,-0 168,-0 168,-0 174,-0 180,-6 180,-12 180,-12 180,-41 180,-41 180,-47 174,-53 168,-53"/>
<text text-anchor="start" x="93" y="-37.8" font-family="Helvetica,sans-Serif" font-size="14.00">mse = 0.171</text>
<text text-anchor="start" x="90" y="-22.8" font-family="Helvetica,sans-Serif" font-size="14.00">samples = 21</text>
<text text-anchor="start" x="90" y="-7.8" font-family="Helvetica,sans-Serif" font-size="14.00">value = 2.559</text>
</g>
<!-- 5&#45;&gt;6 -->
<g id="edge4" class="edge"><title>5&#45;&gt;6</title>
<path fill="none" stroke="black" d="M168.714,-88.9485C163.324,-80.1664 157.492,-70.6629 152.061,-61.815"/>
<polygon fill="black" stroke="black" points="155.01,-59.9287 146.796,-53.2367 149.044,-63.5903 155.01,-59.9287"/>
</g>
<!-- 7 -->
<g id="node6" class="node"><title>7</title>
<path fill="#e58139" fill-opacity="0.486275" stroke="black" d="M284,-53C284,-53 210,-53 210,-53 204,-53 198,-47 198,-41 198,-41 198,-12 198,-12 198,-6 204,-0 210,-0 210,-0 284,-0 284,-0 290,-0 296,-6 296,-12 296,-12 296,-41 296,-41 296,-47 290,-53 284,-53"/>
<text text-anchor="start" x="209" y="-37.8" font-family="Helvetica,sans-Serif" font-size="14.00">mse = 0.518</text>
<text text-anchor="start" x="209.5" y="-22.8" font-family="Helvetica,sans-Serif" font-size="14.00">samples = 2</text>
<text text-anchor="start" x="206" y="-7.8" font-family="Helvetica,sans-Serif" font-size="14.00">value = 0.643</text>
</g>
<!-- 5&#45;&gt;7 -->
<g id="edge5" class="edge"><title>5&#45;&gt;7</title>
<path fill="none" stroke="black" d="M209.286,-88.9485C214.676,-80.1664 220.508,-70.6629 225.939,-61.815"/>
<polygon fill="black" stroke="black" points="228.956,-63.5903 231.204,-53.2367 222.99,-59.9287 228.956,-63.5903"/>
</g>
</g>
</svg>
