<?xml version="1.0" encoding="UTF-8" standalone="no"?>
<!DOCTYPE svg PUBLIC "-//W3C//DTD SVG 1.1//EN"
 "http://www.w3.org/Graphics/SVG/1.1/DTD/svg11.dtd">
<!-- Generated by graphviz version 2.38.0 (20140413.2041)
 -->
<!-- Title: Tree Pages: 1 -->
<svg width="298pt" height="269pt"
 viewBox="0.00 0.00 298.00 269.00" xmlns="http://www.w3.org/2000/svg" xmlns:xlink="http://www.w3.org/1999/xlink">
<g id="graph0" class="graph" transform="scale(1 1) rotate(0) translate(4 265)">
<title>Tree</title>
<polygon fill="white" stroke="none" points="-4,4 -4,-265 294,-265 294,4 -4,4"/>
<!-- 0 -->
<g id="node1" class="node"><title>0</title>
<path fill="#e58139" fill-opacity="0.313725" stroke="black" d="M219.5,-261C219.5,-261 130.5,-261 130.5,-261 124.5,-261 118.5,-255 118.5,-249 118.5,-249 118.5,-205 118.5,-205 118.5,-199 124.5,-193 130.5,-193 130.5,-193 219.5,-193 219.5,-193 225.5,-193 231.5,-199 231.5,-205 231.5,-205 231.5,-249 231.5,-249 231.5,-255 225.5,-261 219.5,-261"/>
<text text-anchor="start" x="126.5" y="-245.8" font-family="Helvetica,sans-Serif" font-size="14.00">LSTAT ≤ &#45;0.614</text>
<text text-anchor="start" x="144.5" y="-230.8" font-family="Helvetica,sans-Serif" font-size="14.00">mse = 1.0</text>
<text text-anchor="start" x="130" y="-215.8" font-family="Helvetica,sans-Serif" font-size="14.00">samples = 379</text>
<text text-anchor="start" x="139" y="-200.8" font-family="Helvetica,sans-Serif" font-size="14.00">value = &#45;0.0</text>
</g>
<!-- 1 -->
<g id="node2" class="node"><title>1</title>
<path fill="#e58139" fill-opacity="0.560784" stroke="black" d="M154,-157C154,-157 72,-157 72,-157 66,-157 60,-151 60,-145 60,-145 60,-101 60,-101 60,-95 66,-89 72,-89 72,-89 154,-89 154,-89 160,-89 166,-95 166,-101 166,-101 166,-145 166,-145 166,-151 160,-157 154,-157"/>
<text text-anchor="start" x="77" y="-141.8" font-family="Helvetica,sans-Serif" font-size="14.00">RM ≤ 1.621</text>
<text text-anchor="start" x="75" y="-126.8" font-family="Helvetica,sans-Serif" font-size="14.00">mse = 0.886</text>
<text text-anchor="start" x="68" y="-111.8" font-family="Helvetica,sans-Serif" font-size="14.00">samples = 135</text>
<text text-anchor="start" x="72" y="-96.8" font-family="Helvetica,sans-Serif" font-size="14.00">value = 0.926</text>
</g>
<!-- 0&#45;&gt;1 -->
<g id="edge1" class="edge"><title>0&#45;&gt;1</title>
<path fill="none" stroke="black" d="M154.87,-192.884C149.673,-184.332 144.008,-175.013 138.573,-166.072"/>
<polygon fill="black" stroke="black" points="141.426,-164.027 133.241,-157.299 135.444,-167.663 141.426,-164.027"/>
<text text-anchor="middle" x="127.317" y="-177.887" font-family="Helvetica,sans-Serif" font-size="14.00">True</text>
</g>
<!-- 8 -->
<g id="node5" class="node"><title>8</title>
<path fill="#e58139" fill-opacity="0.172549" stroke="black" d="M278,-149.5C278,-149.5 196,-149.5 196,-149.5 190,-149.5 184,-143.5 184,-137.5 184,-137.5 184,-108.5 184,-108.5 184,-102.5 190,-96.5 196,-96.5 196,-96.5 278,-96.5 278,-96.5 284,-96.5 290,-102.5 290,-108.5 290,-108.5 290,-137.5 290,-137.5 290,-143.5 284,-149.5 278,-149.5"/>
<text text-anchor="start" x="199" y="-134.3" font-family="Helvetica,sans-Serif" font-size="14.00">mse = 0.327</text>
<text text-anchor="start" x="192" y="-119.3" font-family="Helvetica,sans-Serif" font-size="14.00">samples = 244</text>
<text text-anchor="start" x="193.5" y="-104.3" font-family="Helvetica,sans-Serif" font-size="14.00">value = &#45;0.512</text>
</g>
<!-- 0&#45;&gt;8 -->
<g id="edge4" class="edge"><title>0&#45;&gt;8</title>
<path fill="none" stroke="black" d="M195.13,-192.884C201.881,-181.776 209.421,-169.372 216.222,-158.184"/>
<polygon fill="black" stroke="black" points="219.285,-159.883 221.488,-149.52 213.303,-156.247 219.285,-159.883"/>
<text text-anchor="middle" x="227.412" y="-170.108" font-family="Helvetica,sans-Serif" font-size="14.00">False</text>
</g>
<!-- 2 -->
<g id="node3" class="node"><title>2</title>
<path fill="#e58139" fill-opacity="0.478431" stroke="black" d="M94,-53C94,-53 12,-53 12,-53 6,-53 7.10543e-15,-47 7.10543e-15,-41 7.10543e-15,-41 7.10543e-15,-12 7.10543e-15,-12 7.10543e-15,-6 6,-0 12,-0 12,-0 94,-0 94,-0 100,-0 106,-6 106,-12 106,-12 106,-41 106,-41 106,-47 100,-53 94,-53"/>
<text text-anchor="start" x="15" y="-37.8" font-family="Helvetica,sans-Serif" font-size="14.00">mse = 0.434</text>
<text text-anchor="start" x="8" y="-22.8" font-family="Helvetica,sans-Serif" font-size="14.00">samples = 112</text>
<text text-anchor="start" x="12" y="-7.8" font-family="Helvetica,sans-Serif" font-size="14.00">value = 0.624</text>
</g>
<!-- 1&#45;&gt;2 -->
<g id="edge2" class="edge"><title>1&#45;&gt;2</title>
<path fill="none" stroke="black" d="M92.0149,-88.9485C86.439,-80.1664 80.405,-70.6629 74.7873,-61.815"/>
<polygon fill="black" stroke="black" points="77.6556,-59.8028 69.3408,-53.2367 71.7461,-63.5549 77.6556,-59.8028"/>
</g>
<!-- 5 -->
<g id="node4" class="node"><title>5</title>
<path fill="#e58139" fill-opacity="0.956863" stroke="black" d="M210,-53C210,-53 136,-53 136,-53 130,-53 124,-47 124,-41 124,-41 124,-12 124,-12 124,-6 130,-0 136,-0 136,-0 210,-0 210,-0 216,-0 222,-6 222,-12 222,-12 222,-41 222,-41 222,-47 216,-53 210,-53"/>
<text text-anchor="start" x="135" y="-37.8" font-family="Helvetica,sans-Serif" font-size="14.00">mse = 0.493</text>
<text text-anchor="start" x="132" y="-22.8" font-family="Helvetica,sans-Serif" font-size="14.00">samples = 23</text>
<text text-anchor="start" x="132" y="-7.8" font-family="Helvetica,sans-Serif" font-size="14.00">value = 2.393</text>
</g>
<!-- 1&#45;&gt;5 -->
<g id="edge3" class="edge"><title>1&#45;&gt;5</title>
<path fill="none" stroke="black" d="M133.985,-88.9485C139.561,-80.1664 145.595,-70.6629 151.213,-61.815"/>
<polygon fill="black" stroke="black" points="154.254,-63.5549 156.659,-53.2367 148.344,-59.8028 154.254,-63.5549"/>
</g>
</g>
</svg>
