<?xml version="1.0" encoding="UTF-8" standalone="no"?>
<!DOCTYPE svg PUBLIC "-//W3C//DTD SVG 1.1//EN"
 "http://www.w3.org/Graphics/SVG/1.1/DTD/svg11.dtd">
<!-- Generated by graphviz version 2.38.0 (20140413.2041)
 -->
<!-- Title: Tree Pages: 1 -->
<svg width="238pt" height="165pt"
 viewBox="0.00 0.00 238.00 165.00" xmlns="http://www.w3.org/2000/svg" xmlns:xlink="http://www.w3.org/1999/xlink">
<g id="graph0" class="graph" transform="scale(1 1) rotate(0) translate(4 161)">
<title>Tree</title>
<polygon fill="white" stroke="none" points="-4,4 -4,-161 234,-161 234,4 -4,4"/>
<!-- 0 -->
<g id="node1" class="node"><title>0</title>
<path fill="#e58139" fill-opacity="0.313725" stroke="black" d="M159.5,-157C159.5,-157 70.5,-157 70.5,-157 64.5,-157 58.5,-151 58.5,-145 58.5,-145 58.5,-101 58.5,-101 58.5,-95 64.5,-89 70.5,-89 70.5,-89 159.5,-89 159.5,-89 165.5,-89 171.5,-95 171.5,-101 171.5,-101 171.5,-145 171.5,-145 171.5,-151 165.5,-157 159.5,-157"/>
<text text-anchor="start" x="66.5" y="-141.8" font-family="Helvetica,sans-Serif" font-size="14.00">LSTAT ≤ &#45;0.614</text>
<text text-anchor="start" x="84.5" y="-126.8" font-family="Helvetica,sans-Serif" font-size="14.00">mse = 1.0</text>
<text text-anchor="start" x="70" y="-111.8" font-family="Helvetica,sans-Serif" font-size="14.00">samples = 379</text>
<text text-anchor="start" x="79" y="-96.8" font-family="Helvetica,sans-Serif" font-size="14.00">value = &#45;0.0</text>
</g>
<!-- 1 -->
<g id="node2" class="node"><title>1</title>
<path fill="#e58139" fill-opacity="0.560784" stroke="black" d="M94,-53C94,-53 12,-53 12,-53 6,-53 7.10543e-15,-47 7.10543e-15,-41 7.10543e-15,-41 7.10543e-15,-12 7.10543e-15,-12 7.10543e-15,-6 6,-0 12,-0 12,-0 94,-0 94,-0 100,-0 106,-6 106,-12 106,-12 106,-41 106,-41 106,-47 100,-53 94,-53"/>
<text text-anchor="start" x="15" y="-37.8" font-family="Helvetica,sans-Serif" font-size="14.00">mse = 0.886</text>
<text text-anchor="start" x="8" y="-22.8" font-family="Helvetica,sans-Serif" font-size="14.00">samples = 135</text>
<text text-anchor="start" x="12" y="-7.8" font-family="Helvetica,sans-Serif" font-size="14.00">value = 0.926</text>
</g>
<!-- 0&#45;&gt;1 -->
<g id="edge1" class="edge"><title>0&#45;&gt;1</title>
<path fill="none" stroke="black" d="M93.3154,-88.9485C87.5536,-80.1664 81.3185,-70.6629 75.5136,-61.815"/>
<polygon fill="black" stroke="black" points="78.2975,-59.6779 69.8855,-53.2367 72.4447,-63.5178 78.2975,-59.6779"/>
<text text-anchor="middle" x="64.8022" y="-74.0145" font-family="Helvetica,sans-Serif" font-size="14.00">True</text>
</g>
<!-- 8 -->
<g id="node3" class="node"><title>8</title>
<path fill="#e58139" fill-opacity="0.172549" stroke="black" d="M218,-53C218,-53 136,-53 136,-53 130,-53 124,-47 124,-41 124,-41 124,-12 124,-12 124,-6 130,-0 136,-0 136,-0 218,-0 218,-0 224,-0 230,-6 230,-12 230,-12 230,-41 230,-41 230,-47 224,-53 218,-53"/>
<text text-anchor="start" x="139" y="-37.8" font-family="Helvetica,sans-Serif" font-size="14.00">mse = 0.327</text>
<text text-anchor="start" x="132" y="-22.8" font-family="Helvetica,sans-Serif" font-size="14.00">samples = 244</text>
<text text-anchor="start" x="133.5" y="-7.8" font-family="Helvetica,sans-Serif" font-size="14.00">value = &#45;0.512</text>
</g>
<!-- 0&#45;&gt;8 -->
<g id="edge2" class="edge"><title>0&#45;&gt;8</title>
<path fill="none" stroke="black" d="M136.685,-88.9485C142.446,-80.1664 148.681,-70.6629 154.486,-61.815"/>
<polygon fill="black" stroke="black" points="157.555,-63.5178 160.115,-53.2367 151.703,-59.6779 157.555,-63.5178"/>
<text text-anchor="middle" x="165.198" y="-74.0145" font-family="Helvetica,sans-Serif" font-size="14.00">False</text>
</g>
</g>
</svg>
