<?xml version="1.0" encoding="UTF-8" standalone="no"?>
<!DOCTYPE svg PUBLIC "-//W3C//DTD SVG 1.1//EN"
 "http://www.w3.org/Graphics/SVG/1.1/DTD/svg11.dtd">
<!-- Generated by graphviz version 2.38.0 (20140413.2041)
 -->
<!-- Title: Tree Pages: 1 -->
<svg width="1861pt" height="433pt"
 viewBox="0.00 0.00 1860.50 433.00" xmlns="http://www.w3.org/2000/svg" xmlns:xlink="http://www.w3.org/1999/xlink">
<g id="graph0" class="graph" transform="scale(1 1) rotate(0) translate(4 429)">
<title>Tree</title>
<polygon fill="white" stroke="none" points="-4,4 -4,-429 1856.5,-429 1856.5,4 -4,4"/>
<!-- 0 -->
<g id="node1" class="node"><title>0</title>
<path fill="#e55639" fill-opacity="0.015686" stroke="black" d="M1065,-425C1065,-425 698,-425 698,-425 692,-425 686,-419 686,-413 686,-413 686,-354 686,-354 686,-348 692,-342 698,-342 698,-342 1065,-342 1065,-342 1071,-342 1077,-348 1077,-354 1077,-354 1077,-413 1077,-413 1077,-419 1071,-425 1065,-425"/>
<text text-anchor="start" x="841.5" y="-409.8" font-family="Helvetica,sans-Serif" font-size="14.00">Shell ≤ 0.144</text>
<text text-anchor="start" x="834" y="-394.8" font-family="Helvetica,sans-Serif" font-size="14.00">entropy = 3.582</text>
<text text-anchor="start" x="833" y="-379.8" font-family="Helvetica,sans-Serif" font-size="14.00">samples = 2923</text>
<text text-anchor="start" x="694" y="-364.8" font-family="Helvetica,sans-Serif" font-size="14.00">value = [452, 355, 188, 137, 88, 75, 45, 35, 34, 24, 1, 13, 10, 5</text>
<text text-anchor="start" x="763" y="-349.8" font-family="Helvetica,sans-Serif" font-size="14.00">5, 1, 1, 2, 9, 37, 88, 178, 259, 390, 491]</text>
</g>
<!-- 1 -->
<g id="node2" class="node"><title>1</title>
<path fill="#e5396f" fill-opacity="0.062745" stroke="black" d="M847.5,-306C847.5,-306 533.5,-306 533.5,-306 527.5,-306 521.5,-300 521.5,-294 521.5,-294 521.5,-235 521.5,-235 521.5,-229 527.5,-223 533.5,-223 533.5,-223 847.5,-223 847.5,-223 853.5,-223 859.5,-229 859.5,-235 859.5,-235 859.5,-294 859.5,-294 859.5,-300 853.5,-306 847.5,-306"/>
<text text-anchor="start" x="650.5" y="-290.8" font-family="Helvetica,sans-Serif" font-size="14.00">Shell ≤ 0.053</text>
<text text-anchor="start" x="643" y="-275.8" font-family="Helvetica,sans-Serif" font-size="14.00">entropy = 2.957</text>
<text text-anchor="start" x="645.5" y="-260.8" font-family="Helvetica,sans-Serif" font-size="14.00">samples = 809</text>
<text text-anchor="start" x="529.5" y="-245.8" font-family="Helvetica,sans-Serif" font-size="14.00">value = [50, 21, 12, 7, 1, 3, 2, 0, 1, 0, 1, 0, 0, 0, 0, 0, 0</text>
<text text-anchor="start" x="598.5" y="-230.8" font-family="Helvetica,sans-Serif" font-size="14.00">0, 9, 37, 88, 166, 207, 130, 74]</text>
</g>
<!-- 0&#45;&gt;1 -->
<g id="edge1" class="edge"><title>0&#45;&gt;1</title>
<path fill="none" stroke="black" d="M815.234,-341.907C799.085,-332.016 781.703,-321.368 765.193,-311.254"/>
<polygon fill="black" stroke="black" points="767.005,-308.26 756.649,-306.021 763.348,-314.229 767.005,-308.26"/>
<text text-anchor="middle" x="762.49" y="-326.629" font-family="Helvetica,sans-Serif" font-size="14.00">True</text>
</g>
<!-- 8 -->
<g id="node7" class="node"><title>8</title>
<path fill="#e55639" fill-opacity="0.007843" stroke="black" d="M1257,-306C1257,-306 890,-306 890,-306 884,-306 878,-300 878,-294 878,-294 878,-235 878,-235 878,-229 884,-223 890,-223 890,-223 1257,-223 1257,-223 1263,-223 1269,-229 1269,-235 1269,-235 1269,-294 1269,-294 1269,-300 1263,-306 1257,-306"/>
<text text-anchor="start" x="1037" y="-290.8" font-family="Helvetica,sans-Serif" font-size="14.00">Shell ≤ 0.29</text>
<text text-anchor="start" x="1026" y="-275.8" font-family="Helvetica,sans-Serif" font-size="14.00">entropy = 3.307</text>
<text text-anchor="start" x="1025" y="-260.8" font-family="Helvetica,sans-Serif" font-size="14.00">samples = 2114</text>
<text text-anchor="start" x="886" y="-245.8" font-family="Helvetica,sans-Serif" font-size="14.00">value = [402, 334, 176, 130, 87, 72, 43, 35, 33, 24, 0, 13, 10, 5</text>
<text text-anchor="start" x="970" y="-230.8" font-family="Helvetica,sans-Serif" font-size="14.00">5, 1, 1, 2, 0, 0, 0, 12, 52, 260, 417]</text>
</g>
<!-- 0&#45;&gt;8 -->
<g id="edge6" class="edge"><title>0&#45;&gt;8</title>
<path fill="none" stroke="black" d="M948.113,-341.907C964.346,-332.016 981.82,-321.368 998.416,-311.254"/>
<polygon fill="black" stroke="black" points="1000.29,-314.213 1007,-306.021 996.644,-308.236 1000.29,-314.213"/>
<text text-anchor="middle" x="1001.11" y="-326.615" font-family="Helvetica,sans-Serif" font-size="14.00">False</text>
</g>
<!-- 2 -->
<g id="node3" class="node"><title>2</title>
<path fill="#e539c0" fill-opacity="0.094118" stroke="black" d="M493,-187C493,-187 186,-187 186,-187 180,-187 174,-181 174,-175 174,-175 174,-116 174,-116 174,-110 180,-104 186,-104 186,-104 493,-104 493,-104 499,-104 505,-110 505,-116 505,-116 505,-175 505,-175 505,-181 499,-187 493,-187"/>
<text text-anchor="start" x="299.5" y="-171.8" font-family="Helvetica,sans-Serif" font-size="14.00">Shell ≤ 0.027</text>
<text text-anchor="start" x="292" y="-156.8" font-family="Helvetica,sans-Serif" font-size="14.00">entropy = 2.363</text>
<text text-anchor="start" x="294.5" y="-141.8" font-family="Helvetica,sans-Serif" font-size="14.00">samples = 217</text>
<text text-anchor="start" x="182" y="-126.8" font-family="Helvetica,sans-Serif" font-size="14.00">value = [1, 0, 0, 0, 0, 0, 0, 0, 0, 0, 1, 0, 0, 0, 0, 0, 0, 0</text>
<text text-anchor="start" x="273.5" y="-111.8" font-family="Helvetica,sans-Serif" font-size="14.00">9, 36, 73, 58, 28, 9, 2]</text>
</g>
<!-- 1&#45;&gt;2 -->
<g id="edge2" class="edge"><title>1&#45;&gt;2</title>
<path fill="none" stroke="black" d="M568.722,-222.907C537.141,-212.38 502.991,-200.997 470.938,-190.313"/>
<polygon fill="black" stroke="black" points="471.656,-186.863 461.062,-187.021 469.442,-193.504 471.656,-186.863"/>
</g>
<!-- 5 -->
<g id="node6" class="node"><title>5</title>
<path fill="#e5396f" fill-opacity="0.121569" stroke="black" d="M849.5,-179.5C849.5,-179.5 535.5,-179.5 535.5,-179.5 529.5,-179.5 523.5,-173.5 523.5,-167.5 523.5,-167.5 523.5,-123.5 523.5,-123.5 523.5,-117.5 529.5,-111.5 535.5,-111.5 535.5,-111.5 849.5,-111.5 849.5,-111.5 855.5,-111.5 861.5,-117.5 861.5,-123.5 861.5,-123.5 861.5,-167.5 861.5,-167.5 861.5,-173.5 855.5,-179.5 849.5,-179.5"/>
<text text-anchor="start" x="645" y="-164.3" font-family="Helvetica,sans-Serif" font-size="14.00">entropy = 2.713</text>
<text text-anchor="start" x="647.5" y="-149.3" font-family="Helvetica,sans-Serif" font-size="14.00">samples = 592</text>
<text text-anchor="start" x="531.5" y="-134.3" font-family="Helvetica,sans-Serif" font-size="14.00">value = [49, 21, 12, 7, 1, 3, 2, 0, 1, 0, 0, 0, 0, 0, 0, 0, 0</text>
<text text-anchor="start" x="604" y="-119.3" font-family="Helvetica,sans-Serif" font-size="14.00">0, 0, 1, 15, 108, 179, 121, 72]</text>
</g>
<!-- 1&#45;&gt;5 -->
<g id="edge5" class="edge"><title>1&#45;&gt;5</title>
<path fill="none" stroke="black" d="M691.194,-222.907C691.377,-212.204 691.575,-200.615 691.76,-189.776"/>
<polygon fill="black" stroke="black" points="695.262,-189.725 691.933,-179.667 688.263,-189.606 695.262,-189.725"/>
</g>
<!-- 3 -->
<g id="node4" class="node"><title>3</title>
<path fill="#df39e5" fill-opacity="0.094118" stroke="black" d="M319,-68C319,-68 12,-68 12,-68 6,-68 0,-62 0,-56 0,-56 0,-12 0,-12 0,-6 6,-0 12,-0 12,-0 319,-0 319,-0 325,-0 331,-6 331,-12 331,-12 331,-56 331,-56 331,-62 325,-68 319,-68"/>
<text text-anchor="start" x="118" y="-52.8" font-family="Helvetica,sans-Serif" font-size="14.00">entropy = 1.874</text>
<text text-anchor="start" x="124.5" y="-37.8" font-family="Helvetica,sans-Serif" font-size="14.00">samples = 82</text>
<text text-anchor="start" x="8" y="-22.8" font-family="Helvetica,sans-Serif" font-size="14.00">value = [0, 0, 0, 0, 0, 0, 0, 0, 0, 0, 1, 0, 0, 0, 0, 0, 0, 0</text>
<text text-anchor="start" x="103.5" y="-7.8" font-family="Helvetica,sans-Serif" font-size="14.00">9, 33, 28, 11, 0, 0, 0]</text>
</g>
<!-- 2&#45;&gt;3 -->
<g id="edge3" class="edge"><title>2&#45;&gt;3</title>
<path fill="none" stroke="black" d="M274.709,-103.726C258.974,-93.8245 242.201,-83.269 226.642,-73.4774"/>
<polygon fill="black" stroke="black" points="228.465,-70.4892 218.137,-68.1252 224.737,-76.4137 228.465,-70.4892"/>
</g>
<!-- 4 -->
<g id="node5" class="node"><title>4</title>
<path fill="#e53998" fill-opacity="0.023529" stroke="black" d="M668,-68C668,-68 361,-68 361,-68 355,-68 349,-62 349,-56 349,-56 349,-12 349,-12 349,-6 355,-0 361,-0 361,-0 668,-0 668,-0 674,-0 680,-6 680,-12 680,-12 680,-56 680,-56 680,-62 674,-68 668,-68"/>
<text text-anchor="start" x="467" y="-52.8" font-family="Helvetica,sans-Serif" font-size="14.00">entropy = 2.054</text>
<text text-anchor="start" x="469.5" y="-37.8" font-family="Helvetica,sans-Serif" font-size="14.00">samples = 135</text>
<text text-anchor="start" x="357" y="-22.8" font-family="Helvetica,sans-Serif" font-size="14.00">value = [1, 0, 0, 0, 0, 0, 0, 0, 0, 0, 0, 0, 0, 0, 0, 0, 0, 0</text>
<text text-anchor="start" x="452.5" y="-7.8" font-family="Helvetica,sans-Serif" font-size="14.00">0, 3, 45, 47, 28, 9, 2]</text>
</g>
<!-- 2&#45;&gt;4 -->
<g id="edge4" class="edge"><title>2&#45;&gt;4</title>
<path fill="none" stroke="black" d="M404.664,-103.726C420.488,-93.8245 437.358,-83.269 453.006,-73.4774"/>
<polygon fill="black" stroke="black" points="454.939,-76.3966 461.56,-68.1252 451.226,-70.4625 454.939,-76.3966"/>
</g>
<!-- 9 -->
<g id="node8" class="node"><title>9</title>
<path fill="#e55639" fill-opacity="0.043137" stroke="black" d="M1247.5,-179.5C1247.5,-179.5 895.5,-179.5 895.5,-179.5 889.5,-179.5 883.5,-173.5 883.5,-167.5 883.5,-167.5 883.5,-123.5 883.5,-123.5 883.5,-117.5 889.5,-111.5 895.5,-111.5 895.5,-111.5 1247.5,-111.5 1247.5,-111.5 1253.5,-111.5 1259.5,-117.5 1259.5,-123.5 1259.5,-123.5 1259.5,-167.5 1259.5,-167.5 1259.5,-173.5 1253.5,-179.5 1247.5,-179.5"/>
<text text-anchor="start" x="1024" y="-164.3" font-family="Helvetica,sans-Serif" font-size="14.00">entropy = 3.062</text>
<text text-anchor="start" x="1023" y="-149.3" font-family="Helvetica,sans-Serif" font-size="14.00">samples = 1121</text>
<text text-anchor="start" x="891.5" y="-134.3" font-family="Helvetica,sans-Serif" font-size="14.00">value = [197, 125, 64, 52, 36, 27, 13, 11, 8, 6, 0, 2, 3, 2, 2, 0</text>
<text text-anchor="start" x="983" y="-119.3" font-family="Helvetica,sans-Serif" font-size="14.00">0, 0, 0, 0, 0, 10, 51, 237, 275]</text>
</g>
<!-- 8&#45;&gt;9 -->
<g id="edge7" class="edge"><title>8&#45;&gt;9</title>
<path fill="none" stroke="black" d="M1072.81,-222.907C1072.62,-212.204 1072.43,-200.615 1072.24,-189.776"/>
<polygon fill="black" stroke="black" points="1075.74,-189.606 1072.07,-179.667 1068.74,-189.725 1075.74,-189.606"/>
</g>
<!-- 12 -->
<g id="node9" class="node"><title>12</title>
<path fill="#e5a939" fill-opacity="0.003922" stroke="black" d="M1657,-187C1657,-187 1290,-187 1290,-187 1284,-187 1278,-181 1278,-175 1278,-175 1278,-116 1278,-116 1278,-110 1284,-104 1290,-104 1290,-104 1657,-104 1657,-104 1663,-104 1669,-110 1669,-116 1669,-116 1669,-175 1669,-175 1669,-181 1663,-187 1657,-187"/>
<text text-anchor="start" x="1422" y="-171.8" font-family="Helvetica,sans-Serif" font-size="14.00">Shucked ≤ 0.445</text>
<text text-anchor="start" x="1426" y="-156.8" font-family="Helvetica,sans-Serif" font-size="14.00">entropy = 3.296</text>
<text text-anchor="start" x="1428.5" y="-141.8" font-family="Helvetica,sans-Serif" font-size="14.00">samples = 993</text>
<text text-anchor="start" x="1286" y="-126.8" font-family="Helvetica,sans-Serif" font-size="14.00">value = [205, 209, 112, 78, 51, 45, 30, 24, 25, 18, 0, 11, 7, 3, 3</text>
<text text-anchor="start" x="1389" y="-111.8" font-family="Helvetica,sans-Serif" font-size="14.00">1, 1, 2, 0, 0, 0, 2, 1, 23, 142]</text>
</g>
<!-- 8&#45;&gt;12 -->
<g id="edge8" class="edge"><title>8&#45;&gt;12</title>
<path fill="none" stroke="black" d="M1212,-222.989C1248.47,-212.322 1287.96,-200.771 1324.93,-189.955"/>
<polygon fill="black" stroke="black" points="1326.17,-193.241 1334.78,-187.075 1324.2,-186.523 1326.17,-193.241"/>
</g>
<!-- 13 -->
<g id="node10" class="node"><title>13</title>
<path fill="#e58139" fill-opacity="0.035294" stroke="black" d="M1446,-68C1446,-68 1117,-68 1117,-68 1111,-68 1105,-62 1105,-56 1105,-56 1105,-12 1105,-12 1105,-6 1111,-0 1117,-0 1117,-0 1446,-0 1446,-0 1452,-0 1458,-6 1458,-12 1458,-12 1458,-56 1458,-56 1458,-62 1452,-68 1446,-68"/>
<text text-anchor="start" x="1234" y="-52.8" font-family="Helvetica,sans-Serif" font-size="14.00">entropy = 3.744</text>
<text text-anchor="start" x="1236.5" y="-37.8" font-family="Helvetica,sans-Serif" font-size="14.00">samples = 199</text>
<text text-anchor="start" x="1113" y="-22.8" font-family="Helvetica,sans-Serif" font-size="14.00">value = [27, 18, 19, 21, 19, 19, 16, 9, 8, 8, 0, 6, 2, 0, 3, 0</text>
<text text-anchor="start" x="1212" y="-7.8" font-family="Helvetica,sans-Serif" font-size="14.00">1, 1, 0, 0, 0, 2, 0, 4, 16]</text>
</g>
<!-- 12&#45;&gt;13 -->
<g id="edge9" class="edge"><title>12&#45;&gt;13</title>
<path fill="none" stroke="black" d="M1402.28,-103.882C1384.65,-93.8269 1365.82,-83.0892 1348.4,-73.1563"/>
<polygon fill="black" stroke="black" points="1349.86,-69.9571 1339.44,-68.0433 1346.39,-76.0378 1349.86,-69.9571"/>
</g>
<!-- 14 -->
<g id="node11" class="node"><title>14</title>
<path fill="#e5a939" fill-opacity="0.019608" stroke="black" d="M1840.5,-68C1840.5,-68 1488.5,-68 1488.5,-68 1482.5,-68 1476.5,-62 1476.5,-56 1476.5,-56 1476.5,-12 1476.5,-12 1476.5,-6 1482.5,-0 1488.5,-0 1488.5,-0 1840.5,-0 1840.5,-0 1846.5,-0 1852.5,-6 1852.5,-12 1852.5,-12 1852.5,-56 1852.5,-56 1852.5,-62 1846.5,-68 1840.5,-68"/>
<text text-anchor="start" x="1620.5" y="-52.8" font-family="Helvetica,sans-Serif" font-size="14.00">entropy = 3.08</text>
<text text-anchor="start" x="1619.5" y="-37.8" font-family="Helvetica,sans-Serif" font-size="14.00">samples = 794</text>
<text text-anchor="start" x="1484.5" y="-22.8" font-family="Helvetica,sans-Serif" font-size="14.00">value = [178, 191, 93, 57, 32, 26, 14, 15, 17, 10, 0, 5, 5, 3, 0</text>
<text text-anchor="start" x="1580" y="-7.8" font-family="Helvetica,sans-Serif" font-size="14.00">1, 0, 1, 0, 0, 0, 0, 1, 19, 126]</text>
</g>
<!-- 12&#45;&gt;14 -->
<g id="edge10" class="edge"><title>12&#45;&gt;14</title>
<path fill="none" stroke="black" d="M1544.35,-103.882C1561.89,-93.8269 1580.62,-83.0892 1597.94,-73.1563"/>
<polygon fill="black" stroke="black" points="1599.93,-76.0534 1606.86,-68.0433 1596.45,-69.9806 1599.93,-76.0534"/>
</g>
</g>
</svg>
