<?xml version="1.0" encoding="UTF-8" standalone="no"?>
<!DOCTYPE svg PUBLIC "-//W3C//DTD SVG 1.1//EN"
 "http://www.w3.org/Graphics/SVG/1.1/DTD/svg11.dtd">
<!-- Generated by graphviz version 2.38.0 (20140413.2041)
 -->
<!-- Title: Tree Pages: 1 -->
<svg width="2925pt" height="433pt"
 viewBox="0.00 0.00 2924.50 433.00" xmlns="http://www.w3.org/2000/svg" xmlns:xlink="http://www.w3.org/1999/xlink">
<g id="graph0" class="graph" transform="scale(1 1) rotate(0) translate(4 429)">
<title>Tree</title>
<polygon fill="white" stroke="none" points="-4,4 -4,-429 2920.5,-429 2920.5,4 -4,4"/>
<!-- 0 -->
<g id="node1" class="node"><title>0</title>
<path fill="#e55639" fill-opacity="0.015686" stroke="black" d="M1594,-425C1594,-425 1227,-425 1227,-425 1221,-425 1215,-419 1215,-413 1215,-413 1215,-354 1215,-354 1215,-348 1221,-342 1227,-342 1227,-342 1594,-342 1594,-342 1600,-342 1606,-348 1606,-354 1606,-354 1606,-413 1606,-413 1606,-419 1600,-425 1594,-425"/>
<text text-anchor="start" x="1370.5" y="-409.8" font-family="Helvetica,sans-Serif" font-size="14.00">Shell ≤ 0.144</text>
<text text-anchor="start" x="1363" y="-394.8" font-family="Helvetica,sans-Serif" font-size="14.00">entropy = 3.582</text>
<text text-anchor="start" x="1362" y="-379.8" font-family="Helvetica,sans-Serif" font-size="14.00">samples = 2923</text>
<text text-anchor="start" x="1223" y="-364.8" font-family="Helvetica,sans-Serif" font-size="14.00">value = [452, 355, 188, 137, 88, 75, 45, 35, 34, 24, 1, 13, 10, 5</text>
<text text-anchor="start" x="1292" y="-349.8" font-family="Helvetica,sans-Serif" font-size="14.00">5, 1, 1, 2, 9, 37, 88, 178, 259, 390, 491]</text>
</g>
<!-- 1 -->
<g id="node2" class="node"><title>1</title>
<path fill="#e5396f" fill-opacity="0.062745" stroke="black" d="M1202.5,-306C1202.5,-306 888.5,-306 888.5,-306 882.5,-306 876.5,-300 876.5,-294 876.5,-294 876.5,-235 876.5,-235 876.5,-229 882.5,-223 888.5,-223 888.5,-223 1202.5,-223 1202.5,-223 1208.5,-223 1214.5,-229 1214.5,-235 1214.5,-235 1214.5,-294 1214.5,-294 1214.5,-300 1208.5,-306 1202.5,-306"/>
<text text-anchor="start" x="1005.5" y="-290.8" font-family="Helvetica,sans-Serif" font-size="14.00">Shell ≤ 0.053</text>
<text text-anchor="start" x="998" y="-275.8" font-family="Helvetica,sans-Serif" font-size="14.00">entropy = 2.957</text>
<text text-anchor="start" x="1000.5" y="-260.8" font-family="Helvetica,sans-Serif" font-size="14.00">samples = 809</text>
<text text-anchor="start" x="884.5" y="-245.8" font-family="Helvetica,sans-Serif" font-size="14.00">value = [50, 21, 12, 7, 1, 3, 2, 0, 1, 0, 1, 0, 0, 0, 0, 0, 0</text>
<text text-anchor="start" x="953.5" y="-230.8" font-family="Helvetica,sans-Serif" font-size="14.00">0, 9, 37, 88, 166, 207, 130, 74]</text>
</g>
<!-- 0&#45;&gt;1 -->
<g id="edge1" class="edge"><title>0&#45;&gt;1</title>
<path fill="none" stroke="black" d="M1284.12,-341.989C1251.13,-331.413 1215.42,-319.967 1181.93,-309.232"/>
<polygon fill="black" stroke="black" points="1182.67,-305.794 1172.08,-306.075 1180.53,-312.46 1182.67,-305.794"/>
<text text-anchor="middle" x="1183.52" y="-324.605" font-family="Helvetica,sans-Serif" font-size="14.00">True</text>
</g>
<!-- 8 -->
<g id="node9" class="node"><title>8</title>
<path fill="#e55639" fill-opacity="0.007843" stroke="black" d="M1956,-306C1956,-306 1589,-306 1589,-306 1583,-306 1577,-300 1577,-294 1577,-294 1577,-235 1577,-235 1577,-229 1583,-223 1589,-223 1589,-223 1956,-223 1956,-223 1962,-223 1968,-229 1968,-235 1968,-235 1968,-294 1968,-294 1968,-300 1962,-306 1956,-306"/>
<text text-anchor="start" x="1736" y="-290.8" font-family="Helvetica,sans-Serif" font-size="14.00">Shell ≤ 0.29</text>
<text text-anchor="start" x="1725" y="-275.8" font-family="Helvetica,sans-Serif" font-size="14.00">entropy = 3.307</text>
<text text-anchor="start" x="1724" y="-260.8" font-family="Helvetica,sans-Serif" font-size="14.00">samples = 2114</text>
<text text-anchor="start" x="1585" y="-245.8" font-family="Helvetica,sans-Serif" font-size="14.00">value = [402, 334, 176, 130, 87, 72, 43, 35, 33, 24, 0, 13, 10, 5</text>
<text text-anchor="start" x="1669" y="-230.8" font-family="Helvetica,sans-Serif" font-size="14.00">5, 1, 1, 2, 0, 0, 0, 12, 52, 260, 417]</text>
</g>
<!-- 0&#45;&gt;8 -->
<g id="edge8" class="edge"><title>0&#45;&gt;8</title>
<path fill="none" stroke="black" d="M1535.84,-341.989C1568.56,-331.413 1603.98,-319.967 1637.19,-309.232"/>
<polygon fill="black" stroke="black" points="1638.52,-312.48 1646.96,-306.075 1636.37,-305.82 1638.52,-312.48"/>
<text text-anchor="middle" x="1635.58" y="-324.632" font-family="Helvetica,sans-Serif" font-size="14.00">False</text>
</g>
<!-- 2 -->
<g id="node3" class="node"><title>2</title>
<path fill="#e539c0" fill-opacity="0.094118" stroke="black" d="M668,-187C668,-187 361,-187 361,-187 355,-187 349,-181 349,-175 349,-175 349,-116 349,-116 349,-110 355,-104 361,-104 361,-104 668,-104 668,-104 674,-104 680,-110 680,-116 680,-116 680,-175 680,-175 680,-181 674,-187 668,-187"/>
<text text-anchor="start" x="474.5" y="-171.8" font-family="Helvetica,sans-Serif" font-size="14.00">Shell ≤ 0.027</text>
<text text-anchor="start" x="467" y="-156.8" font-family="Helvetica,sans-Serif" font-size="14.00">entropy = 2.363</text>
<text text-anchor="start" x="469.5" y="-141.8" font-family="Helvetica,sans-Serif" font-size="14.00">samples = 217</text>
<text text-anchor="start" x="357" y="-126.8" font-family="Helvetica,sans-Serif" font-size="14.00">value = [1, 0, 0, 0, 0, 0, 0, 0, 0, 0, 1, 0, 0, 0, 0, 0, 0, 0</text>
<text text-anchor="start" x="448.5" y="-111.8" font-family="Helvetica,sans-Serif" font-size="14.00">9, 36, 73, 58, 28, 9, 2]</text>
</g>
<!-- 1&#45;&gt;2 -->
<g id="edge2" class="edge"><title>1&#45;&gt;2</title>
<path fill="none" stroke="black" d="M876.394,-226.239C817.006,-213.154 750.174,-198.428 690.254,-185.225"/>
<polygon fill="black" stroke="black" points="690.832,-181.769 680.313,-183.035 689.326,-188.605 690.832,-181.769"/>
</g>
<!-- 5 -->
<g id="node6" class="node"><title>5</title>
<path fill="#e5396f" fill-opacity="0.121569" stroke="black" d="M1202.5,-187C1202.5,-187 888.5,-187 888.5,-187 882.5,-187 876.5,-181 876.5,-175 876.5,-175 876.5,-116 876.5,-116 876.5,-110 882.5,-104 888.5,-104 888.5,-104 1202.5,-104 1202.5,-104 1208.5,-104 1214.5,-110 1214.5,-116 1214.5,-116 1214.5,-175 1214.5,-175 1214.5,-181 1208.5,-187 1202.5,-187"/>
<text text-anchor="start" x="1010.5" y="-171.8" font-family="Helvetica,sans-Serif" font-size="14.00">Sex_I ≤ 0.5</text>
<text text-anchor="start" x="998" y="-156.8" font-family="Helvetica,sans-Serif" font-size="14.00">entropy = 2.713</text>
<text text-anchor="start" x="1000.5" y="-141.8" font-family="Helvetica,sans-Serif" font-size="14.00">samples = 592</text>
<text text-anchor="start" x="884.5" y="-126.8" font-family="Helvetica,sans-Serif" font-size="14.00">value = [49, 21, 12, 7, 1, 3, 2, 0, 1, 0, 0, 0, 0, 0, 0, 0, 0</text>
<text text-anchor="start" x="957" y="-111.8" font-family="Helvetica,sans-Serif" font-size="14.00">0, 0, 1, 15, 108, 179, 121, 72]</text>
</g>
<!-- 1&#45;&gt;5 -->
<g id="edge5" class="edge"><title>1&#45;&gt;5</title>
<path fill="none" stroke="black" d="M1045.5,-222.907C1045.5,-214.649 1045.5,-205.864 1045.5,-197.302"/>
<polygon fill="black" stroke="black" points="1049,-197.021 1045.5,-187.021 1042,-197.021 1049,-197.021"/>
</g>
<!-- 3 -->
<g id="node4" class="node"><title>3</title>
<path fill="#df39e5" fill-opacity="0.094118" stroke="black" d="M319,-68C319,-68 12,-68 12,-68 6,-68 0,-62 0,-56 0,-56 0,-12 0,-12 0,-6 6,-0 12,-0 12,-0 319,-0 319,-0 325,-0 331,-6 331,-12 331,-12 331,-56 331,-56 331,-62 325,-68 319,-68"/>
<text text-anchor="start" x="118" y="-52.8" font-family="Helvetica,sans-Serif" font-size="14.00">entropy = 1.874</text>
<text text-anchor="start" x="124.5" y="-37.8" font-family="Helvetica,sans-Serif" font-size="14.00">samples = 82</text>
<text text-anchor="start" x="8" y="-22.8" font-family="Helvetica,sans-Serif" font-size="14.00">value = [0, 0, 0, 0, 0, 0, 0, 0, 0, 0, 1, 0, 0, 0, 0, 0, 0, 0</text>
<text text-anchor="start" x="103.5" y="-7.8" font-family="Helvetica,sans-Serif" font-size="14.00">9, 33, 28, 11, 0, 0, 0]</text>
</g>
<!-- 2&#45;&gt;3 -->
<g id="edge3" class="edge"><title>2&#45;&gt;3</title>
<path fill="none" stroke="black" d="M385.041,-103.882C350.789,-93.135 314.051,-81.6084 280.615,-71.1179"/>
<polygon fill="black" stroke="black" points="281.405,-67.6975 270.816,-68.0433 279.31,-74.3765 281.405,-67.6975"/>
</g>
<!-- 4 -->
<g id="node5" class="node"><title>4</title>
<path fill="#e53998" fill-opacity="0.023529" stroke="black" d="M668,-68C668,-68 361,-68 361,-68 355,-68 349,-62 349,-56 349,-56 349,-12 349,-12 349,-6 355,-0 361,-0 361,-0 668,-0 668,-0 674,-0 680,-6 680,-12 680,-12 680,-56 680,-56 680,-62 674,-68 668,-68"/>
<text text-anchor="start" x="467" y="-52.8" font-family="Helvetica,sans-Serif" font-size="14.00">entropy = 2.054</text>
<text text-anchor="start" x="469.5" y="-37.8" font-family="Helvetica,sans-Serif" font-size="14.00">samples = 135</text>
<text text-anchor="start" x="357" y="-22.8" font-family="Helvetica,sans-Serif" font-size="14.00">value = [1, 0, 0, 0, 0, 0, 0, 0, 0, 0, 0, 0, 0, 0, 0, 0, 0, 0</text>
<text text-anchor="start" x="452.5" y="-7.8" font-family="Helvetica,sans-Serif" font-size="14.00">0, 3, 45, 47, 28, 9, 2]</text>
</g>
<!-- 2&#45;&gt;4 -->
<g id="edge4" class="edge"><title>2&#45;&gt;4</title>
<path fill="none" stroke="black" d="M514.5,-103.726C514.5,-95.5175 514.5,-86.8595 514.5,-78.56"/>
<polygon fill="black" stroke="black" points="518,-78.2996 514.5,-68.2996 511,-78.2996 518,-78.2996"/>
</g>
<!-- 6 -->
<g id="node7" class="node"><title>6</title>
<path fill="#e55639" fill-opacity="0.007843" stroke="black" d="M1032.5,-68C1032.5,-68 710.5,-68 710.5,-68 704.5,-68 698.5,-62 698.5,-56 698.5,-56 698.5,-12 698.5,-12 698.5,-6 704.5,-0 710.5,-0 710.5,-0 1032.5,-0 1032.5,-0 1038.5,-0 1044.5,-6 1044.5,-12 1044.5,-12 1044.5,-56 1044.5,-56 1044.5,-62 1038.5,-68 1032.5,-68"/>
<text text-anchor="start" x="824" y="-52.8" font-family="Helvetica,sans-Serif" font-size="14.00">entropy = 2.969</text>
<text text-anchor="start" x="826.5" y="-37.8" font-family="Helvetica,sans-Serif" font-size="14.00">samples = 205</text>
<text text-anchor="start" x="706.5" y="-22.8" font-family="Helvetica,sans-Serif" font-size="14.00">value = [34, 18, 9, 6, 1, 2, 1, 0, 1, 0, 0, 0, 0, 0, 0, 0, 0, 0</text>
<text text-anchor="start" x="805.5" y="-7.8" font-family="Helvetica,sans-Serif" font-size="14.00">0, 0, 3, 13, 36, 40, 41]</text>
</g>
<!-- 5&#45;&gt;6 -->
<g id="edge6" class="edge"><title>5&#45;&gt;6</title>
<path fill="none" stroke="black" d="M980.709,-103.726C964.974,-93.8245 948.201,-83.269 932.642,-73.4774"/>
<polygon fill="black" stroke="black" points="934.465,-70.4892 924.137,-68.1252 930.737,-76.4137 934.465,-70.4892"/>
</g>
<!-- 7 -->
<g id="node8" class="node"><title>7</title>
<path fill="#e5396f" fill-opacity="0.164706" stroke="black" d="M1388.5,-68C1388.5,-68 1074.5,-68 1074.5,-68 1068.5,-68 1062.5,-62 1062.5,-56 1062.5,-56 1062.5,-12 1062.5,-12 1062.5,-6 1068.5,-0 1074.5,-0 1074.5,-0 1388.5,-0 1388.5,-0 1394.5,-0 1400.5,-6 1400.5,-12 1400.5,-12 1400.5,-56 1400.5,-56 1400.5,-62 1394.5,-68 1388.5,-68"/>
<text text-anchor="start" x="1184" y="-52.8" font-family="Helvetica,sans-Serif" font-size="14.00">entropy = 2.327</text>
<text text-anchor="start" x="1186.5" y="-37.8" font-family="Helvetica,sans-Serif" font-size="14.00">samples = 387</text>
<text text-anchor="start" x="1070.5" y="-22.8" font-family="Helvetica,sans-Serif" font-size="14.00">value = [15, 3, 3, 1, 0, 1, 1, 0, 0, 0, 0, 0, 0, 0, 0, 0, 0, 0</text>
<text text-anchor="start" x="1158" y="-7.8" font-family="Helvetica,sans-Serif" font-size="14.00">0, 1, 12, 95, 143, 81, 31]</text>
</g>
<!-- 5&#45;&gt;7 -->
<g id="edge7" class="edge"><title>5&#45;&gt;7</title>
<path fill="none" stroke="black" d="M1114.5,-103.882C1131.57,-93.8269 1149.81,-83.0892 1166.69,-73.1563"/>
<polygon fill="black" stroke="black" points="1168.53,-76.1328 1175.37,-68.0433 1164.98,-70.1005 1168.53,-76.1328"/>
</g>
<!-- 9 -->
<g id="node10" class="node"><title>9</title>
<path fill="#e55639" fill-opacity="0.043137" stroke="black" d="M1948.5,-187C1948.5,-187 1596.5,-187 1596.5,-187 1590.5,-187 1584.5,-181 1584.5,-175 1584.5,-175 1584.5,-116 1584.5,-116 1584.5,-110 1590.5,-104 1596.5,-104 1596.5,-104 1948.5,-104 1948.5,-104 1954.5,-104 1960.5,-110 1960.5,-116 1960.5,-116 1960.5,-175 1960.5,-175 1960.5,-181 1954.5,-187 1948.5,-187"/>
<text text-anchor="start" x="1728.5" y="-171.8" font-family="Helvetica,sans-Serif" font-size="14.00">Shucked ≤ 0.4</text>
<text text-anchor="start" x="1725" y="-156.8" font-family="Helvetica,sans-Serif" font-size="14.00">entropy = 3.062</text>
<text text-anchor="start" x="1724" y="-141.8" font-family="Helvetica,sans-Serif" font-size="14.00">samples = 1121</text>
<text text-anchor="start" x="1592.5" y="-126.8" font-family="Helvetica,sans-Serif" font-size="14.00">value = [197, 125, 64, 52, 36, 27, 13, 11, 8, 6, 0, 2, 3, 2, 2, 0</text>
<text text-anchor="start" x="1684" y="-111.8" font-family="Helvetica,sans-Serif" font-size="14.00">0, 0, 0, 0, 0, 10, 51, 237, 275]</text>
</g>
<!-- 8&#45;&gt;9 -->
<g id="edge9" class="edge"><title>8&#45;&gt;9</title>
<path fill="none" stroke="black" d="M1772.5,-222.907C1772.5,-214.649 1772.5,-205.864 1772.5,-197.302"/>
<polygon fill="black" stroke="black" points="1776,-197.021 1772.5,-187.021 1769,-197.021 1776,-197.021"/>
</g>
<!-- 12 -->
<g id="node13" class="node"><title>12</title>
<path fill="#e5a939" fill-opacity="0.003922" stroke="black" d="M2529,-187C2529,-187 2162,-187 2162,-187 2156,-187 2150,-181 2150,-175 2150,-175 2150,-116 2150,-116 2150,-110 2156,-104 2162,-104 2162,-104 2529,-104 2529,-104 2535,-104 2541,-110 2541,-116 2541,-116 2541,-175 2541,-175 2541,-181 2535,-187 2529,-187"/>
<text text-anchor="start" x="2294" y="-171.8" font-family="Helvetica,sans-Serif" font-size="14.00">Shucked ≤ 0.445</text>
<text text-anchor="start" x="2298" y="-156.8" font-family="Helvetica,sans-Serif" font-size="14.00">entropy = 3.296</text>
<text text-anchor="start" x="2300.5" y="-141.8" font-family="Helvetica,sans-Serif" font-size="14.00">samples = 993</text>
<text text-anchor="start" x="2158" y="-126.8" font-family="Helvetica,sans-Serif" font-size="14.00">value = [205, 209, 112, 78, 51, 45, 30, 24, 25, 18, 0, 11, 7, 3, 3</text>
<text text-anchor="start" x="2261" y="-111.8" font-family="Helvetica,sans-Serif" font-size="14.00">1, 1, 2, 0, 0, 0, 2, 1, 23, 142]</text>
</g>
<!-- 8&#45;&gt;12 -->
<g id="edge12" class="edge"><title>8&#45;&gt;12</title>
<path fill="none" stroke="black" d="M1968.09,-223.562C2023.45,-212.259 2083.86,-199.924 2139.79,-188.503"/>
<polygon fill="black" stroke="black" points="2140.72,-191.886 2149.82,-186.456 2139.32,-185.027 2140.72,-191.886"/>
</g>
<!-- 10 -->
<g id="node11" class="node"><title>10</title>
<path fill="#e55639" fill-opacity="0.011765" stroke="black" d="M1774.5,-68C1774.5,-68 1430.5,-68 1430.5,-68 1424.5,-68 1418.5,-62 1418.5,-56 1418.5,-56 1418.5,-12 1418.5,-12 1418.5,-6 1424.5,-0 1430.5,-0 1430.5,-0 1774.5,-0 1774.5,-0 1780.5,-0 1786.5,-6 1786.5,-12 1786.5,-12 1786.5,-56 1786.5,-56 1786.5,-62 1780.5,-68 1774.5,-68"/>
<text text-anchor="start" x="1558.5" y="-52.8" font-family="Helvetica,sans-Serif" font-size="14.00">entropy = 3.23</text>
<text text-anchor="start" x="1557.5" y="-37.8" font-family="Helvetica,sans-Serif" font-size="14.00">samples = 810</text>
<text text-anchor="start" x="1426.5" y="-22.8" font-family="Helvetica,sans-Serif" font-size="14.00">value = [129, 95, 59, 50, 31, 23, 12, 11, 8, 6, 0, 2, 3, 2, 2, 0</text>
<text text-anchor="start" x="1518" y="-7.8" font-family="Helvetica,sans-Serif" font-size="14.00">0, 0, 0, 0, 0, 9, 36, 162, 170]</text>
</g>
<!-- 9&#45;&gt;10 -->
<g id="edge10" class="edge"><title>9&#45;&gt;10</title>
<path fill="none" stroke="black" d="M1709.2,-103.726C1693.97,-93.9161 1677.74,-83.4644 1662.66,-73.7496"/>
<polygon fill="black" stroke="black" points="1664.23,-70.5979 1653.93,-68.1252 1660.44,-76.4828 1664.23,-70.5979"/>
</g>
<!-- 11 -->
<g id="node12" class="node"><title>11</title>
<path fill="#e55639" fill-opacity="0.125490" stroke="black" d="M2138.5,-68C2138.5,-68 1816.5,-68 1816.5,-68 1810.5,-68 1804.5,-62 1804.5,-56 1804.5,-56 1804.5,-12 1804.5,-12 1804.5,-6 1810.5,-0 1816.5,-0 1816.5,-0 2138.5,-0 2138.5,-0 2144.5,-0 2150.5,-6 2150.5,-12 2150.5,-12 2150.5,-56 2150.5,-56 2150.5,-62 2144.5,-68 2138.5,-68"/>
<text text-anchor="start" x="1930" y="-52.8" font-family="Helvetica,sans-Serif" font-size="14.00">entropy = 2.412</text>
<text text-anchor="start" x="1932.5" y="-37.8" font-family="Helvetica,sans-Serif" font-size="14.00">samples = 311</text>
<text text-anchor="start" x="1812.5" y="-22.8" font-family="Helvetica,sans-Serif" font-size="14.00">value = [68, 30, 5, 2, 5, 4, 1, 0, 0, 0, 0, 0, 0, 0, 0, 0, 0, 0</text>
<text text-anchor="start" x="1911.5" y="-7.8" font-family="Helvetica,sans-Serif" font-size="14.00">0, 0, 0, 1, 15, 75, 105]</text>
</g>
<!-- 9&#45;&gt;11 -->
<g id="edge11" class="edge"><title>9&#45;&gt;11</title>
<path fill="none" stroke="black" d="M1848.54,-103.882C1867.54,-93.7346 1887.84,-82.8922 1906.58,-72.8832"/>
<polygon fill="black" stroke="black" points="1908.47,-75.842 1915.64,-68.0433 1905.17,-69.6676 1908.47,-75.842"/>
</g>
<!-- 13 -->
<g id="node14" class="node"><title>13</title>
<path fill="#e58139" fill-opacity="0.035294" stroke="black" d="M2510,-68C2510,-68 2181,-68 2181,-68 2175,-68 2169,-62 2169,-56 2169,-56 2169,-12 2169,-12 2169,-6 2175,-0 2181,-0 2181,-0 2510,-0 2510,-0 2516,-0 2522,-6 2522,-12 2522,-12 2522,-56 2522,-56 2522,-62 2516,-68 2510,-68"/>
<text text-anchor="start" x="2298" y="-52.8" font-family="Helvetica,sans-Serif" font-size="14.00">entropy = 3.744</text>
<text text-anchor="start" x="2300.5" y="-37.8" font-family="Helvetica,sans-Serif" font-size="14.00">samples = 199</text>
<text text-anchor="start" x="2177" y="-22.8" font-family="Helvetica,sans-Serif" font-size="14.00">value = [27, 18, 19, 21, 19, 19, 16, 9, 8, 8, 0, 6, 2, 0, 3, 0</text>
<text text-anchor="start" x="2276" y="-7.8" font-family="Helvetica,sans-Serif" font-size="14.00">1, 1, 0, 0, 0, 2, 0, 4, 16]</text>
</g>
<!-- 12&#45;&gt;13 -->
<g id="edge13" class="edge"><title>12&#45;&gt;13</title>
<path fill="none" stroke="black" d="M2345.5,-103.726C2345.5,-95.5175 2345.5,-86.8595 2345.5,-78.56"/>
<polygon fill="black" stroke="black" points="2349,-78.2996 2345.5,-68.2996 2342,-78.2996 2349,-78.2996"/>
</g>
<!-- 14 -->
<g id="node15" class="node"><title>14</title>
<path fill="#e5a939" fill-opacity="0.019608" stroke="black" d="M2904.5,-68C2904.5,-68 2552.5,-68 2552.5,-68 2546.5,-68 2540.5,-62 2540.5,-56 2540.5,-56 2540.5,-12 2540.5,-12 2540.5,-6 2546.5,-0 2552.5,-0 2552.5,-0 2904.5,-0 2904.5,-0 2910.5,-0 2916.5,-6 2916.5,-12 2916.5,-12 2916.5,-56 2916.5,-56 2916.5,-62 2910.5,-68 2904.5,-68"/>
<text text-anchor="start" x="2684.5" y="-52.8" font-family="Helvetica,sans-Serif" font-size="14.00">entropy = 3.08</text>
<text text-anchor="start" x="2683.5" y="-37.8" font-family="Helvetica,sans-Serif" font-size="14.00">samples = 794</text>
<text text-anchor="start" x="2548.5" y="-22.8" font-family="Helvetica,sans-Serif" font-size="14.00">value = [178, 191, 93, 57, 32, 26, 14, 15, 17, 10, 0, 5, 5, 3, 0</text>
<text text-anchor="start" x="2644" y="-7.8" font-family="Helvetica,sans-Serif" font-size="14.00">1, 0, 1, 0, 0, 0, 0, 1, 19, 126]</text>
</g>
<!-- 12&#45;&gt;14 -->
<g id="edge14" class="edge"><title>12&#45;&gt;14</title>
<path fill="none" stroke="black" d="M2487.3,-103.96C2525.33,-93.0874 2566.16,-81.412 2603.23,-70.8157"/>
<polygon fill="black" stroke="black" points="2604.42,-74.1163 2613.07,-68.0022 2602.49,-67.3859 2604.42,-74.1163"/>
</g>
</g>
</svg>
