<?xml version="1.0" encoding="UTF-8" standalone="no"?>
<!DOCTYPE svg PUBLIC "-//W3C//DTD SVG 1.1//EN"
 "http://www.w3.org/Graphics/SVG/1.1/DTD/svg11.dtd">
<!-- Generated by graphviz version 2.38.0 (20140413.2041)
 -->
<!-- Title: Tree Pages: 1 -->
<svg width="2024pt" height="1101pt"
 viewBox="0.00 0.00 2024.00 1101.00" xmlns="http://www.w3.org/2000/svg" xmlns:xlink="http://www.w3.org/1999/xlink">
<g id="graph0" class="graph" transform="scale(1 1) rotate(0) translate(4 1097)">
<title>Tree</title>
<polygon fill="white" stroke="none" points="-4,4 -4,-1097 2020,-1097 2020,4 -4,4"/>
<!-- 0 -->
<g id="node1" class="node"><title>0</title>
<path fill="#399de5" fill-opacity="0.274510" stroke="black" d="M1241.5,-1093C1241.5,-1093 1140.5,-1093 1140.5,-1093 1134.5,-1093 1128.5,-1087 1128.5,-1081 1128.5,-1081 1128.5,-1037 1128.5,-1037 1128.5,-1031 1134.5,-1025 1140.5,-1025 1140.5,-1025 1241.5,-1025 1241.5,-1025 1247.5,-1025 1253.5,-1031 1253.5,-1037 1253.5,-1037 1253.5,-1081 1253.5,-1081 1253.5,-1087 1247.5,-1093 1241.5,-1093"/>
<text text-anchor="start" x="1159.5" y="-1077.8" font-family="Helvetica,sans-Serif" font-size="14.00">A9_t ≤ 0.5</text>
<text text-anchor="start" x="1143.5" y="-1062.8" font-family="Helvetica,sans-Serif" font-size="14.00">entropy = 0.981</text>
<text text-anchor="start" x="1146" y="-1047.8" font-family="Helvetica,sans-Serif" font-size="14.00">samples = 343</text>
<text text-anchor="start" x="1136.5" y="-1032.8" font-family="Helvetica,sans-Serif" font-size="14.00">value = [144, 199]</text>
</g>
<!-- 1 -->
<g id="node2" class="node"><title>1</title>
<path fill="#399de5" fill-opacity="0.937255" stroke="black" d="M1150.5,-989C1150.5,-989 1057.5,-989 1057.5,-989 1051.5,-989 1045.5,-983 1045.5,-977 1045.5,-977 1045.5,-933 1045.5,-933 1045.5,-927 1051.5,-921 1057.5,-921 1057.5,-921 1150.5,-921 1150.5,-921 1156.5,-921 1162.5,-927 1162.5,-933 1162.5,-933 1162.5,-977 1162.5,-977 1162.5,-983 1156.5,-989 1150.5,-989"/>
<text text-anchor="start" x="1073" y="-973.8" font-family="Helvetica,sans-Serif" font-size="14.00">A4_l ≤ 0.5</text>
<text text-anchor="start" x="1056.5" y="-958.8" font-family="Helvetica,sans-Serif" font-size="14.00">entropy = 0.324</text>
<text text-anchor="start" x="1059" y="-943.8" font-family="Helvetica,sans-Serif" font-size="14.00">samples = 169</text>
<text text-anchor="start" x="1053.5" y="-928.8" font-family="Helvetica,sans-Serif" font-size="14.00">value = [10, 159]</text>
</g>
<!-- 0&#45;&gt;1 -->
<g id="edge1" class="edge"><title>0&#45;&gt;1</title>
<path fill="none" stroke="black" d="M1162.75,-1024.88C1155.16,-1015.98 1146.85,-1006.24 1138.93,-996.957"/>
<polygon fill="black" stroke="black" points="1141.55,-994.636 1132.4,-989.299 1136.23,-999.179 1141.55,-994.636"/>
<text text-anchor="middle" x="1130.42" y="-1010.52" font-family="Helvetica,sans-Serif" font-size="14.00">True</text>
</g>
<!-- 28 -->
<g id="node29" class="node"><title>28</title>
<path fill="#e58139" fill-opacity="0.701961" stroke="black" d="M1325.5,-989C1325.5,-989 1232.5,-989 1232.5,-989 1226.5,-989 1220.5,-983 1220.5,-977 1220.5,-977 1220.5,-933 1220.5,-933 1220.5,-927 1226.5,-921 1232.5,-921 1232.5,-921 1325.5,-921 1325.5,-921 1331.5,-921 1337.5,-927 1337.5,-933 1337.5,-933 1337.5,-977 1337.5,-977 1337.5,-983 1331.5,-989 1325.5,-989"/>
<text text-anchor="start" x="1242" y="-973.8" font-family="Helvetica,sans-Serif" font-size="14.00">A15 ≤ 235.0</text>
<text text-anchor="start" x="1231.5" y="-958.8" font-family="Helvetica,sans-Serif" font-size="14.00">entropy = 0.778</text>
<text text-anchor="start" x="1234" y="-943.8" font-family="Helvetica,sans-Serif" font-size="14.00">samples = 174</text>
<text text-anchor="start" x="1228.5" y="-928.8" font-family="Helvetica,sans-Serif" font-size="14.00">value = [134, 40]</text>
</g>
<!-- 0&#45;&gt;28 -->
<g id="edge28" class="edge"><title>0&#45;&gt;28</title>
<path fill="none" stroke="black" d="M1219.57,-1024.88C1227.26,-1015.98 1235.66,-1006.24 1243.66,-996.957"/>
<polygon fill="black" stroke="black" points="1246.39,-999.157 1250.27,-989.299 1241.09,-994.585 1246.39,-999.157"/>
<text text-anchor="middle" x="1252.11" y="-1010.53" font-family="Helvetica,sans-Serif" font-size="14.00">False</text>
</g>
<!-- 2 -->
<g id="node3" class="node"><title>2</title>
<path fill="#399de5" fill-opacity="0.949020" stroke="black" d="M976.5,-885C976.5,-885 889.5,-885 889.5,-885 883.5,-885 877.5,-879 877.5,-873 877.5,-873 877.5,-829 877.5,-829 877.5,-823 883.5,-817 889.5,-817 889.5,-817 976.5,-817 976.5,-817 982.5,-817 988.5,-823 988.5,-829 988.5,-829 988.5,-873 988.5,-873 988.5,-879 982.5,-885 976.5,-885"/>
<text text-anchor="start" x="896" y="-869.8" font-family="Helvetica,sans-Serif" font-size="14.00">A14 ≤ 421.0</text>
<text text-anchor="start" x="885.5" y="-854.8" font-family="Helvetica,sans-Serif" font-size="14.00">entropy = 0.277</text>
<text text-anchor="start" x="888" y="-839.8" font-family="Helvetica,sans-Serif" font-size="14.00">samples = 167</text>
<text text-anchor="start" x="886" y="-824.8" font-family="Helvetica,sans-Serif" font-size="14.00">value = [8, 159]</text>
</g>
<!-- 1&#45;&gt;2 -->
<g id="edge2" class="edge"><title>1&#45;&gt;2</title>
<path fill="none" stroke="black" d="M1048.48,-920.884C1032.12,-911.125 1014.08,-900.366 997.226,-890.31"/>
<polygon fill="black" stroke="black" points="998.914,-887.242 988.533,-885.125 995.328,-893.253 998.914,-887.242"/>
</g>
<!-- 27 -->
<g id="node28" class="node"><title>27</title>
<path fill="#e58139" stroke="black" d="M1140,-877.5C1140,-877.5 1068,-877.5 1068,-877.5 1062,-877.5 1056,-871.5 1056,-865.5 1056,-865.5 1056,-836.5 1056,-836.5 1056,-830.5 1062,-824.5 1068,-824.5 1068,-824.5 1140,-824.5 1140,-824.5 1146,-824.5 1152,-830.5 1152,-836.5 1152,-836.5 1152,-865.5 1152,-865.5 1152,-871.5 1146,-877.5 1140,-877.5"/>
<text text-anchor="start" x="1064" y="-862.3" font-family="Helvetica,sans-Serif" font-size="14.00">entropy = 0.0</text>
<text text-anchor="start" x="1066.5" y="-847.3" font-family="Helvetica,sans-Serif" font-size="14.00">samples = 2</text>
<text text-anchor="start" x="1064.5" y="-832.3" font-family="Helvetica,sans-Serif" font-size="14.00">value = [2, 0]</text>
</g>
<!-- 1&#45;&gt;27 -->
<g id="edge27" class="edge"><title>1&#45;&gt;27</title>
<path fill="none" stroke="black" d="M1104,-920.884C1104,-910.326 1104,-898.597 1104,-887.854"/>
<polygon fill="black" stroke="black" points="1107.5,-887.52 1104,-877.52 1100.5,-887.52 1107.5,-887.52"/>
</g>
<!-- 3 -->
<g id="node4" class="node"><title>3</title>
<path fill="#399de5" fill-opacity="0.968627" stroke="black" d="M577.5,-781C577.5,-781 490.5,-781 490.5,-781 484.5,-781 478.5,-775 478.5,-769 478.5,-769 478.5,-725 478.5,-725 478.5,-719 484.5,-713 490.5,-713 490.5,-713 577.5,-713 577.5,-713 583.5,-713 589.5,-719 589.5,-725 589.5,-725 589.5,-769 589.5,-769 589.5,-775 583.5,-781 577.5,-781"/>
<text text-anchor="start" x="500.5" y="-765.8" font-family="Helvetica,sans-Serif" font-size="14.00">A2 ≤ 37.54</text>
<text text-anchor="start" x="486.5" y="-750.8" font-family="Helvetica,sans-Serif" font-size="14.00">entropy = 0.204</text>
<text text-anchor="start" x="489" y="-735.8" font-family="Helvetica,sans-Serif" font-size="14.00">samples = 157</text>
<text text-anchor="start" x="487" y="-720.8" font-family="Helvetica,sans-Serif" font-size="14.00">value = [5, 152]</text>
</g>
<!-- 2&#45;&gt;3 -->
<g id="edge3" class="edge"><title>2&#45;&gt;3</title>
<path fill="none" stroke="black" d="M877.101,-835.71C804.234,-817.082 676.997,-784.556 599.631,-764.778"/>
<polygon fill="black" stroke="black" points="600.076,-761.279 589.521,-762.193 598.343,-768.061 600.076,-761.279"/>
</g>
<!-- 20 -->
<g id="node21" class="node"><title>20</title>
<path fill="#399de5" fill-opacity="0.572549" stroke="black" d="M976.5,-781C976.5,-781 889.5,-781 889.5,-781 883.5,-781 877.5,-775 877.5,-769 877.5,-769 877.5,-725 877.5,-725 877.5,-719 883.5,-713 889.5,-713 889.5,-713 976.5,-713 976.5,-713 982.5,-713 988.5,-719 988.5,-725 988.5,-725 988.5,-769 988.5,-769 988.5,-775 982.5,-781 976.5,-781"/>
<text text-anchor="start" x="898" y="-765.8" font-family="Helvetica,sans-Serif" font-size="14.00">A12_f ≤ 0.5</text>
<text text-anchor="start" x="885.5" y="-750.8" font-family="Helvetica,sans-Serif" font-size="14.00">entropy = 0.881</text>
<text text-anchor="start" x="892" y="-735.8" font-family="Helvetica,sans-Serif" font-size="14.00">samples = 10</text>
<text text-anchor="start" x="893.5" y="-720.8" font-family="Helvetica,sans-Serif" font-size="14.00">value = [3, 7]</text>
</g>
<!-- 2&#45;&gt;20 -->
<g id="edge20" class="edge"><title>2&#45;&gt;20</title>
<path fill="none" stroke="black" d="M933,-816.884C933,-808.778 933,-799.982 933,-791.472"/>
<polygon fill="black" stroke="black" points="936.5,-791.299 933,-781.299 929.5,-791.299 936.5,-791.299"/>
</g>
<!-- 4 -->
<g id="node5" class="node"><title>4</title>
<path fill="#399de5" fill-opacity="0.984314" stroke="black" d="M384.5,-677C384.5,-677 297.5,-677 297.5,-677 291.5,-677 285.5,-671 285.5,-665 285.5,-665 285.5,-621 285.5,-621 285.5,-615 291.5,-609 297.5,-609 297.5,-609 384.5,-609 384.5,-609 390.5,-609 396.5,-615 396.5,-621 396.5,-621 396.5,-665 396.5,-665 396.5,-671 390.5,-677 384.5,-677"/>
<text text-anchor="start" x="307.5" y="-661.8" font-family="Helvetica,sans-Serif" font-size="14.00">A7_n ≤ 0.5</text>
<text text-anchor="start" x="293.5" y="-646.8" font-family="Helvetica,sans-Serif" font-size="14.00">entropy = 0.111</text>
<text text-anchor="start" x="296" y="-631.8" font-family="Helvetica,sans-Serif" font-size="14.00">samples = 135</text>
<text text-anchor="start" x="294" y="-616.8" font-family="Helvetica,sans-Serif" font-size="14.00">value = [2, 133]</text>
</g>
<!-- 3&#45;&gt;4 -->
<g id="edge4" class="edge"><title>3&#45;&gt;4</title>
<path fill="none" stroke="black" d="M478.435,-716.634C455.625,-704.579 429.07,-690.545 405.416,-678.044"/>
<polygon fill="black" stroke="black" points="406.983,-674.913 396.507,-673.335 403.712,-681.102 406.983,-674.913"/>
</g>
<!-- 13 -->
<g id="node14" class="node"><title>13</title>
<path fill="#399de5" fill-opacity="0.843137" stroke="black" d="M577.5,-677C577.5,-677 490.5,-677 490.5,-677 484.5,-677 478.5,-671 478.5,-665 478.5,-665 478.5,-621 478.5,-621 478.5,-615 484.5,-609 490.5,-609 490.5,-609 577.5,-609 577.5,-609 583.5,-609 589.5,-615 589.5,-621 589.5,-621 589.5,-665 589.5,-665 589.5,-671 583.5,-677 577.5,-677"/>
<text text-anchor="start" x="497" y="-661.8" font-family="Helvetica,sans-Serif" font-size="14.00">A2 ≤ 37.915</text>
<text text-anchor="start" x="486.5" y="-646.8" font-family="Helvetica,sans-Serif" font-size="14.00">entropy = 0.575</text>
<text text-anchor="start" x="493" y="-631.8" font-family="Helvetica,sans-Serif" font-size="14.00">samples = 22</text>
<text text-anchor="start" x="491" y="-616.8" font-family="Helvetica,sans-Serif" font-size="14.00">value = [3, 19]</text>
</g>
<!-- 3&#45;&gt;13 -->
<g id="edge13" class="edge"><title>3&#45;&gt;13</title>
<path fill="none" stroke="black" d="M534,-712.884C534,-704.778 534,-695.982 534,-687.472"/>
<polygon fill="black" stroke="black" points="537.5,-687.299 534,-677.299 530.5,-687.299 537.5,-687.299"/>
</g>
<!-- 5 -->
<g id="node6" class="node"><title>5</title>
<path fill="#399de5" fill-opacity="0.992157" stroke="black" d="M227.5,-573C227.5,-573 140.5,-573 140.5,-573 134.5,-573 128.5,-567 128.5,-561 128.5,-561 128.5,-517 128.5,-517 128.5,-511 134.5,-505 140.5,-505 140.5,-505 227.5,-505 227.5,-505 233.5,-505 239.5,-511 239.5,-517 239.5,-517 239.5,-561 239.5,-561 239.5,-567 233.5,-573 227.5,-573"/>
<text text-anchor="start" x="151" y="-557.8" font-family="Helvetica,sans-Serif" font-size="14.00">A6_x ≤ 0.5</text>
<text text-anchor="start" x="136.5" y="-542.8" font-family="Helvetica,sans-Serif" font-size="14.00">entropy = 0.064</text>
<text text-anchor="start" x="139" y="-527.8" font-family="Helvetica,sans-Serif" font-size="14.00">samples = 133</text>
<text text-anchor="start" x="137" y="-512.8" font-family="Helvetica,sans-Serif" font-size="14.00">value = [1, 132]</text>
</g>
<!-- 4&#45;&gt;5 -->
<g id="edge5" class="edge"><title>4&#45;&gt;5</title>
<path fill="none" stroke="black" d="M290.027,-608.884C275.144,-599.214 258.75,-588.563 243.394,-578.587"/>
<polygon fill="black" stroke="black" points="245.279,-575.638 234.986,-573.125 241.465,-581.508 245.279,-575.638"/>
</g>
<!-- 10 -->
<g id="node11" class="node"><title>10</title>
<path fill="none" stroke="black" d="M377,-573C377,-573 305,-573 305,-573 299,-573 293,-567 293,-561 293,-561 293,-517 293,-517 293,-511 299,-505 305,-505 305,-505 377,-505 377,-505 383,-505 389,-511 389,-517 389,-517 389,-561 389,-561 389,-567 383,-573 377,-573"/>
<text text-anchor="start" x="311.5" y="-557.8" font-family="Helvetica,sans-Serif" font-size="14.00">A8 ≤ 0.48</text>
<text text-anchor="start" x="301" y="-542.8" font-family="Helvetica,sans-Serif" font-size="14.00">entropy = 1.0</text>
<text text-anchor="start" x="303.5" y="-527.8" font-family="Helvetica,sans-Serif" font-size="14.00">samples = 2</text>
<text text-anchor="start" x="301.5" y="-512.8" font-family="Helvetica,sans-Serif" font-size="14.00">value = [1, 1]</text>
</g>
<!-- 4&#45;&gt;10 -->
<g id="edge10" class="edge"><title>4&#45;&gt;10</title>
<path fill="none" stroke="black" d="M341,-608.884C341,-600.778 341,-591.982 341,-583.472"/>
<polygon fill="black" stroke="black" points="344.5,-583.299 341,-573.299 337.5,-583.299 344.5,-583.299"/>
</g>
<!-- 6 -->
<g id="node7" class="node"><title>6</title>
<path fill="#399de5" stroke="black" d="M98,-461.5C98,-461.5 12,-461.5 12,-461.5 6,-461.5 0,-455.5 0,-449.5 0,-449.5 0,-420.5 0,-420.5 0,-414.5 6,-408.5 12,-408.5 12,-408.5 98,-408.5 98,-408.5 104,-408.5 110,-414.5 110,-420.5 110,-420.5 110,-449.5 110,-449.5 110,-455.5 104,-461.5 98,-461.5"/>
<text text-anchor="start" x="15" y="-446.3" font-family="Helvetica,sans-Serif" font-size="14.00">entropy = 0.0</text>
<text text-anchor="start" x="10" y="-431.3" font-family="Helvetica,sans-Serif" font-size="14.00">samples = 130</text>
<text text-anchor="start" x="8" y="-416.3" font-family="Helvetica,sans-Serif" font-size="14.00">value = [0, 130]</text>
</g>
<!-- 5&#45;&gt;6 -->
<g id="edge6" class="edge"><title>5&#45;&gt;6</title>
<path fill="none" stroke="black" d="M142.117,-504.884C127.096,-493.006 110.2,-479.646 95.3138,-467.876"/>
<polygon fill="black" stroke="black" points="97.2902,-464.977 87.2752,-461.52 92.9485,-470.468 97.2902,-464.977"/>
</g>
<!-- 7 -->
<g id="node8" class="node"><title>7</title>
<path fill="#399de5" fill-opacity="0.498039" stroke="black" d="M227.5,-469C227.5,-469 140.5,-469 140.5,-469 134.5,-469 128.5,-463 128.5,-457 128.5,-457 128.5,-413 128.5,-413 128.5,-407 134.5,-401 140.5,-401 140.5,-401 227.5,-401 227.5,-401 233.5,-401 239.5,-407 239.5,-413 239.5,-413 239.5,-457 239.5,-457 239.5,-463 233.5,-469 227.5,-469"/>
<text text-anchor="start" x="147" y="-453.8" font-family="Helvetica,sans-Serif" font-size="14.00">A14 ≤ 159.0</text>
<text text-anchor="start" x="136.5" y="-438.8" font-family="Helvetica,sans-Serif" font-size="14.00">entropy = 0.918</text>
<text text-anchor="start" x="146.5" y="-423.8" font-family="Helvetica,sans-Serif" font-size="14.00">samples = 3</text>
<text text-anchor="start" x="144.5" y="-408.8" font-family="Helvetica,sans-Serif" font-size="14.00">value = [1, 2]</text>
</g>
<!-- 5&#45;&gt;7 -->
<g id="edge7" class="edge"><title>5&#45;&gt;7</title>
<path fill="none" stroke="black" d="M184,-504.884C184,-496.778 184,-487.982 184,-479.472"/>
<polygon fill="black" stroke="black" points="187.5,-479.299 184,-469.299 180.5,-479.299 187.5,-479.299"/>
</g>
<!-- 8 -->
<g id="node9" class="node"><title>8</title>
<path fill="#399de5" stroke="black" d="M163,-357.5C163,-357.5 91,-357.5 91,-357.5 85,-357.5 79,-351.5 79,-345.5 79,-345.5 79,-316.5 79,-316.5 79,-310.5 85,-304.5 91,-304.5 91,-304.5 163,-304.5 163,-304.5 169,-304.5 175,-310.5 175,-316.5 175,-316.5 175,-345.5 175,-345.5 175,-351.5 169,-357.5 163,-357.5"/>
<text text-anchor="start" x="87" y="-342.3" font-family="Helvetica,sans-Serif" font-size="14.00">entropy = 0.0</text>
<text text-anchor="start" x="89.5" y="-327.3" font-family="Helvetica,sans-Serif" font-size="14.00">samples = 2</text>
<text text-anchor="start" x="87.5" y="-312.3" font-family="Helvetica,sans-Serif" font-size="14.00">value = [0, 2]</text>
</g>
<!-- 7&#45;&gt;8 -->
<g id="edge8" class="edge"><title>7&#45;&gt;8</title>
<path fill="none" stroke="black" d="M165.494,-400.884C159.348,-389.886 152.492,-377.617 146.289,-366.517"/>
<polygon fill="black" stroke="black" points="149.195,-364.542 141.261,-357.52 143.084,-367.957 149.195,-364.542"/>
</g>
<!-- 9 -->
<g id="node10" class="node"><title>9</title>
<path fill="#e58139" stroke="black" d="M277,-357.5C277,-357.5 205,-357.5 205,-357.5 199,-357.5 193,-351.5 193,-345.5 193,-345.5 193,-316.5 193,-316.5 193,-310.5 199,-304.5 205,-304.5 205,-304.5 277,-304.5 277,-304.5 283,-304.5 289,-310.5 289,-316.5 289,-316.5 289,-345.5 289,-345.5 289,-351.5 283,-357.5 277,-357.5"/>
<text text-anchor="start" x="201" y="-342.3" font-family="Helvetica,sans-Serif" font-size="14.00">entropy = 0.0</text>
<text text-anchor="start" x="203.5" y="-327.3" font-family="Helvetica,sans-Serif" font-size="14.00">samples = 1</text>
<text text-anchor="start" x="201.5" y="-312.3" font-family="Helvetica,sans-Serif" font-size="14.00">value = [1, 0]</text>
</g>
<!-- 7&#45;&gt;9 -->
<g id="edge9" class="edge"><title>7&#45;&gt;9</title>
<path fill="none" stroke="black" d="M202.506,-400.884C208.652,-389.886 215.508,-377.617 221.711,-366.517"/>
<polygon fill="black" stroke="black" points="224.916,-367.957 226.739,-357.52 218.805,-364.542 224.916,-367.957"/>
</g>
<!-- 11 -->
<g id="node12" class="node"><title>11</title>
<path fill="#e58139" stroke="black" d="M342,-461.5C342,-461.5 270,-461.5 270,-461.5 264,-461.5 258,-455.5 258,-449.5 258,-449.5 258,-420.5 258,-420.5 258,-414.5 264,-408.5 270,-408.5 270,-408.5 342,-408.5 342,-408.5 348,-408.5 354,-414.5 354,-420.5 354,-420.5 354,-449.5 354,-449.5 354,-455.5 348,-461.5 342,-461.5"/>
<text text-anchor="start" x="266" y="-446.3" font-family="Helvetica,sans-Serif" font-size="14.00">entropy = 0.0</text>
<text text-anchor="start" x="268.5" y="-431.3" font-family="Helvetica,sans-Serif" font-size="14.00">samples = 1</text>
<text text-anchor="start" x="266.5" y="-416.3" font-family="Helvetica,sans-Serif" font-size="14.00">value = [1, 0]</text>
</g>
<!-- 10&#45;&gt;11 -->
<g id="edge11" class="edge"><title>10&#45;&gt;11</title>
<path fill="none" stroke="black" d="M329.637,-504.884C325.938,-494.106 321.821,-482.108 318.073,-471.184"/>
<polygon fill="black" stroke="black" points="321.313,-469.843 314.757,-461.52 314.692,-472.115 321.313,-469.843"/>
</g>
<!-- 12 -->
<g id="node13" class="node"><title>12</title>
<path fill="#399de5" stroke="black" d="M456,-461.5C456,-461.5 384,-461.5 384,-461.5 378,-461.5 372,-455.5 372,-449.5 372,-449.5 372,-420.5 372,-420.5 372,-414.5 378,-408.5 384,-408.5 384,-408.5 456,-408.5 456,-408.5 462,-408.5 468,-414.5 468,-420.5 468,-420.5 468,-449.5 468,-449.5 468,-455.5 462,-461.5 456,-461.5"/>
<text text-anchor="start" x="380" y="-446.3" font-family="Helvetica,sans-Serif" font-size="14.00">entropy = 0.0</text>
<text text-anchor="start" x="382.5" y="-431.3" font-family="Helvetica,sans-Serif" font-size="14.00">samples = 1</text>
<text text-anchor="start" x="380.5" y="-416.3" font-family="Helvetica,sans-Serif" font-size="14.00">value = [0, 1]</text>
</g>
<!-- 10&#45;&gt;12 -->
<g id="edge12" class="edge"><title>10&#45;&gt;12</title>
<path fill="none" stroke="black" d="M366.649,-504.884C375.423,-493.556 385.24,-480.88 394.038,-469.521"/>
<polygon fill="black" stroke="black" points="396.878,-471.569 400.235,-461.52 391.344,-467.283 396.878,-471.569"/>
</g>
<!-- 14 -->
<g id="node15" class="node"><title>14</title>
<path fill="#e58139" stroke="black" d="M509,-565.5C509,-565.5 437,-565.5 437,-565.5 431,-565.5 425,-559.5 425,-553.5 425,-553.5 425,-524.5 425,-524.5 425,-518.5 431,-512.5 437,-512.5 437,-512.5 509,-512.5 509,-512.5 515,-512.5 521,-518.5 521,-524.5 521,-524.5 521,-553.5 521,-553.5 521,-559.5 515,-565.5 509,-565.5"/>
<text text-anchor="start" x="433" y="-550.3" font-family="Helvetica,sans-Serif" font-size="14.00">entropy = 0.0</text>
<text text-anchor="start" x="435.5" y="-535.3" font-family="Helvetica,sans-Serif" font-size="14.00">samples = 1</text>
<text text-anchor="start" x="433.5" y="-520.3" font-family="Helvetica,sans-Serif" font-size="14.00">value = [1, 0]</text>
</g>
<!-- 13&#45;&gt;14 -->
<g id="edge14" class="edge"><title>13&#45;&gt;14</title>
<path fill="none" stroke="black" d="M514.195,-608.884C507.552,-597.776 500.134,-585.372 493.443,-574.184"/>
<polygon fill="black" stroke="black" points="496.398,-572.306 488.262,-565.52 490.391,-575.899 496.398,-572.306"/>
</g>
<!-- 15 -->
<g id="node16" class="node"><title>15</title>
<path fill="#399de5" fill-opacity="0.894118" stroke="black" d="M638.5,-573C638.5,-573 551.5,-573 551.5,-573 545.5,-573 539.5,-567 539.5,-561 539.5,-561 539.5,-517 539.5,-517 539.5,-511 545.5,-505 551.5,-505 551.5,-505 638.5,-505 638.5,-505 644.5,-505 650.5,-511 650.5,-517 650.5,-517 650.5,-561 650.5,-561 650.5,-567 644.5,-573 638.5,-573"/>
<text text-anchor="start" x="558" y="-557.8" font-family="Helvetica,sans-Serif" font-size="14.00">A7_bb ≤ 0.5</text>
<text text-anchor="start" x="547.5" y="-542.8" font-family="Helvetica,sans-Serif" font-size="14.00">entropy = 0.454</text>
<text text-anchor="start" x="554" y="-527.8" font-family="Helvetica,sans-Serif" font-size="14.00">samples = 21</text>
<text text-anchor="start" x="552" y="-512.8" font-family="Helvetica,sans-Serif" font-size="14.00">value = [2, 19]</text>
</g>
<!-- 13&#45;&gt;15 -->
<g id="edge15" class="edge"><title>13&#45;&gt;15</title>
<path fill="none" stroke="black" d="M553.805,-608.884C558.919,-600.332 564.492,-591.013 569.839,-582.072"/>
<polygon fill="black" stroke="black" points="572.957,-583.678 575.086,-573.299 566.949,-580.085 572.957,-583.678"/>
</g>
<!-- 16 -->
<g id="node17" class="node"><title>16</title>
<path fill="#399de5" fill-opacity="0.949020" stroke="black" d="M585.5,-469C585.5,-469 498.5,-469 498.5,-469 492.5,-469 486.5,-463 486.5,-457 486.5,-457 486.5,-413 486.5,-413 486.5,-407 492.5,-401 498.5,-401 498.5,-401 585.5,-401 585.5,-401 591.5,-401 597.5,-407 597.5,-413 597.5,-413 597.5,-457 597.5,-457 597.5,-463 591.5,-469 585.5,-469"/>
<text text-anchor="start" x="501" y="-453.8" font-family="Helvetica,sans-Serif" font-size="14.00">A15 ≤ 1595.0</text>
<text text-anchor="start" x="494.5" y="-438.8" font-family="Helvetica,sans-Serif" font-size="14.00">entropy = 0.286</text>
<text text-anchor="start" x="501" y="-423.8" font-family="Helvetica,sans-Serif" font-size="14.00">samples = 20</text>
<text text-anchor="start" x="499" y="-408.8" font-family="Helvetica,sans-Serif" font-size="14.00">value = [1, 19]</text>
</g>
<!-- 15&#45;&gt;16 -->
<g id="edge16" class="edge"><title>15&#45;&gt;16</title>
<path fill="none" stroke="black" d="M577.792,-504.884C573.395,-496.422 568.608,-487.207 564.006,-478.352"/>
<polygon fill="black" stroke="black" points="567.019,-476.559 559.303,-469.299 560.808,-479.787 567.019,-476.559"/>
</g>
<!-- 19 -->
<g id="node20" class="node"><title>19</title>
<path fill="#e58139" stroke="black" d="M700,-461.5C700,-461.5 628,-461.5 628,-461.5 622,-461.5 616,-455.5 616,-449.5 616,-449.5 616,-420.5 616,-420.5 616,-414.5 622,-408.5 628,-408.5 628,-408.5 700,-408.5 700,-408.5 706,-408.5 712,-414.5 712,-420.5 712,-420.5 712,-449.5 712,-449.5 712,-455.5 706,-461.5 700,-461.5"/>
<text text-anchor="start" x="624" y="-446.3" font-family="Helvetica,sans-Serif" font-size="14.00">entropy = 0.0</text>
<text text-anchor="start" x="626.5" y="-431.3" font-family="Helvetica,sans-Serif" font-size="14.00">samples = 1</text>
<text text-anchor="start" x="624.5" y="-416.3" font-family="Helvetica,sans-Serif" font-size="14.00">value = [1, 0]</text>
</g>
<!-- 15&#45;&gt;19 -->
<g id="edge19" class="edge"><title>15&#45;&gt;19</title>
<path fill="none" stroke="black" d="M617.402,-504.884C624.991,-493.666 633.473,-481.126 641.1,-469.852"/>
<polygon fill="black" stroke="black" points="644.032,-471.764 646.737,-461.52 638.234,-467.842 644.032,-471.764"/>
</g>
<!-- 17 -->
<g id="node18" class="node"><title>17</title>
<path fill="#399de5" stroke="black" d="M522,-357.5C522,-357.5 444,-357.5 444,-357.5 438,-357.5 432,-351.5 432,-345.5 432,-345.5 432,-316.5 432,-316.5 432,-310.5 438,-304.5 444,-304.5 444,-304.5 522,-304.5 522,-304.5 528,-304.5 534,-310.5 534,-316.5 534,-316.5 534,-345.5 534,-345.5 534,-351.5 528,-357.5 522,-357.5"/>
<text text-anchor="start" x="443" y="-342.3" font-family="Helvetica,sans-Serif" font-size="14.00">entropy = 0.0</text>
<text text-anchor="start" x="442" y="-327.3" font-family="Helvetica,sans-Serif" font-size="14.00">samples = 19</text>
<text text-anchor="start" x="440" y="-312.3" font-family="Helvetica,sans-Serif" font-size="14.00">value = [0, 19]</text>
</g>
<!-- 16&#45;&gt;17 -->
<g id="edge17" class="edge"><title>16&#45;&gt;17</title>
<path fill="none" stroke="black" d="M522.844,-400.884C516.419,-389.776 509.245,-377.372 502.773,-366.184"/>
<polygon fill="black" stroke="black" points="505.798,-364.424 497.762,-357.52 499.739,-367.929 505.798,-364.424"/>
</g>
<!-- 18 -->
<g id="node19" class="node"><title>18</title>
<path fill="#e58139" stroke="black" d="M636,-357.5C636,-357.5 564,-357.5 564,-357.5 558,-357.5 552,-351.5 552,-345.5 552,-345.5 552,-316.5 552,-316.5 552,-310.5 558,-304.5 564,-304.5 564,-304.5 636,-304.5 636,-304.5 642,-304.5 648,-310.5 648,-316.5 648,-316.5 648,-345.5 648,-345.5 648,-351.5 642,-357.5 636,-357.5"/>
<text text-anchor="start" x="560" y="-342.3" font-family="Helvetica,sans-Serif" font-size="14.00">entropy = 0.0</text>
<text text-anchor="start" x="562.5" y="-327.3" font-family="Helvetica,sans-Serif" font-size="14.00">samples = 1</text>
<text text-anchor="start" x="560.5" y="-312.3" font-family="Helvetica,sans-Serif" font-size="14.00">value = [1, 0]</text>
</g>
<!-- 16&#45;&gt;18 -->
<g id="edge18" class="edge"><title>16&#45;&gt;18</title>
<path fill="none" stroke="black" d="M560.831,-400.884C567.085,-389.886 574.061,-377.617 580.373,-366.517"/>
<polygon fill="black" stroke="black" points="583.588,-367.943 585.489,-357.52 577.503,-364.483 583.588,-367.943"/>
</g>
<!-- 21 -->
<g id="node22" class="node"><title>21</title>
<path fill="none" stroke="black" d="M874,-677C874,-677 802,-677 802,-677 796,-677 790,-671 790,-665 790,-665 790,-621 790,-621 790,-615 796,-609 802,-609 802,-609 874,-609 874,-609 880,-609 886,-615 886,-621 886,-621 886,-665 886,-665 886,-671 880,-677 874,-677"/>
<text text-anchor="start" x="801" y="-661.8" font-family="Helvetica,sans-Serif" font-size="14.00">A7_bb ≤ 0.5</text>
<text text-anchor="start" x="798" y="-646.8" font-family="Helvetica,sans-Serif" font-size="14.00">entropy = 1.0</text>
<text text-anchor="start" x="800.5" y="-631.8" font-family="Helvetica,sans-Serif" font-size="14.00">samples = 6</text>
<text text-anchor="start" x="798.5" y="-616.8" font-family="Helvetica,sans-Serif" font-size="14.00">value = [3, 3]</text>
</g>
<!-- 20&#45;&gt;21 -->
<g id="edge21" class="edge"><title>20&#45;&gt;21</title>
<path fill="none" stroke="black" d="M902.156,-712.884C893.777,-703.887 884.606,-694.041 875.887,-684.678"/>
<polygon fill="black" stroke="black" points="878.391,-682.232 869.014,-677.299 873.268,-687.003 878.391,-682.232"/>
</g>
<!-- 26 -->
<g id="node27" class="node"><title>26</title>
<path fill="#399de5" stroke="black" d="M988,-669.5C988,-669.5 916,-669.5 916,-669.5 910,-669.5 904,-663.5 904,-657.5 904,-657.5 904,-628.5 904,-628.5 904,-622.5 910,-616.5 916,-616.5 916,-616.5 988,-616.5 988,-616.5 994,-616.5 1000,-622.5 1000,-628.5 1000,-628.5 1000,-657.5 1000,-657.5 1000,-663.5 994,-669.5 988,-669.5"/>
<text text-anchor="start" x="912" y="-654.3" font-family="Helvetica,sans-Serif" font-size="14.00">entropy = 0.0</text>
<text text-anchor="start" x="914.5" y="-639.3" font-family="Helvetica,sans-Serif" font-size="14.00">samples = 4</text>
<text text-anchor="start" x="912.5" y="-624.3" font-family="Helvetica,sans-Serif" font-size="14.00">value = [0, 4]</text>
</g>
<!-- 20&#45;&gt;26 -->
<g id="edge26" class="edge"><title>20&#45;&gt;26</title>
<path fill="none" stroke="black" d="M939.169,-712.884C941.156,-702.216 943.366,-690.352 945.384,-679.519"/>
<polygon fill="black" stroke="black" points="948.856,-679.992 947.246,-669.52 941.974,-678.71 948.856,-679.992"/>
</g>
<!-- 22 -->
<g id="node23" class="node"><title>22</title>
<path fill="#e58139" stroke="black" d="M770,-565.5C770,-565.5 698,-565.5 698,-565.5 692,-565.5 686,-559.5 686,-553.5 686,-553.5 686,-524.5 686,-524.5 686,-518.5 692,-512.5 698,-512.5 698,-512.5 770,-512.5 770,-512.5 776,-512.5 782,-518.5 782,-524.5 782,-524.5 782,-553.5 782,-553.5 782,-559.5 776,-565.5 770,-565.5"/>
<text text-anchor="start" x="694" y="-550.3" font-family="Helvetica,sans-Serif" font-size="14.00">entropy = 0.0</text>
<text text-anchor="start" x="696.5" y="-535.3" font-family="Helvetica,sans-Serif" font-size="14.00">samples = 2</text>
<text text-anchor="start" x="694.5" y="-520.3" font-family="Helvetica,sans-Serif" font-size="14.00">value = [2, 0]</text>
</g>
<!-- 21&#45;&gt;22 -->
<g id="edge22" class="edge"><title>21&#45;&gt;22</title>
<path fill="none" stroke="black" d="M804.234,-608.884C792.348,-597.226 779.006,-584.141 767.169,-572.532"/>
<polygon fill="black" stroke="black" points="769.61,-570.023 760.02,-565.52 764.709,-575.021 769.61,-570.023"/>
</g>
<!-- 23 -->
<g id="node24" class="node"><title>23</title>
<path fill="#399de5" fill-opacity="0.666667" stroke="black" d="M899.5,-573C899.5,-573 812.5,-573 812.5,-573 806.5,-573 800.5,-567 800.5,-561 800.5,-561 800.5,-517 800.5,-517 800.5,-511 806.5,-505 812.5,-505 812.5,-505 899.5,-505 899.5,-505 905.5,-505 911.5,-511 911.5,-517 911.5,-517 911.5,-561 911.5,-561 911.5,-567 905.5,-573 899.5,-573"/>
<text text-anchor="start" x="822.5" y="-557.8" font-family="Helvetica,sans-Serif" font-size="14.00">A3 ≤ 0.668</text>
<text text-anchor="start" x="808.5" y="-542.8" font-family="Helvetica,sans-Serif" font-size="14.00">entropy = 0.811</text>
<text text-anchor="start" x="818.5" y="-527.8" font-family="Helvetica,sans-Serif" font-size="14.00">samples = 4</text>
<text text-anchor="start" x="816.5" y="-512.8" font-family="Helvetica,sans-Serif" font-size="14.00">value = [1, 3]</text>
</g>
<!-- 21&#45;&gt;23 -->
<g id="edge23" class="edge"><title>21&#45;&gt;23</title>
<path fill="none" stroke="black" d="M843.844,-608.884C845.29,-600.689 846.861,-591.789 848.378,-583.192"/>
<polygon fill="black" stroke="black" points="851.832,-583.755 850.124,-573.299 844.939,-582.539 851.832,-583.755"/>
</g>
<!-- 24 -->
<g id="node25" class="node"><title>24</title>
<path fill="#e58139" stroke="black" d="M814,-461.5C814,-461.5 742,-461.5 742,-461.5 736,-461.5 730,-455.5 730,-449.5 730,-449.5 730,-420.5 730,-420.5 730,-414.5 736,-408.5 742,-408.5 742,-408.5 814,-408.5 814,-408.5 820,-408.5 826,-414.5 826,-420.5 826,-420.5 826,-449.5 826,-449.5 826,-455.5 820,-461.5 814,-461.5"/>
<text text-anchor="start" x="738" y="-446.3" font-family="Helvetica,sans-Serif" font-size="14.00">entropy = 0.0</text>
<text text-anchor="start" x="740.5" y="-431.3" font-family="Helvetica,sans-Serif" font-size="14.00">samples = 1</text>
<text text-anchor="start" x="738.5" y="-416.3" font-family="Helvetica,sans-Serif" font-size="14.00">value = [1, 0]</text>
</g>
<!-- 23&#45;&gt;24 -->
<g id="edge24" class="edge"><title>23&#45;&gt;24</title>
<path fill="none" stroke="black" d="M830.676,-504.884C822.013,-493.556 812.32,-480.88 803.633,-469.521"/>
<polygon fill="black" stroke="black" points="806.37,-467.337 797.515,-461.52 800.81,-471.59 806.37,-467.337"/>
</g>
<!-- 25 -->
<g id="node26" class="node"><title>25</title>
<path fill="#399de5" stroke="black" d="M928,-461.5C928,-461.5 856,-461.5 856,-461.5 850,-461.5 844,-455.5 844,-449.5 844,-449.5 844,-420.5 844,-420.5 844,-414.5 850,-408.5 856,-408.5 856,-408.5 928,-408.5 928,-408.5 934,-408.5 940,-414.5 940,-420.5 940,-420.5 940,-449.5 940,-449.5 940,-455.5 934,-461.5 928,-461.5"/>
<text text-anchor="start" x="852" y="-446.3" font-family="Helvetica,sans-Serif" font-size="14.00">entropy = 0.0</text>
<text text-anchor="start" x="854.5" y="-431.3" font-family="Helvetica,sans-Serif" font-size="14.00">samples = 3</text>
<text text-anchor="start" x="852.5" y="-416.3" font-family="Helvetica,sans-Serif" font-size="14.00">value = [0, 3]</text>
</g>
<!-- 23&#45;&gt;25 -->
<g id="edge25" class="edge"><title>23&#45;&gt;25</title>
<path fill="none" stroke="black" d="M867.688,-504.884C871.492,-494.106 875.727,-482.108 879.582,-471.184"/>
<polygon fill="black" stroke="black" points="882.965,-472.115 882.993,-461.52 876.364,-469.785 882.965,-472.115"/>
</g>
<!-- 29 -->
<g id="node30" class="node"><title>29</title>
<path fill="#e58139" fill-opacity="0.407843" stroke="black" d="M1322.5,-885C1322.5,-885 1235.5,-885 1235.5,-885 1229.5,-885 1223.5,-879 1223.5,-873 1223.5,-873 1223.5,-829 1223.5,-829 1223.5,-823 1229.5,-817 1235.5,-817 1235.5,-817 1322.5,-817 1322.5,-817 1328.5,-817 1334.5,-823 1334.5,-829 1334.5,-829 1334.5,-873 1334.5,-873 1334.5,-879 1328.5,-885 1322.5,-885"/>
<text text-anchor="start" x="1244" y="-869.8" font-family="Helvetica,sans-Serif" font-size="14.00">A10_f ≤ 0.5</text>
<text text-anchor="start" x="1231.5" y="-854.8" font-family="Helvetica,sans-Serif" font-size="14.00">entropy = 0.952</text>
<text text-anchor="start" x="1234" y="-839.8" font-family="Helvetica,sans-Serif" font-size="14.00">samples = 105</text>
<text text-anchor="start" x="1232" y="-824.8" font-family="Helvetica,sans-Serif" font-size="14.00">value = [66, 39]</text>
</g>
<!-- 28&#45;&gt;29 -->
<g id="edge29" class="edge"><title>28&#45;&gt;29</title>
<path fill="none" stroke="black" d="M1279,-920.884C1279,-912.778 1279,-903.982 1279,-895.472"/>
<polygon fill="black" stroke="black" points="1282.5,-895.299 1279,-885.299 1275.5,-895.299 1282.5,-895.299"/>
</g>
<!-- 68 -->
<g id="node69" class="node"><title>68</title>
<path fill="#e58139" fill-opacity="0.984314" stroke="black" d="M1783.5,-885C1783.5,-885 1696.5,-885 1696.5,-885 1690.5,-885 1684.5,-879 1684.5,-873 1684.5,-873 1684.5,-829 1684.5,-829 1684.5,-823 1690.5,-817 1696.5,-817 1696.5,-817 1783.5,-817 1783.5,-817 1789.5,-817 1795.5,-823 1795.5,-829 1795.5,-829 1795.5,-873 1795.5,-873 1795.5,-879 1789.5,-885 1783.5,-885"/>
<text text-anchor="start" x="1706.5" y="-869.8" font-family="Helvetica,sans-Serif" font-size="14.00">A8 ≤ 1.105</text>
<text text-anchor="start" x="1692.5" y="-854.8" font-family="Helvetica,sans-Serif" font-size="14.00">entropy = 0.109</text>
<text text-anchor="start" x="1699" y="-839.8" font-family="Helvetica,sans-Serif" font-size="14.00">samples = 69</text>
<text text-anchor="start" x="1697" y="-824.8" font-family="Helvetica,sans-Serif" font-size="14.00">value = [68, 1]</text>
</g>
<!-- 28&#45;&gt;68 -->
<g id="edge68" class="edge"><title>28&#45;&gt;68</title>
<path fill="none" stroke="black" d="M1337.85,-940.978C1424.19,-921.876 1584.63,-886.376 1674.56,-866.478"/>
<polygon fill="black" stroke="black" points="1675.37,-869.886 1684.37,-864.308 1673.85,-863.051 1675.37,-869.886"/>
</g>
<!-- 30 -->
<g id="node31" class="node"><title>30</title>
<path fill="#e58139" fill-opacity="0.756863" stroke="black" d="M1290.5,-781C1290.5,-781 1203.5,-781 1203.5,-781 1197.5,-781 1191.5,-775 1191.5,-769 1191.5,-769 1191.5,-725 1191.5,-725 1191.5,-719 1197.5,-713 1203.5,-713 1203.5,-713 1290.5,-713 1290.5,-713 1296.5,-713 1302.5,-719 1302.5,-725 1302.5,-725 1302.5,-769 1302.5,-769 1302.5,-775 1296.5,-781 1290.5,-781"/>
<text text-anchor="start" x="1213.5" y="-765.8" font-family="Helvetica,sans-Serif" font-size="14.00">A14 ≤ 72.5</text>
<text text-anchor="start" x="1199.5" y="-750.8" font-family="Helvetica,sans-Serif" font-size="14.00">entropy = 0.715</text>
<text text-anchor="start" x="1206" y="-735.8" font-family="Helvetica,sans-Serif" font-size="14.00">samples = 56</text>
<text text-anchor="start" x="1200" y="-720.8" font-family="Helvetica,sans-Serif" font-size="14.00">value = [45, 11]</text>
</g>
<!-- 29&#45;&gt;30 -->
<g id="edge30" class="edge"><title>29&#45;&gt;30</title>
<path fill="none" stroke="black" d="M1268.61,-816.884C1266.01,-808.6 1263.19,-799.595 1260.46,-790.911"/>
<polygon fill="black" stroke="black" points="1263.78,-789.793 1257.45,-781.299 1257.1,-791.889 1263.78,-789.793"/>
</g>
<!-- 47 -->
<g id="node48" class="node"><title>47</title>
<path fill="#399de5" fill-opacity="0.250980" stroke="black" d="M1479.5,-781C1479.5,-781 1392.5,-781 1392.5,-781 1386.5,-781 1380.5,-775 1380.5,-769 1380.5,-769 1380.5,-725 1380.5,-725 1380.5,-719 1386.5,-713 1392.5,-713 1392.5,-713 1479.5,-713 1479.5,-713 1485.5,-713 1491.5,-719 1491.5,-725 1491.5,-725 1491.5,-769 1491.5,-769 1491.5,-775 1485.5,-781 1479.5,-781"/>
<text text-anchor="start" x="1402.5" y="-765.8" font-family="Helvetica,sans-Serif" font-size="14.00">A7_h ≤ 0.5</text>
<text text-anchor="start" x="1388.5" y="-750.8" font-family="Helvetica,sans-Serif" font-size="14.00">entropy = 0.985</text>
<text text-anchor="start" x="1395" y="-735.8" font-family="Helvetica,sans-Serif" font-size="14.00">samples = 49</text>
<text text-anchor="start" x="1389" y="-720.8" font-family="Helvetica,sans-Serif" font-size="14.00">value = [21, 28]</text>
</g>
<!-- 29&#45;&gt;47 -->
<g id="edge47" class="edge"><title>29&#45;&gt;47</title>
<path fill="none" stroke="black" d="M1329.97,-816.884C1344.86,-807.214 1361.25,-796.563 1376.61,-786.587"/>
<polygon fill="black" stroke="black" points="1378.54,-789.508 1385.01,-781.125 1374.72,-783.638 1378.54,-789.508"/>
</g>
<!-- 31 -->
<g id="node32" class="node"><title>31</title>
<path fill="#e58139" stroke="black" d="M1162,-669.5C1162,-669.5 1084,-669.5 1084,-669.5 1078,-669.5 1072,-663.5 1072,-657.5 1072,-657.5 1072,-628.5 1072,-628.5 1072,-622.5 1078,-616.5 1084,-616.5 1084,-616.5 1162,-616.5 1162,-616.5 1168,-616.5 1174,-622.5 1174,-628.5 1174,-628.5 1174,-657.5 1174,-657.5 1174,-663.5 1168,-669.5 1162,-669.5"/>
<text text-anchor="start" x="1083" y="-654.3" font-family="Helvetica,sans-Serif" font-size="14.00">entropy = 0.0</text>
<text text-anchor="start" x="1082" y="-639.3" font-family="Helvetica,sans-Serif" font-size="14.00">samples = 15</text>
<text text-anchor="start" x="1080" y="-624.3" font-family="Helvetica,sans-Serif" font-size="14.00">value = [15, 0]</text>
</g>
<!-- 30&#45;&gt;31 -->
<g id="edge31" class="edge"><title>30&#45;&gt;31</title>
<path fill="none" stroke="black" d="M1206.74,-712.884C1192.3,-701.006 1176.06,-687.646 1161.75,-675.876"/>
<polygon fill="black" stroke="black" points="1163.97,-673.17 1154.02,-669.52 1159.52,-678.576 1163.97,-673.17"/>
</g>
<!-- 32 -->
<g id="node33" class="node"><title>32</title>
<path fill="#e58139" fill-opacity="0.631373" stroke="black" d="M1290.5,-677C1290.5,-677 1203.5,-677 1203.5,-677 1197.5,-677 1191.5,-671 1191.5,-665 1191.5,-665 1191.5,-621 1191.5,-621 1191.5,-615 1197.5,-609 1203.5,-609 1203.5,-609 1290.5,-609 1290.5,-609 1296.5,-609 1302.5,-615 1302.5,-621 1302.5,-621 1302.5,-665 1302.5,-665 1302.5,-671 1296.5,-677 1290.5,-677"/>
<text text-anchor="start" x="1210" y="-661.8" font-family="Helvetica,sans-Serif" font-size="14.00">A2 ≤ 48.915</text>
<text text-anchor="start" x="1199.5" y="-646.8" font-family="Helvetica,sans-Serif" font-size="14.00">entropy = 0.839</text>
<text text-anchor="start" x="1206" y="-631.8" font-family="Helvetica,sans-Serif" font-size="14.00">samples = 41</text>
<text text-anchor="start" x="1200" y="-616.8" font-family="Helvetica,sans-Serif" font-size="14.00">value = [30, 11]</text>
</g>
<!-- 30&#45;&gt;32 -->
<g id="edge32" class="edge"><title>30&#45;&gt;32</title>
<path fill="none" stroke="black" d="M1247,-712.884C1247,-704.778 1247,-695.982 1247,-687.472"/>
<polygon fill="black" stroke="black" points="1250.5,-687.299 1247,-677.299 1243.5,-687.299 1250.5,-687.299"/>
</g>
<!-- 33 -->
<g id="node34" class="node"><title>33</title>
<path fill="#e58139" fill-opacity="0.733333" stroke="black" d="M1168.5,-573C1168.5,-573 1081.5,-573 1081.5,-573 1075.5,-573 1069.5,-567 1069.5,-561 1069.5,-561 1069.5,-517 1069.5,-517 1069.5,-511 1075.5,-505 1081.5,-505 1081.5,-505 1168.5,-505 1168.5,-505 1174.5,-505 1180.5,-511 1180.5,-517 1180.5,-517 1180.5,-561 1180.5,-561 1180.5,-567 1174.5,-573 1168.5,-573"/>
<text text-anchor="start" x="1088" y="-557.8" font-family="Helvetica,sans-Serif" font-size="14.00">A14 ≤ 355.0</text>
<text text-anchor="start" x="1077.5" y="-542.8" font-family="Helvetica,sans-Serif" font-size="14.00">entropy = 0.742</text>
<text text-anchor="start" x="1084" y="-527.8" font-family="Helvetica,sans-Serif" font-size="14.00">samples = 38</text>
<text text-anchor="start" x="1082" y="-512.8" font-family="Helvetica,sans-Serif" font-size="14.00">value = [30, 8]</text>
</g>
<!-- 32&#45;&gt;33 -->
<g id="edge33" class="edge"><title>32&#45;&gt;33</title>
<path fill="none" stroke="black" d="M1207.39,-608.884C1196.31,-599.62 1184.15,-589.455 1172.66,-579.845"/>
<polygon fill="black" stroke="black" points="1174.75,-577.028 1164.83,-573.299 1170.26,-582.399 1174.75,-577.028"/>
</g>
<!-- 46 -->
<g id="node47" class="node"><title>46</title>
<path fill="#399de5" stroke="black" d="M1283,-565.5C1283,-565.5 1211,-565.5 1211,-565.5 1205,-565.5 1199,-559.5 1199,-553.5 1199,-553.5 1199,-524.5 1199,-524.5 1199,-518.5 1205,-512.5 1211,-512.5 1211,-512.5 1283,-512.5 1283,-512.5 1289,-512.5 1295,-518.5 1295,-524.5 1295,-524.5 1295,-553.5 1295,-553.5 1295,-559.5 1289,-565.5 1283,-565.5"/>
<text text-anchor="start" x="1207" y="-550.3" font-family="Helvetica,sans-Serif" font-size="14.00">entropy = 0.0</text>
<text text-anchor="start" x="1209.5" y="-535.3" font-family="Helvetica,sans-Serif" font-size="14.00">samples = 3</text>
<text text-anchor="start" x="1207.5" y="-520.3" font-family="Helvetica,sans-Serif" font-size="14.00">value = [0, 3]</text>
</g>
<!-- 32&#45;&gt;46 -->
<g id="edge46" class="edge"><title>32&#45;&gt;46</title>
<path fill="none" stroke="black" d="M1247,-608.884C1247,-598.326 1247,-586.597 1247,-575.854"/>
<polygon fill="black" stroke="black" points="1250.5,-575.52 1247,-565.52 1243.5,-575.52 1250.5,-575.52"/>
</g>
<!-- 34 -->
<g id="node35" class="node"><title>34</title>
<path fill="#e58139" fill-opacity="0.635294" stroke="black" d="M1057.5,-469C1057.5,-469 970.5,-469 970.5,-469 964.5,-469 958.5,-463 958.5,-457 958.5,-457 958.5,-413 958.5,-413 958.5,-407 964.5,-401 970.5,-401 970.5,-401 1057.5,-401 1057.5,-401 1063.5,-401 1069.5,-407 1069.5,-413 1069.5,-413 1069.5,-457 1069.5,-457 1069.5,-463 1063.5,-469 1057.5,-469"/>
<text text-anchor="start" x="984.5" y="-453.8" font-family="Helvetica,sans-Serif" font-size="14.00">A11 ≤ 1.5</text>
<text text-anchor="start" x="966.5" y="-438.8" font-family="Helvetica,sans-Serif" font-size="14.00">entropy = 0.837</text>
<text text-anchor="start" x="973" y="-423.8" font-family="Helvetica,sans-Serif" font-size="14.00">samples = 30</text>
<text text-anchor="start" x="971" y="-408.8" font-family="Helvetica,sans-Serif" font-size="14.00">value = [22, 8]</text>
</g>
<!-- 33&#45;&gt;34 -->
<g id="edge34" class="edge"><title>33&#45;&gt;34</title>
<path fill="none" stroke="black" d="M1088.96,-504.884C1078.98,-495.709 1068.03,-485.65 1057.66,-476.123"/>
<polygon fill="black" stroke="black" points="1059.97,-473.488 1050.24,-469.299 1055.23,-478.643 1059.97,-473.488"/>
</g>
<!-- 45 -->
<g id="node46" class="node"><title>45</title>
<path fill="#e58139" stroke="black" d="M1172,-461.5C1172,-461.5 1100,-461.5 1100,-461.5 1094,-461.5 1088,-455.5 1088,-449.5 1088,-449.5 1088,-420.5 1088,-420.5 1088,-414.5 1094,-408.5 1100,-408.5 1100,-408.5 1172,-408.5 1172,-408.5 1178,-408.5 1184,-414.5 1184,-420.5 1184,-420.5 1184,-449.5 1184,-449.5 1184,-455.5 1178,-461.5 1172,-461.5"/>
<text text-anchor="start" x="1096" y="-446.3" font-family="Helvetica,sans-Serif" font-size="14.00">entropy = 0.0</text>
<text text-anchor="start" x="1098.5" y="-431.3" font-family="Helvetica,sans-Serif" font-size="14.00">samples = 8</text>
<text text-anchor="start" x="1096.5" y="-416.3" font-family="Helvetica,sans-Serif" font-size="14.00">value = [8, 0]</text>
</g>
<!-- 33&#45;&gt;45 -->
<g id="edge45" class="edge"><title>33&#45;&gt;45</title>
<path fill="none" stroke="black" d="M1128.57,-504.884C1129.72,-494.216 1131,-482.352 1132.17,-471.519"/>
<polygon fill="black" stroke="black" points="1135.66,-471.838 1133.25,-461.52 1128.7,-471.087 1135.66,-471.838"/>
</g>
<!-- 35 -->
<g id="node36" class="node"><title>35</title>
<path fill="#e58139" stroke="black" d="M985,-357.5C985,-357.5 913,-357.5 913,-357.5 907,-357.5 901,-351.5 901,-345.5 901,-345.5 901,-316.5 901,-316.5 901,-310.5 907,-304.5 913,-304.5 913,-304.5 985,-304.5 985,-304.5 991,-304.5 997,-310.5 997,-316.5 997,-316.5 997,-345.5 997,-345.5 997,-351.5 991,-357.5 985,-357.5"/>
<text text-anchor="start" x="909" y="-342.3" font-family="Helvetica,sans-Serif" font-size="14.00">entropy = 0.0</text>
<text text-anchor="start" x="911.5" y="-327.3" font-family="Helvetica,sans-Serif" font-size="14.00">samples = 7</text>
<text text-anchor="start" x="909.5" y="-312.3" font-family="Helvetica,sans-Serif" font-size="14.00">value = [7, 0]</text>
</g>
<!-- 34&#45;&gt;35 -->
<g id="edge35" class="edge"><title>34&#45;&gt;35</title>
<path fill="none" stroke="black" d="M992.896,-400.884C985.818,-389.776 977.913,-377.372 970.784,-366.184"/>
<polygon fill="black" stroke="black" points="973.588,-364.072 965.263,-357.52 967.685,-367.834 973.588,-364.072"/>
</g>
<!-- 36 -->
<g id="node37" class="node"><title>36</title>
<path fill="#e58139" fill-opacity="0.466667" stroke="black" d="M1114.5,-365C1114.5,-365 1027.5,-365 1027.5,-365 1021.5,-365 1015.5,-359 1015.5,-353 1015.5,-353 1015.5,-309 1015.5,-309 1015.5,-303 1021.5,-297 1027.5,-297 1027.5,-297 1114.5,-297 1114.5,-297 1120.5,-297 1126.5,-303 1126.5,-309 1126.5,-309 1126.5,-353 1126.5,-353 1126.5,-359 1120.5,-365 1114.5,-365"/>
<text text-anchor="start" x="1037.5" y="-349.8" font-family="Helvetica,sans-Serif" font-size="14.00">A15 ≤ 80.5</text>
<text text-anchor="start" x="1023.5" y="-334.8" font-family="Helvetica,sans-Serif" font-size="14.00">entropy = 0.932</text>
<text text-anchor="start" x="1030" y="-319.8" font-family="Helvetica,sans-Serif" font-size="14.00">samples = 23</text>
<text text-anchor="start" x="1028" y="-304.8" font-family="Helvetica,sans-Serif" font-size="14.00">value = [15, 8]</text>
</g>
<!-- 34&#45;&gt;36 -->
<g id="edge36" class="edge"><title>34&#45;&gt;36</title>
<path fill="none" stroke="black" d="M1032.51,-400.884C1037.28,-392.332 1042.49,-383.013 1047.49,-374.072"/>
<polygon fill="black" stroke="black" points="1050.57,-375.736 1052.39,-365.299 1044.46,-372.321 1050.57,-375.736"/>
</g>
<!-- 37 -->
<g id="node38" class="node"><title>37</title>
<path fill="#e58139" fill-opacity="0.600000" stroke="black" d="M1084.5,-261C1084.5,-261 997.5,-261 997.5,-261 991.5,-261 985.5,-255 985.5,-249 985.5,-249 985.5,-205 985.5,-205 985.5,-199 991.5,-193 997.5,-193 997.5,-193 1084.5,-193 1084.5,-193 1090.5,-193 1096.5,-199 1096.5,-205 1096.5,-205 1096.5,-249 1096.5,-249 1096.5,-255 1090.5,-261 1084.5,-261"/>
<text text-anchor="start" x="1004" y="-245.8" font-family="Helvetica,sans-Serif" font-size="14.00">A14 ≤ 190.5</text>
<text text-anchor="start" x="993.5" y="-230.8" font-family="Helvetica,sans-Serif" font-size="14.00">entropy = 0.863</text>
<text text-anchor="start" x="1000" y="-215.8" font-family="Helvetica,sans-Serif" font-size="14.00">samples = 21</text>
<text text-anchor="start" x="998" y="-200.8" font-family="Helvetica,sans-Serif" font-size="14.00">value = [15, 6]</text>
</g>
<!-- 36&#45;&gt;37 -->
<g id="edge37" class="edge"><title>36&#45;&gt;37</title>
<path fill="none" stroke="black" d="M1061.26,-296.884C1058.82,-288.6 1056.18,-279.595 1053.62,-270.911"/>
<polygon fill="black" stroke="black" points="1056.97,-269.905 1050.79,-261.299 1050.26,-271.881 1056.97,-269.905"/>
</g>
<!-- 44 -->
<g id="node45" class="node"><title>44</title>
<path fill="#399de5" stroke="black" d="M1199,-253.5C1199,-253.5 1127,-253.5 1127,-253.5 1121,-253.5 1115,-247.5 1115,-241.5 1115,-241.5 1115,-212.5 1115,-212.5 1115,-206.5 1121,-200.5 1127,-200.5 1127,-200.5 1199,-200.5 1199,-200.5 1205,-200.5 1211,-206.5 1211,-212.5 1211,-212.5 1211,-241.5 1211,-241.5 1211,-247.5 1205,-253.5 1199,-253.5"/>
<text text-anchor="start" x="1123" y="-238.3" font-family="Helvetica,sans-Serif" font-size="14.00">entropy = 0.0</text>
<text text-anchor="start" x="1125.5" y="-223.3" font-family="Helvetica,sans-Serif" font-size="14.00">samples = 2</text>
<text text-anchor="start" x="1123.5" y="-208.3" font-family="Helvetica,sans-Serif" font-size="14.00">value = [0, 2]</text>
</g>
<!-- 36&#45;&gt;44 -->
<g id="edge44" class="edge"><title>36&#45;&gt;44</title>
<path fill="none" stroke="black" d="M1100.87,-296.884C1111.19,-285.446 1122.74,-272.634 1133.06,-261.19"/>
<polygon fill="black" stroke="black" points="1135.88,-263.29 1139.98,-253.52 1130.69,-258.601 1135.88,-263.29"/>
</g>
<!-- 38 -->
<g id="node39" class="node"><title>38</title>
<path fill="#e58139" fill-opacity="0.784314" stroke="black" d="M1082.5,-157C1082.5,-157 995.5,-157 995.5,-157 989.5,-157 983.5,-151 983.5,-145 983.5,-145 983.5,-101 983.5,-101 983.5,-95 989.5,-89 995.5,-89 995.5,-89 1082.5,-89 1082.5,-89 1088.5,-89 1094.5,-95 1094.5,-101 1094.5,-101 1094.5,-145 1094.5,-145 1094.5,-151 1088.5,-157 1082.5,-157"/>
<text text-anchor="start" x="1005.5" y="-141.8" font-family="Helvetica,sans-Serif" font-size="14.00">A14 ≤ 77.5</text>
<text text-anchor="start" x="991.5" y="-126.8" font-family="Helvetica,sans-Serif" font-size="14.00">entropy = 0.672</text>
<text text-anchor="start" x="998" y="-111.8" font-family="Helvetica,sans-Serif" font-size="14.00">samples = 17</text>
<text text-anchor="start" x="996" y="-96.8" font-family="Helvetica,sans-Serif" font-size="14.00">value = [14, 3]</text>
</g>
<!-- 37&#45;&gt;38 -->
<g id="edge38" class="edge"><title>37&#45;&gt;38</title>
<path fill="none" stroke="black" d="M1040.35,-192.884C1040.19,-184.778 1040.02,-175.982 1039.85,-167.472"/>
<polygon fill="black" stroke="black" points="1043.35,-167.229 1039.65,-157.299 1036.35,-167.366 1043.35,-167.229"/>
</g>
<!-- 41 -->
<g id="node42" class="node"><title>41</title>
<path fill="#399de5" fill-opacity="0.666667" stroke="black" d="M1211.5,-157C1211.5,-157 1124.5,-157 1124.5,-157 1118.5,-157 1112.5,-151 1112.5,-145 1112.5,-145 1112.5,-101 1112.5,-101 1112.5,-95 1118.5,-89 1124.5,-89 1124.5,-89 1211.5,-89 1211.5,-89 1217.5,-89 1223.5,-95 1223.5,-101 1223.5,-101 1223.5,-145 1223.5,-145 1223.5,-151 1217.5,-157 1211.5,-157"/>
<text text-anchor="start" x="1134.5" y="-141.8" font-family="Helvetica,sans-Serif" font-size="14.00">A2 ≤ 39.46</text>
<text text-anchor="start" x="1120.5" y="-126.8" font-family="Helvetica,sans-Serif" font-size="14.00">entropy = 0.811</text>
<text text-anchor="start" x="1130.5" y="-111.8" font-family="Helvetica,sans-Serif" font-size="14.00">samples = 4</text>
<text text-anchor="start" x="1128.5" y="-96.8" font-family="Helvetica,sans-Serif" font-size="14.00">value = [1, 3]</text>
</g>
<!-- 37&#45;&gt;41 -->
<g id="edge41" class="edge"><title>37&#45;&gt;41</title>
<path fill="none" stroke="black" d="M1082.23,-192.884C1093.88,-183.531 1106.67,-173.259 1118.73,-163.568"/>
<polygon fill="black" stroke="black" points="1120.93,-166.29 1126.54,-157.299 1116.55,-160.832 1120.93,-166.29"/>
</g>
<!-- 39 -->
<g id="node40" class="node"><title>39</title>
<path fill="#399de5" stroke="black" d="M955,-53C955,-53 883,-53 883,-53 877,-53 871,-47 871,-41 871,-41 871,-12 871,-12 871,-6 877,-0 883,-0 883,-0 955,-0 955,-0 961,-0 967,-6 967,-12 967,-12 967,-41 967,-41 967,-47 961,-53 955,-53"/>
<text text-anchor="start" x="879" y="-37.8" font-family="Helvetica,sans-Serif" font-size="14.00">entropy = 0.0</text>
<text text-anchor="start" x="881.5" y="-22.8" font-family="Helvetica,sans-Serif" font-size="14.00">samples = 1</text>
<text text-anchor="start" x="879.5" y="-7.8" font-family="Helvetica,sans-Serif" font-size="14.00">value = [0, 1]</text>
</g>
<!-- 38&#45;&gt;39 -->
<g id="edge39" class="edge"><title>38&#45;&gt;39</title>
<path fill="none" stroke="black" d="M997.03,-88.9485C984.949,-79.4346 971.792,-69.074 959.784,-59.6175"/>
<polygon fill="black" stroke="black" points="961.703,-56.6739 951.682,-53.2367 957.372,-62.1734 961.703,-56.6739"/>
</g>
<!-- 40 -->
<g id="node41" class="node"><title>40</title>
<path fill="#e58139" fill-opacity="0.858824" stroke="black" d="M1084.5,-53C1084.5,-53 997.5,-53 997.5,-53 991.5,-53 985.5,-47 985.5,-41 985.5,-41 985.5,-12 985.5,-12 985.5,-6 991.5,-0 997.5,-0 997.5,-0 1084.5,-0 1084.5,-0 1090.5,-0 1096.5,-6 1096.5,-12 1096.5,-12 1096.5,-41 1096.5,-41 1096.5,-47 1090.5,-53 1084.5,-53"/>
<text text-anchor="start" x="993.5" y="-37.8" font-family="Helvetica,sans-Serif" font-size="14.00">entropy = 0.544</text>
<text text-anchor="start" x="1000" y="-22.8" font-family="Helvetica,sans-Serif" font-size="14.00">samples = 16</text>
<text text-anchor="start" x="998" y="-7.8" font-family="Helvetica,sans-Serif" font-size="14.00">value = [14, 2]</text>
</g>
<!-- 38&#45;&gt;40 -->
<g id="edge40" class="edge"><title>38&#45;&gt;40</title>
<path fill="none" stroke="black" d="M1039.7,-88.9485C1039.87,-80.7153 1040.06,-71.848 1040.24,-63.4814"/>
<polygon fill="black" stroke="black" points="1043.74,-63.3086 1040.46,-53.2367 1036.74,-63.1604 1043.74,-63.3086"/>
</g>
<!-- 42 -->
<g id="node43" class="node"><title>42</title>
<path fill="#399de5" stroke="black" d="M1201,-53C1201,-53 1129,-53 1129,-53 1123,-53 1117,-47 1117,-41 1117,-41 1117,-12 1117,-12 1117,-6 1123,-0 1129,-0 1129,-0 1201,-0 1201,-0 1207,-0 1213,-6 1213,-12 1213,-12 1213,-41 1213,-41 1213,-47 1207,-53 1201,-53"/>
<text text-anchor="start" x="1125" y="-37.8" font-family="Helvetica,sans-Serif" font-size="14.00">entropy = 0.0</text>
<text text-anchor="start" x="1127.5" y="-22.8" font-family="Helvetica,sans-Serif" font-size="14.00">samples = 3</text>
<text text-anchor="start" x="1125.5" y="-7.8" font-family="Helvetica,sans-Serif" font-size="14.00">value = [0, 3]</text>
</g>
<!-- 41&#45;&gt;42 -->
<g id="edge42" class="edge"><title>41&#45;&gt;42</title>
<path fill="none" stroke="black" d="M1166.95,-88.9485C1166.69,-80.7153 1166.41,-71.848 1166.14,-63.4814"/>
<polygon fill="black" stroke="black" points="1169.63,-63.1206 1165.82,-53.2367 1162.64,-63.3428 1169.63,-63.1206"/>
</g>
<!-- 43 -->
<g id="node44" class="node"><title>43</title>
<path fill="#e58139" stroke="black" d="M1315,-53C1315,-53 1243,-53 1243,-53 1237,-53 1231,-47 1231,-41 1231,-41 1231,-12 1231,-12 1231,-6 1237,-0 1243,-0 1243,-0 1315,-0 1315,-0 1321,-0 1327,-6 1327,-12 1327,-12 1327,-41 1327,-41 1327,-47 1321,-53 1315,-53"/>
<text text-anchor="start" x="1239" y="-37.8" font-family="Helvetica,sans-Serif" font-size="14.00">entropy = 0.0</text>
<text text-anchor="start" x="1241.5" y="-22.8" font-family="Helvetica,sans-Serif" font-size="14.00">samples = 1</text>
<text text-anchor="start" x="1239.5" y="-7.8" font-family="Helvetica,sans-Serif" font-size="14.00">value = [1, 0]</text>
</g>
<!-- 41&#45;&gt;43 -->
<g id="edge43" class="edge"><title>41&#45;&gt;43</title>
<path fill="none" stroke="black" d="M1206.82,-88.9485C1217.89,-79.526 1229.93,-69.2731 1240.95,-59.8906"/>
<polygon fill="black" stroke="black" points="1243.42,-62.3842 1248.77,-53.2367 1238.89,-57.0542 1243.42,-62.3842"/>
</g>
<!-- 48 -->
<g id="node49" class="node"><title>48</title>
<path fill="#399de5" fill-opacity="0.498039" stroke="black" d="M1479.5,-677C1479.5,-677 1392.5,-677 1392.5,-677 1386.5,-677 1380.5,-671 1380.5,-665 1380.5,-665 1380.5,-621 1380.5,-621 1380.5,-615 1386.5,-609 1392.5,-609 1392.5,-609 1479.5,-609 1479.5,-609 1485.5,-609 1491.5,-615 1491.5,-621 1491.5,-621 1491.5,-665 1491.5,-665 1491.5,-671 1485.5,-677 1479.5,-677"/>
<text text-anchor="start" x="1406.5" y="-661.8" font-family="Helvetica,sans-Serif" font-size="14.00">A2 ≤ 28.5</text>
<text text-anchor="start" x="1388.5" y="-646.8" font-family="Helvetica,sans-Serif" font-size="14.00">entropy = 0.918</text>
<text text-anchor="start" x="1395" y="-631.8" font-family="Helvetica,sans-Serif" font-size="14.00">samples = 39</text>
<text text-anchor="start" x="1389" y="-616.8" font-family="Helvetica,sans-Serif" font-size="14.00">value = [13, 26]</text>
</g>
<!-- 47&#45;&gt;48 -->
<g id="edge48" class="edge"><title>47&#45;&gt;48</title>
<path fill="none" stroke="black" d="M1436,-712.884C1436,-704.778 1436,-695.982 1436,-687.472"/>
<polygon fill="black" stroke="black" points="1439.5,-687.299 1436,-677.299 1432.5,-687.299 1439.5,-687.299"/>
</g>
<!-- 65 -->
<g id="node66" class="node"><title>65</title>
<path fill="#e58139" fill-opacity="0.749020" stroke="black" d="M1659.5,-677C1659.5,-677 1572.5,-677 1572.5,-677 1566.5,-677 1560.5,-671 1560.5,-665 1560.5,-665 1560.5,-621 1560.5,-621 1560.5,-615 1566.5,-609 1572.5,-609 1572.5,-609 1659.5,-609 1659.5,-609 1665.5,-609 1671.5,-615 1671.5,-621 1671.5,-621 1671.5,-665 1671.5,-665 1671.5,-671 1665.5,-677 1659.5,-677"/>
<text text-anchor="start" x="1586.5" y="-661.8" font-family="Helvetica,sans-Serif" font-size="14.00">A8 ≤ 8.98</text>
<text text-anchor="start" x="1568.5" y="-646.8" font-family="Helvetica,sans-Serif" font-size="14.00">entropy = 0.722</text>
<text text-anchor="start" x="1575" y="-631.8" font-family="Helvetica,sans-Serif" font-size="14.00">samples = 10</text>
<text text-anchor="start" x="1576.5" y="-616.8" font-family="Helvetica,sans-Serif" font-size="14.00">value = [8, 2]</text>
</g>
<!-- 47&#45;&gt;65 -->
<g id="edge65" class="edge"><title>47&#45;&gt;65</title>
<path fill="none" stroke="black" d="M1491.97,-714.286C1510.85,-703.585 1532.08,-691.556 1551.56,-680.515"/>
<polygon fill="black" stroke="black" points="1553.4,-683.495 1560.38,-675.519 1549.95,-677.404 1553.4,-683.495"/>
</g>
<!-- 49 -->
<g id="node50" class="node"><title>49</title>
<path fill="#e58139" fill-opacity="0.180392" stroke="black" d="M1412.5,-573C1412.5,-573 1325.5,-573 1325.5,-573 1319.5,-573 1313.5,-567 1313.5,-561 1313.5,-561 1313.5,-517 1313.5,-517 1313.5,-511 1319.5,-505 1325.5,-505 1325.5,-505 1412.5,-505 1412.5,-505 1418.5,-505 1424.5,-511 1424.5,-517 1424.5,-517 1424.5,-561 1424.5,-561 1424.5,-567 1418.5,-573 1412.5,-573"/>
<text text-anchor="start" x="1332" y="-557.8" font-family="Helvetica,sans-Serif" font-size="14.00">A14 ≤ 120.0</text>
<text text-anchor="start" x="1321.5" y="-542.8" font-family="Helvetica,sans-Serif" font-size="14.00">entropy = 0.993</text>
<text text-anchor="start" x="1328" y="-527.8" font-family="Helvetica,sans-Serif" font-size="14.00">samples = 20</text>
<text text-anchor="start" x="1326" y="-512.8" font-family="Helvetica,sans-Serif" font-size="14.00">value = [11, 9]</text>
</g>
<!-- 48&#45;&gt;49 -->
<g id="edge49" class="edge"><title>48&#45;&gt;49</title>
<path fill="none" stroke="black" d="M1414.25,-608.884C1408.57,-600.243 1402.38,-590.819 1396.45,-581.793"/>
<polygon fill="black" stroke="black" points="1399.29,-579.736 1390.87,-573.299 1393.44,-583.579 1399.29,-579.736"/>
</g>
<!-- 58 -->
<g id="node59" class="node"><title>58</title>
<path fill="#399de5" fill-opacity="0.882353" stroke="black" d="M1541.5,-573C1541.5,-573 1454.5,-573 1454.5,-573 1448.5,-573 1442.5,-567 1442.5,-561 1442.5,-561 1442.5,-517 1442.5,-517 1442.5,-511 1448.5,-505 1454.5,-505 1454.5,-505 1541.5,-505 1541.5,-505 1547.5,-505 1553.5,-511 1553.5,-517 1553.5,-517 1553.5,-561 1553.5,-561 1553.5,-567 1547.5,-573 1541.5,-573"/>
<text text-anchor="start" x="1463.5" y="-557.8" font-family="Helvetica,sans-Serif" font-size="14.00">A6_w ≤ 0.5</text>
<text text-anchor="start" x="1450.5" y="-542.8" font-family="Helvetica,sans-Serif" font-size="14.00">entropy = 0.485</text>
<text text-anchor="start" x="1457" y="-527.8" font-family="Helvetica,sans-Serif" font-size="14.00">samples = 19</text>
<text text-anchor="start" x="1455" y="-512.8" font-family="Helvetica,sans-Serif" font-size="14.00">value = [2, 17]</text>
</g>
<!-- 48&#45;&gt;58 -->
<g id="edge58" class="edge"><title>48&#45;&gt;58</title>
<path fill="none" stroke="black" d="M1456.13,-608.884C1461.33,-600.332 1466.99,-591.013 1472.43,-582.072"/>
<polygon fill="black" stroke="black" points="1475.56,-583.663 1477.76,-573.299 1469.57,-580.027 1475.56,-583.663"/>
</g>
<!-- 50 -->
<g id="node51" class="node"><title>50</title>
<path fill="#e58139" stroke="black" d="M1286,-461.5C1286,-461.5 1214,-461.5 1214,-461.5 1208,-461.5 1202,-455.5 1202,-449.5 1202,-449.5 1202,-420.5 1202,-420.5 1202,-414.5 1208,-408.5 1214,-408.5 1214,-408.5 1286,-408.5 1286,-408.5 1292,-408.5 1298,-414.5 1298,-420.5 1298,-420.5 1298,-449.5 1298,-449.5 1298,-455.5 1292,-461.5 1286,-461.5"/>
<text text-anchor="start" x="1210" y="-446.3" font-family="Helvetica,sans-Serif" font-size="14.00">entropy = 0.0</text>
<text text-anchor="start" x="1212.5" y="-431.3" font-family="Helvetica,sans-Serif" font-size="14.00">samples = 8</text>
<text text-anchor="start" x="1210.5" y="-416.3" font-family="Helvetica,sans-Serif" font-size="14.00">value = [8, 0]</text>
</g>
<!-- 49&#45;&gt;50 -->
<g id="edge50" class="edge"><title>49&#45;&gt;50</title>
<path fill="none" stroke="black" d="M1330.36,-504.884C1316.64,-493.116 1301.21,-479.894 1287.57,-468.203"/>
<polygon fill="black" stroke="black" points="1289.64,-465.37 1279.77,-461.52 1285.09,-470.685 1289.64,-465.37"/>
</g>
<!-- 51 -->
<g id="node52" class="node"><title>51</title>
<path fill="#399de5" fill-opacity="0.666667" stroke="black" d="M1415.5,-469C1415.5,-469 1328.5,-469 1328.5,-469 1322.5,-469 1316.5,-463 1316.5,-457 1316.5,-457 1316.5,-413 1316.5,-413 1316.5,-407 1322.5,-401 1328.5,-401 1328.5,-401 1415.5,-401 1415.5,-401 1421.5,-401 1427.5,-407 1427.5,-413 1427.5,-413 1427.5,-457 1427.5,-457 1427.5,-463 1421.5,-469 1415.5,-469"/>
<text text-anchor="start" x="1335" y="-453.8" font-family="Helvetica,sans-Serif" font-size="14.00">A2 ≤ 25.835</text>
<text text-anchor="start" x="1324.5" y="-438.8" font-family="Helvetica,sans-Serif" font-size="14.00">entropy = 0.811</text>
<text text-anchor="start" x="1331" y="-423.8" font-family="Helvetica,sans-Serif" font-size="14.00">samples = 12</text>
<text text-anchor="start" x="1332.5" y="-408.8" font-family="Helvetica,sans-Serif" font-size="14.00">value = [3, 9]</text>
</g>
<!-- 49&#45;&gt;51 -->
<g id="edge51" class="edge"><title>49&#45;&gt;51</title>
<path fill="none" stroke="black" d="M1369.97,-504.884C1370.21,-496.778 1370.47,-487.982 1370.72,-479.472"/>
<polygon fill="black" stroke="black" points="1374.23,-479.398 1371.02,-469.299 1367.23,-479.192 1374.23,-479.398"/>
</g>
<!-- 52 -->
<g id="node53" class="node"><title>52</title>
<path fill="#399de5" stroke="black" d="M1286,-357.5C1286,-357.5 1214,-357.5 1214,-357.5 1208,-357.5 1202,-351.5 1202,-345.5 1202,-345.5 1202,-316.5 1202,-316.5 1202,-310.5 1208,-304.5 1214,-304.5 1214,-304.5 1286,-304.5 1286,-304.5 1292,-304.5 1298,-310.5 1298,-316.5 1298,-316.5 1298,-345.5 1298,-345.5 1298,-351.5 1292,-357.5 1286,-357.5"/>
<text text-anchor="start" x="1210" y="-342.3" font-family="Helvetica,sans-Serif" font-size="14.00">entropy = 0.0</text>
<text text-anchor="start" x="1212.5" y="-327.3" font-family="Helvetica,sans-Serif" font-size="14.00">samples = 7</text>
<text text-anchor="start" x="1210.5" y="-312.3" font-family="Helvetica,sans-Serif" font-size="14.00">value = [0, 7]</text>
</g>
<!-- 51&#45;&gt;52 -->
<g id="edge52" class="edge"><title>51&#45;&gt;52</title>
<path fill="none" stroke="black" d="M1332.39,-400.884C1318.31,-389.116 1302.5,-375.894 1288.52,-364.203"/>
<polygon fill="black" stroke="black" points="1290.44,-361.249 1280.52,-357.52 1285.95,-366.619 1290.44,-361.249"/>
</g>
<!-- 53 -->
<g id="node54" class="node"><title>53</title>
<path fill="#e58139" fill-opacity="0.333333" stroke="black" d="M1415.5,-365C1415.5,-365 1328.5,-365 1328.5,-365 1322.5,-365 1316.5,-359 1316.5,-353 1316.5,-353 1316.5,-309 1316.5,-309 1316.5,-303 1322.5,-297 1328.5,-297 1328.5,-297 1415.5,-297 1415.5,-297 1421.5,-297 1427.5,-303 1427.5,-309 1427.5,-309 1427.5,-353 1427.5,-353 1427.5,-359 1421.5,-365 1415.5,-365"/>
<text text-anchor="start" x="1335" y="-349.8" font-family="Helvetica,sans-Serif" font-size="14.00">A2 ≤ 26.665</text>
<text text-anchor="start" x="1324.5" y="-334.8" font-family="Helvetica,sans-Serif" font-size="14.00">entropy = 0.971</text>
<text text-anchor="start" x="1334.5" y="-319.8" font-family="Helvetica,sans-Serif" font-size="14.00">samples = 5</text>
<text text-anchor="start" x="1332.5" y="-304.8" font-family="Helvetica,sans-Serif" font-size="14.00">value = [3, 2]</text>
</g>
<!-- 51&#45;&gt;53 -->
<g id="edge53" class="edge"><title>51&#45;&gt;53</title>
<path fill="none" stroke="black" d="M1372,-400.884C1372,-392.778 1372,-383.982 1372,-375.472"/>
<polygon fill="black" stroke="black" points="1375.5,-375.299 1372,-365.299 1368.5,-375.299 1375.5,-375.299"/>
</g>
<!-- 54 -->
<g id="node55" class="node"><title>54</title>
<path fill="#e58139" stroke="black" d="M1316,-253.5C1316,-253.5 1244,-253.5 1244,-253.5 1238,-253.5 1232,-247.5 1232,-241.5 1232,-241.5 1232,-212.5 1232,-212.5 1232,-206.5 1238,-200.5 1244,-200.5 1244,-200.5 1316,-200.5 1316,-200.5 1322,-200.5 1328,-206.5 1328,-212.5 1328,-212.5 1328,-241.5 1328,-241.5 1328,-247.5 1322,-253.5 1316,-253.5"/>
<text text-anchor="start" x="1240" y="-238.3" font-family="Helvetica,sans-Serif" font-size="14.00">entropy = 0.0</text>
<text text-anchor="start" x="1242.5" y="-223.3" font-family="Helvetica,sans-Serif" font-size="14.00">samples = 2</text>
<text text-anchor="start" x="1240.5" y="-208.3" font-family="Helvetica,sans-Serif" font-size="14.00">value = [2, 0]</text>
</g>
<!-- 53&#45;&gt;54 -->
<g id="edge54" class="edge"><title>53&#45;&gt;54</title>
<path fill="none" stroke="black" d="M1342.13,-296.884C1331.81,-285.446 1320.26,-272.634 1309.94,-261.19"/>
<polygon fill="black" stroke="black" points="1312.31,-258.601 1303.02,-253.52 1307.12,-263.29 1312.31,-258.601"/>
</g>
<!-- 55 -->
<g id="node56" class="node"><title>55</title>
<path fill="#399de5" fill-opacity="0.498039" stroke="black" d="M1445.5,-261C1445.5,-261 1358.5,-261 1358.5,-261 1352.5,-261 1346.5,-255 1346.5,-249 1346.5,-249 1346.5,-205 1346.5,-205 1346.5,-199 1352.5,-193 1358.5,-193 1358.5,-193 1445.5,-193 1445.5,-193 1451.5,-193 1457.5,-199 1457.5,-205 1457.5,-205 1457.5,-249 1457.5,-249 1457.5,-255 1451.5,-261 1445.5,-261"/>
<text text-anchor="start" x="1367.5" y="-245.8" font-family="Helvetica,sans-Serif" font-size="14.00">A6_w ≤ 0.5</text>
<text text-anchor="start" x="1354.5" y="-230.8" font-family="Helvetica,sans-Serif" font-size="14.00">entropy = 0.918</text>
<text text-anchor="start" x="1364.5" y="-215.8" font-family="Helvetica,sans-Serif" font-size="14.00">samples = 3</text>
<text text-anchor="start" x="1362.5" y="-200.8" font-family="Helvetica,sans-Serif" font-size="14.00">value = [1, 2]</text>
</g>
<!-- 53&#45;&gt;55 -->
<g id="edge55" class="edge"><title>53&#45;&gt;55</title>
<path fill="none" stroke="black" d="M1381.74,-296.884C1384.18,-288.6 1386.82,-279.595 1389.38,-270.911"/>
<polygon fill="black" stroke="black" points="1392.74,-271.881 1392.21,-261.299 1386.03,-269.905 1392.74,-271.881"/>
</g>
<!-- 56 -->
<g id="node57" class="node"><title>56</title>
<path fill="#399de5" stroke="black" d="M1382,-149.5C1382,-149.5 1310,-149.5 1310,-149.5 1304,-149.5 1298,-143.5 1298,-137.5 1298,-137.5 1298,-108.5 1298,-108.5 1298,-102.5 1304,-96.5 1310,-96.5 1310,-96.5 1382,-96.5 1382,-96.5 1388,-96.5 1394,-102.5 1394,-108.5 1394,-108.5 1394,-137.5 1394,-137.5 1394,-143.5 1388,-149.5 1382,-149.5"/>
<text text-anchor="start" x="1306" y="-134.3" font-family="Helvetica,sans-Serif" font-size="14.00">entropy = 0.0</text>
<text text-anchor="start" x="1308.5" y="-119.3" font-family="Helvetica,sans-Serif" font-size="14.00">samples = 2</text>
<text text-anchor="start" x="1306.5" y="-104.3" font-family="Helvetica,sans-Serif" font-size="14.00">value = [0, 2]</text>
</g>
<!-- 55&#45;&gt;56 -->
<g id="edge56" class="edge"><title>55&#45;&gt;56</title>
<path fill="none" stroke="black" d="M1383.82,-192.884C1377.78,-181.886 1371.04,-169.617 1364.95,-158.517"/>
<polygon fill="black" stroke="black" points="1367.89,-156.601 1360.01,-149.52 1361.76,-159.97 1367.89,-156.601"/>
</g>
<!-- 57 -->
<g id="node58" class="node"><title>57</title>
<path fill="#e58139" stroke="black" d="M1496,-149.5C1496,-149.5 1424,-149.5 1424,-149.5 1418,-149.5 1412,-143.5 1412,-137.5 1412,-137.5 1412,-108.5 1412,-108.5 1412,-102.5 1418,-96.5 1424,-96.5 1424,-96.5 1496,-96.5 1496,-96.5 1502,-96.5 1508,-102.5 1508,-108.5 1508,-108.5 1508,-137.5 1508,-137.5 1508,-143.5 1502,-149.5 1496,-149.5"/>
<text text-anchor="start" x="1420" y="-134.3" font-family="Helvetica,sans-Serif" font-size="14.00">entropy = 0.0</text>
<text text-anchor="start" x="1422.5" y="-119.3" font-family="Helvetica,sans-Serif" font-size="14.00">samples = 1</text>
<text text-anchor="start" x="1420.5" y="-104.3" font-family="Helvetica,sans-Serif" font-size="14.00">value = [1, 0]</text>
</g>
<!-- 55&#45;&gt;57 -->
<g id="edge57" class="edge"><title>55&#45;&gt;57</title>
<path fill="none" stroke="black" d="M1420.83,-192.884C1427.08,-181.886 1434.06,-169.617 1440.37,-158.517"/>
<polygon fill="black" stroke="black" points="1443.59,-159.943 1445.49,-149.52 1437.5,-156.483 1443.59,-159.943"/>
</g>
<!-- 59 -->
<g id="node60" class="node"><title>59</title>
<path fill="#399de5" fill-opacity="0.941176" stroke="black" d="M1538,-469C1538,-469 1458,-469 1458,-469 1452,-469 1446,-463 1446,-457 1446,-457 1446,-413 1446,-413 1446,-407 1452,-401 1458,-401 1458,-401 1538,-401 1538,-401 1544,-401 1550,-407 1550,-413 1550,-413 1550,-457 1550,-457 1550,-463 1544,-469 1538,-469"/>
<text text-anchor="start" x="1461" y="-453.8" font-family="Helvetica,sans-Serif" font-size="14.00">A6_aa ≤ 0.5</text>
<text text-anchor="start" x="1454" y="-438.8" font-family="Helvetica,sans-Serif" font-size="14.00">entropy = 0.31</text>
<text text-anchor="start" x="1457" y="-423.8" font-family="Helvetica,sans-Serif" font-size="14.00">samples = 18</text>
<text text-anchor="start" x="1455" y="-408.8" font-family="Helvetica,sans-Serif" font-size="14.00">value = [1, 17]</text>
</g>
<!-- 58&#45;&gt;59 -->
<g id="edge59" class="edge"><title>58&#45;&gt;59</title>
<path fill="none" stroke="black" d="M1498,-504.884C1498,-496.778 1498,-487.982 1498,-479.472"/>
<polygon fill="black" stroke="black" points="1501.5,-479.299 1498,-469.299 1494.5,-479.299 1501.5,-479.299"/>
</g>
<!-- 64 -->
<g id="node65" class="node"><title>64</title>
<path fill="#e58139" stroke="black" d="M1652,-461.5C1652,-461.5 1580,-461.5 1580,-461.5 1574,-461.5 1568,-455.5 1568,-449.5 1568,-449.5 1568,-420.5 1568,-420.5 1568,-414.5 1574,-408.5 1580,-408.5 1580,-408.5 1652,-408.5 1652,-408.5 1658,-408.5 1664,-414.5 1664,-420.5 1664,-420.5 1664,-449.5 1664,-449.5 1664,-455.5 1658,-461.5 1652,-461.5"/>
<text text-anchor="start" x="1576" y="-446.3" font-family="Helvetica,sans-Serif" font-size="14.00">entropy = 0.0</text>
<text text-anchor="start" x="1578.5" y="-431.3" font-family="Helvetica,sans-Serif" font-size="14.00">samples = 1</text>
<text text-anchor="start" x="1576.5" y="-416.3" font-family="Helvetica,sans-Serif" font-size="14.00">value = [1, 0]</text>
</g>
<!-- 58&#45;&gt;64 -->
<g id="edge64" class="edge"><title>58&#45;&gt;64</title>
<path fill="none" stroke="black" d="M1536.31,-504.884C1549.92,-493.116 1565.22,-479.894 1578.75,-468.203"/>
<polygon fill="black" stroke="black" points="1581.2,-470.707 1586.48,-461.52 1576.62,-465.412 1581.2,-470.707"/>
</g>
<!-- 60 -->
<g id="node61" class="node"><title>60</title>
<path fill="#399de5" stroke="black" d="M1536,-357.5C1536,-357.5 1458,-357.5 1458,-357.5 1452,-357.5 1446,-351.5 1446,-345.5 1446,-345.5 1446,-316.5 1446,-316.5 1446,-310.5 1452,-304.5 1458,-304.5 1458,-304.5 1536,-304.5 1536,-304.5 1542,-304.5 1548,-310.5 1548,-316.5 1548,-316.5 1548,-345.5 1548,-345.5 1548,-351.5 1542,-357.5 1536,-357.5"/>
<text text-anchor="start" x="1457" y="-342.3" font-family="Helvetica,sans-Serif" font-size="14.00">entropy = 0.0</text>
<text text-anchor="start" x="1456" y="-327.3" font-family="Helvetica,sans-Serif" font-size="14.00">samples = 15</text>
<text text-anchor="start" x="1454" y="-312.3" font-family="Helvetica,sans-Serif" font-size="14.00">value = [0, 15]</text>
</g>
<!-- 59&#45;&gt;60 -->
<g id="edge60" class="edge"><title>59&#45;&gt;60</title>
<path fill="none" stroke="black" d="M1497.68,-400.884C1497.57,-390.326 1497.46,-378.597 1497.35,-367.854"/>
<polygon fill="black" stroke="black" points="1500.85,-367.485 1497.25,-357.52 1493.85,-367.554 1500.85,-367.485"/>
</g>
<!-- 61 -->
<g id="node62" class="node"><title>61</title>
<path fill="#399de5" fill-opacity="0.498039" stroke="black" d="M1664.5,-365C1664.5,-365 1577.5,-365 1577.5,-365 1571.5,-365 1565.5,-359 1565.5,-353 1565.5,-353 1565.5,-309 1565.5,-309 1565.5,-303 1571.5,-297 1577.5,-297 1577.5,-297 1664.5,-297 1664.5,-297 1670.5,-297 1676.5,-303 1676.5,-309 1676.5,-309 1676.5,-353 1676.5,-353 1676.5,-359 1670.5,-365 1664.5,-365"/>
<text text-anchor="start" x="1584" y="-349.8" font-family="Helvetica,sans-Serif" font-size="14.00">A13_g ≤ 0.5</text>
<text text-anchor="start" x="1573.5" y="-334.8" font-family="Helvetica,sans-Serif" font-size="14.00">entropy = 0.918</text>
<text text-anchor="start" x="1583.5" y="-319.8" font-family="Helvetica,sans-Serif" font-size="14.00">samples = 3</text>
<text text-anchor="start" x="1581.5" y="-304.8" font-family="Helvetica,sans-Serif" font-size="14.00">value = [1, 2]</text>
</g>
<!-- 59&#45;&gt;61 -->
<g id="edge61" class="edge"><title>59&#45;&gt;61</title>
<path fill="none" stroke="black" d="M1537.93,-400.884C1549.11,-391.62 1561.36,-381.455 1572.95,-371.845"/>
<polygon fill="black" stroke="black" points="1575.38,-374.377 1580.84,-365.299 1570.91,-368.989 1575.38,-374.377"/>
</g>
<!-- 62 -->
<g id="node63" class="node"><title>62</title>
<path fill="#e58139" stroke="black" d="M1600,-253.5C1600,-253.5 1528,-253.5 1528,-253.5 1522,-253.5 1516,-247.5 1516,-241.5 1516,-241.5 1516,-212.5 1516,-212.5 1516,-206.5 1522,-200.5 1528,-200.5 1528,-200.5 1600,-200.5 1600,-200.5 1606,-200.5 1612,-206.5 1612,-212.5 1612,-212.5 1612,-241.5 1612,-241.5 1612,-247.5 1606,-253.5 1600,-253.5"/>
<text text-anchor="start" x="1524" y="-238.3" font-family="Helvetica,sans-Serif" font-size="14.00">entropy = 0.0</text>
<text text-anchor="start" x="1526.5" y="-223.3" font-family="Helvetica,sans-Serif" font-size="14.00">samples = 1</text>
<text text-anchor="start" x="1524.5" y="-208.3" font-family="Helvetica,sans-Serif" font-size="14.00">value = [1, 0]</text>
</g>
<!-- 61&#45;&gt;62 -->
<g id="edge62" class="edge"><title>61&#45;&gt;62</title>
<path fill="none" stroke="black" d="M1602.49,-296.884C1596.35,-285.886 1589.49,-273.617 1583.29,-262.517"/>
<polygon fill="black" stroke="black" points="1586.19,-260.542 1578.26,-253.52 1580.08,-263.957 1586.19,-260.542"/>
</g>
<!-- 63 -->
<g id="node64" class="node"><title>63</title>
<path fill="#399de5" stroke="black" d="M1714,-253.5C1714,-253.5 1642,-253.5 1642,-253.5 1636,-253.5 1630,-247.5 1630,-241.5 1630,-241.5 1630,-212.5 1630,-212.5 1630,-206.5 1636,-200.5 1642,-200.5 1642,-200.5 1714,-200.5 1714,-200.5 1720,-200.5 1726,-206.5 1726,-212.5 1726,-212.5 1726,-241.5 1726,-241.5 1726,-247.5 1720,-253.5 1714,-253.5"/>
<text text-anchor="start" x="1638" y="-238.3" font-family="Helvetica,sans-Serif" font-size="14.00">entropy = 0.0</text>
<text text-anchor="start" x="1640.5" y="-223.3" font-family="Helvetica,sans-Serif" font-size="14.00">samples = 2</text>
<text text-anchor="start" x="1638.5" y="-208.3" font-family="Helvetica,sans-Serif" font-size="14.00">value = [0, 2]</text>
</g>
<!-- 61&#45;&gt;63 -->
<g id="edge63" class="edge"><title>61&#45;&gt;63</title>
<path fill="none" stroke="black" d="M1639.51,-296.884C1645.65,-285.886 1652.51,-273.617 1658.71,-262.517"/>
<polygon fill="black" stroke="black" points="1661.92,-263.957 1663.74,-253.52 1655.81,-260.542 1661.92,-263.957"/>
</g>
<!-- 66 -->
<g id="node67" class="node"><title>66</title>
<path fill="#e58139" stroke="black" d="M1656,-565.5C1656,-565.5 1584,-565.5 1584,-565.5 1578,-565.5 1572,-559.5 1572,-553.5 1572,-553.5 1572,-524.5 1572,-524.5 1572,-518.5 1578,-512.5 1584,-512.5 1584,-512.5 1656,-512.5 1656,-512.5 1662,-512.5 1668,-518.5 1668,-524.5 1668,-524.5 1668,-553.5 1668,-553.5 1668,-559.5 1662,-565.5 1656,-565.5"/>
<text text-anchor="start" x="1580" y="-550.3" font-family="Helvetica,sans-Serif" font-size="14.00">entropy = 0.0</text>
<text text-anchor="start" x="1582.5" y="-535.3" font-family="Helvetica,sans-Serif" font-size="14.00">samples = 8</text>
<text text-anchor="start" x="1580.5" y="-520.3" font-family="Helvetica,sans-Serif" font-size="14.00">value = [8, 0]</text>
</g>
<!-- 65&#45;&gt;66 -->
<g id="edge66" class="edge"><title>65&#45;&gt;66</title>
<path fill="none" stroke="black" d="M1617.3,-608.884C1617.72,-598.216 1618.18,-586.352 1618.61,-575.519"/>
<polygon fill="black" stroke="black" points="1622.1,-575.649 1619,-565.52 1615.11,-575.375 1622.1,-575.649"/>
</g>
<!-- 67 -->
<g id="node68" class="node"><title>67</title>
<path fill="#399de5" stroke="black" d="M1770,-565.5C1770,-565.5 1698,-565.5 1698,-565.5 1692,-565.5 1686,-559.5 1686,-553.5 1686,-553.5 1686,-524.5 1686,-524.5 1686,-518.5 1692,-512.5 1698,-512.5 1698,-512.5 1770,-512.5 1770,-512.5 1776,-512.5 1782,-518.5 1782,-524.5 1782,-524.5 1782,-553.5 1782,-553.5 1782,-559.5 1776,-565.5 1770,-565.5"/>
<text text-anchor="start" x="1694" y="-550.3" font-family="Helvetica,sans-Serif" font-size="14.00">entropy = 0.0</text>
<text text-anchor="start" x="1696.5" y="-535.3" font-family="Helvetica,sans-Serif" font-size="14.00">samples = 2</text>
<text text-anchor="start" x="1694.5" y="-520.3" font-family="Helvetica,sans-Serif" font-size="14.00">value = [0, 2]</text>
</g>
<!-- 65&#45;&gt;67 -->
<g id="edge67" class="edge"><title>65&#45;&gt;67</title>
<path fill="none" stroke="black" d="M1654.31,-608.884C1667.92,-597.116 1683.22,-583.894 1696.75,-572.203"/>
<polygon fill="black" stroke="black" points="1699.2,-574.707 1704.48,-565.52 1694.62,-569.412 1699.2,-574.707"/>
</g>
<!-- 69 -->
<g id="node70" class="node"><title>69</title>
<path fill="#e58139" fill-opacity="0.909804" stroke="black" d="M1783.5,-781C1783.5,-781 1696.5,-781 1696.5,-781 1690.5,-781 1684.5,-775 1684.5,-769 1684.5,-769 1684.5,-725 1684.5,-725 1684.5,-719 1690.5,-713 1696.5,-713 1696.5,-713 1783.5,-713 1783.5,-713 1789.5,-713 1795.5,-719 1795.5,-725 1795.5,-725 1795.5,-769 1795.5,-769 1795.5,-775 1789.5,-781 1783.5,-781"/>
<text text-anchor="start" x="1710.5" y="-765.8" font-family="Helvetica,sans-Serif" font-size="14.00">A8 ≤ 0.75</text>
<text text-anchor="start" x="1692.5" y="-750.8" font-family="Helvetica,sans-Serif" font-size="14.00">entropy = 0.414</text>
<text text-anchor="start" x="1699" y="-735.8" font-family="Helvetica,sans-Serif" font-size="14.00">samples = 12</text>
<text text-anchor="start" x="1697" y="-720.8" font-family="Helvetica,sans-Serif" font-size="14.00">value = [11, 1]</text>
</g>
<!-- 68&#45;&gt;69 -->
<g id="edge69" class="edge"><title>68&#45;&gt;69</title>
<path fill="none" stroke="black" d="M1740,-816.884C1740,-808.778 1740,-799.982 1740,-791.472"/>
<polygon fill="black" stroke="black" points="1743.5,-791.299 1740,-781.299 1736.5,-791.299 1743.5,-791.299"/>
</g>
<!-- 74 -->
<g id="node75" class="node"><title>74</title>
<path fill="#e58139" stroke="black" d="M1903,-773.5C1903,-773.5 1825,-773.5 1825,-773.5 1819,-773.5 1813,-767.5 1813,-761.5 1813,-761.5 1813,-732.5 1813,-732.5 1813,-726.5 1819,-720.5 1825,-720.5 1825,-720.5 1903,-720.5 1903,-720.5 1909,-720.5 1915,-726.5 1915,-732.5 1915,-732.5 1915,-761.5 1915,-761.5 1915,-767.5 1909,-773.5 1903,-773.5"/>
<text text-anchor="start" x="1824" y="-758.3" font-family="Helvetica,sans-Serif" font-size="14.00">entropy = 0.0</text>
<text text-anchor="start" x="1823" y="-743.3" font-family="Helvetica,sans-Serif" font-size="14.00">samples = 57</text>
<text text-anchor="start" x="1821" y="-728.3" font-family="Helvetica,sans-Serif" font-size="14.00">value = [57, 0]</text>
</g>
<!-- 68&#45;&gt;74 -->
<g id="edge74" class="edge"><title>68&#45;&gt;74</title>
<path fill="none" stroke="black" d="M1780.26,-816.884C1794.7,-805.006 1810.94,-791.646 1825.25,-779.876"/>
<polygon fill="black" stroke="black" points="1827.48,-782.576 1832.98,-773.52 1823.03,-777.17 1827.48,-782.576"/>
</g>
<!-- 70 -->
<g id="node71" class="node"><title>70</title>
<path fill="#e58139" stroke="black" d="M1779,-669.5C1779,-669.5 1701,-669.5 1701,-669.5 1695,-669.5 1689,-663.5 1689,-657.5 1689,-657.5 1689,-628.5 1689,-628.5 1689,-622.5 1695,-616.5 1701,-616.5 1701,-616.5 1779,-616.5 1779,-616.5 1785,-616.5 1791,-622.5 1791,-628.5 1791,-628.5 1791,-657.5 1791,-657.5 1791,-663.5 1785,-669.5 1779,-669.5"/>
<text text-anchor="start" x="1700" y="-654.3" font-family="Helvetica,sans-Serif" font-size="14.00">entropy = 0.0</text>
<text text-anchor="start" x="1699" y="-639.3" font-family="Helvetica,sans-Serif" font-size="14.00">samples = 10</text>
<text text-anchor="start" x="1697" y="-624.3" font-family="Helvetica,sans-Serif" font-size="14.00">value = [10, 0]</text>
</g>
<!-- 69&#45;&gt;70 -->
<g id="edge70" class="edge"><title>69&#45;&gt;70</title>
<path fill="none" stroke="black" d="M1740,-712.884C1740,-702.326 1740,-690.597 1740,-679.854"/>
<polygon fill="black" stroke="black" points="1743.5,-679.52 1740,-669.52 1736.5,-679.52 1743.5,-679.52"/>
</g>
<!-- 71 -->
<g id="node72" class="node"><title>71</title>
<path fill="none" stroke="black" d="M1893,-677C1893,-677 1821,-677 1821,-677 1815,-677 1809,-671 1809,-665 1809,-665 1809,-621 1809,-621 1809,-615 1815,-609 1821,-609 1821,-609 1893,-609 1893,-609 1899,-609 1905,-615 1905,-621 1905,-621 1905,-665 1905,-665 1905,-671 1899,-677 1893,-677"/>
<text text-anchor="start" x="1823.5" y="-661.8" font-family="Helvetica,sans-Serif" font-size="14.00">A1_a ≤ 0.5</text>
<text text-anchor="start" x="1817" y="-646.8" font-family="Helvetica,sans-Serif" font-size="14.00">entropy = 1.0</text>
<text text-anchor="start" x="1819.5" y="-631.8" font-family="Helvetica,sans-Serif" font-size="14.00">samples = 2</text>
<text text-anchor="start" x="1817.5" y="-616.8" font-family="Helvetica,sans-Serif" font-size="14.00">value = [1, 1]</text>
</g>
<!-- 69&#45;&gt;71 -->
<g id="edge71" class="edge"><title>69&#45;&gt;71</title>
<path fill="none" stroke="black" d="M1777.99,-712.884C1788.51,-703.709 1800.05,-693.65 1810.98,-684.123"/>
<polygon fill="black" stroke="black" points="1813.57,-686.509 1818.8,-677.299 1808.97,-681.233 1813.57,-686.509"/>
</g>
<!-- 72 -->
<g id="node73" class="node"><title>72</title>
<path fill="#e58139" stroke="black" d="M1890,-565.5C1890,-565.5 1818,-565.5 1818,-565.5 1812,-565.5 1806,-559.5 1806,-553.5 1806,-553.5 1806,-524.5 1806,-524.5 1806,-518.5 1812,-512.5 1818,-512.5 1818,-512.5 1890,-512.5 1890,-512.5 1896,-512.5 1902,-518.5 1902,-524.5 1902,-524.5 1902,-553.5 1902,-553.5 1902,-559.5 1896,-565.5 1890,-565.5"/>
<text text-anchor="start" x="1814" y="-550.3" font-family="Helvetica,sans-Serif" font-size="14.00">entropy = 0.0</text>
<text text-anchor="start" x="1816.5" y="-535.3" font-family="Helvetica,sans-Serif" font-size="14.00">samples = 1</text>
<text text-anchor="start" x="1814.5" y="-520.3" font-family="Helvetica,sans-Serif" font-size="14.00">value = [1, 0]</text>
</g>
<!-- 71&#45;&gt;72 -->
<g id="edge72" class="edge"><title>71&#45;&gt;72</title>
<path fill="none" stroke="black" d="M1856.03,-608.884C1855.71,-598.216 1855.36,-586.352 1855.04,-575.519"/>
<polygon fill="black" stroke="black" points="1858.54,-575.413 1854.75,-565.52 1851.55,-575.619 1858.54,-575.413"/>
</g>
<!-- 73 -->
<g id="node74" class="node"><title>73</title>
<path fill="#399de5" stroke="black" d="M2004,-565.5C2004,-565.5 1932,-565.5 1932,-565.5 1926,-565.5 1920,-559.5 1920,-553.5 1920,-553.5 1920,-524.5 1920,-524.5 1920,-518.5 1926,-512.5 1932,-512.5 1932,-512.5 2004,-512.5 2004,-512.5 2010,-512.5 2016,-518.5 2016,-524.5 2016,-524.5 2016,-553.5 2016,-553.5 2016,-559.5 2010,-565.5 2004,-565.5"/>
<text text-anchor="start" x="1928" y="-550.3" font-family="Helvetica,sans-Serif" font-size="14.00">entropy = 0.0</text>
<text text-anchor="start" x="1930.5" y="-535.3" font-family="Helvetica,sans-Serif" font-size="14.00">samples = 1</text>
<text text-anchor="start" x="1928.5" y="-520.3" font-family="Helvetica,sans-Serif" font-size="14.00">value = [0, 1]</text>
</g>
<!-- 71&#45;&gt;73 -->
<g id="edge73" class="edge"><title>71&#45;&gt;73</title>
<path fill="none" stroke="black" d="M1893.04,-608.884C1905.72,-597.226 1919.96,-584.141 1932.6,-572.532"/>
<polygon fill="black" stroke="black" points="1935.23,-574.863 1940.23,-565.52 1930.5,-569.709 1935.23,-574.863"/>
</g>
</g>
</svg>
