<?xml version="1.0" encoding="UTF-8" standalone="no"?>
<!DOCTYPE svg PUBLIC "-//W3C//DTD SVG 1.1//EN"
 "http://www.w3.org/Graphics/SVG/1.1/DTD/svg11.dtd">
<!-- Generated by graphviz version 2.38.0 (20140413.2041)
 -->
<!-- Title: Tree Pages: 1 -->
<svg width="1232pt" height="477pt"
 viewBox="0.00 0.00 1231.50 477.00" xmlns="http://www.w3.org/2000/svg" xmlns:xlink="http://www.w3.org/1999/xlink">
<g id="graph0" class="graph" transform="scale(1 1) rotate(0) translate(4 473)">
<title>Tree</title>
<polygon fill="white" stroke="none" points="-4,4 -4,-473 1227.5,-473 1227.5,4 -4,4"/>
<!-- 0 -->
<g id="node1" class="node"><title>0</title>
<path fill="#399de5" fill-opacity="0.274510" stroke="black" d="M693,-469C693,-469 592,-469 592,-469 586,-469 580,-463 580,-457 580,-457 580,-413 580,-413 580,-407 586,-401 592,-401 592,-401 693,-401 693,-401 699,-401 705,-407 705,-413 705,-413 705,-457 705,-457 705,-463 699,-469 693,-469"/>
<text text-anchor="start" x="611" y="-453.8" font-family="Helvetica,sans-Serif" font-size="14.00">A9_t ≤ 0.5</text>
<text text-anchor="start" x="595" y="-438.8" font-family="Helvetica,sans-Serif" font-size="14.00">entropy = 0.981</text>
<text text-anchor="start" x="597.5" y="-423.8" font-family="Helvetica,sans-Serif" font-size="14.00">samples = 343</text>
<text text-anchor="start" x="588" y="-408.8" font-family="Helvetica,sans-Serif" font-size="14.00">value = [144, 199]</text>
</g>
<!-- 1 -->
<g id="node2" class="node"><title>1</title>
<path fill="#399de5" fill-opacity="0.937255" stroke="black" d="M594,-365C594,-365 501,-365 501,-365 495,-365 489,-359 489,-353 489,-353 489,-309 489,-309 489,-303 495,-297 501,-297 501,-297 594,-297 594,-297 600,-297 606,-303 606,-309 606,-309 606,-353 606,-353 606,-359 600,-365 594,-365"/>
<text text-anchor="start" x="516.5" y="-349.8" font-family="Helvetica,sans-Serif" font-size="14.00">A4_l ≤ 0.5</text>
<text text-anchor="start" x="500" y="-334.8" font-family="Helvetica,sans-Serif" font-size="14.00">entropy = 0.324</text>
<text text-anchor="start" x="502.5" y="-319.8" font-family="Helvetica,sans-Serif" font-size="14.00">samples = 169</text>
<text text-anchor="start" x="497" y="-304.8" font-family="Helvetica,sans-Serif" font-size="14.00">value = [10, 159]</text>
</g>
<!-- 0&#45;&gt;1 -->
<g id="edge1" class="edge"><title>0&#45;&gt;1</title>
<path fill="none" stroke="black" d="M611.656,-400.884C603.277,-391.887 594.106,-382.041 585.387,-372.678"/>
<polygon fill="black" stroke="black" points="587.891,-370.232 578.514,-365.299 582.768,-375.003 587.891,-370.232"/>
<text text-anchor="middle" x="577.626" y="-386.584" font-family="Helvetica,sans-Serif" font-size="14.00">True</text>
</g>
<!-- 10 -->
<g id="node11" class="node"><title>10</title>
<path fill="#e58139" fill-opacity="0.701961" stroke="black" d="M785,-365C785,-365 692,-365 692,-365 686,-365 680,-359 680,-353 680,-353 680,-309 680,-309 680,-303 686,-297 692,-297 692,-297 785,-297 785,-297 791,-297 797,-303 797,-309 797,-309 797,-353 797,-353 797,-359 791,-365 785,-365"/>
<text text-anchor="start" x="701.5" y="-349.8" font-family="Helvetica,sans-Serif" font-size="14.00">A15 ≤ 235.0</text>
<text text-anchor="start" x="691" y="-334.8" font-family="Helvetica,sans-Serif" font-size="14.00">entropy = 0.778</text>
<text text-anchor="start" x="693.5" y="-319.8" font-family="Helvetica,sans-Serif" font-size="14.00">samples = 174</text>
<text text-anchor="start" x="688" y="-304.8" font-family="Helvetica,sans-Serif" font-size="14.00">value = [134, 40]</text>
</g>
<!-- 0&#45;&gt;10 -->
<g id="edge10" class="edge"><title>0&#45;&gt;10</title>
<path fill="none" stroke="black" d="M673.668,-400.884C682.136,-391.887 691.403,-382.041 700.215,-372.678"/>
<polygon fill="black" stroke="black" points="702.854,-374.98 707.159,-365.299 697.757,-370.183 702.854,-374.98"/>
<text text-anchor="middle" x="707.917" y="-386.588" font-family="Helvetica,sans-Serif" font-size="14.00">False</text>
</g>
<!-- 2 -->
<g id="node3" class="node"><title>2</title>
<path fill="#399de5" fill-opacity="0.949020" stroke="black" d="M411,-261C411,-261 324,-261 324,-261 318,-261 312,-255 312,-249 312,-249 312,-205 312,-205 312,-199 318,-193 324,-193 324,-193 411,-193 411,-193 417,-193 423,-199 423,-205 423,-205 423,-249 423,-249 423,-255 417,-261 411,-261"/>
<text text-anchor="start" x="330.5" y="-245.8" font-family="Helvetica,sans-Serif" font-size="14.00">A14 ≤ 421.0</text>
<text text-anchor="start" x="320" y="-230.8" font-family="Helvetica,sans-Serif" font-size="14.00">entropy = 0.277</text>
<text text-anchor="start" x="322.5" y="-215.8" font-family="Helvetica,sans-Serif" font-size="14.00">samples = 167</text>
<text text-anchor="start" x="320.5" y="-200.8" font-family="Helvetica,sans-Serif" font-size="14.00">value = [8, 159]</text>
</g>
<!-- 1&#45;&gt;2 -->
<g id="edge2" class="edge"><title>1&#45;&gt;2</title>
<path fill="none" stroke="black" d="M489.059,-296.884C470.804,-286.539 450.564,-275.07 431.922,-264.506"/>
<polygon fill="black" stroke="black" points="433.625,-261.448 423.199,-259.563 430.174,-267.538 433.625,-261.448"/>
</g>
<!-- 9 -->
<g id="node10" class="node"><title>9</title>
<path fill="#e58139" stroke="black" d="M583.5,-253.5C583.5,-253.5 511.5,-253.5 511.5,-253.5 505.5,-253.5 499.5,-247.5 499.5,-241.5 499.5,-241.5 499.5,-212.5 499.5,-212.5 499.5,-206.5 505.5,-200.5 511.5,-200.5 511.5,-200.5 583.5,-200.5 583.5,-200.5 589.5,-200.5 595.5,-206.5 595.5,-212.5 595.5,-212.5 595.5,-241.5 595.5,-241.5 595.5,-247.5 589.5,-253.5 583.5,-253.5"/>
<text text-anchor="start" x="507.5" y="-238.3" font-family="Helvetica,sans-Serif" font-size="14.00">entropy = 0.0</text>
<text text-anchor="start" x="510" y="-223.3" font-family="Helvetica,sans-Serif" font-size="14.00">samples = 2</text>
<text text-anchor="start" x="508" y="-208.3" font-family="Helvetica,sans-Serif" font-size="14.00">value = [2, 0]</text>
</g>
<!-- 1&#45;&gt;9 -->
<g id="edge9" class="edge"><title>1&#45;&gt;9</title>
<path fill="none" stroke="black" d="M547.5,-296.884C547.5,-286.326 547.5,-274.597 547.5,-263.854"/>
<polygon fill="black" stroke="black" points="551,-263.52 547.5,-253.52 544,-263.52 551,-263.52"/>
</g>
<!-- 3 -->
<g id="node4" class="node"><title>3</title>
<path fill="#399de5" fill-opacity="0.968627" stroke="black" d="M228,-157C228,-157 141,-157 141,-157 135,-157 129,-151 129,-145 129,-145 129,-101 129,-101 129,-95 135,-89 141,-89 141,-89 228,-89 228,-89 234,-89 240,-95 240,-101 240,-101 240,-145 240,-145 240,-151 234,-157 228,-157"/>
<text text-anchor="start" x="151" y="-141.8" font-family="Helvetica,sans-Serif" font-size="14.00">A2 ≤ 37.54</text>
<text text-anchor="start" x="137" y="-126.8" font-family="Helvetica,sans-Serif" font-size="14.00">entropy = 0.204</text>
<text text-anchor="start" x="139.5" y="-111.8" font-family="Helvetica,sans-Serif" font-size="14.00">samples = 157</text>
<text text-anchor="start" x="137.5" y="-96.8" font-family="Helvetica,sans-Serif" font-size="14.00">value = [5, 152]</text>
</g>
<!-- 2&#45;&gt;3 -->
<g id="edge3" class="edge"><title>2&#45;&gt;3</title>
<path fill="none" stroke="black" d="M311.6,-194.842C291.822,-183.819 269.416,-171.33 248.984,-159.942"/>
<polygon fill="black" stroke="black" points="250.497,-156.778 240.058,-154.967 247.089,-162.893 250.497,-156.778"/>
</g>
<!-- 6 -->
<g id="node7" class="node"><title>6</title>
<path fill="#399de5" fill-opacity="0.572549" stroke="black" d="M411,-157C411,-157 324,-157 324,-157 318,-157 312,-151 312,-145 312,-145 312,-101 312,-101 312,-95 318,-89 324,-89 324,-89 411,-89 411,-89 417,-89 423,-95 423,-101 423,-101 423,-145 423,-145 423,-151 417,-157 411,-157"/>
<text text-anchor="start" x="332.5" y="-141.8" font-family="Helvetica,sans-Serif" font-size="14.00">A12_f ≤ 0.5</text>
<text text-anchor="start" x="320" y="-126.8" font-family="Helvetica,sans-Serif" font-size="14.00">entropy = 0.881</text>
<text text-anchor="start" x="326.5" y="-111.8" font-family="Helvetica,sans-Serif" font-size="14.00">samples = 10</text>
<text text-anchor="start" x="328" y="-96.8" font-family="Helvetica,sans-Serif" font-size="14.00">value = [3, 7]</text>
</g>
<!-- 2&#45;&gt;6 -->
<g id="edge6" class="edge"><title>2&#45;&gt;6</title>
<path fill="none" stroke="black" d="M367.5,-192.884C367.5,-184.778 367.5,-175.982 367.5,-167.472"/>
<polygon fill="black" stroke="black" points="371,-167.299 367.5,-157.299 364,-167.299 371,-167.299"/>
</g>
<!-- 4 -->
<g id="node5" class="node"><title>4</title>
<path fill="#399de5" fill-opacity="0.984314" stroke="black" d="M99,-53C99,-53 12,-53 12,-53 6,-53 7.10543e-15,-47 7.10543e-15,-41 7.10543e-15,-41 7.10543e-15,-12 7.10543e-15,-12 7.10543e-15,-6 6,-0 12,-0 12,-0 99,-0 99,-0 105,-0 111,-6 111,-12 111,-12 111,-41 111,-41 111,-47 105,-53 99,-53"/>
<text text-anchor="start" x="8" y="-37.8" font-family="Helvetica,sans-Serif" font-size="14.00">entropy = 0.111</text>
<text text-anchor="start" x="10.5" y="-22.8" font-family="Helvetica,sans-Serif" font-size="14.00">samples = 135</text>
<text text-anchor="start" x="8.5" y="-7.8" font-family="Helvetica,sans-Serif" font-size="14.00">value = [2, 133]</text>
</g>
<!-- 3&#45;&gt;4 -->
<g id="edge4" class="edge"><title>3&#45;&gt;4</title>
<path fill="none" stroke="black" d="M139.382,-88.9485C126.27,-79.3431 111.98,-68.8747 98.9709,-59.345"/>
<polygon fill="black" stroke="black" points="100.768,-56.3228 90.6326,-53.2367 96.6313,-61.9698 100.768,-56.3228"/>
</g>
<!-- 5 -->
<g id="node6" class="node"><title>5</title>
<path fill="#399de5" fill-opacity="0.843137" stroke="black" d="M228,-53C228,-53 141,-53 141,-53 135,-53 129,-47 129,-41 129,-41 129,-12 129,-12 129,-6 135,-0 141,-0 141,-0 228,-0 228,-0 234,-0 240,-6 240,-12 240,-12 240,-41 240,-41 240,-47 234,-53 228,-53"/>
<text text-anchor="start" x="137" y="-37.8" font-family="Helvetica,sans-Serif" font-size="14.00">entropy = 0.575</text>
<text text-anchor="start" x="143.5" y="-22.8" font-family="Helvetica,sans-Serif" font-size="14.00">samples = 22</text>
<text text-anchor="start" x="141.5" y="-7.8" font-family="Helvetica,sans-Serif" font-size="14.00">value = [3, 19]</text>
</g>
<!-- 3&#45;&gt;5 -->
<g id="edge5" class="edge"><title>3&#45;&gt;5</title>
<path fill="none" stroke="black" d="M184.5,-88.9485C184.5,-80.7153 184.5,-71.848 184.5,-63.4814"/>
<polygon fill="black" stroke="black" points="188,-63.2367 184.5,-53.2367 181,-63.2367 188,-63.2367"/>
</g>
<!-- 7 -->
<g id="node8" class="node"><title>7</title>
<path fill="none" stroke="black" d="M342.5,-53C342.5,-53 270.5,-53 270.5,-53 264.5,-53 258.5,-47 258.5,-41 258.5,-41 258.5,-12 258.5,-12 258.5,-6 264.5,-0 270.5,-0 270.5,-0 342.5,-0 342.5,-0 348.5,-0 354.5,-6 354.5,-12 354.5,-12 354.5,-41 354.5,-41 354.5,-47 348.5,-53 342.5,-53"/>
<text text-anchor="start" x="266.5" y="-37.8" font-family="Helvetica,sans-Serif" font-size="14.00">entropy = 1.0</text>
<text text-anchor="start" x="269" y="-22.8" font-family="Helvetica,sans-Serif" font-size="14.00">samples = 6</text>
<text text-anchor="start" x="267" y="-7.8" font-family="Helvetica,sans-Serif" font-size="14.00">value = [3, 3]</text>
</g>
<!-- 6&#45;&gt;7 -->
<g id="edge7" class="edge"><title>6&#45;&gt;7</title>
<path fill="none" stroke="black" d="M346.165,-88.9485C340.496,-80.1664 334.362,-70.6629 328.65,-61.815"/>
<polygon fill="black" stroke="black" points="331.477,-59.7402 323.113,-53.2367 325.596,-63.5365 331.477,-59.7402"/>
</g>
<!-- 8 -->
<g id="node9" class="node"><title>8</title>
<path fill="#399de5" stroke="black" d="M456.5,-53C456.5,-53 384.5,-53 384.5,-53 378.5,-53 372.5,-47 372.5,-41 372.5,-41 372.5,-12 372.5,-12 372.5,-6 378.5,-0 384.5,-0 384.5,-0 456.5,-0 456.5,-0 462.5,-0 468.5,-6 468.5,-12 468.5,-12 468.5,-41 468.5,-41 468.5,-47 462.5,-53 456.5,-53"/>
<text text-anchor="start" x="380.5" y="-37.8" font-family="Helvetica,sans-Serif" font-size="14.00">entropy = 0.0</text>
<text text-anchor="start" x="383" y="-22.8" font-family="Helvetica,sans-Serif" font-size="14.00">samples = 4</text>
<text text-anchor="start" x="381" y="-7.8" font-family="Helvetica,sans-Serif" font-size="14.00">value = [0, 4]</text>
</g>
<!-- 6&#45;&gt;8 -->
<g id="edge8" class="edge"><title>6&#45;&gt;8</title>
<path fill="none" stroke="black" d="M386.037,-88.9485C390.911,-80.2579 396.181,-70.8608 401.099,-62.0917"/>
<polygon fill="black" stroke="black" points="404.227,-63.6707 406.066,-53.2367 398.121,-60.2465 404.227,-63.6707"/>
</g>
<!-- 11 -->
<g id="node12" class="node"><title>11</title>
<path fill="#e58139" fill-opacity="0.407843" stroke="black" d="M782,-261C782,-261 695,-261 695,-261 689,-261 683,-255 683,-249 683,-249 683,-205 683,-205 683,-199 689,-193 695,-193 695,-193 782,-193 782,-193 788,-193 794,-199 794,-205 794,-205 794,-249 794,-249 794,-255 788,-261 782,-261"/>
<text text-anchor="start" x="709" y="-245.8" font-family="Helvetica,sans-Serif" font-size="14.00">A11 ≤ 0.5</text>
<text text-anchor="start" x="691" y="-230.8" font-family="Helvetica,sans-Serif" font-size="14.00">entropy = 0.952</text>
<text text-anchor="start" x="693.5" y="-215.8" font-family="Helvetica,sans-Serif" font-size="14.00">samples = 105</text>
<text text-anchor="start" x="691.5" y="-200.8" font-family="Helvetica,sans-Serif" font-size="14.00">value = [66, 39]</text>
</g>
<!-- 10&#45;&gt;11 -->
<g id="edge11" class="edge"><title>10&#45;&gt;11</title>
<path fill="none" stroke="black" d="M738.5,-296.884C738.5,-288.778 738.5,-279.982 738.5,-271.472"/>
<polygon fill="black" stroke="black" points="742,-271.299 738.5,-261.299 735,-271.299 742,-271.299"/>
</g>
<!-- 18 -->
<g id="node19" class="node"><title>18</title>
<path fill="#e58139" fill-opacity="0.984314" stroke="black" d="M1092,-261C1092,-261 1005,-261 1005,-261 999,-261 993,-255 993,-249 993,-249 993,-205 993,-205 993,-199 999,-193 1005,-193 1005,-193 1092,-193 1092,-193 1098,-193 1104,-199 1104,-205 1104,-205 1104,-249 1104,-249 1104,-255 1098,-261 1092,-261"/>
<text text-anchor="start" x="1019" y="-245.8" font-family="Helvetica,sans-Serif" font-size="14.00">A3 ≤ 1.02</text>
<text text-anchor="start" x="1001" y="-230.8" font-family="Helvetica,sans-Serif" font-size="14.00">entropy = 0.109</text>
<text text-anchor="start" x="1007.5" y="-215.8" font-family="Helvetica,sans-Serif" font-size="14.00">samples = 69</text>
<text text-anchor="start" x="1005.5" y="-200.8" font-family="Helvetica,sans-Serif" font-size="14.00">value = [68, 1]</text>
</g>
<!-- 10&#45;&gt;18 -->
<g id="edge18" class="edge"><title>10&#45;&gt;18</title>
<path fill="none" stroke="black" d="M797.173,-310.695C850.245,-293.232 928.278,-267.557 983.285,-249.458"/>
<polygon fill="black" stroke="black" points="984.529,-252.733 992.934,-246.283 982.341,-246.084 984.529,-252.733"/>
</g>
<!-- 12 -->
<g id="node13" class="node"><title>12</title>
<path fill="#399de5" fill-opacity="0.250980" stroke="black" d="M712,-157C712,-157 625,-157 625,-157 619,-157 613,-151 613,-145 613,-145 613,-101 613,-101 613,-95 619,-89 625,-89 625,-89 712,-89 712,-89 718,-89 724,-95 724,-101 724,-101 724,-145 724,-145 724,-151 718,-157 712,-157"/>
<text text-anchor="start" x="635" y="-141.8" font-family="Helvetica,sans-Serif" font-size="14.00">A7_h ≤ 0.5</text>
<text text-anchor="start" x="621" y="-126.8" font-family="Helvetica,sans-Serif" font-size="14.00">entropy = 0.985</text>
<text text-anchor="start" x="627.5" y="-111.8" font-family="Helvetica,sans-Serif" font-size="14.00">samples = 49</text>
<text text-anchor="start" x="621.5" y="-96.8" font-family="Helvetica,sans-Serif" font-size="14.00">value = [21, 28]</text>
</g>
<!-- 11&#45;&gt;12 -->
<g id="edge12" class="edge"><title>11&#45;&gt;12</title>
<path fill="none" stroke="black" d="M715.773,-192.884C709.843,-184.243 703.376,-174.819 697.181,-165.793"/>
<polygon fill="black" stroke="black" points="699.897,-163.564 691.353,-157.299 694.125,-167.525 699.897,-163.564"/>
</g>
<!-- 15 -->
<g id="node16" class="node"><title>15</title>
<path fill="#e58139" fill-opacity="0.756863" stroke="black" d="M841,-157C841,-157 754,-157 754,-157 748,-157 742,-151 742,-145 742,-145 742,-101 742,-101 742,-95 748,-89 754,-89 754,-89 841,-89 841,-89 847,-89 853,-95 853,-101 853,-101 853,-145 853,-145 853,-151 847,-157 841,-157"/>
<text text-anchor="start" x="764" y="-141.8" font-family="Helvetica,sans-Serif" font-size="14.00">A14 ≤ 72.5</text>
<text text-anchor="start" x="750" y="-126.8" font-family="Helvetica,sans-Serif" font-size="14.00">entropy = 0.715</text>
<text text-anchor="start" x="756.5" y="-111.8" font-family="Helvetica,sans-Serif" font-size="14.00">samples = 56</text>
<text text-anchor="start" x="750.5" y="-96.8" font-family="Helvetica,sans-Serif" font-size="14.00">value = [45, 11]</text>
</g>
<!-- 11&#45;&gt;15 -->
<g id="edge15" class="edge"><title>11&#45;&gt;15</title>
<path fill="none" stroke="black" d="M757.656,-192.884C762.602,-184.332 767.992,-175.013 773.164,-166.072"/>
<polygon fill="black" stroke="black" points="776.261,-167.708 778.239,-157.299 770.202,-164.203 776.261,-167.708"/>
</g>
<!-- 13 -->
<g id="node14" class="node"><title>13</title>
<path fill="#399de5" fill-opacity="0.498039" stroke="black" d="M586,-53C586,-53 499,-53 499,-53 493,-53 487,-47 487,-41 487,-41 487,-12 487,-12 487,-6 493,-0 499,-0 499,-0 586,-0 586,-0 592,-0 598,-6 598,-12 598,-12 598,-41 598,-41 598,-47 592,-53 586,-53"/>
<text text-anchor="start" x="495" y="-37.8" font-family="Helvetica,sans-Serif" font-size="14.00">entropy = 0.918</text>
<text text-anchor="start" x="501.5" y="-22.8" font-family="Helvetica,sans-Serif" font-size="14.00">samples = 39</text>
<text text-anchor="start" x="495.5" y="-7.8" font-family="Helvetica,sans-Serif" font-size="14.00">value = [13, 26]</text>
</g>
<!-- 12&#45;&gt;13 -->
<g id="edge13" class="edge"><title>12&#45;&gt;13</title>
<path fill="none" stroke="black" d="M624.431,-88.9485C611.624,-79.3431 597.666,-68.8747 584.96,-59.345"/>
<polygon fill="black" stroke="black" points="586.916,-56.4367 576.816,-53.2367 582.716,-62.0368 586.916,-56.4367"/>
</g>
<!-- 14 -->
<g id="node15" class="node"><title>14</title>
<path fill="#e58139" fill-opacity="0.749020" stroke="black" d="M715,-53C715,-53 628,-53 628,-53 622,-53 616,-47 616,-41 616,-41 616,-12 616,-12 616,-6 622,-0 628,-0 628,-0 715,-0 715,-0 721,-0 727,-6 727,-12 727,-12 727,-41 727,-41 727,-47 721,-53 715,-53"/>
<text text-anchor="start" x="624" y="-37.8" font-family="Helvetica,sans-Serif" font-size="14.00">entropy = 0.722</text>
<text text-anchor="start" x="630.5" y="-22.8" font-family="Helvetica,sans-Serif" font-size="14.00">samples = 10</text>
<text text-anchor="start" x="632" y="-7.8" font-family="Helvetica,sans-Serif" font-size="14.00">value = [8, 2]</text>
</g>
<!-- 12&#45;&gt;14 -->
<g id="edge14" class="edge"><title>12&#45;&gt;14</title>
<path fill="none" stroke="black" d="M669.549,-88.9485C669.811,-80.7153 670.092,-71.848 670.358,-63.4814"/>
<polygon fill="black" stroke="black" points="673.864,-63.3428 670.683,-53.2367 666.867,-63.1206 673.864,-63.3428"/>
</g>
<!-- 16 -->
<g id="node17" class="node"><title>16</title>
<path fill="#e58139" stroke="black" d="M834.5,-53C834.5,-53 756.5,-53 756.5,-53 750.5,-53 744.5,-47 744.5,-41 744.5,-41 744.5,-12 744.5,-12 744.5,-6 750.5,-0 756.5,-0 756.5,-0 834.5,-0 834.5,-0 840.5,-0 846.5,-6 846.5,-12 846.5,-12 846.5,-41 846.5,-41 846.5,-47 840.5,-53 834.5,-53"/>
<text text-anchor="start" x="755.5" y="-37.8" font-family="Helvetica,sans-Serif" font-size="14.00">entropy = 0.0</text>
<text text-anchor="start" x="754.5" y="-22.8" font-family="Helvetica,sans-Serif" font-size="14.00">samples = 15</text>
<text text-anchor="start" x="752.5" y="-7.8" font-family="Helvetica,sans-Serif" font-size="14.00">value = [15, 0]</text>
</g>
<!-- 15&#45;&gt;16 -->
<g id="edge16" class="edge"><title>15&#45;&gt;16</title>
<path fill="none" stroke="black" d="M796.8,-88.9485C796.626,-80.7153 796.439,-71.848 796.262,-63.4814"/>
<polygon fill="black" stroke="black" points="799.756,-63.1604 796.045,-53.2367 792.757,-63.3086 799.756,-63.1604"/>
</g>
<!-- 17 -->
<g id="node18" class="node"><title>17</title>
<path fill="#e58139" fill-opacity="0.631373" stroke="black" d="M963,-53C963,-53 876,-53 876,-53 870,-53 864,-47 864,-41 864,-41 864,-12 864,-12 864,-6 870,-0 876,-0 876,-0 963,-0 963,-0 969,-0 975,-6 975,-12 975,-12 975,-41 975,-41 975,-47 969,-53 963,-53"/>
<text text-anchor="start" x="872" y="-37.8" font-family="Helvetica,sans-Serif" font-size="14.00">entropy = 0.839</text>
<text text-anchor="start" x="878.5" y="-22.8" font-family="Helvetica,sans-Serif" font-size="14.00">samples = 41</text>
<text text-anchor="start" x="872.5" y="-7.8" font-family="Helvetica,sans-Serif" font-size="14.00">value = [30, 11]</text>
</g>
<!-- 15&#45;&gt;17 -->
<g id="edge17" class="edge"><title>15&#45;&gt;17</title>
<path fill="none" stroke="black" d="M840.17,-88.9485C852.452,-79.4346 865.828,-69.074 878.036,-59.6175"/>
<polygon fill="black" stroke="black" points="880.511,-62.1274 886.274,-53.2367 876.225,-56.5934 880.511,-62.1274"/>
</g>
<!-- 19 -->
<g id="node20" class="node"><title>19</title>
<path fill="#e58139" fill-opacity="0.909804" stroke="black" d="M1092,-157C1092,-157 1005,-157 1005,-157 999,-157 993,-151 993,-145 993,-145 993,-101 993,-101 993,-95 999,-89 1005,-89 1005,-89 1092,-89 1092,-89 1098,-89 1104,-95 1104,-101 1104,-101 1104,-145 1104,-145 1104,-151 1098,-157 1092,-157"/>
<text text-anchor="start" x="1013.5" y="-141.8" font-family="Helvetica,sans-Serif" font-size="14.00">A12_f ≤ 0.5</text>
<text text-anchor="start" x="1001" y="-126.8" font-family="Helvetica,sans-Serif" font-size="14.00">entropy = 0.414</text>
<text text-anchor="start" x="1007.5" y="-111.8" font-family="Helvetica,sans-Serif" font-size="14.00">samples = 12</text>
<text text-anchor="start" x="1005.5" y="-96.8" font-family="Helvetica,sans-Serif" font-size="14.00">value = [11, 1]</text>
</g>
<!-- 18&#45;&gt;19 -->
<g id="edge19" class="edge"><title>18&#45;&gt;19</title>
<path fill="none" stroke="black" d="M1048.5,-192.884C1048.5,-184.778 1048.5,-175.982 1048.5,-167.472"/>
<polygon fill="black" stroke="black" points="1052,-167.299 1048.5,-157.299 1045,-167.299 1052,-167.299"/>
</g>
<!-- 22 -->
<g id="node23" class="node"><title>22</title>
<path fill="#e58139" stroke="black" d="M1211.5,-149.5C1211.5,-149.5 1133.5,-149.5 1133.5,-149.5 1127.5,-149.5 1121.5,-143.5 1121.5,-137.5 1121.5,-137.5 1121.5,-108.5 1121.5,-108.5 1121.5,-102.5 1127.5,-96.5 1133.5,-96.5 1133.5,-96.5 1211.5,-96.5 1211.5,-96.5 1217.5,-96.5 1223.5,-102.5 1223.5,-108.5 1223.5,-108.5 1223.5,-137.5 1223.5,-137.5 1223.5,-143.5 1217.5,-149.5 1211.5,-149.5"/>
<text text-anchor="start" x="1132.5" y="-134.3" font-family="Helvetica,sans-Serif" font-size="14.00">entropy = 0.0</text>
<text text-anchor="start" x="1131.5" y="-119.3" font-family="Helvetica,sans-Serif" font-size="14.00">samples = 57</text>
<text text-anchor="start" x="1129.5" y="-104.3" font-family="Helvetica,sans-Serif" font-size="14.00">value = [57, 0]</text>
</g>
<!-- 18&#45;&gt;22 -->
<g id="edge22" class="edge"><title>18&#45;&gt;22</title>
<path fill="none" stroke="black" d="M1088.76,-192.884C1103.2,-181.006 1119.44,-167.646 1133.75,-155.876"/>
<polygon fill="black" stroke="black" points="1135.98,-158.576 1141.48,-149.52 1131.53,-153.17 1135.98,-158.576"/>
</g>
<!-- 20 -->
<g id="node21" class="node"><title>20</title>
<path fill="#e58139" fill-opacity="0.498039" stroke="black" d="M1092,-53C1092,-53 1005,-53 1005,-53 999,-53 993,-47 993,-41 993,-41 993,-12 993,-12 993,-6 999,-0 1005,-0 1005,-0 1092,-0 1092,-0 1098,-0 1104,-6 1104,-12 1104,-12 1104,-41 1104,-41 1104,-47 1098,-53 1092,-53"/>
<text text-anchor="start" x="1001" y="-37.8" font-family="Helvetica,sans-Serif" font-size="14.00">entropy = 0.918</text>
<text text-anchor="start" x="1011" y="-22.8" font-family="Helvetica,sans-Serif" font-size="14.00">samples = 3</text>
<text text-anchor="start" x="1009" y="-7.8" font-family="Helvetica,sans-Serif" font-size="14.00">value = [2, 1]</text>
</g>
<!-- 19&#45;&gt;20 -->
<g id="edge20" class="edge"><title>19&#45;&gt;20</title>
<path fill="none" stroke="black" d="M1048.5,-88.9485C1048.5,-80.7153 1048.5,-71.848 1048.5,-63.4814"/>
<polygon fill="black" stroke="black" points="1052,-63.2367 1048.5,-53.2367 1045,-63.2367 1052,-63.2367"/>
</g>
<!-- 21 -->
<g id="node22" class="node"><title>21</title>
<path fill="#e58139" stroke="black" d="M1206.5,-53C1206.5,-53 1134.5,-53 1134.5,-53 1128.5,-53 1122.5,-47 1122.5,-41 1122.5,-41 1122.5,-12 1122.5,-12 1122.5,-6 1128.5,-0 1134.5,-0 1134.5,-0 1206.5,-0 1206.5,-0 1212.5,-0 1218.5,-6 1218.5,-12 1218.5,-12 1218.5,-41 1218.5,-41 1218.5,-47 1212.5,-53 1206.5,-53"/>
<text text-anchor="start" x="1130.5" y="-37.8" font-family="Helvetica,sans-Serif" font-size="14.00">entropy = 0.0</text>
<text text-anchor="start" x="1133" y="-22.8" font-family="Helvetica,sans-Serif" font-size="14.00">samples = 9</text>
<text text-anchor="start" x="1131" y="-7.8" font-family="Helvetica,sans-Serif" font-size="14.00">value = [9, 0]</text>
</g>
<!-- 19&#45;&gt;21 -->
<g id="edge21" class="edge"><title>19&#45;&gt;21</title>
<path fill="none" stroke="black" d="M1091.17,-88.9485C1103.45,-79.4346 1116.83,-69.074 1129.04,-59.6175"/>
<polygon fill="black" stroke="black" points="1131.51,-62.1274 1137.27,-53.2367 1127.22,-56.5934 1131.51,-62.1274"/>
</g>
</g>
</svg>
