<?xml version="1.0" encoding="UTF-8" standalone="no"?>
<!DOCTYPE svg PUBLIC "-//W3C//DTD SVG 1.1//EN"
 "http://www.w3.org/Graphics/SVG/1.1/DTD/svg11.dtd">
<!-- Generated by graphviz version 2.38.0 (20140413.2041)
 -->
<!-- Title: Tree Pages: 1 -->
<svg width="2204pt" height="433pt"
 viewBox="0.00 0.00 2203.50 433.00" xmlns="http://www.w3.org/2000/svg" xmlns:xlink="http://www.w3.org/1999/xlink">
<g id="graph0" class="graph" transform="scale(1 1) rotate(0) translate(4 429)">
<title>Tree</title>
<polygon fill="white" stroke="none" points="-4,4 -4,-429 2199.5,-429 2199.5,4 -4,4"/>
<!-- 0 -->
<g id="node1" class="node"><title>0</title>
<path fill="#e55639" fill-opacity="0.015686" stroke="black" d="M1244,-425C1244,-425 877,-425 877,-425 871,-425 865,-419 865,-413 865,-413 865,-354 865,-354 865,-348 871,-342 877,-342 877,-342 1244,-342 1244,-342 1250,-342 1256,-348 1256,-354 1256,-354 1256,-413 1256,-413 1256,-419 1250,-425 1244,-425"/>
<text text-anchor="start" x="1020.5" y="-409.8" font-family="Helvetica,sans-Serif" font-size="14.00">Shell ≤ 0.144</text>
<text text-anchor="start" x="1013" y="-394.8" font-family="Helvetica,sans-Serif" font-size="14.00">entropy = 3.582</text>
<text text-anchor="start" x="1012" y="-379.8" font-family="Helvetica,sans-Serif" font-size="14.00">samples = 2923</text>
<text text-anchor="start" x="873" y="-364.8" font-family="Helvetica,sans-Serif" font-size="14.00">value = [452, 355, 188, 137, 88, 75, 45, 35, 34, 24, 1, 13, 10, 5</text>
<text text-anchor="start" x="942" y="-349.8" font-family="Helvetica,sans-Serif" font-size="14.00">5, 1, 1, 2, 9, 37, 88, 178, 259, 390, 491]</text>
</g>
<!-- 1 -->
<g id="node2" class="node"><title>1</title>
<path fill="#e5396f" fill-opacity="0.062745" stroke="black" d="M1026.5,-306C1026.5,-306 712.5,-306 712.5,-306 706.5,-306 700.5,-300 700.5,-294 700.5,-294 700.5,-235 700.5,-235 700.5,-229 706.5,-223 712.5,-223 712.5,-223 1026.5,-223 1026.5,-223 1032.5,-223 1038.5,-229 1038.5,-235 1038.5,-235 1038.5,-294 1038.5,-294 1038.5,-300 1032.5,-306 1026.5,-306"/>
<text text-anchor="start" x="829.5" y="-290.8" font-family="Helvetica,sans-Serif" font-size="14.00">Shell ≤ 0.053</text>
<text text-anchor="start" x="822" y="-275.8" font-family="Helvetica,sans-Serif" font-size="14.00">entropy = 2.957</text>
<text text-anchor="start" x="824.5" y="-260.8" font-family="Helvetica,sans-Serif" font-size="14.00">samples = 809</text>
<text text-anchor="start" x="708.5" y="-245.8" font-family="Helvetica,sans-Serif" font-size="14.00">value = [50, 21, 12, 7, 1, 3, 2, 0, 1, 0, 1, 0, 0, 0, 0, 0, 0</text>
<text text-anchor="start" x="777.5" y="-230.8" font-family="Helvetica,sans-Serif" font-size="14.00">0, 9, 37, 88, 166, 207, 130, 74]</text>
</g>
<!-- 0&#45;&gt;1 -->
<g id="edge1" class="edge"><title>0&#45;&gt;1</title>
<path fill="none" stroke="black" d="M994.234,-341.907C978.085,-332.016 960.703,-321.368 944.193,-311.254"/>
<polygon fill="black" stroke="black" points="946.005,-308.26 935.649,-306.021 942.348,-314.229 946.005,-308.26"/>
<text text-anchor="middle" x="941.49" y="-326.629" font-family="Helvetica,sans-Serif" font-size="14.00">True</text>
</g>
<!-- 8 -->
<g id="node9" class="node"><title>8</title>
<path fill="#e55639" fill-opacity="0.007843" stroke="black" d="M1436,-306C1436,-306 1069,-306 1069,-306 1063,-306 1057,-300 1057,-294 1057,-294 1057,-235 1057,-235 1057,-229 1063,-223 1069,-223 1069,-223 1436,-223 1436,-223 1442,-223 1448,-229 1448,-235 1448,-235 1448,-294 1448,-294 1448,-300 1442,-306 1436,-306"/>
<text text-anchor="start" x="1216" y="-290.8" font-family="Helvetica,sans-Serif" font-size="14.00">Shell ≤ 0.29</text>
<text text-anchor="start" x="1205" y="-275.8" font-family="Helvetica,sans-Serif" font-size="14.00">entropy = 3.307</text>
<text text-anchor="start" x="1204" y="-260.8" font-family="Helvetica,sans-Serif" font-size="14.00">samples = 2114</text>
<text text-anchor="start" x="1065" y="-245.8" font-family="Helvetica,sans-Serif" font-size="14.00">value = [402, 334, 176, 130, 87, 72, 43, 35, 33, 24, 0, 13, 10, 5</text>
<text text-anchor="start" x="1149" y="-230.8" font-family="Helvetica,sans-Serif" font-size="14.00">5, 1, 1, 2, 0, 0, 0, 12, 52, 260, 417]</text>
</g>
<!-- 0&#45;&gt;8 -->
<g id="edge8" class="edge"><title>0&#45;&gt;8</title>
<path fill="none" stroke="black" d="M1127.11,-341.907C1143.35,-332.016 1160.82,-321.368 1177.42,-311.254"/>
<polygon fill="black" stroke="black" points="1179.29,-314.213 1186,-306.021 1175.64,-308.236 1179.29,-314.213"/>
<text text-anchor="middle" x="1180.11" y="-326.615" font-family="Helvetica,sans-Serif" font-size="14.00">False</text>
</g>
<!-- 2 -->
<g id="node3" class="node"><title>2</title>
<path fill="#e539c0" fill-opacity="0.094118" stroke="black" d="M668,-187C668,-187 361,-187 361,-187 355,-187 349,-181 349,-175 349,-175 349,-116 349,-116 349,-110 355,-104 361,-104 361,-104 668,-104 668,-104 674,-104 680,-110 680,-116 680,-116 680,-175 680,-175 680,-181 674,-187 668,-187"/>
<text text-anchor="start" x="474.5" y="-171.8" font-family="Helvetica,sans-Serif" font-size="14.00">Shell ≤ 0.027</text>
<text text-anchor="start" x="467" y="-156.8" font-family="Helvetica,sans-Serif" font-size="14.00">entropy = 2.363</text>
<text text-anchor="start" x="469.5" y="-141.8" font-family="Helvetica,sans-Serif" font-size="14.00">samples = 217</text>
<text text-anchor="start" x="357" y="-126.8" font-family="Helvetica,sans-Serif" font-size="14.00">value = [1, 0, 0, 0, 0, 0, 0, 0, 0, 0, 1, 0, 0, 0, 0, 0, 0, 0</text>
<text text-anchor="start" x="448.5" y="-111.8" font-family="Helvetica,sans-Serif" font-size="14.00">9, 36, 73, 58, 28, 9, 2]</text>
</g>
<!-- 1&#45;&gt;2 -->
<g id="edge2" class="edge"><title>1&#45;&gt;2</title>
<path fill="none" stroke="black" d="M746.335,-222.907C714.256,-212.335 679.556,-200.899 647.016,-190.174"/>
<polygon fill="black" stroke="black" points="648.041,-186.827 637.448,-187.021 645.85,-193.475 648.041,-186.827"/>
</g>
<!-- 5 -->
<g id="node6" class="node"><title>5</title>
<path fill="#e5396f" fill-opacity="0.121569" stroke="black" d="M1028.5,-187C1028.5,-187 714.5,-187 714.5,-187 708.5,-187 702.5,-181 702.5,-175 702.5,-175 702.5,-116 702.5,-116 702.5,-110 708.5,-104 714.5,-104 714.5,-104 1028.5,-104 1028.5,-104 1034.5,-104 1040.5,-110 1040.5,-116 1040.5,-116 1040.5,-175 1040.5,-175 1040.5,-181 1034.5,-187 1028.5,-187"/>
<text text-anchor="start" x="836.5" y="-171.8" font-family="Helvetica,sans-Serif" font-size="14.00">Sex_I ≤ 0.5</text>
<text text-anchor="start" x="824" y="-156.8" font-family="Helvetica,sans-Serif" font-size="14.00">entropy = 2.713</text>
<text text-anchor="start" x="826.5" y="-141.8" font-family="Helvetica,sans-Serif" font-size="14.00">samples = 592</text>
<text text-anchor="start" x="710.5" y="-126.8" font-family="Helvetica,sans-Serif" font-size="14.00">value = [49, 21, 12, 7, 1, 3, 2, 0, 1, 0, 0, 0, 0, 0, 0, 0, 0</text>
<text text-anchor="start" x="783" y="-111.8" font-family="Helvetica,sans-Serif" font-size="14.00">0, 0, 1, 15, 108, 179, 121, 72]</text>
</g>
<!-- 1&#45;&gt;5 -->
<g id="edge5" class="edge"><title>1&#45;&gt;5</title>
<path fill="none" stroke="black" d="M870.194,-222.907C870.337,-214.558 870.489,-205.671 870.636,-197.02"/>
<polygon fill="black" stroke="black" points="874.136,-197.079 870.807,-187.021 867.137,-196.959 874.136,-197.079"/>
</g>
<!-- 3 -->
<g id="node4" class="node"><title>3</title>
<path fill="#df39e5" fill-opacity="0.094118" stroke="black" d="M319,-68C319,-68 12,-68 12,-68 6,-68 0,-62 0,-56 0,-56 0,-12 0,-12 0,-6 6,-0 12,-0 12,-0 319,-0 319,-0 325,-0 331,-6 331,-12 331,-12 331,-56 331,-56 331,-62 325,-68 319,-68"/>
<text text-anchor="start" x="118" y="-52.8" font-family="Helvetica,sans-Serif" font-size="14.00">entropy = 1.874</text>
<text text-anchor="start" x="124.5" y="-37.8" font-family="Helvetica,sans-Serif" font-size="14.00">samples = 82</text>
<text text-anchor="start" x="8" y="-22.8" font-family="Helvetica,sans-Serif" font-size="14.00">value = [0, 0, 0, 0, 0, 0, 0, 0, 0, 0, 1, 0, 0, 0, 0, 0, 0, 0</text>
<text text-anchor="start" x="103.5" y="-7.8" font-family="Helvetica,sans-Serif" font-size="14.00">9, 33, 28, 11, 0, 0, 0]</text>
</g>
<!-- 2&#45;&gt;3 -->
<g id="edge3" class="edge"><title>2&#45;&gt;3</title>
<path fill="none" stroke="black" d="M385.041,-103.882C350.789,-93.135 314.051,-81.6084 280.615,-71.1179"/>
<polygon fill="black" stroke="black" points="281.405,-67.6975 270.816,-68.0433 279.31,-74.3765 281.405,-67.6975"/>
</g>
<!-- 4 -->
<g id="node5" class="node"><title>4</title>
<path fill="#e53998" fill-opacity="0.023529" stroke="black" d="M668,-68C668,-68 361,-68 361,-68 355,-68 349,-62 349,-56 349,-56 349,-12 349,-12 349,-6 355,-0 361,-0 361,-0 668,-0 668,-0 674,-0 680,-6 680,-12 680,-12 680,-56 680,-56 680,-62 674,-68 668,-68"/>
<text text-anchor="start" x="467" y="-52.8" font-family="Helvetica,sans-Serif" font-size="14.00">entropy = 2.054</text>
<text text-anchor="start" x="469.5" y="-37.8" font-family="Helvetica,sans-Serif" font-size="14.00">samples = 135</text>
<text text-anchor="start" x="357" y="-22.8" font-family="Helvetica,sans-Serif" font-size="14.00">value = [1, 0, 0, 0, 0, 0, 0, 0, 0, 0, 0, 0, 0, 0, 0, 0, 0, 0</text>
<text text-anchor="start" x="452.5" y="-7.8" font-family="Helvetica,sans-Serif" font-size="14.00">0, 3, 45, 47, 28, 9, 2]</text>
</g>
<!-- 2&#45;&gt;4 -->
<g id="edge4" class="edge"><title>2&#45;&gt;4</title>
<path fill="none" stroke="black" d="M514.5,-103.726C514.5,-95.5175 514.5,-86.8595 514.5,-78.56"/>
<polygon fill="black" stroke="black" points="518,-78.2996 514.5,-68.2996 511,-78.2996 518,-78.2996"/>
</g>
<!-- 6 -->
<g id="node7" class="node"><title>6</title>
<path fill="#e55639" fill-opacity="0.007843" stroke="black" d="M1032.5,-68C1032.5,-68 710.5,-68 710.5,-68 704.5,-68 698.5,-62 698.5,-56 698.5,-56 698.5,-12 698.5,-12 698.5,-6 704.5,-0 710.5,-0 710.5,-0 1032.5,-0 1032.5,-0 1038.5,-0 1044.5,-6 1044.5,-12 1044.5,-12 1044.5,-56 1044.5,-56 1044.5,-62 1038.5,-68 1032.5,-68"/>
<text text-anchor="start" x="824" y="-52.8" font-family="Helvetica,sans-Serif" font-size="14.00">entropy = 2.969</text>
<text text-anchor="start" x="826.5" y="-37.8" font-family="Helvetica,sans-Serif" font-size="14.00">samples = 205</text>
<text text-anchor="start" x="706.5" y="-22.8" font-family="Helvetica,sans-Serif" font-size="14.00">value = [34, 18, 9, 6, 1, 2, 1, 0, 1, 0, 0, 0, 0, 0, 0, 0, 0, 0</text>
<text text-anchor="start" x="805.5" y="-7.8" font-family="Helvetica,sans-Serif" font-size="14.00">0, 0, 3, 13, 36, 40, 41]</text>
</g>
<!-- 5&#45;&gt;6 -->
<g id="edge6" class="edge"><title>5&#45;&gt;6</title>
<path fill="none" stroke="black" d="M871.5,-103.726C871.5,-95.5175 871.5,-86.8595 871.5,-78.56"/>
<polygon fill="black" stroke="black" points="875,-78.2996 871.5,-68.2996 868,-78.2996 875,-78.2996"/>
</g>
<!-- 7 -->
<g id="node8" class="node"><title>7</title>
<path fill="#e5396f" fill-opacity="0.164706" stroke="black" d="M1388.5,-68C1388.5,-68 1074.5,-68 1074.5,-68 1068.5,-68 1062.5,-62 1062.5,-56 1062.5,-56 1062.5,-12 1062.5,-12 1062.5,-6 1068.5,-0 1074.5,-0 1074.5,-0 1388.5,-0 1388.5,-0 1394.5,-0 1400.5,-6 1400.5,-12 1400.5,-12 1400.5,-56 1400.5,-56 1400.5,-62 1394.5,-68 1388.5,-68"/>
<text text-anchor="start" x="1184" y="-52.8" font-family="Helvetica,sans-Serif" font-size="14.00">entropy = 2.327</text>
<text text-anchor="start" x="1186.5" y="-37.8" font-family="Helvetica,sans-Serif" font-size="14.00">samples = 387</text>
<text text-anchor="start" x="1070.5" y="-22.8" font-family="Helvetica,sans-Serif" font-size="14.00">value = [15, 3, 3, 1, 0, 1, 1, 0, 0, 0, 0, 0, 0, 0, 0, 0, 0, 0</text>
<text text-anchor="start" x="1158" y="-7.8" font-family="Helvetica,sans-Serif" font-size="14.00">0, 1, 12, 95, 143, 81, 31]</text>
</g>
<!-- 5&#45;&gt;7 -->
<g id="edge7" class="edge"><title>5&#45;&gt;7</title>
<path fill="none" stroke="black" d="M1004.78,-103.96C1040.38,-93.1336 1078.59,-81.5113 1113.3,-70.951"/>
<polygon fill="black" stroke="black" points="1114.45,-74.2608 1123,-68.0022 1112.41,-67.5637 1114.45,-74.2608"/>
</g>
<!-- 9 -->
<g id="node10" class="node"><title>9</title>
<path fill="#e55639" fill-opacity="0.043137" stroke="black" d="M1426.5,-179.5C1426.5,-179.5 1074.5,-179.5 1074.5,-179.5 1068.5,-179.5 1062.5,-173.5 1062.5,-167.5 1062.5,-167.5 1062.5,-123.5 1062.5,-123.5 1062.5,-117.5 1068.5,-111.5 1074.5,-111.5 1074.5,-111.5 1426.5,-111.5 1426.5,-111.5 1432.5,-111.5 1438.5,-117.5 1438.5,-123.5 1438.5,-123.5 1438.5,-167.5 1438.5,-167.5 1438.5,-173.5 1432.5,-179.5 1426.5,-179.5"/>
<text text-anchor="start" x="1203" y="-164.3" font-family="Helvetica,sans-Serif" font-size="14.00">entropy = 3.062</text>
<text text-anchor="start" x="1202" y="-149.3" font-family="Helvetica,sans-Serif" font-size="14.00">samples = 1121</text>
<text text-anchor="start" x="1070.5" y="-134.3" font-family="Helvetica,sans-Serif" font-size="14.00">value = [197, 125, 64, 52, 36, 27, 13, 11, 8, 6, 0, 2, 3, 2, 2, 0</text>
<text text-anchor="start" x="1162" y="-119.3" font-family="Helvetica,sans-Serif" font-size="14.00">0, 0, 0, 0, 0, 10, 51, 237, 275]</text>
</g>
<!-- 8&#45;&gt;9 -->
<g id="edge9" class="edge"><title>8&#45;&gt;9</title>
<path fill="none" stroke="black" d="M1251.81,-222.907C1251.62,-212.204 1251.43,-200.615 1251.24,-189.776"/>
<polygon fill="black" stroke="black" points="1254.74,-189.606 1251.07,-179.667 1247.74,-189.725 1254.74,-189.606"/>
</g>
<!-- 12 -->
<g id="node11" class="node"><title>12</title>
<path fill="#e5a939" fill-opacity="0.003922" stroke="black" d="M1836,-187C1836,-187 1469,-187 1469,-187 1463,-187 1457,-181 1457,-175 1457,-175 1457,-116 1457,-116 1457,-110 1463,-104 1469,-104 1469,-104 1836,-104 1836,-104 1842,-104 1848,-110 1848,-116 1848,-116 1848,-175 1848,-175 1848,-181 1842,-187 1836,-187"/>
<text text-anchor="start" x="1601" y="-171.8" font-family="Helvetica,sans-Serif" font-size="14.00">Shucked ≤ 0.445</text>
<text text-anchor="start" x="1605" y="-156.8" font-family="Helvetica,sans-Serif" font-size="14.00">entropy = 3.296</text>
<text text-anchor="start" x="1607.5" y="-141.8" font-family="Helvetica,sans-Serif" font-size="14.00">samples = 993</text>
<text text-anchor="start" x="1465" y="-126.8" font-family="Helvetica,sans-Serif" font-size="14.00">value = [205, 209, 112, 78, 51, 45, 30, 24, 25, 18, 0, 11, 7, 3, 3</text>
<text text-anchor="start" x="1568" y="-111.8" font-family="Helvetica,sans-Serif" font-size="14.00">1, 1, 2, 0, 0, 0, 2, 1, 23, 142]</text>
</g>
<!-- 8&#45;&gt;12 -->
<g id="edge10" class="edge"><title>8&#45;&gt;12</title>
<path fill="none" stroke="black" d="M1391,-222.989C1427.47,-212.322 1466.96,-200.771 1503.93,-189.955"/>
<polygon fill="black" stroke="black" points="1505.17,-193.241 1513.78,-187.075 1503.2,-186.523 1505.17,-193.241"/>
</g>
<!-- 13 -->
<g id="node12" class="node"><title>13</title>
<path fill="#e58139" fill-opacity="0.035294" stroke="black" d="M1789,-68C1789,-68 1460,-68 1460,-68 1454,-68 1448,-62 1448,-56 1448,-56 1448,-12 1448,-12 1448,-6 1454,-0 1460,-0 1460,-0 1789,-0 1789,-0 1795,-0 1801,-6 1801,-12 1801,-12 1801,-56 1801,-56 1801,-62 1795,-68 1789,-68"/>
<text text-anchor="start" x="1577" y="-52.8" font-family="Helvetica,sans-Serif" font-size="14.00">entropy = 3.744</text>
<text text-anchor="start" x="1579.5" y="-37.8" font-family="Helvetica,sans-Serif" font-size="14.00">samples = 199</text>
<text text-anchor="start" x="1456" y="-22.8" font-family="Helvetica,sans-Serif" font-size="14.00">value = [27, 18, 19, 21, 19, 19, 16, 9, 8, 8, 0, 6, 2, 0, 3, 0</text>
<text text-anchor="start" x="1555" y="-7.8" font-family="Helvetica,sans-Serif" font-size="14.00">1, 1, 0, 0, 0, 2, 0, 4, 16]</text>
</g>
<!-- 12&#45;&gt;13 -->
<g id="edge11" class="edge"><title>12&#45;&gt;13</title>
<path fill="none" stroke="black" d="M1642.07,-103.726C1639.93,-95.3351 1637.66,-86.4745 1635.5,-78.0072"/>
<polygon fill="black" stroke="black" points="1638.88,-77.1208 1633.01,-68.2996 1632.1,-78.855 1638.88,-77.1208"/>
</g>
<!-- 14 -->
<g id="node13" class="node"><title>14</title>
<path fill="#e5a939" fill-opacity="0.019608" stroke="black" d="M2183.5,-68C2183.5,-68 1831.5,-68 1831.5,-68 1825.5,-68 1819.5,-62 1819.5,-56 1819.5,-56 1819.5,-12 1819.5,-12 1819.5,-6 1825.5,-0 1831.5,-0 1831.5,-0 2183.5,-0 2183.5,-0 2189.5,-0 2195.5,-6 2195.5,-12 2195.5,-12 2195.5,-56 2195.5,-56 2195.5,-62 2189.5,-68 2183.5,-68"/>
<text text-anchor="start" x="1963.5" y="-52.8" font-family="Helvetica,sans-Serif" font-size="14.00">entropy = 3.08</text>
<text text-anchor="start" x="1962.5" y="-37.8" font-family="Helvetica,sans-Serif" font-size="14.00">samples = 794</text>
<text text-anchor="start" x="1827.5" y="-22.8" font-family="Helvetica,sans-Serif" font-size="14.00">value = [178, 191, 93, 57, 32, 26, 14, 15, 17, 10, 0, 5, 5, 3, 0</text>
<text text-anchor="start" x="1923" y="-7.8" font-family="Helvetica,sans-Serif" font-size="14.00">1, 0, 1, 0, 0, 0, 0, 1, 19, 126]</text>
</g>
<!-- 12&#45;&gt;14 -->
<g id="edge12" class="edge"><title>12&#45;&gt;14</title>
<path fill="none" stroke="black" d="M1783.93,-103.96C1819.03,-93.1336 1856.71,-81.5113 1890.95,-70.951"/>
<polygon fill="black" stroke="black" points="1891.98,-74.2942 1900.51,-68.0022 1889.92,-67.6052 1891.98,-74.2942"/>
</g>
</g>
</svg>
