<?xml version="1.0" encoding="UTF-8" standalone="no"?>
<!DOCTYPE svg PUBLIC "-//W3C//DTD SVG 1.1//EN"
 "http://www.w3.org/Graphics/SVG/1.1/DTD/svg11.dtd">
<!-- Generated by graphviz version 2.38.0 (20140413.2041)
 -->
<!-- Title: Tree Pages: 1 -->
<svg width="366pt" height="685pt"
 viewBox="0.00 0.00 365.50 685.00" xmlns="http://www.w3.org/2000/svg" xmlns:xlink="http://www.w3.org/1999/xlink">
<g id="graph0" class="graph" transform="scale(1 1) rotate(0) translate(4 681)">
<title>Tree</title>
<polygon fill="white" stroke="none" points="-4,4 -4,-681 361.5,-681 361.5,4 -4,4"/>
<!-- 0 -->
<g id="node1" class="node"><title>0</title>
<path fill="#399de5" fill-opacity="0.274510" stroke="black" d="M220.5,-677C220.5,-677 119.5,-677 119.5,-677 113.5,-677 107.5,-671 107.5,-665 107.5,-665 107.5,-621 107.5,-621 107.5,-615 113.5,-609 119.5,-609 119.5,-609 220.5,-609 220.5,-609 226.5,-609 232.5,-615 232.5,-621 232.5,-621 232.5,-665 232.5,-665 232.5,-671 226.5,-677 220.5,-677"/>
<text text-anchor="start" x="138.5" y="-661.8" font-family="Helvetica,sans-Serif" font-size="14.00">A9_t ≤ 0.5</text>
<text text-anchor="start" x="122.5" y="-646.8" font-family="Helvetica,sans-Serif" font-size="14.00">entropy = 0.981</text>
<text text-anchor="start" x="125" y="-631.8" font-family="Helvetica,sans-Serif" font-size="14.00">samples = 343</text>
<text text-anchor="start" x="115.5" y="-616.8" font-family="Helvetica,sans-Serif" font-size="14.00">value = [144, 199]</text>
</g>
<!-- 1 -->
<g id="node2" class="node"><title>1</title>
<path fill="#399de5" fill-opacity="0.937255" stroke="black" d="M149.5,-565.5C149.5,-565.5 56.5,-565.5 56.5,-565.5 50.5,-565.5 44.5,-559.5 44.5,-553.5 44.5,-553.5 44.5,-524.5 44.5,-524.5 44.5,-518.5 50.5,-512.5 56.5,-512.5 56.5,-512.5 149.5,-512.5 149.5,-512.5 155.5,-512.5 161.5,-518.5 161.5,-524.5 161.5,-524.5 161.5,-553.5 161.5,-553.5 161.5,-559.5 155.5,-565.5 149.5,-565.5"/>
<text text-anchor="start" x="55.5" y="-550.3" font-family="Helvetica,sans-Serif" font-size="14.00">entropy = 0.324</text>
<text text-anchor="start" x="58" y="-535.3" font-family="Helvetica,sans-Serif" font-size="14.00">samples = 169</text>
<text text-anchor="start" x="52.5" y="-520.3" font-family="Helvetica,sans-Serif" font-size="14.00">value = [10, 159]</text>
</g>
<!-- 0&#45;&gt;1 -->
<g id="edge1" class="edge"><title>0&#45;&gt;1</title>
<path fill="none" stroke="black" d="M148.247,-608.884C140.951,-597.776 132.803,-585.372 125.454,-574.184"/>
<polygon fill="black" stroke="black" points="128.179,-571.957 119.763,-565.52 122.328,-575.8 128.179,-571.957"/>
<text text-anchor="middle" x="114.693" y="-586.3" font-family="Helvetica,sans-Serif" font-size="14.00">True</text>
</g>
<!-- 28 -->
<g id="node3" class="node"><title>28</title>
<path fill="#e58139" fill-opacity="0.701961" stroke="black" d="M284.5,-573C284.5,-573 191.5,-573 191.5,-573 185.5,-573 179.5,-567 179.5,-561 179.5,-561 179.5,-517 179.5,-517 179.5,-511 185.5,-505 191.5,-505 191.5,-505 284.5,-505 284.5,-505 290.5,-505 296.5,-511 296.5,-517 296.5,-517 296.5,-561 296.5,-561 296.5,-567 290.5,-573 284.5,-573"/>
<text text-anchor="start" x="201" y="-557.8" font-family="Helvetica,sans-Serif" font-size="14.00">A15 ≤ 235.0</text>
<text text-anchor="start" x="190.5" y="-542.8" font-family="Helvetica,sans-Serif" font-size="14.00">entropy = 0.778</text>
<text text-anchor="start" x="193" y="-527.8" font-family="Helvetica,sans-Serif" font-size="14.00">samples = 174</text>
<text text-anchor="start" x="187.5" y="-512.8" font-family="Helvetica,sans-Serif" font-size="14.00">value = [134, 40]</text>
</g>
<!-- 0&#45;&gt;28 -->
<g id="edge2" class="edge"><title>0&#45;&gt;28</title>
<path fill="none" stroke="black" d="M192.078,-608.884C197.838,-600.243 204.121,-590.819 210.138,-581.793"/>
<polygon fill="black" stroke="black" points="213.166,-583.561 215.8,-573.299 207.341,-579.678 213.166,-583.561"/>
<text text-anchor="middle" x="220.703" y="-594.114" font-family="Helvetica,sans-Serif" font-size="14.00">False</text>
</g>
<!-- 29 -->
<g id="node4" class="node"><title>29</title>
<path fill="#e58139" fill-opacity="0.407843" stroke="black" d="M216.5,-469C216.5,-469 129.5,-469 129.5,-469 123.5,-469 117.5,-463 117.5,-457 117.5,-457 117.5,-413 117.5,-413 117.5,-407 123.5,-401 129.5,-401 129.5,-401 216.5,-401 216.5,-401 222.5,-401 228.5,-407 228.5,-413 228.5,-413 228.5,-457 228.5,-457 228.5,-463 222.5,-469 216.5,-469"/>
<text text-anchor="start" x="138" y="-453.8" font-family="Helvetica,sans-Serif" font-size="14.00">A10_f ≤ 0.5</text>
<text text-anchor="start" x="125.5" y="-438.8" font-family="Helvetica,sans-Serif" font-size="14.00">entropy = 0.952</text>
<text text-anchor="start" x="128" y="-423.8" font-family="Helvetica,sans-Serif" font-size="14.00">samples = 105</text>
<text text-anchor="start" x="126" y="-408.8" font-family="Helvetica,sans-Serif" font-size="14.00">value = [66, 39]</text>
</g>
<!-- 28&#45;&gt;29 -->
<g id="edge3" class="edge"><title>28&#45;&gt;29</title>
<path fill="none" stroke="black" d="M216.896,-504.884C211.39,-496.243 205.385,-486.819 199.633,-477.793"/>
<polygon fill="black" stroke="black" points="202.546,-475.852 194.22,-469.299 196.643,-479.614 202.546,-475.852"/>
</g>
<!-- 68 -->
<g id="node13" class="node"><title>68</title>
<path fill="#e58139" fill-opacity="0.984314" stroke="black" d="M345.5,-461.5C345.5,-461.5 258.5,-461.5 258.5,-461.5 252.5,-461.5 246.5,-455.5 246.5,-449.5 246.5,-449.5 246.5,-420.5 246.5,-420.5 246.5,-414.5 252.5,-408.5 258.5,-408.5 258.5,-408.5 345.5,-408.5 345.5,-408.5 351.5,-408.5 357.5,-414.5 357.5,-420.5 357.5,-420.5 357.5,-449.5 357.5,-449.5 357.5,-455.5 351.5,-461.5 345.5,-461.5"/>
<text text-anchor="start" x="254.5" y="-446.3" font-family="Helvetica,sans-Serif" font-size="14.00">entropy = 0.109</text>
<text text-anchor="start" x="261" y="-431.3" font-family="Helvetica,sans-Serif" font-size="14.00">samples = 69</text>
<text text-anchor="start" x="259" y="-416.3" font-family="Helvetica,sans-Serif" font-size="14.00">value = [68, 1]</text>
</g>
<!-- 28&#45;&gt;68 -->
<g id="edge12" class="edge"><title>28&#45;&gt;68</title>
<path fill="none" stroke="black" d="M258.779,-504.884C265.749,-493.776 273.531,-481.372 280.551,-470.184"/>
<polygon fill="black" stroke="black" points="283.637,-471.851 285.987,-461.52 277.708,-468.13 283.637,-471.851"/>
</g>
<!-- 30 -->
<g id="node5" class="node"><title>30</title>
<path fill="#e58139" fill-opacity="0.756863" stroke="black" d="M152.5,-357.5C152.5,-357.5 65.5,-357.5 65.5,-357.5 59.5,-357.5 53.5,-351.5 53.5,-345.5 53.5,-345.5 53.5,-316.5 53.5,-316.5 53.5,-310.5 59.5,-304.5 65.5,-304.5 65.5,-304.5 152.5,-304.5 152.5,-304.5 158.5,-304.5 164.5,-310.5 164.5,-316.5 164.5,-316.5 164.5,-345.5 164.5,-345.5 164.5,-351.5 158.5,-357.5 152.5,-357.5"/>
<text text-anchor="start" x="61.5" y="-342.3" font-family="Helvetica,sans-Serif" font-size="14.00">entropy = 0.715</text>
<text text-anchor="start" x="68" y="-327.3" font-family="Helvetica,sans-Serif" font-size="14.00">samples = 56</text>
<text text-anchor="start" x="62" y="-312.3" font-family="Helvetica,sans-Serif" font-size="14.00">value = [45, 11]</text>
</g>
<!-- 29&#45;&gt;30 -->
<g id="edge4" class="edge"><title>29&#45;&gt;30</title>
<path fill="none" stroke="black" d="M152.221,-400.884C145.251,-389.776 137.469,-377.372 130.449,-366.184"/>
<polygon fill="black" stroke="black" points="133.292,-364.13 125.013,-357.52 127.363,-367.851 133.292,-364.13"/>
</g>
<!-- 47 -->
<g id="node6" class="node"><title>47</title>
<path fill="#399de5" fill-opacity="0.250980" stroke="black" d="M281.5,-365C281.5,-365 194.5,-365 194.5,-365 188.5,-365 182.5,-359 182.5,-353 182.5,-353 182.5,-309 182.5,-309 182.5,-303 188.5,-297 194.5,-297 194.5,-297 281.5,-297 281.5,-297 287.5,-297 293.5,-303 293.5,-309 293.5,-309 293.5,-353 293.5,-353 293.5,-359 287.5,-365 281.5,-365"/>
<text text-anchor="start" x="204.5" y="-349.8" font-family="Helvetica,sans-Serif" font-size="14.00">A7_h ≤ 0.5</text>
<text text-anchor="start" x="190.5" y="-334.8" font-family="Helvetica,sans-Serif" font-size="14.00">entropy = 0.985</text>
<text text-anchor="start" x="197" y="-319.8" font-family="Helvetica,sans-Serif" font-size="14.00">samples = 49</text>
<text text-anchor="start" x="191" y="-304.8" font-family="Helvetica,sans-Serif" font-size="14.00">value = [21, 28]</text>
</g>
<!-- 29&#45;&gt;47 -->
<g id="edge5" class="edge"><title>29&#45;&gt;47</title>
<path fill="none" stroke="black" d="M194.104,-400.884C199.61,-392.243 205.615,-382.819 211.367,-373.793"/>
<polygon fill="black" stroke="black" points="214.357,-375.614 216.78,-365.299 208.454,-371.852 214.357,-375.614"/>
</g>
<!-- 48 -->
<g id="node7" class="node"><title>48</title>
<path fill="#399de5" fill-opacity="0.498039" stroke="black" d="M216.5,-261C216.5,-261 129.5,-261 129.5,-261 123.5,-261 117.5,-255 117.5,-249 117.5,-249 117.5,-205 117.5,-205 117.5,-199 123.5,-193 129.5,-193 129.5,-193 216.5,-193 216.5,-193 222.5,-193 228.5,-199 228.5,-205 228.5,-205 228.5,-249 228.5,-249 228.5,-255 222.5,-261 216.5,-261"/>
<text text-anchor="start" x="143.5" y="-245.8" font-family="Helvetica,sans-Serif" font-size="14.00">A2 ≤ 28.5</text>
<text text-anchor="start" x="125.5" y="-230.8" font-family="Helvetica,sans-Serif" font-size="14.00">entropy = 0.918</text>
<text text-anchor="start" x="132" y="-215.8" font-family="Helvetica,sans-Serif" font-size="14.00">samples = 39</text>
<text text-anchor="start" x="126" y="-200.8" font-family="Helvetica,sans-Serif" font-size="14.00">value = [13, 26]</text>
</g>
<!-- 47&#45;&gt;48 -->
<g id="edge6" class="edge"><title>47&#45;&gt;48</title>
<path fill="none" stroke="black" d="M216.896,-296.884C211.39,-288.243 205.385,-278.819 199.633,-269.793"/>
<polygon fill="black" stroke="black" points="202.546,-267.852 194.22,-261.299 196.643,-271.614 202.546,-267.852"/>
</g>
<!-- 65 -->
<g id="node12" class="node"><title>65</title>
<path fill="#e58139" fill-opacity="0.749020" stroke="black" d="M345.5,-253.5C345.5,-253.5 258.5,-253.5 258.5,-253.5 252.5,-253.5 246.5,-247.5 246.5,-241.5 246.5,-241.5 246.5,-212.5 246.5,-212.5 246.5,-206.5 252.5,-200.5 258.5,-200.5 258.5,-200.5 345.5,-200.5 345.5,-200.5 351.5,-200.5 357.5,-206.5 357.5,-212.5 357.5,-212.5 357.5,-241.5 357.5,-241.5 357.5,-247.5 351.5,-253.5 345.5,-253.5"/>
<text text-anchor="start" x="254.5" y="-238.3" font-family="Helvetica,sans-Serif" font-size="14.00">entropy = 0.722</text>
<text text-anchor="start" x="261" y="-223.3" font-family="Helvetica,sans-Serif" font-size="14.00">samples = 10</text>
<text text-anchor="start" x="262.5" y="-208.3" font-family="Helvetica,sans-Serif" font-size="14.00">value = [8, 2]</text>
</g>
<!-- 47&#45;&gt;65 -->
<g id="edge11" class="edge"><title>47&#45;&gt;65</title>
<path fill="none" stroke="black" d="M258.779,-296.884C265.749,-285.776 273.531,-273.372 280.551,-262.184"/>
<polygon fill="black" stroke="black" points="283.637,-263.851 285.987,-253.52 277.708,-260.13 283.637,-263.851"/>
</g>
<!-- 49 -->
<g id="node8" class="node"><title>49</title>
<path fill="#e58139" fill-opacity="0.180392" stroke="black" d="M152.5,-157C152.5,-157 65.5,-157 65.5,-157 59.5,-157 53.5,-151 53.5,-145 53.5,-145 53.5,-101 53.5,-101 53.5,-95 59.5,-89 65.5,-89 65.5,-89 152.5,-89 152.5,-89 158.5,-89 164.5,-95 164.5,-101 164.5,-101 164.5,-145 164.5,-145 164.5,-151 158.5,-157 152.5,-157"/>
<text text-anchor="start" x="72" y="-141.8" font-family="Helvetica,sans-Serif" font-size="14.00">A14 ≤ 120.0</text>
<text text-anchor="start" x="61.5" y="-126.8" font-family="Helvetica,sans-Serif" font-size="14.00">entropy = 0.993</text>
<text text-anchor="start" x="68" y="-111.8" font-family="Helvetica,sans-Serif" font-size="14.00">samples = 20</text>
<text text-anchor="start" x="66" y="-96.8" font-family="Helvetica,sans-Serif" font-size="14.00">value = [11, 9]</text>
</g>
<!-- 48&#45;&gt;49 -->
<g id="edge7" class="edge"><title>48&#45;&gt;49</title>
<path fill="none" stroke="black" d="M152.221,-192.884C146.8,-184.243 140.887,-174.819 135.223,-165.793"/>
<polygon fill="black" stroke="black" points="138.173,-163.91 129.894,-157.299 132.244,-167.63 138.173,-163.91"/>
</g>
<!-- 58 -->
<g id="node11" class="node"><title>58</title>
<path fill="#399de5" fill-opacity="0.882353" stroke="black" d="M281.5,-149.5C281.5,-149.5 194.5,-149.5 194.5,-149.5 188.5,-149.5 182.5,-143.5 182.5,-137.5 182.5,-137.5 182.5,-108.5 182.5,-108.5 182.5,-102.5 188.5,-96.5 194.5,-96.5 194.5,-96.5 281.5,-96.5 281.5,-96.5 287.5,-96.5 293.5,-102.5 293.5,-108.5 293.5,-108.5 293.5,-137.5 293.5,-137.5 293.5,-143.5 287.5,-149.5 281.5,-149.5"/>
<text text-anchor="start" x="190.5" y="-134.3" font-family="Helvetica,sans-Serif" font-size="14.00">entropy = 0.485</text>
<text text-anchor="start" x="197" y="-119.3" font-family="Helvetica,sans-Serif" font-size="14.00">samples = 19</text>
<text text-anchor="start" x="195" y="-104.3" font-family="Helvetica,sans-Serif" font-size="14.00">value = [2, 17]</text>
</g>
<!-- 48&#45;&gt;58 -->
<g id="edge10" class="edge"><title>48&#45;&gt;58</title>
<path fill="none" stroke="black" d="M194.104,-192.884C201.182,-181.776 209.087,-169.372 216.216,-158.184"/>
<polygon fill="black" stroke="black" points="219.315,-159.834 221.737,-149.52 213.412,-156.072 219.315,-159.834"/>
</g>
<!-- 50 -->
<g id="node9" class="node"><title>50</title>
<path fill="#e58139" stroke="black" d="M84,-53C84,-53 12,-53 12,-53 6,-53 0,-47 0,-41 0,-41 0,-12 0,-12 0,-6 6,-0 12,-0 12,-0 84,-0 84,-0 90,-0 96,-6 96,-12 96,-12 96,-41 96,-41 96,-47 90,-53 84,-53"/>
<text text-anchor="start" x="8" y="-37.8" font-family="Helvetica,sans-Serif" font-size="14.00">entropy = 0.0</text>
<text text-anchor="start" x="10.5" y="-22.8" font-family="Helvetica,sans-Serif" font-size="14.00">samples = 8</text>
<text text-anchor="start" x="8.5" y="-7.8" font-family="Helvetica,sans-Serif" font-size="14.00">value = [8, 0]</text>
</g>
<!-- 49&#45;&gt;50 -->
<g id="edge8" class="edge"><title>49&#45;&gt;50</title>
<path fill="none" stroke="black" d="M87.6652,-88.9485C81.9963,-80.1664 75.8618,-70.6629 70.1504,-61.815"/>
<polygon fill="black" stroke="black" points="72.977,-59.7402 64.6131,-53.2367 67.0959,-63.5365 72.977,-59.7402"/>
</g>
<!-- 51 -->
<g id="node10" class="node"><title>51</title>
<path fill="#399de5" fill-opacity="0.666667" stroke="black" d="M213.5,-53C213.5,-53 126.5,-53 126.5,-53 120.5,-53 114.5,-47 114.5,-41 114.5,-41 114.5,-12 114.5,-12 114.5,-6 120.5,-0 126.5,-0 126.5,-0 213.5,-0 213.5,-0 219.5,-0 225.5,-6 225.5,-12 225.5,-12 225.5,-41 225.5,-41 225.5,-47 219.5,-53 213.5,-53"/>
<text text-anchor="start" x="122.5" y="-37.8" font-family="Helvetica,sans-Serif" font-size="14.00">entropy = 0.811</text>
<text text-anchor="start" x="129" y="-22.8" font-family="Helvetica,sans-Serif" font-size="14.00">samples = 12</text>
<text text-anchor="start" x="130.5" y="-7.8" font-family="Helvetica,sans-Serif" font-size="14.00">value = [3, 9]</text>
</g>
<!-- 49&#45;&gt;51 -->
<g id="edge9" class="edge"><title>49&#45;&gt;51</title>
<path fill="none" stroke="black" d="M130.335,-88.9485C136.004,-80.1664 142.138,-70.6629 147.85,-61.815"/>
<polygon fill="black" stroke="black" points="150.904,-63.5365 153.387,-53.2367 145.023,-59.7402 150.904,-63.5365"/>
</g>
</g>
</svg>
