<?xml version="1.0" encoding="UTF-8" standalone="no"?>
<!DOCTYPE svg PUBLIC "-//W3C//DTD SVG 1.1//EN"
 "http://www.w3.org/Graphics/SVG/1.1/DTD/svg11.dtd">
<!-- Generated by graphviz version 2.38.0 (20140413.2041)
 -->
<!-- Title: Tree Pages: 1 -->
<svg width="321pt" height="477pt"
 viewBox="0.00 0.00 321.00 477.00" xmlns="http://www.w3.org/2000/svg" xmlns:xlink="http://www.w3.org/1999/xlink">
<g id="graph0" class="graph" transform="scale(1 1) rotate(0) translate(4 473)">
<title>Tree</title>
<polygon fill="white" stroke="none" points="-4,4 -4,-473 317,-473 317,4 -4,4"/>
<!-- 0 -->
<g id="node1" class="node"><title>0</title>
<path fill="#399de5" fill-opacity="0.274510" stroke="black" d="M176,-469C176,-469 75,-469 75,-469 69,-469 63,-463 63,-457 63,-457 63,-413 63,-413 63,-407 69,-401 75,-401 75,-401 176,-401 176,-401 182,-401 188,-407 188,-413 188,-413 188,-457 188,-457 188,-463 182,-469 176,-469"/>
<text text-anchor="start" x="94" y="-453.8" font-family="Helvetica,sans-Serif" font-size="14.00">A9_t ≤ 0.5</text>
<text text-anchor="start" x="78" y="-438.8" font-family="Helvetica,sans-Serif" font-size="14.00">entropy = 0.981</text>
<text text-anchor="start" x="80.5" y="-423.8" font-family="Helvetica,sans-Serif" font-size="14.00">samples = 343</text>
<text text-anchor="start" x="71" y="-408.8" font-family="Helvetica,sans-Serif" font-size="14.00">value = [144, 199]</text>
</g>
<!-- 1 -->
<g id="node2" class="node"><title>1</title>
<path fill="#399de5" fill-opacity="0.937255" stroke="black" d="M105,-357.5C105,-357.5 12,-357.5 12,-357.5 6,-357.5 -7.10543e-15,-351.5 -7.10543e-15,-345.5 -7.10543e-15,-345.5 -7.10543e-15,-316.5 -7.10543e-15,-316.5 -7.10543e-15,-310.5 6,-304.5 12,-304.5 12,-304.5 105,-304.5 105,-304.5 111,-304.5 117,-310.5 117,-316.5 117,-316.5 117,-345.5 117,-345.5 117,-351.5 111,-357.5 105,-357.5"/>
<text text-anchor="start" x="11" y="-342.3" font-family="Helvetica,sans-Serif" font-size="14.00">entropy = 0.324</text>
<text text-anchor="start" x="13.5" y="-327.3" font-family="Helvetica,sans-Serif" font-size="14.00">samples = 169</text>
<text text-anchor="start" x="8" y="-312.3" font-family="Helvetica,sans-Serif" font-size="14.00">value = [10, 159]</text>
</g>
<!-- 0&#45;&gt;1 -->
<g id="edge1" class="edge"><title>0&#45;&gt;1</title>
<path fill="none" stroke="black" d="M103.747,-400.884C96.4507,-389.776 88.3031,-377.372 80.9541,-366.184"/>
<polygon fill="black" stroke="black" points="83.6786,-363.957 75.2631,-357.52 77.8279,-367.8 83.6786,-363.957"/>
<text text-anchor="middle" x="70.1932" y="-378.3" font-family="Helvetica,sans-Serif" font-size="14.00">True</text>
</g>
<!-- 28 -->
<g id="node3" class="node"><title>28</title>
<path fill="#e58139" fill-opacity="0.701961" stroke="black" d="M240,-365C240,-365 147,-365 147,-365 141,-365 135,-359 135,-353 135,-353 135,-309 135,-309 135,-303 141,-297 147,-297 147,-297 240,-297 240,-297 246,-297 252,-303 252,-309 252,-309 252,-353 252,-353 252,-359 246,-365 240,-365"/>
<text text-anchor="start" x="156.5" y="-349.8" font-family="Helvetica,sans-Serif" font-size="14.00">A15 ≤ 235.0</text>
<text text-anchor="start" x="146" y="-334.8" font-family="Helvetica,sans-Serif" font-size="14.00">entropy = 0.778</text>
<text text-anchor="start" x="148.5" y="-319.8" font-family="Helvetica,sans-Serif" font-size="14.00">samples = 174</text>
<text text-anchor="start" x="143" y="-304.8" font-family="Helvetica,sans-Serif" font-size="14.00">value = [134, 40]</text>
</g>
<!-- 0&#45;&gt;28 -->
<g id="edge2" class="edge"><title>0&#45;&gt;28</title>
<path fill="none" stroke="black" d="M147.578,-400.884C153.338,-392.243 159.621,-382.819 165.638,-373.793"/>
<polygon fill="black" stroke="black" points="168.666,-375.561 171.3,-365.299 162.841,-371.678 168.666,-375.561"/>
<text text-anchor="middle" x="176.203" y="-386.114" font-family="Helvetica,sans-Serif" font-size="14.00">False</text>
</g>
<!-- 29 -->
<g id="node4" class="node"><title>29</title>
<path fill="#e58139" fill-opacity="0.407843" stroke="black" d="M172,-261C172,-261 85,-261 85,-261 79,-261 73,-255 73,-249 73,-249 73,-205 73,-205 73,-199 79,-193 85,-193 85,-193 172,-193 172,-193 178,-193 184,-199 184,-205 184,-205 184,-249 184,-249 184,-255 178,-261 172,-261"/>
<text text-anchor="start" x="93.5" y="-245.8" font-family="Helvetica,sans-Serif" font-size="14.00">A10_f ≤ 0.5</text>
<text text-anchor="start" x="81" y="-230.8" font-family="Helvetica,sans-Serif" font-size="14.00">entropy = 0.952</text>
<text text-anchor="start" x="83.5" y="-215.8" font-family="Helvetica,sans-Serif" font-size="14.00">samples = 105</text>
<text text-anchor="start" x="81.5" y="-200.8" font-family="Helvetica,sans-Serif" font-size="14.00">value = [66, 39]</text>
</g>
<!-- 28&#45;&gt;29 -->
<g id="edge3" class="edge"><title>28&#45;&gt;29</title>
<path fill="none" stroke="black" d="M172.396,-296.884C166.89,-288.243 160.885,-278.819 155.133,-269.793"/>
<polygon fill="black" stroke="black" points="158.046,-267.852 149.72,-261.299 152.143,-271.614 158.046,-267.852"/>
</g>
<!-- 68 -->
<g id="node9" class="node"><title>68</title>
<path fill="#e58139" fill-opacity="0.984314" stroke="black" d="M301,-253.5C301,-253.5 214,-253.5 214,-253.5 208,-253.5 202,-247.5 202,-241.5 202,-241.5 202,-212.5 202,-212.5 202,-206.5 208,-200.5 214,-200.5 214,-200.5 301,-200.5 301,-200.5 307,-200.5 313,-206.5 313,-212.5 313,-212.5 313,-241.5 313,-241.5 313,-247.5 307,-253.5 301,-253.5"/>
<text text-anchor="start" x="210" y="-238.3" font-family="Helvetica,sans-Serif" font-size="14.00">entropy = 0.109</text>
<text text-anchor="start" x="216.5" y="-223.3" font-family="Helvetica,sans-Serif" font-size="14.00">samples = 69</text>
<text text-anchor="start" x="214.5" y="-208.3" font-family="Helvetica,sans-Serif" font-size="14.00">value = [68, 1]</text>
</g>
<!-- 28&#45;&gt;68 -->
<g id="edge8" class="edge"><title>28&#45;&gt;68</title>
<path fill="none" stroke="black" d="M214.279,-296.884C221.249,-285.776 229.031,-273.372 236.051,-262.184"/>
<polygon fill="black" stroke="black" points="239.137,-263.851 241.487,-253.52 233.208,-260.13 239.137,-263.851"/>
</g>
<!-- 30 -->
<g id="node5" class="node"><title>30</title>
<path fill="#e58139" fill-opacity="0.756863" stroke="black" d="M108,-149.5C108,-149.5 21,-149.5 21,-149.5 15,-149.5 9,-143.5 9,-137.5 9,-137.5 9,-108.5 9,-108.5 9,-102.5 15,-96.5 21,-96.5 21,-96.5 108,-96.5 108,-96.5 114,-96.5 120,-102.5 120,-108.5 120,-108.5 120,-137.5 120,-137.5 120,-143.5 114,-149.5 108,-149.5"/>
<text text-anchor="start" x="17" y="-134.3" font-family="Helvetica,sans-Serif" font-size="14.00">entropy = 0.715</text>
<text text-anchor="start" x="23.5" y="-119.3" font-family="Helvetica,sans-Serif" font-size="14.00">samples = 56</text>
<text text-anchor="start" x="17.5" y="-104.3" font-family="Helvetica,sans-Serif" font-size="14.00">value = [45, 11]</text>
</g>
<!-- 29&#45;&gt;30 -->
<g id="edge4" class="edge"><title>29&#45;&gt;30</title>
<path fill="none" stroke="black" d="M107.721,-192.884C100.751,-181.776 92.9686,-169.372 85.9487,-158.184"/>
<polygon fill="black" stroke="black" points="88.7922,-156.13 80.5125,-149.52 82.8627,-159.851 88.7922,-156.13"/>
</g>
<!-- 47 -->
<g id="node6" class="node"><title>47</title>
<path fill="#399de5" fill-opacity="0.250980" stroke="black" d="M237,-157C237,-157 150,-157 150,-157 144,-157 138,-151 138,-145 138,-145 138,-101 138,-101 138,-95 144,-89 150,-89 150,-89 237,-89 237,-89 243,-89 249,-95 249,-101 249,-101 249,-145 249,-145 249,-151 243,-157 237,-157"/>
<text text-anchor="start" x="160" y="-141.8" font-family="Helvetica,sans-Serif" font-size="14.00">A7_h ≤ 0.5</text>
<text text-anchor="start" x="146" y="-126.8" font-family="Helvetica,sans-Serif" font-size="14.00">entropy = 0.985</text>
<text text-anchor="start" x="152.5" y="-111.8" font-family="Helvetica,sans-Serif" font-size="14.00">samples = 49</text>
<text text-anchor="start" x="146.5" y="-96.8" font-family="Helvetica,sans-Serif" font-size="14.00">value = [21, 28]</text>
</g>
<!-- 29&#45;&gt;47 -->
<g id="edge5" class="edge"><title>29&#45;&gt;47</title>
<path fill="none" stroke="black" d="M149.604,-192.884C155.11,-184.243 161.115,-174.819 166.867,-165.793"/>
<polygon fill="black" stroke="black" points="169.857,-167.614 172.28,-157.299 163.954,-163.852 169.857,-167.614"/>
</g>
<!-- 48 -->
<g id="node7" class="node"><title>48</title>
<path fill="#399de5" fill-opacity="0.498039" stroke="black" d="M172,-53C172,-53 85,-53 85,-53 79,-53 73,-47 73,-41 73,-41 73,-12 73,-12 73,-6 79,-0 85,-0 85,-0 172,-0 172,-0 178,-0 184,-6 184,-12 184,-12 184,-41 184,-41 184,-47 178,-53 172,-53"/>
<text text-anchor="start" x="81" y="-37.8" font-family="Helvetica,sans-Serif" font-size="14.00">entropy = 0.918</text>
<text text-anchor="start" x="87.5" y="-22.8" font-family="Helvetica,sans-Serif" font-size="14.00">samples = 39</text>
<text text-anchor="start" x="81.5" y="-7.8" font-family="Helvetica,sans-Serif" font-size="14.00">value = [13, 26]</text>
</g>
<!-- 47&#45;&gt;48 -->
<g id="edge6" class="edge"><title>47&#45;&gt;48</title>
<path fill="none" stroke="black" d="M170.766,-88.9485C164.663,-80.0749 158.053,-70.4648 151.913,-61.5388"/>
<polygon fill="black" stroke="black" points="154.753,-59.4924 146.202,-53.2367 148.986,-63.4594 154.753,-59.4924"/>
</g>
<!-- 65 -->
<g id="node8" class="node"><title>65</title>
<path fill="#e58139" fill-opacity="0.749020" stroke="black" d="M301,-53C301,-53 214,-53 214,-53 208,-53 202,-47 202,-41 202,-41 202,-12 202,-12 202,-6 208,-0 214,-0 214,-0 301,-0 301,-0 307,-0 313,-6 313,-12 313,-12 313,-41 313,-41 313,-47 307,-53 301,-53"/>
<text text-anchor="start" x="210" y="-37.8" font-family="Helvetica,sans-Serif" font-size="14.00">entropy = 0.722</text>
<text text-anchor="start" x="216.5" y="-22.8" font-family="Helvetica,sans-Serif" font-size="14.00">samples = 10</text>
<text text-anchor="start" x="218" y="-7.8" font-family="Helvetica,sans-Serif" font-size="14.00">value = [8, 2]</text>
</g>
<!-- 47&#45;&gt;65 -->
<g id="edge7" class="edge"><title>47&#45;&gt;65</title>
<path fill="none" stroke="black" d="M215.884,-88.9485C221.894,-80.0749 228.402,-70.4648 234.447,-61.5388"/>
<polygon fill="black" stroke="black" points="237.36,-63.4792 240.07,-53.2367 231.564,-59.5539 237.36,-63.4792"/>
</g>
</g>
</svg>
