<?xml version="1.0" encoding="UTF-8" standalone="no"?>
<!DOCTYPE svg PUBLIC "-//W3C//DTD SVG 1.1//EN"
 "http://www.w3.org/Graphics/SVG/1.1/DTD/svg11.dtd">
<!-- Generated by graphviz version 2.38.0 (20140413.2041)
 -->
<!-- Title: Tree Pages: 1 -->
<svg width="1687pt" height="433pt"
 viewBox="0.00 0.00 1686.50 433.00" xmlns="http://www.w3.org/2000/svg" xmlns:xlink="http://www.w3.org/1999/xlink">
<g id="graph0" class="graph" transform="scale(1 1) rotate(0) translate(4 429)">
<title>Tree</title>
<polygon fill="white" stroke="none" points="-4,4 -4,-429 1682.5,-429 1682.5,4 -4,4"/>
<!-- 0 -->
<g id="node1" class="node"><title>0</title>
<path fill="#e55639" fill-opacity="0.015686" stroke="black" d="M891,-425C891,-425 524,-425 524,-425 518,-425 512,-419 512,-413 512,-413 512,-354 512,-354 512,-348 518,-342 524,-342 524,-342 891,-342 891,-342 897,-342 903,-348 903,-354 903,-354 903,-413 903,-413 903,-419 897,-425 891,-425"/>
<text text-anchor="start" x="667.5" y="-409.8" font-family="Helvetica,sans-Serif" font-size="14.00">Shell ≤ 0.144</text>
<text text-anchor="start" x="660" y="-394.8" font-family="Helvetica,sans-Serif" font-size="14.00">entropy = 3.582</text>
<text text-anchor="start" x="659" y="-379.8" font-family="Helvetica,sans-Serif" font-size="14.00">samples = 2923</text>
<text text-anchor="start" x="520" y="-364.8" font-family="Helvetica,sans-Serif" font-size="14.00">value = [452, 355, 188, 137, 88, 75, 45, 35, 34, 24, 1, 13, 10, 5</text>
<text text-anchor="start" x="589" y="-349.8" font-family="Helvetica,sans-Serif" font-size="14.00">5, 1, 1, 2, 9, 37, 88, 178, 259, 390, 491]</text>
</g>
<!-- 1 -->
<g id="node2" class="node"><title>1</title>
<path fill="#e5396f" fill-opacity="0.062745" stroke="black" d="M673.5,-306C673.5,-306 359.5,-306 359.5,-306 353.5,-306 347.5,-300 347.5,-294 347.5,-294 347.5,-235 347.5,-235 347.5,-229 353.5,-223 359.5,-223 359.5,-223 673.5,-223 673.5,-223 679.5,-223 685.5,-229 685.5,-235 685.5,-235 685.5,-294 685.5,-294 685.5,-300 679.5,-306 673.5,-306"/>
<text text-anchor="start" x="476.5" y="-290.8" font-family="Helvetica,sans-Serif" font-size="14.00">Shell ≤ 0.053</text>
<text text-anchor="start" x="469" y="-275.8" font-family="Helvetica,sans-Serif" font-size="14.00">entropy = 2.957</text>
<text text-anchor="start" x="471.5" y="-260.8" font-family="Helvetica,sans-Serif" font-size="14.00">samples = 809</text>
<text text-anchor="start" x="355.5" y="-245.8" font-family="Helvetica,sans-Serif" font-size="14.00">value = [50, 21, 12, 7, 1, 3, 2, 0, 1, 0, 1, 0, 0, 0, 0, 0, 0</text>
<text text-anchor="start" x="424.5" y="-230.8" font-family="Helvetica,sans-Serif" font-size="14.00">0, 9, 37, 88, 166, 207, 130, 74]</text>
</g>
<!-- 0&#45;&gt;1 -->
<g id="edge1" class="edge"><title>0&#45;&gt;1</title>
<path fill="none" stroke="black" d="M641.234,-341.907C625.085,-332.016 607.703,-321.368 591.193,-311.254"/>
<polygon fill="black" stroke="black" points="593.005,-308.26 582.649,-306.021 589.348,-314.229 593.005,-308.26"/>
<text text-anchor="middle" x="588.49" y="-326.629" font-family="Helvetica,sans-Serif" font-size="14.00">True</text>
</g>
<!-- 8 -->
<g id="node5" class="node"><title>8</title>
<path fill="#e55639" fill-opacity="0.007843" stroke="black" d="M1083,-306C1083,-306 716,-306 716,-306 710,-306 704,-300 704,-294 704,-294 704,-235 704,-235 704,-229 710,-223 716,-223 716,-223 1083,-223 1083,-223 1089,-223 1095,-229 1095,-235 1095,-235 1095,-294 1095,-294 1095,-300 1089,-306 1083,-306"/>
<text text-anchor="start" x="863" y="-290.8" font-family="Helvetica,sans-Serif" font-size="14.00">Shell ≤ 0.29</text>
<text text-anchor="start" x="852" y="-275.8" font-family="Helvetica,sans-Serif" font-size="14.00">entropy = 3.307</text>
<text text-anchor="start" x="851" y="-260.8" font-family="Helvetica,sans-Serif" font-size="14.00">samples = 2114</text>
<text text-anchor="start" x="712" y="-245.8" font-family="Helvetica,sans-Serif" font-size="14.00">value = [402, 334, 176, 130, 87, 72, 43, 35, 33, 24, 0, 13, 10, 5</text>
<text text-anchor="start" x="796" y="-230.8" font-family="Helvetica,sans-Serif" font-size="14.00">5, 1, 1, 2, 0, 0, 0, 12, 52, 260, 417]</text>
</g>
<!-- 0&#45;&gt;8 -->
<g id="edge4" class="edge"><title>0&#45;&gt;8</title>
<path fill="none" stroke="black" d="M774.113,-341.907C790.346,-332.016 807.82,-321.368 824.416,-311.254"/>
<polygon fill="black" stroke="black" points="826.286,-314.213 833.004,-306.021 822.644,-308.236 826.286,-314.213"/>
<text text-anchor="middle" x="827.108" y="-326.615" font-family="Helvetica,sans-Serif" font-size="14.00">False</text>
</g>
<!-- 2 -->
<g id="node3" class="node"><title>2</title>
<path fill="#e539c0" fill-opacity="0.094118" stroke="black" d="M319,-179.5C319,-179.5 12,-179.5 12,-179.5 6,-179.5 0,-173.5 0,-167.5 0,-167.5 0,-123.5 0,-123.5 0,-117.5 6,-111.5 12,-111.5 12,-111.5 319,-111.5 319,-111.5 325,-111.5 331,-117.5 331,-123.5 331,-123.5 331,-167.5 331,-167.5 331,-173.5 325,-179.5 319,-179.5"/>
<text text-anchor="start" x="118" y="-164.3" font-family="Helvetica,sans-Serif" font-size="14.00">entropy = 2.363</text>
<text text-anchor="start" x="120.5" y="-149.3" font-family="Helvetica,sans-Serif" font-size="14.00">samples = 217</text>
<text text-anchor="start" x="8" y="-134.3" font-family="Helvetica,sans-Serif" font-size="14.00">value = [1, 0, 0, 0, 0, 0, 0, 0, 0, 0, 1, 0, 0, 0, 0, 0, 0, 0</text>
<text text-anchor="start" x="99.5" y="-119.3" font-family="Helvetica,sans-Serif" font-size="14.00">9, 36, 73, 58, 28, 9, 2]</text>
</g>
<!-- 1&#45;&gt;2 -->
<g id="edge2" class="edge"><title>1&#45;&gt;2</title>
<path fill="none" stroke="black" d="M394.722,-222.907C355.569,-209.856 312.467,-195.489 274.308,-182.769"/>
<polygon fill="black" stroke="black" points="275.312,-179.415 264.718,-179.573 273.098,-186.055 275.312,-179.415"/>
</g>
<!-- 5 -->
<g id="node4" class="node"><title>5</title>
<path fill="#e5396f" fill-opacity="0.121569" stroke="black" d="M675.5,-179.5C675.5,-179.5 361.5,-179.5 361.5,-179.5 355.5,-179.5 349.5,-173.5 349.5,-167.5 349.5,-167.5 349.5,-123.5 349.5,-123.5 349.5,-117.5 355.5,-111.5 361.5,-111.5 361.5,-111.5 675.5,-111.5 675.5,-111.5 681.5,-111.5 687.5,-117.5 687.5,-123.5 687.5,-123.5 687.5,-167.5 687.5,-167.5 687.5,-173.5 681.5,-179.5 675.5,-179.5"/>
<text text-anchor="start" x="471" y="-164.3" font-family="Helvetica,sans-Serif" font-size="14.00">entropy = 2.713</text>
<text text-anchor="start" x="473.5" y="-149.3" font-family="Helvetica,sans-Serif" font-size="14.00">samples = 592</text>
<text text-anchor="start" x="357.5" y="-134.3" font-family="Helvetica,sans-Serif" font-size="14.00">value = [49, 21, 12, 7, 1, 3, 2, 0, 1, 0, 0, 0, 0, 0, 0, 0, 0</text>
<text text-anchor="start" x="430" y="-119.3" font-family="Helvetica,sans-Serif" font-size="14.00">0, 0, 1, 15, 108, 179, 121, 72]</text>
</g>
<!-- 1&#45;&gt;5 -->
<g id="edge3" class="edge"><title>1&#45;&gt;5</title>
<path fill="none" stroke="black" d="M517.194,-222.907C517.377,-212.204 517.575,-200.615 517.76,-189.776"/>
<polygon fill="black" stroke="black" points="521.262,-189.725 517.933,-179.667 514.263,-189.606 521.262,-189.725"/>
</g>
<!-- 9 -->
<g id="node6" class="node"><title>9</title>
<path fill="#e55639" fill-opacity="0.043137" stroke="black" d="M1073.5,-179.5C1073.5,-179.5 721.5,-179.5 721.5,-179.5 715.5,-179.5 709.5,-173.5 709.5,-167.5 709.5,-167.5 709.5,-123.5 709.5,-123.5 709.5,-117.5 715.5,-111.5 721.5,-111.5 721.5,-111.5 1073.5,-111.5 1073.5,-111.5 1079.5,-111.5 1085.5,-117.5 1085.5,-123.5 1085.5,-123.5 1085.5,-167.5 1085.5,-167.5 1085.5,-173.5 1079.5,-179.5 1073.5,-179.5"/>
<text text-anchor="start" x="850" y="-164.3" font-family="Helvetica,sans-Serif" font-size="14.00">entropy = 3.062</text>
<text text-anchor="start" x="849" y="-149.3" font-family="Helvetica,sans-Serif" font-size="14.00">samples = 1121</text>
<text text-anchor="start" x="717.5" y="-134.3" font-family="Helvetica,sans-Serif" font-size="14.00">value = [197, 125, 64, 52, 36, 27, 13, 11, 8, 6, 0, 2, 3, 2, 2, 0</text>
<text text-anchor="start" x="809" y="-119.3" font-family="Helvetica,sans-Serif" font-size="14.00">0, 0, 0, 0, 0, 10, 51, 237, 275]</text>
</g>
<!-- 8&#45;&gt;9 -->
<g id="edge5" class="edge"><title>8&#45;&gt;9</title>
<path fill="none" stroke="black" d="M898.806,-222.907C898.623,-212.204 898.425,-200.615 898.24,-189.776"/>
<polygon fill="black" stroke="black" points="901.737,-189.606 898.067,-179.667 894.738,-189.725 901.737,-189.606"/>
</g>
<!-- 12 -->
<g id="node7" class="node"><title>12</title>
<path fill="#e5a939" fill-opacity="0.003922" stroke="black" d="M1483,-187C1483,-187 1116,-187 1116,-187 1110,-187 1104,-181 1104,-175 1104,-175 1104,-116 1104,-116 1104,-110 1110,-104 1116,-104 1116,-104 1483,-104 1483,-104 1489,-104 1495,-110 1495,-116 1495,-116 1495,-175 1495,-175 1495,-181 1489,-187 1483,-187"/>
<text text-anchor="start" x="1248" y="-171.8" font-family="Helvetica,sans-Serif" font-size="14.00">Shucked ≤ 0.445</text>
<text text-anchor="start" x="1252" y="-156.8" font-family="Helvetica,sans-Serif" font-size="14.00">entropy = 3.296</text>
<text text-anchor="start" x="1254.5" y="-141.8" font-family="Helvetica,sans-Serif" font-size="14.00">samples = 993</text>
<text text-anchor="start" x="1112" y="-126.8" font-family="Helvetica,sans-Serif" font-size="14.00">value = [205, 209, 112, 78, 51, 45, 30, 24, 25, 18, 0, 11, 7, 3, 3</text>
<text text-anchor="start" x="1215" y="-111.8" font-family="Helvetica,sans-Serif" font-size="14.00">1, 1, 2, 0, 0, 0, 2, 1, 23, 142]</text>
</g>
<!-- 8&#45;&gt;12 -->
<g id="edge6" class="edge"><title>8&#45;&gt;12</title>
<path fill="none" stroke="black" d="M1038,-222.989C1074.47,-212.322 1113.96,-200.771 1150.93,-189.955"/>
<polygon fill="black" stroke="black" points="1152.17,-193.241 1160.78,-187.075 1150.2,-186.523 1152.17,-193.241"/>
</g>
<!-- 13 -->
<g id="node8" class="node"><title>13</title>
<path fill="#e58139" fill-opacity="0.035294" stroke="black" d="M1272,-68C1272,-68 943,-68 943,-68 937,-68 931,-62 931,-56 931,-56 931,-12 931,-12 931,-6 937,-0 943,-0 943,-0 1272,-0 1272,-0 1278,-0 1284,-6 1284,-12 1284,-12 1284,-56 1284,-56 1284,-62 1278,-68 1272,-68"/>
<text text-anchor="start" x="1060" y="-52.8" font-family="Helvetica,sans-Serif" font-size="14.00">entropy = 3.744</text>
<text text-anchor="start" x="1062.5" y="-37.8" font-family="Helvetica,sans-Serif" font-size="14.00">samples = 199</text>
<text text-anchor="start" x="939" y="-22.8" font-family="Helvetica,sans-Serif" font-size="14.00">value = [27, 18, 19, 21, 19, 19, 16, 9, 8, 8, 0, 6, 2, 0, 3, 0</text>
<text text-anchor="start" x="1038" y="-7.8" font-family="Helvetica,sans-Serif" font-size="14.00">1, 1, 0, 0, 0, 2, 0, 4, 16]</text>
</g>
<!-- 12&#45;&gt;13 -->
<g id="edge7" class="edge"><title>12&#45;&gt;13</title>
<path fill="none" stroke="black" d="M1228.28,-103.882C1210.65,-93.8269 1191.82,-83.0892 1174.4,-73.1563"/>
<polygon fill="black" stroke="black" points="1175.86,-69.9571 1165.44,-68.0433 1172.39,-76.0378 1175.86,-69.9571"/>
</g>
<!-- 14 -->
<g id="node9" class="node"><title>14</title>
<path fill="#e5a939" fill-opacity="0.019608" stroke="black" d="M1666.5,-68C1666.5,-68 1314.5,-68 1314.5,-68 1308.5,-68 1302.5,-62 1302.5,-56 1302.5,-56 1302.5,-12 1302.5,-12 1302.5,-6 1308.5,-0 1314.5,-0 1314.5,-0 1666.5,-0 1666.5,-0 1672.5,-0 1678.5,-6 1678.5,-12 1678.5,-12 1678.5,-56 1678.5,-56 1678.5,-62 1672.5,-68 1666.5,-68"/>
<text text-anchor="start" x="1446.5" y="-52.8" font-family="Helvetica,sans-Serif" font-size="14.00">entropy = 3.08</text>
<text text-anchor="start" x="1445.5" y="-37.8" font-family="Helvetica,sans-Serif" font-size="14.00">samples = 794</text>
<text text-anchor="start" x="1310.5" y="-22.8" font-family="Helvetica,sans-Serif" font-size="14.00">value = [178, 191, 93, 57, 32, 26, 14, 15, 17, 10, 0, 5, 5, 3, 0</text>
<text text-anchor="start" x="1406" y="-7.8" font-family="Helvetica,sans-Serif" font-size="14.00">1, 0, 1, 0, 0, 0, 0, 1, 19, 126]</text>
</g>
<!-- 12&#45;&gt;14 -->
<g id="edge8" class="edge"><title>12&#45;&gt;14</title>
<path fill="none" stroke="black" d="M1370.35,-103.882C1387.89,-93.8269 1406.62,-83.0892 1423.94,-73.1563"/>
<polygon fill="black" stroke="black" points="1425.93,-76.0534 1432.86,-68.0433 1422.45,-69.9806 1425.93,-76.0534"/>
</g>
</g>
</svg>
