<?xml version="1.0" encoding="UTF-8" standalone="no"?>
<!DOCTYPE svg PUBLIC "-//W3C//DTD SVG 1.1//EN"
 "http://www.w3.org/Graphics/SVG/1.1/DTD/svg11.dtd">
<!-- Generated by graphviz version 2.38.0 (20140413.2041)
 -->
<!-- Title: Tree Pages: 1 -->
<svg width="1503pt" height="314pt"
 viewBox="0.00 0.00 1503.00 314.00" xmlns="http://www.w3.org/2000/svg" xmlns:xlink="http://www.w3.org/1999/xlink">
<g id="graph0" class="graph" transform="scale(1 1) rotate(0) translate(4 310)">
<title>Tree</title>
<polygon fill="white" stroke="none" points="-4,4 -4,-310 1499,-310 1499,4 -4,4"/>
<!-- 0 -->
<g id="node1" class="node"><title>0</title>
<path fill="#e55639" fill-opacity="0.015686" stroke="black" d="M891,-306C891,-306 524,-306 524,-306 518,-306 512,-300 512,-294 512,-294 512,-235 512,-235 512,-229 518,-223 524,-223 524,-223 891,-223 891,-223 897,-223 903,-229 903,-235 903,-235 903,-294 903,-294 903,-300 897,-306 891,-306"/>
<text text-anchor="start" x="667.5" y="-290.8" font-family="Helvetica,sans-Serif" font-size="14.00">Shell ≤ 0.144</text>
<text text-anchor="start" x="660" y="-275.8" font-family="Helvetica,sans-Serif" font-size="14.00">entropy = 3.582</text>
<text text-anchor="start" x="659" y="-260.8" font-family="Helvetica,sans-Serif" font-size="14.00">samples = 2923</text>
<text text-anchor="start" x="520" y="-245.8" font-family="Helvetica,sans-Serif" font-size="14.00">value = [452, 355, 188, 137, 88, 75, 45, 35, 34, 24, 1, 13, 10, 5</text>
<text text-anchor="start" x="589" y="-230.8" font-family="Helvetica,sans-Serif" font-size="14.00">5, 1, 1, 2, 9, 37, 88, 178, 259, 390, 491]</text>
</g>
<!-- 1 -->
<g id="node2" class="node"><title>1</title>
<path fill="#e5396f" fill-opacity="0.062745" stroke="black" d="M673.5,-187C673.5,-187 359.5,-187 359.5,-187 353.5,-187 347.5,-181 347.5,-175 347.5,-175 347.5,-116 347.5,-116 347.5,-110 353.5,-104 359.5,-104 359.5,-104 673.5,-104 673.5,-104 679.5,-104 685.5,-110 685.5,-116 685.5,-116 685.5,-175 685.5,-175 685.5,-181 679.5,-187 673.5,-187"/>
<text text-anchor="start" x="476.5" y="-171.8" font-family="Helvetica,sans-Serif" font-size="14.00">Shell ≤ 0.053</text>
<text text-anchor="start" x="469" y="-156.8" font-family="Helvetica,sans-Serif" font-size="14.00">entropy = 2.957</text>
<text text-anchor="start" x="471.5" y="-141.8" font-family="Helvetica,sans-Serif" font-size="14.00">samples = 809</text>
<text text-anchor="start" x="355.5" y="-126.8" font-family="Helvetica,sans-Serif" font-size="14.00">value = [50, 21, 12, 7, 1, 3, 2, 0, 1, 0, 1, 0, 0, 0, 0, 0, 0</text>
<text text-anchor="start" x="424.5" y="-111.8" font-family="Helvetica,sans-Serif" font-size="14.00">0, 9, 37, 88, 166, 207, 130, 74]</text>
</g>
<!-- 0&#45;&gt;1 -->
<g id="edge1" class="edge"><title>0&#45;&gt;1</title>
<path fill="none" stroke="black" d="M641.234,-222.907C625.085,-213.016 607.703,-202.368 591.193,-192.254"/>
<polygon fill="black" stroke="black" points="593.005,-189.26 582.649,-187.021 589.348,-195.229 593.005,-189.26"/>
<text text-anchor="middle" x="588.49" y="-207.629" font-family="Helvetica,sans-Serif" font-size="14.00">True</text>
</g>
<!-- 8 -->
<g id="node5" class="node"><title>8</title>
<path fill="#e55639" fill-opacity="0.007843" stroke="black" d="M1083,-187C1083,-187 716,-187 716,-187 710,-187 704,-181 704,-175 704,-175 704,-116 704,-116 704,-110 710,-104 716,-104 716,-104 1083,-104 1083,-104 1089,-104 1095,-110 1095,-116 1095,-116 1095,-175 1095,-175 1095,-181 1089,-187 1083,-187"/>
<text text-anchor="start" x="863" y="-171.8" font-family="Helvetica,sans-Serif" font-size="14.00">Shell ≤ 0.29</text>
<text text-anchor="start" x="852" y="-156.8" font-family="Helvetica,sans-Serif" font-size="14.00">entropy = 3.307</text>
<text text-anchor="start" x="851" y="-141.8" font-family="Helvetica,sans-Serif" font-size="14.00">samples = 2114</text>
<text text-anchor="start" x="712" y="-126.8" font-family="Helvetica,sans-Serif" font-size="14.00">value = [402, 334, 176, 130, 87, 72, 43, 35, 33, 24, 0, 13, 10, 5</text>
<text text-anchor="start" x="796" y="-111.8" font-family="Helvetica,sans-Serif" font-size="14.00">5, 1, 1, 2, 0, 0, 0, 12, 52, 260, 417]</text>
</g>
<!-- 0&#45;&gt;8 -->
<g id="edge4" class="edge"><title>0&#45;&gt;8</title>
<path fill="none" stroke="black" d="M774.113,-222.907C790.346,-213.016 807.82,-202.368 824.416,-192.254"/>
<polygon fill="black" stroke="black" points="826.286,-195.213 833.004,-187.021 822.644,-189.236 826.286,-195.213"/>
<text text-anchor="middle" x="827.108" y="-207.615" font-family="Helvetica,sans-Serif" font-size="14.00">False</text>
</g>
<!-- 2 -->
<g id="node3" class="node"><title>2</title>
<path fill="#e539c0" fill-opacity="0.094118" stroke="black" d="M319,-68C319,-68 12,-68 12,-68 6,-68 0,-62 0,-56 0,-56 0,-12 0,-12 0,-6 6,-0 12,-0 12,-0 319,-0 319,-0 325,-0 331,-6 331,-12 331,-12 331,-56 331,-56 331,-62 325,-68 319,-68"/>
<text text-anchor="start" x="118" y="-52.8" font-family="Helvetica,sans-Serif" font-size="14.00">entropy = 2.363</text>
<text text-anchor="start" x="120.5" y="-37.8" font-family="Helvetica,sans-Serif" font-size="14.00">samples = 217</text>
<text text-anchor="start" x="8" y="-22.8" font-family="Helvetica,sans-Serif" font-size="14.00">value = [1, 0, 0, 0, 0, 0, 0, 0, 0, 0, 1, 0, 0, 0, 0, 0, 0, 0</text>
<text text-anchor="start" x="99.5" y="-7.8" font-family="Helvetica,sans-Serif" font-size="14.00">9, 36, 73, 58, 28, 9, 2]</text>
</g>
<!-- 1&#45;&gt;2 -->
<g id="edge2" class="edge"><title>1&#45;&gt;2</title>
<path fill="none" stroke="black" d="M386.299,-103.882C351.851,-93.135 314.902,-81.6084 281.275,-71.1179"/>
<polygon fill="black" stroke="black" points="282.008,-67.6803 271.42,-68.0433 279.924,-74.3627 282.008,-67.6803"/>
</g>
<!-- 5 -->
<g id="node4" class="node"><title>5</title>
<path fill="#e5396f" fill-opacity="0.121569" stroke="black" d="M675.5,-68C675.5,-68 361.5,-68 361.5,-68 355.5,-68 349.5,-62 349.5,-56 349.5,-56 349.5,-12 349.5,-12 349.5,-6 355.5,-0 361.5,-0 361.5,-0 675.5,-0 675.5,-0 681.5,-0 687.5,-6 687.5,-12 687.5,-12 687.5,-56 687.5,-56 687.5,-62 681.5,-68 675.5,-68"/>
<text text-anchor="start" x="471" y="-52.8" font-family="Helvetica,sans-Serif" font-size="14.00">entropy = 2.713</text>
<text text-anchor="start" x="473.5" y="-37.8" font-family="Helvetica,sans-Serif" font-size="14.00">samples = 592</text>
<text text-anchor="start" x="357.5" y="-22.8" font-family="Helvetica,sans-Serif" font-size="14.00">value = [49, 21, 12, 7, 1, 3, 2, 0, 1, 0, 0, 0, 0, 0, 0, 0, 0</text>
<text text-anchor="start" x="430" y="-7.8" font-family="Helvetica,sans-Serif" font-size="14.00">0, 0, 1, 15, 108, 179, 121, 72]</text>
</g>
<!-- 1&#45;&gt;5 -->
<g id="edge3" class="edge"><title>1&#45;&gt;5</title>
<path fill="none" stroke="black" d="M517.245,-103.726C517.395,-95.5175 517.553,-86.8595 517.704,-78.56"/>
<polygon fill="black" stroke="black" points="521.208,-78.3619 517.892,-68.2996 514.21,-78.234 521.208,-78.3619"/>
</g>
<!-- 9 -->
<g id="node6" class="node"><title>9</title>
<path fill="#e55639" fill-opacity="0.043137" stroke="black" d="M1073.5,-68C1073.5,-68 721.5,-68 721.5,-68 715.5,-68 709.5,-62 709.5,-56 709.5,-56 709.5,-12 709.5,-12 709.5,-6 715.5,-0 721.5,-0 721.5,-0 1073.5,-0 1073.5,-0 1079.5,-0 1085.5,-6 1085.5,-12 1085.5,-12 1085.5,-56 1085.5,-56 1085.5,-62 1079.5,-68 1073.5,-68"/>
<text text-anchor="start" x="850" y="-52.8" font-family="Helvetica,sans-Serif" font-size="14.00">entropy = 3.062</text>
<text text-anchor="start" x="849" y="-37.8" font-family="Helvetica,sans-Serif" font-size="14.00">samples = 1121</text>
<text text-anchor="start" x="717.5" y="-22.8" font-family="Helvetica,sans-Serif" font-size="14.00">value = [197, 125, 64, 52, 36, 27, 13, 11, 8, 6, 0, 2, 3, 2, 2, 0</text>
<text text-anchor="start" x="809" y="-7.8" font-family="Helvetica,sans-Serif" font-size="14.00">0, 0, 0, 0, 0, 10, 51, 237, 275]</text>
</g>
<!-- 8&#45;&gt;9 -->
<g id="edge5" class="edge"><title>8&#45;&gt;9</title>
<path fill="none" stroke="black" d="M898.755,-103.726C898.605,-95.5175 898.447,-86.8595 898.296,-78.56"/>
<polygon fill="black" stroke="black" points="901.79,-78.234 898.108,-68.2996 894.792,-78.3619 901.79,-78.234"/>
</g>
<!-- 12 -->
<g id="node7" class="node"><title>12</title>
<path fill="#e5a939" fill-opacity="0.003922" stroke="black" d="M1483,-68C1483,-68 1116,-68 1116,-68 1110,-68 1104,-62 1104,-56 1104,-56 1104,-12 1104,-12 1104,-6 1110,-0 1116,-0 1116,-0 1483,-0 1483,-0 1489,-0 1495,-6 1495,-12 1495,-12 1495,-56 1495,-56 1495,-62 1489,-68 1483,-68"/>
<text text-anchor="start" x="1252" y="-52.8" font-family="Helvetica,sans-Serif" font-size="14.00">entropy = 3.296</text>
<text text-anchor="start" x="1254.5" y="-37.8" font-family="Helvetica,sans-Serif" font-size="14.00">samples = 993</text>
<text text-anchor="start" x="1112" y="-22.8" font-family="Helvetica,sans-Serif" font-size="14.00">value = [205, 209, 112, 78, 51, 45, 30, 24, 25, 18, 0, 11, 7, 3, 3</text>
<text text-anchor="start" x="1215" y="-7.8" font-family="Helvetica,sans-Serif" font-size="14.00">1, 1, 2, 0, 0, 0, 2, 1, 23, 142]</text>
</g>
<!-- 8&#45;&gt;12 -->
<g id="edge6" class="edge"><title>8&#45;&gt;12</title>
<path fill="none" stroke="black" d="M1047.59,-103.96C1087.48,-93.0411 1130.32,-81.3126 1169.16,-70.6805"/>
<polygon fill="black" stroke="black" points="1170.22,-74.0184 1178.94,-68.0022 1168.37,-67.2668 1170.22,-74.0184"/>
</g>
</g>
</svg>
