<?xml version="1.0" encoding="UTF-8" standalone="no"?>
<!DOCTYPE svg PUBLIC "-//W3C//DTD SVG 1.1//EN"
 "http://www.w3.org/Graphics/SVG/1.1/DTD/svg11.dtd">
<!-- Generated by graphviz version 2.38.0 (20140413.2041)
 -->
<!-- Title: Tree Pages: 1 -->
<svg width="957pt" height="314pt"
 viewBox="0.00 0.00 956.50 314.00" xmlns="http://www.w3.org/2000/svg" xmlns:xlink="http://www.w3.org/1999/xlink">
<g id="graph0" class="graph" transform="scale(1 1) rotate(0) translate(4 310)">
<title>Tree</title>
<polygon fill="white" stroke="none" points="-4,4 -4,-310 952.5,-310 952.5,4 -4,4"/>
<!-- 0 -->
<g id="node1" class="node"><title>0</title>
<path fill="#e55639" fill-opacity="0.015686" stroke="black" d="M543.5,-306C543.5,-306 176.5,-306 176.5,-306 170.5,-306 164.5,-300 164.5,-294 164.5,-294 164.5,-235 164.5,-235 164.5,-229 170.5,-223 176.5,-223 176.5,-223 543.5,-223 543.5,-223 549.5,-223 555.5,-229 555.5,-235 555.5,-235 555.5,-294 555.5,-294 555.5,-300 549.5,-306 543.5,-306"/>
<text text-anchor="start" x="320" y="-290.8" font-family="Helvetica,sans-Serif" font-size="14.00">Shell ≤ 0.144</text>
<text text-anchor="start" x="312.5" y="-275.8" font-family="Helvetica,sans-Serif" font-size="14.00">entropy = 3.582</text>
<text text-anchor="start" x="311.5" y="-260.8" font-family="Helvetica,sans-Serif" font-size="14.00">samples = 2923</text>
<text text-anchor="start" x="172.5" y="-245.8" font-family="Helvetica,sans-Serif" font-size="14.00">value = [452, 355, 188, 137, 88, 75, 45, 35, 34, 24, 1, 13, 10, 5</text>
<text text-anchor="start" x="241.5" y="-230.8" font-family="Helvetica,sans-Serif" font-size="14.00">5, 1, 1, 2, 9, 37, 88, 178, 259, 390, 491]</text>
</g>
<!-- 1 -->
<g id="node2" class="node"><title>1</title>
<path fill="#e5396f" fill-opacity="0.062745" stroke="black" d="M326,-179.5C326,-179.5 12,-179.5 12,-179.5 6,-179.5 2.84217e-14,-173.5 2.84217e-14,-167.5 2.84217e-14,-167.5 2.84217e-14,-123.5 2.84217e-14,-123.5 2.84217e-14,-117.5 6,-111.5 12,-111.5 12,-111.5 326,-111.5 326,-111.5 332,-111.5 338,-117.5 338,-123.5 338,-123.5 338,-167.5 338,-167.5 338,-173.5 332,-179.5 326,-179.5"/>
<text text-anchor="start" x="121.5" y="-164.3" font-family="Helvetica,sans-Serif" font-size="14.00">entropy = 2.957</text>
<text text-anchor="start" x="124" y="-149.3" font-family="Helvetica,sans-Serif" font-size="14.00">samples = 809</text>
<text text-anchor="start" x="8" y="-134.3" font-family="Helvetica,sans-Serif" font-size="14.00">value = [50, 21, 12, 7, 1, 3, 2, 0, 1, 0, 1, 0, 0, 0, 0, 0, 0</text>
<text text-anchor="start" x="77" y="-119.3" font-family="Helvetica,sans-Serif" font-size="14.00">0, 9, 37, 88, 166, 207, 130, 74]</text>
</g>
<!-- 0&#45;&gt;1 -->
<g id="edge1" class="edge"><title>0&#45;&gt;1</title>
<path fill="none" stroke="black" d="M293.734,-222.907C273.648,-210.604 251.654,-197.131 231.803,-184.971"/>
<polygon fill="black" stroke="black" points="233.5,-181.906 223.144,-179.667 229.843,-187.875 233.5,-181.906"/>
<text text-anchor="middle" x="228.985" y="-200.275" font-family="Helvetica,sans-Serif" font-size="14.00">True</text>
</g>
<!-- 8 -->
<g id="node3" class="node"><title>8</title>
<path fill="#e55639" fill-opacity="0.007843" stroke="black" d="M735.5,-187C735.5,-187 368.5,-187 368.5,-187 362.5,-187 356.5,-181 356.5,-175 356.5,-175 356.5,-116 356.5,-116 356.5,-110 362.5,-104 368.5,-104 368.5,-104 735.5,-104 735.5,-104 741.5,-104 747.5,-110 747.5,-116 747.5,-116 747.5,-175 747.5,-175 747.5,-181 741.5,-187 735.5,-187"/>
<text text-anchor="start" x="515.5" y="-171.8" font-family="Helvetica,sans-Serif" font-size="14.00">Shell ≤ 0.29</text>
<text text-anchor="start" x="504.5" y="-156.8" font-family="Helvetica,sans-Serif" font-size="14.00">entropy = 3.307</text>
<text text-anchor="start" x="503.5" y="-141.8" font-family="Helvetica,sans-Serif" font-size="14.00">samples = 2114</text>
<text text-anchor="start" x="364.5" y="-126.8" font-family="Helvetica,sans-Serif" font-size="14.00">value = [402, 334, 176, 130, 87, 72, 43, 35, 33, 24, 0, 13, 10, 5</text>
<text text-anchor="start" x="448.5" y="-111.8" font-family="Helvetica,sans-Serif" font-size="14.00">5, 1, 1, 2, 0, 0, 0, 12, 52, 260, 417]</text>
</g>
<!-- 0&#45;&gt;8 -->
<g id="edge2" class="edge"><title>0&#45;&gt;8</title>
<path fill="none" stroke="black" d="M426.613,-222.907C442.846,-213.016 460.32,-202.368 476.916,-192.254"/>
<polygon fill="black" stroke="black" points="478.786,-195.213 485.504,-187.021 475.144,-189.236 478.786,-195.213"/>
<text text-anchor="middle" x="479.608" y="-207.615" font-family="Helvetica,sans-Serif" font-size="14.00">False</text>
</g>
<!-- 9 -->
<g id="node4" class="node"><title>9</title>
<path fill="#e55639" fill-opacity="0.043137" stroke="black" d="M527,-68C527,-68 175,-68 175,-68 169,-68 163,-62 163,-56 163,-56 163,-12 163,-12 163,-6 169,-0 175,-0 175,-0 527,-0 527,-0 533,-0 539,-6 539,-12 539,-12 539,-56 539,-56 539,-62 533,-68 527,-68"/>
<text text-anchor="start" x="303.5" y="-52.8" font-family="Helvetica,sans-Serif" font-size="14.00">entropy = 3.062</text>
<text text-anchor="start" x="302.5" y="-37.8" font-family="Helvetica,sans-Serif" font-size="14.00">samples = 1121</text>
<text text-anchor="start" x="171" y="-22.8" font-family="Helvetica,sans-Serif" font-size="14.00">value = [197, 125, 64, 52, 36, 27, 13, 11, 8, 6, 0, 2, 3, 2, 2, 0</text>
<text text-anchor="start" x="262.5" y="-7.8" font-family="Helvetica,sans-Serif" font-size="14.00">0, 0, 0, 0, 0, 10, 51, 237, 275]</text>
</g>
<!-- 8&#45;&gt;9 -->
<g id="edge3" class="edge"><title>8&#45;&gt;9</title>
<path fill="none" stroke="black" d="M477.441,-103.882C458.814,-93.7346 438.912,-82.8922 420.539,-72.8832"/>
<polygon fill="black" stroke="black" points="422.111,-69.7538 411.655,-68.0433 418.762,-75.9008 422.111,-69.7538"/>
</g>
<!-- 12 -->
<g id="node5" class="node"><title>12</title>
<path fill="#e5a939" fill-opacity="0.003922" stroke="black" d="M936.5,-68C936.5,-68 569.5,-68 569.5,-68 563.5,-68 557.5,-62 557.5,-56 557.5,-56 557.5,-12 557.5,-12 557.5,-6 563.5,-0 569.5,-0 569.5,-0 936.5,-0 936.5,-0 942.5,-0 948.5,-6 948.5,-12 948.5,-12 948.5,-56 948.5,-56 948.5,-62 942.5,-68 936.5,-68"/>
<text text-anchor="start" x="705.5" y="-52.8" font-family="Helvetica,sans-Serif" font-size="14.00">entropy = 3.296</text>
<text text-anchor="start" x="708" y="-37.8" font-family="Helvetica,sans-Serif" font-size="14.00">samples = 993</text>
<text text-anchor="start" x="565.5" y="-22.8" font-family="Helvetica,sans-Serif" font-size="14.00">value = [205, 209, 112, 78, 51, 45, 30, 24, 25, 18, 0, 11, 7, 3, 3</text>
<text text-anchor="start" x="668.5" y="-7.8" font-family="Helvetica,sans-Serif" font-size="14.00">1, 1, 2, 0, 0, 0, 2, 1, 23, 142]</text>
</g>
<!-- 8&#45;&gt;12 -->
<g id="edge4" class="edge"><title>8&#45;&gt;12</title>
<path fill="none" stroke="black" d="M626.559,-103.882C645.186,-93.7346 665.088,-82.8922 683.461,-72.8832"/>
<polygon fill="black" stroke="black" points="685.238,-75.9008 692.345,-68.0433 681.889,-69.7538 685.238,-75.9008"/>
</g>
</g>
</svg>
