<?xml version="1.0" encoding="UTF-8" standalone="no"?>
<!DOCTYPE svg PUBLIC "-//W3C//DTD SVG 1.1//EN"
 "http://www.w3.org/Graphics/SVG/1.1/DTD/svg11.dtd">
<!-- Generated by graphviz version 2.38.0 (20140413.2041)
 -->
<!-- Title: Tree Pages: 1 -->
<svg width="756pt" height="195pt"
 viewBox="0.00 0.00 755.50 195.00" xmlns="http://www.w3.org/2000/svg" xmlns:xlink="http://www.w3.org/1999/xlink">
<g id="graph0" class="graph" transform="scale(1 1) rotate(0) translate(4 191)">
<title>Tree</title>
<polygon fill="white" stroke="none" points="-4,4 -4,-191 751.5,-191 751.5,4 -4,4"/>
<!-- 0 -->
<g id="node1" class="node"><title>0</title>
<path fill="#e55639" fill-opacity="0.015686" stroke="black" d="M543.5,-187C543.5,-187 176.5,-187 176.5,-187 170.5,-187 164.5,-181 164.5,-175 164.5,-175 164.5,-116 164.5,-116 164.5,-110 170.5,-104 176.5,-104 176.5,-104 543.5,-104 543.5,-104 549.5,-104 555.5,-110 555.5,-116 555.5,-116 555.5,-175 555.5,-175 555.5,-181 549.5,-187 543.5,-187"/>
<text text-anchor="start" x="320" y="-171.8" font-family="Helvetica,sans-Serif" font-size="14.00">Shell ≤ 0.144</text>
<text text-anchor="start" x="312.5" y="-156.8" font-family="Helvetica,sans-Serif" font-size="14.00">entropy = 3.582</text>
<text text-anchor="start" x="311.5" y="-141.8" font-family="Helvetica,sans-Serif" font-size="14.00">samples = 2923</text>
<text text-anchor="start" x="172.5" y="-126.8" font-family="Helvetica,sans-Serif" font-size="14.00">value = [452, 355, 188, 137, 88, 75, 45, 35, 34, 24, 1, 13, 10, 5</text>
<text text-anchor="start" x="241.5" y="-111.8" font-family="Helvetica,sans-Serif" font-size="14.00">5, 1, 1, 2, 9, 37, 88, 178, 259, 390, 491]</text>
</g>
<!-- 1 -->
<g id="node2" class="node"><title>1</title>
<path fill="#e5396f" fill-opacity="0.062745" stroke="black" d="M326,-68C326,-68 12,-68 12,-68 6,-68 2.84217e-14,-62 2.84217e-14,-56 2.84217e-14,-56 2.84217e-14,-12 2.84217e-14,-12 2.84217e-14,-6 6,-0 12,-0 12,-0 326,-0 326,-0 332,-0 338,-6 338,-12 338,-12 338,-56 338,-56 338,-62 332,-68 326,-68"/>
<text text-anchor="start" x="121.5" y="-52.8" font-family="Helvetica,sans-Serif" font-size="14.00">entropy = 2.957</text>
<text text-anchor="start" x="124" y="-37.8" font-family="Helvetica,sans-Serif" font-size="14.00">samples = 809</text>
<text text-anchor="start" x="8" y="-22.8" font-family="Helvetica,sans-Serif" font-size="14.00">value = [50, 21, 12, 7, 1, 3, 2, 0, 1, 0, 1, 0, 0, 0, 0, 0, 0</text>
<text text-anchor="start" x="77" y="-7.8" font-family="Helvetica,sans-Serif" font-size="14.00">0, 9, 37, 88, 166, 207, 130, 74]</text>
</g>
<!-- 0&#45;&gt;1 -->
<g id="edge1" class="edge"><title>0&#45;&gt;1</title>
<path fill="none" stroke="black" d="M289.15,-103.882C271.611,-93.8269 252.882,-83.0892 235.556,-73.1563"/>
<polygon fill="black" stroke="black" points="237.053,-69.9806 226.637,-68.0433 233.572,-76.0534 237.053,-69.9806"/>
<text text-anchor="middle" x="233.181" y="-88.4717" font-family="Helvetica,sans-Serif" font-size="14.00">True</text>
</g>
<!-- 8 -->
<g id="node3" class="node"><title>8</title>
<path fill="#e55639" fill-opacity="0.007843" stroke="black" d="M735.5,-68C735.5,-68 368.5,-68 368.5,-68 362.5,-68 356.5,-62 356.5,-56 356.5,-56 356.5,-12 356.5,-12 356.5,-6 362.5,-0 368.5,-0 368.5,-0 735.5,-0 735.5,-0 741.5,-0 747.5,-6 747.5,-12 747.5,-12 747.5,-56 747.5,-56 747.5,-62 741.5,-68 735.5,-68"/>
<text text-anchor="start" x="504.5" y="-52.8" font-family="Helvetica,sans-Serif" font-size="14.00">entropy = 3.307</text>
<text text-anchor="start" x="503.5" y="-37.8" font-family="Helvetica,sans-Serif" font-size="14.00">samples = 2114</text>
<text text-anchor="start" x="364.5" y="-22.8" font-family="Helvetica,sans-Serif" font-size="14.00">value = [402, 334, 176, 130, 87, 72, 43, 35, 33, 24, 0, 13, 10, 5</text>
<text text-anchor="start" x="448.5" y="-7.8" font-family="Helvetica,sans-Serif" font-size="14.00">5, 1, 1, 2, 0, 0, 0, 12, 52, 260, 417]</text>
</g>
<!-- 0&#45;&gt;8 -->
<g id="edge2" class="edge"><title>0&#45;&gt;8</title>
<path fill="none" stroke="black" d="M431.221,-103.882C448.852,-93.8269 467.679,-83.0892 485.096,-73.1563"/>
<polygon fill="black" stroke="black" points="487.108,-76.0378 494.061,-68.0433 483.64,-69.9571 487.108,-76.0378"/>
<text text-anchor="middle" x="487.463" y="-88.4569" font-family="Helvetica,sans-Serif" font-size="14.00">False</text>
</g>
</g>
</svg>
