<?xml version="1.0" encoding="UTF-8" standalone="no"?>
<!DOCTYPE svg PUBLIC "-//W3C//DTD SVG 1.1//EN"
 "http://www.w3.org/Graphics/SVG/1.1/DTD/svg11.dtd">
<!-- Generated by graphviz version 2.38.0 (20140413.2041)
 -->
<!-- Title: Tree Pages: 1 -->
<svg width="756pt" height="685pt"
 viewBox="0.00 0.00 755.50 685.00" xmlns="http://www.w3.org/2000/svg" xmlns:xlink="http://www.w3.org/1999/xlink">
<g id="graph0" class="graph" transform="scale(1 1) rotate(0) translate(4 681)">
<title>Tree</title>
<polygon fill="white" stroke="none" points="-4,4 -4,-681 751.5,-681 751.5,4 -4,4"/>
<!-- 0 -->
<g id="node1" class="node"><title>0</title>
<path fill="#399de5" fill-opacity="0.274510" stroke="black" d="M291,-677C291,-677 190,-677 190,-677 184,-677 178,-671 178,-665 178,-665 178,-621 178,-621 178,-615 184,-609 190,-609 190,-609 291,-609 291,-609 297,-609 303,-615 303,-621 303,-621 303,-665 303,-665 303,-671 297,-677 291,-677"/>
<text text-anchor="start" x="209" y="-661.8" font-family="Helvetica,sans-Serif" font-size="14.00">A9_t ≤ 0.5</text>
<text text-anchor="start" x="193" y="-646.8" font-family="Helvetica,sans-Serif" font-size="14.00">entropy = 0.981</text>
<text text-anchor="start" x="195.5" y="-631.8" font-family="Helvetica,sans-Serif" font-size="14.00">samples = 343</text>
<text text-anchor="start" x="186" y="-616.8" font-family="Helvetica,sans-Serif" font-size="14.00">value = [144, 199]</text>
</g>
<!-- 1 -->
<g id="node2" class="node"><title>1</title>
<path fill="#399de5" fill-opacity="0.937255" stroke="black" d="M220,-573C220,-573 127,-573 127,-573 121,-573 115,-567 115,-561 115,-561 115,-517 115,-517 115,-511 121,-505 127,-505 127,-505 220,-505 220,-505 226,-505 232,-511 232,-517 232,-517 232,-561 232,-561 232,-567 226,-573 220,-573"/>
<text text-anchor="start" x="142.5" y="-557.8" font-family="Helvetica,sans-Serif" font-size="14.00">A4_l ≤ 0.5</text>
<text text-anchor="start" x="126" y="-542.8" font-family="Helvetica,sans-Serif" font-size="14.00">entropy = 0.324</text>
<text text-anchor="start" x="128.5" y="-527.8" font-family="Helvetica,sans-Serif" font-size="14.00">samples = 169</text>
<text text-anchor="start" x="123" y="-512.8" font-family="Helvetica,sans-Serif" font-size="14.00">value = [10, 159]</text>
</g>
<!-- 0&#45;&gt;1 -->
<g id="edge1" class="edge"><title>0&#45;&gt;1</title>
<path fill="none" stroke="black" d="M218.747,-608.884C213.072,-600.243 206.881,-590.819 200.952,-581.793"/>
<polygon fill="black" stroke="black" points="203.789,-579.736 195.373,-573.299 197.938,-583.579 203.789,-579.736"/>
<text text-anchor="middle" x="190.303" y="-594.08" font-family="Helvetica,sans-Serif" font-size="14.00">True</text>
</g>
<!-- 28 -->
<g id="node5" class="node"><title>28</title>
<path fill="#e58139" fill-opacity="0.701961" stroke="black" d="M355,-573C355,-573 262,-573 262,-573 256,-573 250,-567 250,-561 250,-561 250,-517 250,-517 250,-511 256,-505 262,-505 262,-505 355,-505 355,-505 361,-505 367,-511 367,-517 367,-517 367,-561 367,-561 367,-567 361,-573 355,-573"/>
<text text-anchor="start" x="271.5" y="-557.8" font-family="Helvetica,sans-Serif" font-size="14.00">A15 ≤ 235.0</text>
<text text-anchor="start" x="261" y="-542.8" font-family="Helvetica,sans-Serif" font-size="14.00">entropy = 0.778</text>
<text text-anchor="start" x="263.5" y="-527.8" font-family="Helvetica,sans-Serif" font-size="14.00">samples = 174</text>
<text text-anchor="start" x="258" y="-512.8" font-family="Helvetica,sans-Serif" font-size="14.00">value = [134, 40]</text>
</g>
<!-- 0&#45;&gt;28 -->
<g id="edge4" class="edge"><title>0&#45;&gt;28</title>
<path fill="none" stroke="black" d="M262.578,-608.884C268.338,-600.243 274.621,-590.819 280.638,-581.793"/>
<polygon fill="black" stroke="black" points="283.666,-583.561 286.3,-573.299 277.841,-579.678 283.666,-583.561"/>
<text text-anchor="middle" x="291.203" y="-594.114" font-family="Helvetica,sans-Serif" font-size="14.00">False</text>
</g>
<!-- 2 -->
<g id="node3" class="node"><title>2</title>
<path fill="#399de5" fill-opacity="0.949020" stroke="black" d="M99,-461.5C99,-461.5 12,-461.5 12,-461.5 6,-461.5 7.10543e-15,-455.5 7.10543e-15,-449.5 7.10543e-15,-449.5 7.10543e-15,-420.5 7.10543e-15,-420.5 7.10543e-15,-414.5 6,-408.5 12,-408.5 12,-408.5 99,-408.5 99,-408.5 105,-408.5 111,-414.5 111,-420.5 111,-420.5 111,-449.5 111,-449.5 111,-455.5 105,-461.5 99,-461.5"/>
<text text-anchor="start" x="8" y="-446.3" font-family="Helvetica,sans-Serif" font-size="14.00">entropy = 0.277</text>
<text text-anchor="start" x="10.5" y="-431.3" font-family="Helvetica,sans-Serif" font-size="14.00">samples = 167</text>
<text text-anchor="start" x="8.5" y="-416.3" font-family="Helvetica,sans-Serif" font-size="14.00">value = [8, 159]</text>
</g>
<!-- 1&#45;&gt;2 -->
<g id="edge2" class="edge"><title>1&#45;&gt;2</title>
<path fill="none" stroke="black" d="M135.189,-504.884C121.575,-493.116 106.279,-479.894 92.7549,-468.203"/>
<polygon fill="black" stroke="black" points="94.8773,-465.412 85.0231,-461.52 90.2996,-470.707 94.8773,-465.412"/>
</g>
<!-- 27 -->
<g id="node4" class="node"><title>27</title>
<path fill="#e58139" stroke="black" d="M213.5,-461.5C213.5,-461.5 141.5,-461.5 141.5,-461.5 135.5,-461.5 129.5,-455.5 129.5,-449.5 129.5,-449.5 129.5,-420.5 129.5,-420.5 129.5,-414.5 135.5,-408.5 141.5,-408.5 141.5,-408.5 213.5,-408.5 213.5,-408.5 219.5,-408.5 225.5,-414.5 225.5,-420.5 225.5,-420.5 225.5,-449.5 225.5,-449.5 225.5,-455.5 219.5,-461.5 213.5,-461.5"/>
<text text-anchor="start" x="137.5" y="-446.3" font-family="Helvetica,sans-Serif" font-size="14.00">entropy = 0.0</text>
<text text-anchor="start" x="140" y="-431.3" font-family="Helvetica,sans-Serif" font-size="14.00">samples = 2</text>
<text text-anchor="start" x="138" y="-416.3" font-family="Helvetica,sans-Serif" font-size="14.00">value = [2, 0]</text>
</g>
<!-- 1&#45;&gt;27 -->
<g id="edge3" class="edge"><title>1&#45;&gt;27</title>
<path fill="none" stroke="black" d="M174.799,-504.884C175.217,-494.216 175.682,-482.352 176.107,-471.519"/>
<polygon fill="black" stroke="black" points="179.605,-471.649 176.499,-461.52 172.61,-471.375 179.605,-471.649"/>
</g>
<!-- 29 -->
<g id="node6" class="node"><title>29</title>
<path fill="#e58139" fill-opacity="0.407843" stroke="black" d="M349,-469C349,-469 262,-469 262,-469 256,-469 250,-463 250,-457 250,-457 250,-413 250,-413 250,-407 256,-401 262,-401 262,-401 349,-401 349,-401 355,-401 361,-407 361,-413 361,-413 361,-457 361,-457 361,-463 355,-469 349,-469"/>
<text text-anchor="start" x="270.5" y="-453.8" font-family="Helvetica,sans-Serif" font-size="14.00">A10_f ≤ 0.5</text>
<text text-anchor="start" x="258" y="-438.8" font-family="Helvetica,sans-Serif" font-size="14.00">entropy = 0.952</text>
<text text-anchor="start" x="260.5" y="-423.8" font-family="Helvetica,sans-Serif" font-size="14.00">samples = 105</text>
<text text-anchor="start" x="258.5" y="-408.8" font-family="Helvetica,sans-Serif" font-size="14.00">value = [66, 39]</text>
</g>
<!-- 28&#45;&gt;29 -->
<g id="edge5" class="edge"><title>28&#45;&gt;29</title>
<path fill="none" stroke="black" d="M307.526,-504.884C307.288,-496.778 307.029,-487.982 306.779,-479.472"/>
<polygon fill="black" stroke="black" points="310.272,-479.192 306.479,-469.299 303.275,-479.398 310.272,-479.192"/>
</g>
<!-- 68 -->
<g id="node23" class="node"><title>68</title>
<path fill="#e58139" fill-opacity="0.984314" stroke="black" d="M478,-461.5C478,-461.5 391,-461.5 391,-461.5 385,-461.5 379,-455.5 379,-449.5 379,-449.5 379,-420.5 379,-420.5 379,-414.5 385,-408.5 391,-408.5 391,-408.5 478,-408.5 478,-408.5 484,-408.5 490,-414.5 490,-420.5 490,-420.5 490,-449.5 490,-449.5 490,-455.5 484,-461.5 478,-461.5"/>
<text text-anchor="start" x="387" y="-446.3" font-family="Helvetica,sans-Serif" font-size="14.00">entropy = 0.109</text>
<text text-anchor="start" x="393.5" y="-431.3" font-family="Helvetica,sans-Serif" font-size="14.00">samples = 69</text>
<text text-anchor="start" x="391.5" y="-416.3" font-family="Helvetica,sans-Serif" font-size="14.00">value = [68, 1]</text>
</g>
<!-- 28&#45;&gt;68 -->
<g id="edge22" class="edge"><title>28&#45;&gt;68</title>
<path fill="none" stroke="black" d="M349.409,-504.884C364.081,-493.006 380.584,-479.646 395.124,-467.876"/>
<polygon fill="black" stroke="black" points="397.405,-470.532 402.975,-461.52 393.001,-465.092 397.405,-470.532"/>
</g>
<!-- 30 -->
<g id="node7" class="node"><title>30</title>
<path fill="#e58139" fill-opacity="0.756863" stroke="black" d="M256,-365C256,-365 169,-365 169,-365 163,-365 157,-359 157,-353 157,-353 157,-309 157,-309 157,-303 163,-297 169,-297 169,-297 256,-297 256,-297 262,-297 268,-303 268,-309 268,-309 268,-353 268,-353 268,-359 262,-365 256,-365"/>
<text text-anchor="start" x="179" y="-349.8" font-family="Helvetica,sans-Serif" font-size="14.00">A14 ≤ 72.5</text>
<text text-anchor="start" x="165" y="-334.8" font-family="Helvetica,sans-Serif" font-size="14.00">entropy = 0.715</text>
<text text-anchor="start" x="171.5" y="-319.8" font-family="Helvetica,sans-Serif" font-size="14.00">samples = 56</text>
<text text-anchor="start" x="165.5" y="-304.8" font-family="Helvetica,sans-Serif" font-size="14.00">value = [45, 11]</text>
</g>
<!-- 29&#45;&gt;30 -->
<g id="edge6" class="edge"><title>29&#45;&gt;30</title>
<path fill="none" stroke="black" d="M275.306,-400.884C267.184,-391.976 258.303,-382.235 249.843,-372.957"/>
<polygon fill="black" stroke="black" points="252.185,-370.331 242.861,-365.299 247.012,-375.047 252.185,-370.331"/>
</g>
<!-- 47 -->
<g id="node12" class="node"><title>47</title>
<path fill="#399de5" fill-opacity="0.250980" stroke="black" d="M442,-365C442,-365 355,-365 355,-365 349,-365 343,-359 343,-353 343,-353 343,-309 343,-309 343,-303 349,-297 355,-297 355,-297 442,-297 442,-297 448,-297 454,-303 454,-309 454,-309 454,-353 454,-353 454,-359 448,-365 442,-365"/>
<text text-anchor="start" x="365" y="-349.8" font-family="Helvetica,sans-Serif" font-size="14.00">A7_h ≤ 0.5</text>
<text text-anchor="start" x="351" y="-334.8" font-family="Helvetica,sans-Serif" font-size="14.00">entropy = 0.985</text>
<text text-anchor="start" x="357.5" y="-319.8" font-family="Helvetica,sans-Serif" font-size="14.00">samples = 49</text>
<text text-anchor="start" x="351.5" y="-304.8" font-family="Helvetica,sans-Serif" font-size="14.00">value = [21, 28]</text>
</g>
<!-- 29&#45;&gt;47 -->
<g id="edge11" class="edge"><title>29&#45;&gt;47</title>
<path fill="none" stroke="black" d="M335.694,-400.884C343.816,-391.976 352.697,-382.235 361.157,-372.957"/>
<polygon fill="black" stroke="black" points="363.988,-375.047 368.139,-365.299 358.815,-370.331 363.988,-375.047"/>
</g>
<!-- 31 -->
<g id="node8" class="node"><title>31</title>
<path fill="#e58139" stroke="black" d="M127.5,-253.5C127.5,-253.5 49.5,-253.5 49.5,-253.5 43.5,-253.5 37.5,-247.5 37.5,-241.5 37.5,-241.5 37.5,-212.5 37.5,-212.5 37.5,-206.5 43.5,-200.5 49.5,-200.5 49.5,-200.5 127.5,-200.5 127.5,-200.5 133.5,-200.5 139.5,-206.5 139.5,-212.5 139.5,-212.5 139.5,-241.5 139.5,-241.5 139.5,-247.5 133.5,-253.5 127.5,-253.5"/>
<text text-anchor="start" x="48.5" y="-238.3" font-family="Helvetica,sans-Serif" font-size="14.00">entropy = 0.0</text>
<text text-anchor="start" x="47.5" y="-223.3" font-family="Helvetica,sans-Serif" font-size="14.00">samples = 15</text>
<text text-anchor="start" x="45.5" y="-208.3" font-family="Helvetica,sans-Serif" font-size="14.00">value = [15, 0]</text>
</g>
<!-- 30&#45;&gt;31 -->
<g id="edge7" class="edge"><title>30&#45;&gt;31</title>
<path fill="none" stroke="black" d="M172.241,-296.884C157.801,-285.006 141.56,-271.646 127.251,-259.876"/>
<polygon fill="black" stroke="black" points="129.471,-257.17 119.524,-253.52 125.024,-262.576 129.471,-257.17"/>
</g>
<!-- 32 -->
<g id="node9" class="node"><title>32</title>
<path fill="#e58139" fill-opacity="0.631373" stroke="black" d="M256,-261C256,-261 169,-261 169,-261 163,-261 157,-255 157,-249 157,-249 157,-205 157,-205 157,-199 163,-193 169,-193 169,-193 256,-193 256,-193 262,-193 268,-199 268,-205 268,-205 268,-249 268,-249 268,-255 262,-261 256,-261"/>
<text text-anchor="start" x="175.5" y="-245.8" font-family="Helvetica,sans-Serif" font-size="14.00">A2 ≤ 48.915</text>
<text text-anchor="start" x="165" y="-230.8" font-family="Helvetica,sans-Serif" font-size="14.00">entropy = 0.839</text>
<text text-anchor="start" x="171.5" y="-215.8" font-family="Helvetica,sans-Serif" font-size="14.00">samples = 41</text>
<text text-anchor="start" x="165.5" y="-200.8" font-family="Helvetica,sans-Serif" font-size="14.00">value = [30, 11]</text>
</g>
<!-- 30&#45;&gt;32 -->
<g id="edge8" class="edge"><title>30&#45;&gt;32</title>
<path fill="none" stroke="black" d="M212.5,-296.884C212.5,-288.778 212.5,-279.982 212.5,-271.472"/>
<polygon fill="black" stroke="black" points="216,-271.299 212.5,-261.299 209,-271.299 216,-271.299"/>
</g>
<!-- 33 -->
<g id="node10" class="node"><title>33</title>
<path fill="#e58139" fill-opacity="0.733333" stroke="black" d="M134,-149.5C134,-149.5 47,-149.5 47,-149.5 41,-149.5 35,-143.5 35,-137.5 35,-137.5 35,-108.5 35,-108.5 35,-102.5 41,-96.5 47,-96.5 47,-96.5 134,-96.5 134,-96.5 140,-96.5 146,-102.5 146,-108.5 146,-108.5 146,-137.5 146,-137.5 146,-143.5 140,-149.5 134,-149.5"/>
<text text-anchor="start" x="43" y="-134.3" font-family="Helvetica,sans-Serif" font-size="14.00">entropy = 0.742</text>
<text text-anchor="start" x="49.5" y="-119.3" font-family="Helvetica,sans-Serif" font-size="14.00">samples = 38</text>
<text text-anchor="start" x="47.5" y="-104.3" font-family="Helvetica,sans-Serif" font-size="14.00">value = [30, 8]</text>
</g>
<!-- 32&#45;&gt;33 -->
<g id="edge9" class="edge"><title>32&#45;&gt;33</title>
<path fill="none" stroke="black" d="M172.89,-192.884C158.815,-181.116 143,-167.894 129.018,-156.203"/>
<polygon fill="black" stroke="black" points="130.941,-153.249 121.024,-149.52 126.451,-158.619 130.941,-153.249"/>
</g>
<!-- 46 -->
<g id="node11" class="node"><title>46</title>
<path fill="#399de5" stroke="black" d="M248.5,-149.5C248.5,-149.5 176.5,-149.5 176.5,-149.5 170.5,-149.5 164.5,-143.5 164.5,-137.5 164.5,-137.5 164.5,-108.5 164.5,-108.5 164.5,-102.5 170.5,-96.5 176.5,-96.5 176.5,-96.5 248.5,-96.5 248.5,-96.5 254.5,-96.5 260.5,-102.5 260.5,-108.5 260.5,-108.5 260.5,-137.5 260.5,-137.5 260.5,-143.5 254.5,-149.5 248.5,-149.5"/>
<text text-anchor="start" x="172.5" y="-134.3" font-family="Helvetica,sans-Serif" font-size="14.00">entropy = 0.0</text>
<text text-anchor="start" x="175" y="-119.3" font-family="Helvetica,sans-Serif" font-size="14.00">samples = 3</text>
<text text-anchor="start" x="173" y="-104.3" font-family="Helvetica,sans-Serif" font-size="14.00">value = [0, 3]</text>
</g>
<!-- 32&#45;&gt;46 -->
<g id="edge10" class="edge"><title>32&#45;&gt;46</title>
<path fill="none" stroke="black" d="M212.5,-192.884C212.5,-182.326 212.5,-170.597 212.5,-159.854"/>
<polygon fill="black" stroke="black" points="216,-159.52 212.5,-149.52 209,-159.52 216,-159.52"/>
</g>
<!-- 48 -->
<g id="node13" class="node"><title>48</title>
<path fill="#399de5" fill-opacity="0.498039" stroke="black" d="M442,-261C442,-261 355,-261 355,-261 349,-261 343,-255 343,-249 343,-249 343,-205 343,-205 343,-199 349,-193 355,-193 355,-193 442,-193 442,-193 448,-193 454,-199 454,-205 454,-205 454,-249 454,-249 454,-255 448,-261 442,-261"/>
<text text-anchor="start" x="369" y="-245.8" font-family="Helvetica,sans-Serif" font-size="14.00">A2 ≤ 28.5</text>
<text text-anchor="start" x="351" y="-230.8" font-family="Helvetica,sans-Serif" font-size="14.00">entropy = 0.918</text>
<text text-anchor="start" x="357.5" y="-215.8" font-family="Helvetica,sans-Serif" font-size="14.00">samples = 39</text>
<text text-anchor="start" x="351.5" y="-200.8" font-family="Helvetica,sans-Serif" font-size="14.00">value = [13, 26]</text>
</g>
<!-- 47&#45;&gt;48 -->
<g id="edge12" class="edge"><title>47&#45;&gt;48</title>
<path fill="none" stroke="black" d="M398.5,-296.884C398.5,-288.778 398.5,-279.982 398.5,-271.472"/>
<polygon fill="black" stroke="black" points="402,-271.299 398.5,-261.299 395,-271.299 402,-271.299"/>
</g>
<!-- 65 -->
<g id="node20" class="node"><title>65</title>
<path fill="#e58139" fill-opacity="0.749020" stroke="black" d="M629,-261C629,-261 542,-261 542,-261 536,-261 530,-255 530,-249 530,-249 530,-205 530,-205 530,-199 536,-193 542,-193 542,-193 629,-193 629,-193 635,-193 641,-199 641,-205 641,-205 641,-249 641,-249 641,-255 635,-261 629,-261"/>
<text text-anchor="start" x="556" y="-245.8" font-family="Helvetica,sans-Serif" font-size="14.00">A8 ≤ 8.98</text>
<text text-anchor="start" x="538" y="-230.8" font-family="Helvetica,sans-Serif" font-size="14.00">entropy = 0.722</text>
<text text-anchor="start" x="544.5" y="-215.8" font-family="Helvetica,sans-Serif" font-size="14.00">samples = 10</text>
<text text-anchor="start" x="546" y="-200.8" font-family="Helvetica,sans-Serif" font-size="14.00">value = [8, 2]</text>
</g>
<!-- 47&#45;&gt;65 -->
<g id="edge19" class="edge"><title>47&#45;&gt;65</title>
<path fill="none" stroke="black" d="M454.1,-299.673C475.106,-288.215 499.185,-275.081 520.944,-263.212"/>
<polygon fill="black" stroke="black" points="522.688,-266.248 529.791,-258.386 519.336,-260.102 522.688,-266.248"/>
</g>
<!-- 49 -->
<g id="node14" class="node"><title>49</title>
<path fill="#e58139" fill-opacity="0.180392" stroke="black" d="M378,-157C378,-157 291,-157 291,-157 285,-157 279,-151 279,-145 279,-145 279,-101 279,-101 279,-95 285,-89 291,-89 291,-89 378,-89 378,-89 384,-89 390,-95 390,-101 390,-101 390,-145 390,-145 390,-151 384,-157 378,-157"/>
<text text-anchor="start" x="297.5" y="-141.8" font-family="Helvetica,sans-Serif" font-size="14.00">A14 ≤ 120.0</text>
<text text-anchor="start" x="287" y="-126.8" font-family="Helvetica,sans-Serif" font-size="14.00">entropy = 0.993</text>
<text text-anchor="start" x="293.5" y="-111.8" font-family="Helvetica,sans-Serif" font-size="14.00">samples = 20</text>
<text text-anchor="start" x="291.5" y="-96.8" font-family="Helvetica,sans-Serif" font-size="14.00">value = [11, 9]</text>
</g>
<!-- 48&#45;&gt;49 -->
<g id="edge13" class="edge"><title>48&#45;&gt;49</title>
<path fill="none" stroke="black" d="M377.721,-192.884C372.3,-184.243 366.387,-174.819 360.723,-165.793"/>
<polygon fill="black" stroke="black" points="363.673,-163.91 355.394,-157.299 357.744,-167.63 363.673,-163.91"/>
</g>
<!-- 58 -->
<g id="node17" class="node"><title>58</title>
<path fill="#399de5" fill-opacity="0.882353" stroke="black" d="M507,-157C507,-157 420,-157 420,-157 414,-157 408,-151 408,-145 408,-145 408,-101 408,-101 408,-95 414,-89 420,-89 420,-89 507,-89 507,-89 513,-89 519,-95 519,-101 519,-101 519,-145 519,-145 519,-151 513,-157 507,-157"/>
<text text-anchor="start" x="429" y="-141.8" font-family="Helvetica,sans-Serif" font-size="14.00">A6_w ≤ 0.5</text>
<text text-anchor="start" x="416" y="-126.8" font-family="Helvetica,sans-Serif" font-size="14.00">entropy = 0.485</text>
<text text-anchor="start" x="422.5" y="-111.8" font-family="Helvetica,sans-Serif" font-size="14.00">samples = 19</text>
<text text-anchor="start" x="420.5" y="-96.8" font-family="Helvetica,sans-Serif" font-size="14.00">value = [2, 17]</text>
</g>
<!-- 48&#45;&gt;58 -->
<g id="edge16" class="edge"><title>48&#45;&gt;58</title>
<path fill="none" stroke="black" d="M419.604,-192.884C425.11,-184.243 431.115,-174.819 436.867,-165.793"/>
<polygon fill="black" stroke="black" points="439.857,-167.614 442.28,-157.299 433.954,-163.852 439.857,-167.614"/>
</g>
<!-- 50 -->
<g id="node15" class="node"><title>50</title>
<path fill="#e58139" stroke="black" d="M249.5,-53C249.5,-53 177.5,-53 177.5,-53 171.5,-53 165.5,-47 165.5,-41 165.5,-41 165.5,-12 165.5,-12 165.5,-6 171.5,-0 177.5,-0 177.5,-0 249.5,-0 249.5,-0 255.5,-0 261.5,-6 261.5,-12 261.5,-12 261.5,-41 261.5,-41 261.5,-47 255.5,-53 249.5,-53"/>
<text text-anchor="start" x="173.5" y="-37.8" font-family="Helvetica,sans-Serif" font-size="14.00">entropy = 0.0</text>
<text text-anchor="start" x="176" y="-22.8" font-family="Helvetica,sans-Serif" font-size="14.00">samples = 8</text>
<text text-anchor="start" x="174" y="-7.8" font-family="Helvetica,sans-Serif" font-size="14.00">value = [8, 0]</text>
</g>
<!-- 49&#45;&gt;50 -->
<g id="edge14" class="edge"><title>49&#45;&gt;50</title>
<path fill="none" stroke="black" d="M292.18,-88.9485C279.998,-79.4346 266.732,-69.074 254.624,-59.6175"/>
<polygon fill="black" stroke="black" points="256.489,-56.6335 246.454,-53.2367 252.181,-62.1504 256.489,-56.6335"/>
</g>
<!-- 51 -->
<g id="node16" class="node"><title>51</title>
<path fill="#399de5" fill-opacity="0.666667" stroke="black" d="M379,-53C379,-53 292,-53 292,-53 286,-53 280,-47 280,-41 280,-41 280,-12 280,-12 280,-6 286,-0 292,-0 292,-0 379,-0 379,-0 385,-0 391,-6 391,-12 391,-12 391,-41 391,-41 391,-47 385,-53 379,-53"/>
<text text-anchor="start" x="288" y="-37.8" font-family="Helvetica,sans-Serif" font-size="14.00">entropy = 0.811</text>
<text text-anchor="start" x="294.5" y="-22.8" font-family="Helvetica,sans-Serif" font-size="14.00">samples = 12</text>
<text text-anchor="start" x="296" y="-7.8" font-family="Helvetica,sans-Serif" font-size="14.00">value = [3, 9]</text>
</g>
<!-- 49&#45;&gt;51 -->
<g id="edge15" class="edge"><title>49&#45;&gt;51</title>
<path fill="none" stroke="black" d="M334.85,-88.9485C334.937,-80.7153 335.031,-71.848 335.119,-63.4814"/>
<polygon fill="black" stroke="black" points="338.622,-63.2732 335.228,-53.2367 331.622,-63.1991 338.622,-63.2732"/>
</g>
<!-- 59 -->
<g id="node18" class="node"><title>59</title>
<path fill="#399de5" fill-opacity="0.941176" stroke="black" d="M502.5,-53C502.5,-53 422.5,-53 422.5,-53 416.5,-53 410.5,-47 410.5,-41 410.5,-41 410.5,-12 410.5,-12 410.5,-6 416.5,-0 422.5,-0 422.5,-0 502.5,-0 502.5,-0 508.5,-0 514.5,-6 514.5,-12 514.5,-12 514.5,-41 514.5,-41 514.5,-47 508.5,-53 502.5,-53"/>
<text text-anchor="start" x="418.5" y="-37.8" font-family="Helvetica,sans-Serif" font-size="14.00">entropy = 0.31</text>
<text text-anchor="start" x="421.5" y="-22.8" font-family="Helvetica,sans-Serif" font-size="14.00">samples = 18</text>
<text text-anchor="start" x="419.5" y="-7.8" font-family="Helvetica,sans-Serif" font-size="14.00">value = [1, 17]</text>
</g>
<!-- 58&#45;&gt;59 -->
<g id="edge17" class="edge"><title>58&#45;&gt;59</title>
<path fill="none" stroke="black" d="M463.15,-88.9485C463.063,-80.7153 462.969,-71.848 462.881,-63.4814"/>
<polygon fill="black" stroke="black" points="466.378,-63.1991 462.772,-53.2367 459.378,-63.2732 466.378,-63.1991"/>
</g>
<!-- 64 -->
<g id="node19" class="node"><title>64</title>
<path fill="#e58139" stroke="black" d="M616.5,-53C616.5,-53 544.5,-53 544.5,-53 538.5,-53 532.5,-47 532.5,-41 532.5,-41 532.5,-12 532.5,-12 532.5,-6 538.5,-0 544.5,-0 544.5,-0 616.5,-0 616.5,-0 622.5,-0 628.5,-6 628.5,-12 628.5,-12 628.5,-41 628.5,-41 628.5,-47 622.5,-53 616.5,-53"/>
<text text-anchor="start" x="540.5" y="-37.8" font-family="Helvetica,sans-Serif" font-size="14.00">entropy = 0.0</text>
<text text-anchor="start" x="543" y="-22.8" font-family="Helvetica,sans-Serif" font-size="14.00">samples = 1</text>
<text text-anchor="start" x="541" y="-7.8" font-family="Helvetica,sans-Serif" font-size="14.00">value = [1, 0]</text>
</g>
<!-- 58&#45;&gt;64 -->
<g id="edge18" class="edge"><title>58&#45;&gt;64</title>
<path fill="none" stroke="black" d="M504.421,-88.9485C516.2,-79.4346 529.027,-69.074 540.735,-59.6175"/>
<polygon fill="black" stroke="black" points="543.055,-62.2429 548.636,-53.2367 538.657,-56.7973 543.055,-62.2429"/>
</g>
<!-- 66 -->
<g id="node21" class="node"><title>66</title>
<path fill="#e58139" stroke="black" d="M621.5,-149.5C621.5,-149.5 549.5,-149.5 549.5,-149.5 543.5,-149.5 537.5,-143.5 537.5,-137.5 537.5,-137.5 537.5,-108.5 537.5,-108.5 537.5,-102.5 543.5,-96.5 549.5,-96.5 549.5,-96.5 621.5,-96.5 621.5,-96.5 627.5,-96.5 633.5,-102.5 633.5,-108.5 633.5,-108.5 633.5,-137.5 633.5,-137.5 633.5,-143.5 627.5,-149.5 621.5,-149.5"/>
<text text-anchor="start" x="545.5" y="-134.3" font-family="Helvetica,sans-Serif" font-size="14.00">entropy = 0.0</text>
<text text-anchor="start" x="548" y="-119.3" font-family="Helvetica,sans-Serif" font-size="14.00">samples = 8</text>
<text text-anchor="start" x="546" y="-104.3" font-family="Helvetica,sans-Serif" font-size="14.00">value = [8, 0]</text>
</g>
<!-- 65&#45;&gt;66 -->
<g id="edge20" class="edge"><title>65&#45;&gt;66</title>
<path fill="none" stroke="black" d="M585.5,-192.884C585.5,-182.326 585.5,-170.597 585.5,-159.854"/>
<polygon fill="black" stroke="black" points="589,-159.52 585.5,-149.52 582,-159.52 589,-159.52"/>
</g>
<!-- 67 -->
<g id="node22" class="node"><title>67</title>
<path fill="#399de5" stroke="black" d="M735.5,-149.5C735.5,-149.5 663.5,-149.5 663.5,-149.5 657.5,-149.5 651.5,-143.5 651.5,-137.5 651.5,-137.5 651.5,-108.5 651.5,-108.5 651.5,-102.5 657.5,-96.5 663.5,-96.5 663.5,-96.5 735.5,-96.5 735.5,-96.5 741.5,-96.5 747.5,-102.5 747.5,-108.5 747.5,-108.5 747.5,-137.5 747.5,-137.5 747.5,-143.5 741.5,-149.5 735.5,-149.5"/>
<text text-anchor="start" x="659.5" y="-134.3" font-family="Helvetica,sans-Serif" font-size="14.00">entropy = 0.0</text>
<text text-anchor="start" x="662" y="-119.3" font-family="Helvetica,sans-Serif" font-size="14.00">samples = 2</text>
<text text-anchor="start" x="660" y="-104.3" font-family="Helvetica,sans-Serif" font-size="14.00">value = [0, 2]</text>
</g>
<!-- 65&#45;&gt;67 -->
<g id="edge21" class="edge"><title>65&#45;&gt;67</title>
<path fill="none" stroke="black" d="M622.513,-192.884C635.665,-181.116 650.442,-167.894 663.508,-156.203"/>
<polygon fill="black" stroke="black" points="665.859,-158.796 670.978,-149.52 661.191,-153.58 665.859,-158.796"/>
</g>
</g>
</svg>
