<?xml version="1.0" encoding="UTF-8" standalone="no"?>
<!DOCTYPE svg PUBLIC "-//W3C//DTD SVG 1.1//EN"
 "http://www.w3.org/Graphics/SVG/1.1/DTD/svg11.dtd">
<!-- Generated by graphviz version 2.38.0 (20140413.2041)
 -->
<!-- Title: Tree Pages: 1 -->
<svg width="399pt" height="76pt"
 viewBox="0.00 0.00 399.00 76.00" xmlns="http://www.w3.org/2000/svg" xmlns:xlink="http://www.w3.org/1999/xlink">
<g id="graph0" class="graph" transform="scale(1 1) rotate(0) translate(4 72)">
<title>Tree</title>
<polygon fill="white" stroke="none" points="-4,4 -4,-72 395,-72 395,4 -4,4"/>
<!-- 0 -->
<g id="node1" class="node"><title>0</title>
<path fill="#e55639" fill-opacity="0.015686" stroke="black" d="M379,-68C379,-68 12,-68 12,-68 6,-68 0,-62 0,-56 0,-56 0,-12 0,-12 0,-6 6,-0 12,-0 12,-0 379,-0 379,-0 385,-0 391,-6 391,-12 391,-12 391,-56 391,-56 391,-62 385,-68 379,-68"/>
<text text-anchor="start" x="148" y="-52.8" font-family="Helvetica,sans-Serif" font-size="14.00">entropy = 3.582</text>
<text text-anchor="start" x="147" y="-37.8" font-family="Helvetica,sans-Serif" font-size="14.00">samples = 2923</text>
<text text-anchor="start" x="8" y="-22.8" font-family="Helvetica,sans-Serif" font-size="14.00">value = [452, 355, 188, 137, 88, 75, 45, 35, 34, 24, 1, 13, 10, 5</text>
<text text-anchor="start" x="77" y="-7.8" font-family="Helvetica,sans-Serif" font-size="14.00">5, 1, 1, 2, 9, 37, 88, 178, 259, 390, 491]</text>
</g>
</g>
</svg>
