<?xml version="1.0" encoding="UTF-8" standalone="no"?>
<!DOCTYPE svg PUBLIC "-//W3C//DTD SVG 1.1//EN"
 "http://www.w3.org/Graphics/SVG/1.1/DTD/svg11.dtd">
<!-- Generated by graphviz version 2.38.0 (20140413.2041)
 -->
<!-- Title: Tree Pages: 1 -->
<svg width="533pt" height="685pt"
 viewBox="0.00 0.00 533.00 685.00" xmlns="http://www.w3.org/2000/svg" xmlns:xlink="http://www.w3.org/1999/xlink">
<g id="graph0" class="graph" transform="scale(1 1) rotate(0) translate(4 681)">
<title>Tree</title>
<polygon fill="white" stroke="none" points="-4,4 -4,-681 529,-681 529,4 -4,4"/>
<!-- 0 -->
<g id="node1" class="node"><title>0</title>
<path fill="#399de5" fill-opacity="0.274510" stroke="black" d="M283.5,-677C283.5,-677 182.5,-677 182.5,-677 176.5,-677 170.5,-671 170.5,-665 170.5,-665 170.5,-621 170.5,-621 170.5,-615 176.5,-609 182.5,-609 182.5,-609 283.5,-609 283.5,-609 289.5,-609 295.5,-615 295.5,-621 295.5,-621 295.5,-665 295.5,-665 295.5,-671 289.5,-677 283.5,-677"/>
<text text-anchor="start" x="201.5" y="-661.8" font-family="Helvetica,sans-Serif" font-size="14.00">A9_t ≤ 0.5</text>
<text text-anchor="start" x="185.5" y="-646.8" font-family="Helvetica,sans-Serif" font-size="14.00">entropy = 0.981</text>
<text text-anchor="start" x="188" y="-631.8" font-family="Helvetica,sans-Serif" font-size="14.00">samples = 343</text>
<text text-anchor="start" x="178.5" y="-616.8" font-family="Helvetica,sans-Serif" font-size="14.00">value = [144, 199]</text>
</g>
<!-- 1 -->
<g id="node2" class="node"><title>1</title>
<path fill="#399de5" fill-opacity="0.937255" stroke="black" d="M212.5,-565.5C212.5,-565.5 119.5,-565.5 119.5,-565.5 113.5,-565.5 107.5,-559.5 107.5,-553.5 107.5,-553.5 107.5,-524.5 107.5,-524.5 107.5,-518.5 113.5,-512.5 119.5,-512.5 119.5,-512.5 212.5,-512.5 212.5,-512.5 218.5,-512.5 224.5,-518.5 224.5,-524.5 224.5,-524.5 224.5,-553.5 224.5,-553.5 224.5,-559.5 218.5,-565.5 212.5,-565.5"/>
<text text-anchor="start" x="118.5" y="-550.3" font-family="Helvetica,sans-Serif" font-size="14.00">entropy = 0.324</text>
<text text-anchor="start" x="121" y="-535.3" font-family="Helvetica,sans-Serif" font-size="14.00">samples = 169</text>
<text text-anchor="start" x="115.5" y="-520.3" font-family="Helvetica,sans-Serif" font-size="14.00">value = [10, 159]</text>
</g>
<!-- 0&#45;&gt;1 -->
<g id="edge1" class="edge"><title>0&#45;&gt;1</title>
<path fill="none" stroke="black" d="M211.247,-608.884C203.951,-597.776 195.803,-585.372 188.454,-574.184"/>
<polygon fill="black" stroke="black" points="191.179,-571.957 182.763,-565.52 185.328,-575.8 191.179,-571.957"/>
<text text-anchor="middle" x="177.693" y="-586.3" font-family="Helvetica,sans-Serif" font-size="14.00">True</text>
</g>
<!-- 28 -->
<g id="node3" class="node"><title>28</title>
<path fill="#e58139" fill-opacity="0.701961" stroke="black" d="M347.5,-573C347.5,-573 254.5,-573 254.5,-573 248.5,-573 242.5,-567 242.5,-561 242.5,-561 242.5,-517 242.5,-517 242.5,-511 248.5,-505 254.5,-505 254.5,-505 347.5,-505 347.5,-505 353.5,-505 359.5,-511 359.5,-517 359.5,-517 359.5,-561 359.5,-561 359.5,-567 353.5,-573 347.5,-573"/>
<text text-anchor="start" x="264" y="-557.8" font-family="Helvetica,sans-Serif" font-size="14.00">A15 ≤ 235.0</text>
<text text-anchor="start" x="253.5" y="-542.8" font-family="Helvetica,sans-Serif" font-size="14.00">entropy = 0.778</text>
<text text-anchor="start" x="256" y="-527.8" font-family="Helvetica,sans-Serif" font-size="14.00">samples = 174</text>
<text text-anchor="start" x="250.5" y="-512.8" font-family="Helvetica,sans-Serif" font-size="14.00">value = [134, 40]</text>
</g>
<!-- 0&#45;&gt;28 -->
<g id="edge2" class="edge"><title>0&#45;&gt;28</title>
<path fill="none" stroke="black" d="M255.078,-608.884C260.838,-600.243 267.121,-590.819 273.138,-581.793"/>
<polygon fill="black" stroke="black" points="276.166,-583.561 278.8,-573.299 270.341,-579.678 276.166,-583.561"/>
<text text-anchor="middle" x="283.703" y="-594.114" font-family="Helvetica,sans-Serif" font-size="14.00">False</text>
</g>
<!-- 29 -->
<g id="node4" class="node"><title>29</title>
<path fill="#e58139" fill-opacity="0.407843" stroke="black" d="M279.5,-469C279.5,-469 192.5,-469 192.5,-469 186.5,-469 180.5,-463 180.5,-457 180.5,-457 180.5,-413 180.5,-413 180.5,-407 186.5,-401 192.5,-401 192.5,-401 279.5,-401 279.5,-401 285.5,-401 291.5,-407 291.5,-413 291.5,-413 291.5,-457 291.5,-457 291.5,-463 285.5,-469 279.5,-469"/>
<text text-anchor="start" x="201" y="-453.8" font-family="Helvetica,sans-Serif" font-size="14.00">A10_f ≤ 0.5</text>
<text text-anchor="start" x="188.5" y="-438.8" font-family="Helvetica,sans-Serif" font-size="14.00">entropy = 0.952</text>
<text text-anchor="start" x="191" y="-423.8" font-family="Helvetica,sans-Serif" font-size="14.00">samples = 105</text>
<text text-anchor="start" x="189" y="-408.8" font-family="Helvetica,sans-Serif" font-size="14.00">value = [66, 39]</text>
</g>
<!-- 28&#45;&gt;29 -->
<g id="edge3" class="edge"><title>28&#45;&gt;29</title>
<path fill="none" stroke="black" d="M279.896,-504.884C274.39,-496.243 268.385,-486.819 262.633,-477.793"/>
<polygon fill="black" stroke="black" points="265.546,-475.852 257.22,-469.299 259.643,-479.614 265.546,-475.852"/>
</g>
<!-- 68 -->
<g id="node15" class="node"><title>68</title>
<path fill="#e58139" fill-opacity="0.984314" stroke="black" d="M408.5,-461.5C408.5,-461.5 321.5,-461.5 321.5,-461.5 315.5,-461.5 309.5,-455.5 309.5,-449.5 309.5,-449.5 309.5,-420.5 309.5,-420.5 309.5,-414.5 315.5,-408.5 321.5,-408.5 321.5,-408.5 408.5,-408.5 408.5,-408.5 414.5,-408.5 420.5,-414.5 420.5,-420.5 420.5,-420.5 420.5,-449.5 420.5,-449.5 420.5,-455.5 414.5,-461.5 408.5,-461.5"/>
<text text-anchor="start" x="317.5" y="-446.3" font-family="Helvetica,sans-Serif" font-size="14.00">entropy = 0.109</text>
<text text-anchor="start" x="324" y="-431.3" font-family="Helvetica,sans-Serif" font-size="14.00">samples = 69</text>
<text text-anchor="start" x="322" y="-416.3" font-family="Helvetica,sans-Serif" font-size="14.00">value = [68, 1]</text>
</g>
<!-- 28&#45;&gt;68 -->
<g id="edge14" class="edge"><title>28&#45;&gt;68</title>
<path fill="none" stroke="black" d="M321.779,-504.884C328.749,-493.776 336.531,-481.372 343.551,-470.184"/>
<polygon fill="black" stroke="black" points="346.637,-471.851 348.987,-461.52 340.708,-468.13 346.637,-471.851"/>
</g>
<!-- 30 -->
<g id="node5" class="node"><title>30</title>
<path fill="#e58139" fill-opacity="0.756863" stroke="black" d="M215.5,-357.5C215.5,-357.5 128.5,-357.5 128.5,-357.5 122.5,-357.5 116.5,-351.5 116.5,-345.5 116.5,-345.5 116.5,-316.5 116.5,-316.5 116.5,-310.5 122.5,-304.5 128.5,-304.5 128.5,-304.5 215.5,-304.5 215.5,-304.5 221.5,-304.5 227.5,-310.5 227.5,-316.5 227.5,-316.5 227.5,-345.5 227.5,-345.5 227.5,-351.5 221.5,-357.5 215.5,-357.5"/>
<text text-anchor="start" x="124.5" y="-342.3" font-family="Helvetica,sans-Serif" font-size="14.00">entropy = 0.715</text>
<text text-anchor="start" x="131" y="-327.3" font-family="Helvetica,sans-Serif" font-size="14.00">samples = 56</text>
<text text-anchor="start" x="125" y="-312.3" font-family="Helvetica,sans-Serif" font-size="14.00">value = [45, 11]</text>
</g>
<!-- 29&#45;&gt;30 -->
<g id="edge4" class="edge"><title>29&#45;&gt;30</title>
<path fill="none" stroke="black" d="M215.221,-400.884C208.251,-389.776 200.469,-377.372 193.449,-366.184"/>
<polygon fill="black" stroke="black" points="196.292,-364.13 188.013,-357.52 190.363,-367.851 196.292,-364.13"/>
</g>
<!-- 47 -->
<g id="node6" class="node"><title>47</title>
<path fill="#399de5" fill-opacity="0.250980" stroke="black" d="M344.5,-365C344.5,-365 257.5,-365 257.5,-365 251.5,-365 245.5,-359 245.5,-353 245.5,-353 245.5,-309 245.5,-309 245.5,-303 251.5,-297 257.5,-297 257.5,-297 344.5,-297 344.5,-297 350.5,-297 356.5,-303 356.5,-309 356.5,-309 356.5,-353 356.5,-353 356.5,-359 350.5,-365 344.5,-365"/>
<text text-anchor="start" x="267.5" y="-349.8" font-family="Helvetica,sans-Serif" font-size="14.00">A7_h ≤ 0.5</text>
<text text-anchor="start" x="253.5" y="-334.8" font-family="Helvetica,sans-Serif" font-size="14.00">entropy = 0.985</text>
<text text-anchor="start" x="260" y="-319.8" font-family="Helvetica,sans-Serif" font-size="14.00">samples = 49</text>
<text text-anchor="start" x="254" y="-304.8" font-family="Helvetica,sans-Serif" font-size="14.00">value = [21, 28]</text>
</g>
<!-- 29&#45;&gt;47 -->
<g id="edge5" class="edge"><title>29&#45;&gt;47</title>
<path fill="none" stroke="black" d="M257.104,-400.884C262.61,-392.243 268.615,-382.819 274.367,-373.793"/>
<polygon fill="black" stroke="black" points="277.357,-375.614 279.78,-365.299 271.454,-371.852 277.357,-375.614"/>
</g>
<!-- 48 -->
<g id="node7" class="node"><title>48</title>
<path fill="#399de5" fill-opacity="0.498039" stroke="black" d="M279.5,-261C279.5,-261 192.5,-261 192.5,-261 186.5,-261 180.5,-255 180.5,-249 180.5,-249 180.5,-205 180.5,-205 180.5,-199 186.5,-193 192.5,-193 192.5,-193 279.5,-193 279.5,-193 285.5,-193 291.5,-199 291.5,-205 291.5,-205 291.5,-249 291.5,-249 291.5,-255 285.5,-261 279.5,-261"/>
<text text-anchor="start" x="206.5" y="-245.8" font-family="Helvetica,sans-Serif" font-size="14.00">A2 ≤ 28.5</text>
<text text-anchor="start" x="188.5" y="-230.8" font-family="Helvetica,sans-Serif" font-size="14.00">entropy = 0.918</text>
<text text-anchor="start" x="195" y="-215.8" font-family="Helvetica,sans-Serif" font-size="14.00">samples = 39</text>
<text text-anchor="start" x="189" y="-200.8" font-family="Helvetica,sans-Serif" font-size="14.00">value = [13, 26]</text>
</g>
<!-- 47&#45;&gt;48 -->
<g id="edge6" class="edge"><title>47&#45;&gt;48</title>
<path fill="none" stroke="black" d="M279.896,-296.884C274.39,-288.243 268.385,-278.819 262.633,-269.793"/>
<polygon fill="black" stroke="black" points="265.546,-267.852 257.22,-261.299 259.643,-271.614 265.546,-267.852"/>
</g>
<!-- 65 -->
<g id="node12" class="node"><title>65</title>
<path fill="#e58139" fill-opacity="0.749020" stroke="black" d="M408.5,-261C408.5,-261 321.5,-261 321.5,-261 315.5,-261 309.5,-255 309.5,-249 309.5,-249 309.5,-205 309.5,-205 309.5,-199 315.5,-193 321.5,-193 321.5,-193 408.5,-193 408.5,-193 414.5,-193 420.5,-199 420.5,-205 420.5,-205 420.5,-249 420.5,-249 420.5,-255 414.5,-261 408.5,-261"/>
<text text-anchor="start" x="335.5" y="-245.8" font-family="Helvetica,sans-Serif" font-size="14.00">A8 ≤ 8.98</text>
<text text-anchor="start" x="317.5" y="-230.8" font-family="Helvetica,sans-Serif" font-size="14.00">entropy = 0.722</text>
<text text-anchor="start" x="324" y="-215.8" font-family="Helvetica,sans-Serif" font-size="14.00">samples = 10</text>
<text text-anchor="start" x="325.5" y="-200.8" font-family="Helvetica,sans-Serif" font-size="14.00">value = [8, 2]</text>
</g>
<!-- 47&#45;&gt;65 -->
<g id="edge11" class="edge"><title>47&#45;&gt;65</title>
<path fill="none" stroke="black" d="M321.779,-296.884C327.2,-288.243 333.113,-278.819 338.777,-269.793"/>
<polygon fill="black" stroke="black" points="341.756,-271.63 344.106,-261.299 335.827,-267.91 341.756,-271.63"/>
</g>
<!-- 49 -->
<g id="node8" class="node"><title>49</title>
<path fill="#e58139" fill-opacity="0.180392" stroke="black" d="M152.5,-157C152.5,-157 65.5,-157 65.5,-157 59.5,-157 53.5,-151 53.5,-145 53.5,-145 53.5,-101 53.5,-101 53.5,-95 59.5,-89 65.5,-89 65.5,-89 152.5,-89 152.5,-89 158.5,-89 164.5,-95 164.5,-101 164.5,-101 164.5,-145 164.5,-145 164.5,-151 158.5,-157 152.5,-157"/>
<text text-anchor="start" x="72" y="-141.8" font-family="Helvetica,sans-Serif" font-size="14.00">A14 ≤ 120.0</text>
<text text-anchor="start" x="61.5" y="-126.8" font-family="Helvetica,sans-Serif" font-size="14.00">entropy = 0.993</text>
<text text-anchor="start" x="68" y="-111.8" font-family="Helvetica,sans-Serif" font-size="14.00">samples = 20</text>
<text text-anchor="start" x="66" y="-96.8" font-family="Helvetica,sans-Serif" font-size="14.00">value = [11, 9]</text>
</g>
<!-- 48&#45;&gt;49 -->
<g id="edge7" class="edge"><title>48&#45;&gt;49</title>
<path fill="none" stroke="black" d="M194.767,-192.884C183.122,-183.531 170.333,-173.259 158.266,-163.568"/>
<polygon fill="black" stroke="black" points="160.449,-160.832 150.461,-157.299 156.066,-166.29 160.449,-160.832"/>
</g>
<!-- 58 -->
<g id="node11" class="node"><title>58</title>
<path fill="#399de5" fill-opacity="0.882353" stroke="black" d="M281.5,-149.5C281.5,-149.5 194.5,-149.5 194.5,-149.5 188.5,-149.5 182.5,-143.5 182.5,-137.5 182.5,-137.5 182.5,-108.5 182.5,-108.5 182.5,-102.5 188.5,-96.5 194.5,-96.5 194.5,-96.5 281.5,-96.5 281.5,-96.5 287.5,-96.5 293.5,-102.5 293.5,-108.5 293.5,-108.5 293.5,-137.5 293.5,-137.5 293.5,-143.5 287.5,-149.5 281.5,-149.5"/>
<text text-anchor="start" x="190.5" y="-134.3" font-family="Helvetica,sans-Serif" font-size="14.00">entropy = 0.485</text>
<text text-anchor="start" x="197" y="-119.3" font-family="Helvetica,sans-Serif" font-size="14.00">samples = 19</text>
<text text-anchor="start" x="195" y="-104.3" font-family="Helvetica,sans-Serif" font-size="14.00">value = [2, 17]</text>
</g>
<!-- 48&#45;&gt;58 -->
<g id="edge10" class="edge"><title>48&#45;&gt;58</title>
<path fill="none" stroke="black" d="M236.649,-192.884C236.859,-182.216 237.091,-170.352 237.304,-159.519"/>
<polygon fill="black" stroke="black" points="240.803,-159.587 237.5,-149.52 233.804,-159.449 240.803,-159.587"/>
</g>
<!-- 50 -->
<g id="node9" class="node"><title>50</title>
<path fill="#e58139" stroke="black" d="M84,-53C84,-53 12,-53 12,-53 6,-53 0,-47 0,-41 0,-41 0,-12 0,-12 0,-6 6,-0 12,-0 12,-0 84,-0 84,-0 90,-0 96,-6 96,-12 96,-12 96,-41 96,-41 96,-47 90,-53 84,-53"/>
<text text-anchor="start" x="8" y="-37.8" font-family="Helvetica,sans-Serif" font-size="14.00">entropy = 0.0</text>
<text text-anchor="start" x="10.5" y="-22.8" font-family="Helvetica,sans-Serif" font-size="14.00">samples = 8</text>
<text text-anchor="start" x="8.5" y="-7.8" font-family="Helvetica,sans-Serif" font-size="14.00">value = [8, 0]</text>
</g>
<!-- 49&#45;&gt;50 -->
<g id="edge8" class="edge"><title>49&#45;&gt;50</title>
<path fill="none" stroke="black" d="M87.6652,-88.9485C81.9963,-80.1664 75.8618,-70.6629 70.1504,-61.815"/>
<polygon fill="black" stroke="black" points="72.977,-59.7402 64.6131,-53.2367 67.0959,-63.5365 72.977,-59.7402"/>
</g>
<!-- 51 -->
<g id="node10" class="node"><title>51</title>
<path fill="#399de5" fill-opacity="0.666667" stroke="black" d="M213.5,-53C213.5,-53 126.5,-53 126.5,-53 120.5,-53 114.5,-47 114.5,-41 114.5,-41 114.5,-12 114.5,-12 114.5,-6 120.5,-0 126.5,-0 126.5,-0 213.5,-0 213.5,-0 219.5,-0 225.5,-6 225.5,-12 225.5,-12 225.5,-41 225.5,-41 225.5,-47 219.5,-53 213.5,-53"/>
<text text-anchor="start" x="122.5" y="-37.8" font-family="Helvetica,sans-Serif" font-size="14.00">entropy = 0.811</text>
<text text-anchor="start" x="129" y="-22.8" font-family="Helvetica,sans-Serif" font-size="14.00">samples = 12</text>
<text text-anchor="start" x="130.5" y="-7.8" font-family="Helvetica,sans-Serif" font-size="14.00">value = [3, 9]</text>
</g>
<!-- 49&#45;&gt;51 -->
<g id="edge9" class="edge"><title>49&#45;&gt;51</title>
<path fill="none" stroke="black" d="M130.335,-88.9485C136.004,-80.1664 142.138,-70.6629 147.85,-61.815"/>
<polygon fill="black" stroke="black" points="150.904,-63.5365 153.387,-53.2367 145.023,-59.7402 150.904,-63.5365"/>
</g>
<!-- 66 -->
<g id="node13" class="node"><title>66</title>
<path fill="#e58139" stroke="black" d="M399,-149.5C399,-149.5 327,-149.5 327,-149.5 321,-149.5 315,-143.5 315,-137.5 315,-137.5 315,-108.5 315,-108.5 315,-102.5 321,-96.5 327,-96.5 327,-96.5 399,-96.5 399,-96.5 405,-96.5 411,-102.5 411,-108.5 411,-108.5 411,-137.5 411,-137.5 411,-143.5 405,-149.5 399,-149.5"/>
<text text-anchor="start" x="323" y="-134.3" font-family="Helvetica,sans-Serif" font-size="14.00">entropy = 0.0</text>
<text text-anchor="start" x="325.5" y="-119.3" font-family="Helvetica,sans-Serif" font-size="14.00">samples = 8</text>
<text text-anchor="start" x="323.5" y="-104.3" font-family="Helvetica,sans-Serif" font-size="14.00">value = [8, 0]</text>
</g>
<!-- 65&#45;&gt;66 -->
<g id="edge12" class="edge"><title>65&#45;&gt;66</title>
<path fill="none" stroke="black" d="M364.351,-192.884C364.141,-182.216 363.909,-170.352 363.696,-159.519"/>
<polygon fill="black" stroke="black" points="367.196,-159.449 363.5,-149.52 360.197,-159.587 367.196,-159.449"/>
</g>
<!-- 67 -->
<g id="node14" class="node"><title>67</title>
<path fill="#399de5" stroke="black" d="M513,-149.5C513,-149.5 441,-149.5 441,-149.5 435,-149.5 429,-143.5 429,-137.5 429,-137.5 429,-108.5 429,-108.5 429,-102.5 435,-96.5 441,-96.5 441,-96.5 513,-96.5 513,-96.5 519,-96.5 525,-102.5 525,-108.5 525,-108.5 525,-137.5 525,-137.5 525,-143.5 519,-149.5 513,-149.5"/>
<text text-anchor="start" x="437" y="-134.3" font-family="Helvetica,sans-Serif" font-size="14.00">entropy = 0.0</text>
<text text-anchor="start" x="439.5" y="-119.3" font-family="Helvetica,sans-Serif" font-size="14.00">samples = 2</text>
<text text-anchor="start" x="437.5" y="-104.3" font-family="Helvetica,sans-Serif" font-size="14.00">value = [0, 2]</text>
</g>
<!-- 65&#45;&gt;67 -->
<g id="edge13" class="edge"><title>65&#45;&gt;67</title>
<path fill="none" stroke="black" d="M401.363,-192.884C414.164,-181.226 428.532,-168.141 441.279,-156.532"/>
<polygon fill="black" stroke="black" points="443.941,-158.841 448.978,-149.52 439.228,-153.666 443.941,-158.841"/>
</g>
</g>
</svg>
