<?xml version="1.0" encoding="UTF-8" standalone="no"?>
<!DOCTYPE svg PUBLIC "-//W3C//DTD SVG 1.1//EN"
 "http://www.w3.org/Graphics/SVG/1.1/DTD/svg11.dtd">
<!-- Generated by graphviz version 2.38.0 (20140413.2041)
 -->
<!-- Title: Tree Pages: 1 -->
<svg width="464pt" height="373pt"
 viewBox="0.00 0.00 464.00 373.00" xmlns="http://www.w3.org/2000/svg" xmlns:xlink="http://www.w3.org/1999/xlink">
<g id="graph0" class="graph" transform="scale(1 1) rotate(0) translate(4 369)">
<title>Tree</title>
<polygon fill="white" stroke="none" points="-4,4 -4,-369 460,-369 460,4 -4,4"/>
<!-- 0 -->
<g id="node1" class="node"><title>0</title>
<path fill="#e58139" fill-opacity="0.313725" stroke="black" d="M334.5,-365C334.5,-365 245.5,-365 245.5,-365 239.5,-365 233.5,-359 233.5,-353 233.5,-353 233.5,-309 233.5,-309 233.5,-303 239.5,-297 245.5,-297 245.5,-297 334.5,-297 334.5,-297 340.5,-297 346.5,-303 346.5,-309 346.5,-309 346.5,-353 346.5,-353 346.5,-359 340.5,-365 334.5,-365"/>
<text text-anchor="start" x="241.5" y="-349.8" font-family="Helvetica,sans-Serif" font-size="14.00">LSTAT ≤ &#45;0.614</text>
<text text-anchor="start" x="259.5" y="-334.8" font-family="Helvetica,sans-Serif" font-size="14.00">mse = 1.0</text>
<text text-anchor="start" x="245" y="-319.8" font-family="Helvetica,sans-Serif" font-size="14.00">samples = 379</text>
<text text-anchor="start" x="254" y="-304.8" font-family="Helvetica,sans-Serif" font-size="14.00">value = &#45;0.0</text>
</g>
<!-- 1 -->
<g id="node2" class="node"><title>1</title>
<path fill="#e58139" fill-opacity="0.560784" stroke="black" d="M269,-261C269,-261 187,-261 187,-261 181,-261 175,-255 175,-249 175,-249 175,-205 175,-205 175,-199 181,-193 187,-193 187,-193 269,-193 269,-193 275,-193 281,-199 281,-205 281,-205 281,-249 281,-249 281,-255 275,-261 269,-261"/>
<text text-anchor="start" x="192" y="-245.8" font-family="Helvetica,sans-Serif" font-size="14.00">RM ≤ 1.621</text>
<text text-anchor="start" x="190" y="-230.8" font-family="Helvetica,sans-Serif" font-size="14.00">mse = 0.886</text>
<text text-anchor="start" x="183" y="-215.8" font-family="Helvetica,sans-Serif" font-size="14.00">samples = 135</text>
<text text-anchor="start" x="187" y="-200.8" font-family="Helvetica,sans-Serif" font-size="14.00">value = 0.926</text>
</g>
<!-- 0&#45;&gt;1 -->
<g id="edge1" class="edge"><title>0&#45;&gt;1</title>
<path fill="none" stroke="black" d="M269.87,-296.884C264.673,-288.332 259.008,-279.013 253.573,-270.072"/>
<polygon fill="black" stroke="black" points="256.426,-268.027 248.241,-261.299 250.444,-271.663 256.426,-268.027"/>
<text text-anchor="middle" x="242.317" y="-281.887" font-family="Helvetica,sans-Serif" font-size="14.00">True</text>
</g>
<!-- 8 -->
<g id="node9" class="node"><title>8</title>
<path fill="#e58139" fill-opacity="0.172549" stroke="black" d="M393,-253.5C393,-253.5 311,-253.5 311,-253.5 305,-253.5 299,-247.5 299,-241.5 299,-241.5 299,-212.5 299,-212.5 299,-206.5 305,-200.5 311,-200.5 311,-200.5 393,-200.5 393,-200.5 399,-200.5 405,-206.5 405,-212.5 405,-212.5 405,-241.5 405,-241.5 405,-247.5 399,-253.5 393,-253.5"/>
<text text-anchor="start" x="314" y="-238.3" font-family="Helvetica,sans-Serif" font-size="14.00">mse = 0.327</text>
<text text-anchor="start" x="307" y="-223.3" font-family="Helvetica,sans-Serif" font-size="14.00">samples = 244</text>
<text text-anchor="start" x="308.5" y="-208.3" font-family="Helvetica,sans-Serif" font-size="14.00">value = &#45;0.512</text>
</g>
<!-- 0&#45;&gt;8 -->
<g id="edge8" class="edge"><title>0&#45;&gt;8</title>
<path fill="none" stroke="black" d="M310.13,-296.884C316.881,-285.776 324.421,-273.372 331.222,-262.184"/>
<polygon fill="black" stroke="black" points="334.285,-263.883 336.488,-253.52 328.303,-260.247 334.285,-263.883"/>
<text text-anchor="middle" x="342.412" y="-274.108" font-family="Helvetica,sans-Serif" font-size="14.00">False</text>
</g>
<!-- 2 -->
<g id="node3" class="node"><title>2</title>
<path fill="#e58139" fill-opacity="0.478431" stroke="black" d="M201,-157C201,-157 119,-157 119,-157 113,-157 107,-151 107,-145 107,-145 107,-101 107,-101 107,-95 113,-89 119,-89 119,-89 201,-89 201,-89 207,-89 213,-95 213,-101 213,-101 213,-145 213,-145 213,-151 207,-157 201,-157"/>
<text text-anchor="start" x="124" y="-141.8" font-family="Helvetica,sans-Serif" font-size="14.00">RM ≤ 0.497</text>
<text text-anchor="start" x="122" y="-126.8" font-family="Helvetica,sans-Serif" font-size="14.00">mse = 0.434</text>
<text text-anchor="start" x="115" y="-111.8" font-family="Helvetica,sans-Serif" font-size="14.00">samples = 112</text>
<text text-anchor="start" x="119" y="-96.8" font-family="Helvetica,sans-Serif" font-size="14.00">value = 0.624</text>
</g>
<!-- 1&#45;&gt;2 -->
<g id="edge2" class="edge"><title>1&#45;&gt;2</title>
<path fill="none" stroke="black" d="M205.922,-192.884C200.162,-184.243 193.879,-174.819 187.862,-165.793"/>
<polygon fill="black" stroke="black" points="190.659,-163.678 182.2,-157.299 184.834,-167.561 190.659,-163.678"/>
</g>
<!-- 5 -->
<g id="node6" class="node"><title>5</title>
<path fill="#e58139" fill-opacity="0.956863" stroke="black" d="M349,-157C349,-157 243,-157 243,-157 237,-157 231,-151 231,-145 231,-145 231,-101 231,-101 231,-95 237,-89 243,-89 243,-89 349,-89 349,-89 355,-89 361,-95 361,-101 361,-101 361,-145 361,-145 361,-151 355,-157 349,-157"/>
<text text-anchor="start" x="239" y="-141.8" font-family="Helvetica,sans-Serif" font-size="14.00">PTRATIO ≤ &#45;0.087</text>
<text text-anchor="start" x="258" y="-126.8" font-family="Helvetica,sans-Serif" font-size="14.00">mse = 0.493</text>
<text text-anchor="start" x="255" y="-111.8" font-family="Helvetica,sans-Serif" font-size="14.00">samples = 23</text>
<text text-anchor="start" x="255" y="-96.8" font-family="Helvetica,sans-Serif" font-size="14.00">value = 2.393</text>
</g>
<!-- 1&#45;&gt;5 -->
<g id="edge5" class="edge"><title>1&#45;&gt;5</title>
<path fill="none" stroke="black" d="M250.078,-192.884C255.838,-184.243 262.121,-174.819 268.138,-165.793"/>
<polygon fill="black" stroke="black" points="271.166,-167.561 273.8,-157.299 265.341,-163.678 271.166,-167.561"/>
</g>
<!-- 3 -->
<g id="node4" class="node"><title>3</title>
<path fill="#e58139" fill-opacity="0.372549" stroke="black" d="M86,-53C86,-53 12,-53 12,-53 6,-53 7.10543e-15,-47 7.10543e-15,-41 7.10543e-15,-41 7.10543e-15,-12 7.10543e-15,-12 7.10543e-15,-6 6,-0 12,-0 12,-0 86,-0 86,-0 92,-0 98,-6 98,-12 98,-12 98,-41 98,-41 98,-47 92,-53 86,-53"/>
<text text-anchor="start" x="11" y="-37.8" font-family="Helvetica,sans-Serif" font-size="14.00">mse = 0.215</text>
<text text-anchor="start" x="8" y="-22.8" font-family="Helvetica,sans-Serif" font-size="14.00">samples = 58</text>
<text text-anchor="start" x="8" y="-7.8" font-family="Helvetica,sans-Serif" font-size="14.00">value = 0.231</text>
</g>
<!-- 2&#45;&gt;3 -->
<g id="edge3" class="edge"><title>2&#45;&gt;3</title>
<path fill="none" stroke="black" d="M121.178,-88.9485C110.11,-79.526 98.0669,-69.2731 87.046,-59.8906"/>
<polygon fill="black" stroke="black" points="89.1136,-57.0542 79.2304,-53.2367 84.5759,-62.3842 89.1136,-57.0542"/>
</g>
<!-- 4 -->
<g id="node5" class="node"><title>4</title>
<path fill="#e58139" fill-opacity="0.592157" stroke="black" d="M202,-53C202,-53 128,-53 128,-53 122,-53 116,-47 116,-41 116,-41 116,-12 116,-12 116,-6 122,-0 128,-0 128,-0 202,-0 202,-0 208,-0 214,-6 214,-12 214,-12 214,-41 214,-41 214,-47 208,-53 202,-53"/>
<text text-anchor="start" x="127" y="-37.8" font-family="Helvetica,sans-Serif" font-size="14.00">mse = 0.325</text>
<text text-anchor="start" x="124" y="-22.8" font-family="Helvetica,sans-Serif" font-size="14.00">samples = 54</text>
<text text-anchor="start" x="124" y="-7.8" font-family="Helvetica,sans-Serif" font-size="14.00">value = 1.047</text>
</g>
<!-- 2&#45;&gt;4 -->
<g id="edge4" class="edge"><title>2&#45;&gt;4</title>
<path fill="none" stroke="black" d="M161.749,-88.9485C162.184,-80.7153 162.654,-71.848 163.096,-63.4814"/>
<polygon fill="black" stroke="black" points="166.605,-63.4077 163.638,-53.2367 159.615,-63.0378 166.605,-63.4077"/>
</g>
<!-- 6 -->
<g id="node7" class="node"><title>6</title>
<path fill="#e58139" stroke="black" d="M328,-53C328,-53 254,-53 254,-53 248,-53 242,-47 242,-41 242,-41 242,-12 242,-12 242,-6 248,-0 254,-0 254,-0 328,-0 328,-0 334,-0 340,-6 340,-12 340,-12 340,-41 340,-41 340,-47 334,-53 328,-53"/>
<text text-anchor="start" x="253" y="-37.8" font-family="Helvetica,sans-Serif" font-size="14.00">mse = 0.171</text>
<text text-anchor="start" x="250" y="-22.8" font-family="Helvetica,sans-Serif" font-size="14.00">samples = 21</text>
<text text-anchor="start" x="250" y="-7.8" font-family="Helvetica,sans-Serif" font-size="14.00">value = 2.559</text>
</g>
<!-- 5&#45;&gt;6 -->
<g id="edge6" class="edge"><title>5&#45;&gt;6</title>
<path fill="none" stroke="black" d="M294.251,-88.9485C293.816,-80.7153 293.346,-71.848 292.904,-63.4814"/>
<polygon fill="black" stroke="black" points="296.385,-63.0378 292.362,-53.2367 289.395,-63.4077 296.385,-63.0378"/>
</g>
<!-- 7 -->
<g id="node8" class="node"><title>7</title>
<path fill="#e58139" fill-opacity="0.486275" stroke="black" d="M444,-53C444,-53 370,-53 370,-53 364,-53 358,-47 358,-41 358,-41 358,-12 358,-12 358,-6 364,-0 370,-0 370,-0 444,-0 444,-0 450,-0 456,-6 456,-12 456,-12 456,-41 456,-41 456,-47 450,-53 444,-53"/>
<text text-anchor="start" x="369" y="-37.8" font-family="Helvetica,sans-Serif" font-size="14.00">mse = 0.518</text>
<text text-anchor="start" x="369.5" y="-22.8" font-family="Helvetica,sans-Serif" font-size="14.00">samples = 2</text>
<text text-anchor="start" x="366" y="-7.8" font-family="Helvetica,sans-Serif" font-size="14.00">value = 0.643</text>
</g>
<!-- 5&#45;&gt;7 -->
<g id="edge7" class="edge"><title>5&#45;&gt;7</title>
<path fill="none" stroke="black" d="M334.822,-88.9485C345.89,-79.526 357.933,-69.2731 368.954,-59.8906"/>
<polygon fill="black" stroke="black" points="371.424,-62.3842 376.77,-53.2367 366.886,-57.0542 371.424,-62.3842"/>
</g>
</g>
</svg>
